<?xml version="1.0" encoding="utf-8" standalone="no"?>
<!DOCTYPE svg PUBLIC "-//W3C//DTD SVG 1.1//EN"
  "http://www.w3.org/Graphics/SVG/1.1/DTD/svg11.dtd">
<!-- Created with matplotlib (http://matplotlib.org/) -->
<svg height="695.52pt" version="1.1" viewBox="0 0 900 695.52" width="900pt" xmlns="http://www.w3.org/2000/svg" xmlns:xlink="http://www.w3.org/1999/xlink">
 <defs>
  <style type="text/css">
*{stroke-linecap:butt;stroke-linejoin:round;}
  </style>
 </defs>
 <g id="figure_1">
  <g id="patch_1">
   <path d="M 0 695.52 
L 900 695.52 
L 900 0 
L 0 0 
z
" style="fill:#ffffff;"/>
  </g>
  <g id="axes_1">
   <g id="patch_2">
    <path d="M 112.5 619.0128 
L 810 619.0128 
L 810 83.4624 
L 112.5 83.4624 
z
" style="fill:#eaeaf2;"/>
   </g>
   <g id="matplotlib.axis_1">
    <g id="xtick_1">
     <g id="line2d_1">
      <path clip-path="url(#p824524b32a)" d="M 112.5 619.0128 
L 112.5 83.4624 
" style="fill:none;stroke:#ffffff;stroke-dasharray:7.4,3.2;stroke-dashoffset:0;stroke-width:2;"/>
     </g>
     <g id="text_1">
      <!-- 0 -->
      <defs>
       <path d="M 31.78125 66.40625 
Q 24.171875 66.40625 20.328125 58.90625 
Q 16.5 51.421875 16.5 36.375 
Q 16.5 21.390625 20.328125 13.890625 
Q 24.171875 6.390625 31.78125 6.390625 
Q 39.453125 6.390625 43.28125 13.890625 
Q 47.125 21.390625 47.125 36.375 
Q 47.125 51.421875 43.28125 58.90625 
Q 39.453125 66.40625 31.78125 66.40625 
z
M 31.78125 74.21875 
Q 44.046875 74.21875 50.515625 64.515625 
Q 56.984375 54.828125 56.984375 36.375 
Q 56.984375 17.96875 50.515625 8.265625 
Q 44.046875 -1.421875 31.78125 -1.421875 
Q 19.53125 -1.421875 13.0625 8.265625 
Q 6.59375 17.96875 6.59375 36.375 
Q 6.59375 54.828125 13.0625 64.515625 
Q 19.53125 74.21875 31.78125 74.21875 
z
" id="DejaVuSans-30"/>
      </defs>
      <g style="fill:#262626;" transform="translate(105.50125 651.229362)scale(0.22 -0.22)">
       <use xlink:href="#DejaVuSans-30"/>
      </g>
     </g>
    </g>
    <g id="xtick_2">
     <g id="line2d_2">
      <path clip-path="url(#p824524b32a)" d="M 199.6875 619.0128 
L 199.6875 83.4624 
" style="fill:none;stroke:#ffffff;stroke-dasharray:7.4,3.2;stroke-dashoffset:0;stroke-width:2;"/>
     </g>
     <g id="text_2">
      <!-- 25 -->
      <defs>
       <path d="M 19.1875 8.296875 
L 53.609375 8.296875 
L 53.609375 0 
L 7.328125 0 
L 7.328125 8.296875 
Q 12.9375 14.109375 22.625 23.890625 
Q 32.328125 33.6875 34.8125 36.53125 
Q 39.546875 41.84375 41.421875 45.53125 
Q 43.3125 49.21875 43.3125 52.78125 
Q 43.3125 58.59375 39.234375 62.25 
Q 35.15625 65.921875 28.609375 65.921875 
Q 23.96875 65.921875 18.8125 64.3125 
Q 13.671875 62.703125 7.8125 59.421875 
L 7.8125 69.390625 
Q 13.765625 71.78125 18.9375 73 
Q 24.125 74.21875 28.421875 74.21875 
Q 39.75 74.21875 46.484375 68.546875 
Q 53.21875 62.890625 53.21875 53.421875 
Q 53.21875 48.921875 51.53125 44.890625 
Q 49.859375 40.875 45.40625 35.40625 
Q 44.1875 33.984375 37.640625 27.21875 
Q 31.109375 20.453125 19.1875 8.296875 
z
" id="DejaVuSans-32"/>
       <path d="M 10.796875 72.90625 
L 49.515625 72.90625 
L 49.515625 64.59375 
L 19.828125 64.59375 
L 19.828125 46.734375 
Q 21.96875 47.46875 24.109375 47.828125 
Q 26.265625 48.1875 28.421875 48.1875 
Q 40.625 48.1875 47.75 41.5 
Q 54.890625 34.8125 54.890625 23.390625 
Q 54.890625 11.625 47.5625 5.09375 
Q 40.234375 -1.421875 26.90625 -1.421875 
Q 22.3125 -1.421875 17.546875 -0.640625 
Q 12.796875 0.140625 7.71875 1.703125 
L 7.71875 11.625 
Q 12.109375 9.234375 16.796875 8.0625 
Q 21.484375 6.890625 26.703125 6.890625 
Q 35.15625 6.890625 40.078125 11.328125 
Q 45.015625 15.765625 45.015625 23.390625 
Q 45.015625 31 40.078125 35.4375 
Q 35.15625 39.890625 26.703125 39.890625 
Q 22.75 39.890625 18.8125 39.015625 
Q 14.890625 38.140625 10.796875 36.28125 
z
" id="DejaVuSans-35"/>
      </defs>
      <g style="fill:#262626;" transform="translate(185.69 651.229362)scale(0.22 -0.22)">
       <use xlink:href="#DejaVuSans-32"/>
       <use x="63.623047" xlink:href="#DejaVuSans-35"/>
      </g>
     </g>
    </g>
    <g id="xtick_3">
     <g id="line2d_3">
      <path clip-path="url(#p824524b32a)" d="M 286.875 619.0128 
L 286.875 83.4624 
" style="fill:none;stroke:#ffffff;stroke-dasharray:7.4,3.2;stroke-dashoffset:0;stroke-width:2;"/>
     </g>
     <g id="text_3">
      <!-- 50 -->
      <g style="fill:#262626;" transform="translate(272.8775 651.229362)scale(0.22 -0.22)">
       <use xlink:href="#DejaVuSans-35"/>
       <use x="63.623047" xlink:href="#DejaVuSans-30"/>
      </g>
     </g>
    </g>
    <g id="xtick_4">
     <g id="line2d_4">
      <path clip-path="url(#p824524b32a)" d="M 374.0625 619.0128 
L 374.0625 83.4624 
" style="fill:none;stroke:#ffffff;stroke-dasharray:7.4,3.2;stroke-dashoffset:0;stroke-width:2;"/>
     </g>
     <g id="text_4">
      <!-- 75 -->
      <defs>
       <path d="M 8.203125 72.90625 
L 55.078125 72.90625 
L 55.078125 68.703125 
L 28.609375 0 
L 18.3125 0 
L 43.21875 64.59375 
L 8.203125 64.59375 
z
" id="DejaVuSans-37"/>
      </defs>
      <g style="fill:#262626;" transform="translate(360.065 651.229362)scale(0.22 -0.22)">
       <use xlink:href="#DejaVuSans-37"/>
       <use x="63.623047" xlink:href="#DejaVuSans-35"/>
      </g>
     </g>
    </g>
    <g id="xtick_5">
     <g id="line2d_5">
      <path clip-path="url(#p824524b32a)" d="M 461.25 619.0128 
L 461.25 83.4624 
" style="fill:none;stroke:#ffffff;stroke-dasharray:7.4,3.2;stroke-dashoffset:0;stroke-width:2;"/>
     </g>
     <g id="text_5">
      <!-- 100 -->
      <defs>
       <path d="M 12.40625 8.296875 
L 28.515625 8.296875 
L 28.515625 63.921875 
L 10.984375 60.40625 
L 10.984375 69.390625 
L 28.421875 72.90625 
L 38.28125 72.90625 
L 38.28125 8.296875 
L 54.390625 8.296875 
L 54.390625 0 
L 12.40625 0 
z
" id="DejaVuSans-31"/>
      </defs>
      <g style="fill:#262626;" transform="translate(440.25375 651.229362)scale(0.22 -0.22)">
       <use xlink:href="#DejaVuSans-31"/>
       <use x="63.623047" xlink:href="#DejaVuSans-30"/>
       <use x="127.246094" xlink:href="#DejaVuSans-30"/>
      </g>
     </g>
    </g>
    <g id="xtick_6">
     <g id="line2d_6">
      <path clip-path="url(#p824524b32a)" d="M 548.4375 619.0128 
L 548.4375 83.4624 
" style="fill:none;stroke:#ffffff;stroke-dasharray:7.4,3.2;stroke-dashoffset:0;stroke-width:2;"/>
     </g>
     <g id="text_6">
      <!-- 125 -->
      <g style="fill:#262626;" transform="translate(527.44125 651.229362)scale(0.22 -0.22)">
       <use xlink:href="#DejaVuSans-31"/>
       <use x="63.623047" xlink:href="#DejaVuSans-32"/>
       <use x="127.246094" xlink:href="#DejaVuSans-35"/>
      </g>
     </g>
    </g>
    <g id="xtick_7">
     <g id="line2d_7">
      <path clip-path="url(#p824524b32a)" d="M 635.625 619.0128 
L 635.625 83.4624 
" style="fill:none;stroke:#ffffff;stroke-dasharray:7.4,3.2;stroke-dashoffset:0;stroke-width:2;"/>
     </g>
     <g id="text_7">
      <!-- 150 -->
      <g style="fill:#262626;" transform="translate(614.62875 651.229362)scale(0.22 -0.22)">
       <use xlink:href="#DejaVuSans-31"/>
       <use x="63.623047" xlink:href="#DejaVuSans-35"/>
       <use x="127.246094" xlink:href="#DejaVuSans-30"/>
      </g>
     </g>
    </g>
    <g id="xtick_8">
     <g id="line2d_8">
      <path clip-path="url(#p824524b32a)" d="M 722.8125 619.0128 
L 722.8125 83.4624 
" style="fill:none;stroke:#ffffff;stroke-dasharray:7.4,3.2;stroke-dashoffset:0;stroke-width:2;"/>
     </g>
     <g id="text_8">
      <!-- 175 -->
      <g style="fill:#262626;" transform="translate(701.81625 651.229362)scale(0.22 -0.22)">
       <use xlink:href="#DejaVuSans-31"/>
       <use x="63.623047" xlink:href="#DejaVuSans-37"/>
       <use x="127.246094" xlink:href="#DejaVuSans-35"/>
      </g>
     </g>
    </g>
    <g id="xtick_9">
     <g id="line2d_9">
      <path clip-path="url(#p824524b32a)" d="M 810 619.0128 
L 810 83.4624 
" style="fill:none;stroke:#ffffff;stroke-dasharray:7.4,3.2;stroke-dashoffset:0;stroke-width:2;"/>
     </g>
     <g id="text_9">
      <!-- 200 -->
      <g style="fill:#262626;" transform="translate(789.00375 651.229362)scale(0.22 -0.22)">
       <use xlink:href="#DejaVuSans-32"/>
       <use x="63.623047" xlink:href="#DejaVuSans-30"/>
       <use x="127.246094" xlink:href="#DejaVuSans-30"/>
      </g>
     </g>
    </g>
    <g id="text_10">
     <!-- time -->
     <defs>
      <path d="M 18.3125 70.21875 
L 18.3125 54.6875 
L 36.8125 54.6875 
L 36.8125 47.703125 
L 18.3125 47.703125 
L 18.3125 18.015625 
Q 18.3125 11.328125 20.140625 9.421875 
Q 21.96875 7.515625 27.59375 7.515625 
L 36.8125 7.515625 
L 36.8125 0 
L 27.59375 0 
Q 17.1875 0 13.234375 3.875 
Q 9.28125 7.765625 9.28125 18.015625 
L 9.28125 47.703125 
L 2.6875 47.703125 
L 2.6875 54.6875 
L 9.28125 54.6875 
L 9.28125 70.21875 
z
" id="DejaVuSans-74"/>
      <path d="M 9.421875 54.6875 
L 18.40625 54.6875 
L 18.40625 0 
L 9.421875 0 
z
M 9.421875 75.984375 
L 18.40625 75.984375 
L 18.40625 64.59375 
L 9.421875 64.59375 
z
" id="DejaVuSans-69"/>
      <path d="M 52 44.1875 
Q 55.375 50.25 60.0625 53.125 
Q 64.75 56 71.09375 56 
Q 79.640625 56 84.28125 50.015625 
Q 88.921875 44.046875 88.921875 33.015625 
L 88.921875 0 
L 79.890625 0 
L 79.890625 32.71875 
Q 79.890625 40.578125 77.09375 44.375 
Q 74.3125 48.1875 68.609375 48.1875 
Q 61.625 48.1875 57.5625 43.546875 
Q 53.515625 38.921875 53.515625 30.90625 
L 53.515625 0 
L 44.484375 0 
L 44.484375 32.71875 
Q 44.484375 40.625 41.703125 44.40625 
Q 38.921875 48.1875 33.109375 48.1875 
Q 26.21875 48.1875 22.15625 43.53125 
Q 18.109375 38.875 18.109375 30.90625 
L 18.109375 0 
L 9.078125 0 
L 9.078125 54.6875 
L 18.109375 54.6875 
L 18.109375 46.1875 
Q 21.1875 51.21875 25.484375 53.609375 
Q 29.78125 56 35.6875 56 
Q 41.65625 56 45.828125 52.96875 
Q 50 49.953125 52 44.1875 
z
" id="DejaVuSans-6d"/>
      <path d="M 56.203125 29.59375 
L 56.203125 25.203125 
L 14.890625 25.203125 
Q 15.484375 15.921875 20.484375 11.0625 
Q 25.484375 6.203125 34.421875 6.203125 
Q 39.59375 6.203125 44.453125 7.46875 
Q 49.3125 8.734375 54.109375 11.28125 
L 54.109375 2.78125 
Q 49.265625 0.734375 44.1875 -0.34375 
Q 39.109375 -1.421875 33.890625 -1.421875 
Q 20.796875 -1.421875 13.15625 6.1875 
Q 5.515625 13.8125 5.515625 26.8125 
Q 5.515625 40.234375 12.765625 48.109375 
Q 20.015625 56 32.328125 56 
Q 43.359375 56 49.78125 48.890625 
Q 56.203125 41.796875 56.203125 29.59375 
z
M 47.21875 32.234375 
Q 47.125 39.59375 43.09375 43.984375 
Q 39.0625 48.390625 32.421875 48.390625 
Q 24.90625 48.390625 20.390625 44.140625 
Q 15.875 39.890625 15.1875 32.171875 
z
" id="DejaVuSans-65"/>
     </defs>
     <g style="fill:#262626;" transform="translate(434.139375 678.040925)scale(0.24 -0.24)">
      <use xlink:href="#DejaVuSans-74"/>
      <use x="39.208984" xlink:href="#DejaVuSans-69"/>
      <use x="66.992188" xlink:href="#DejaVuSans-6d"/>
      <use x="164.404297" xlink:href="#DejaVuSans-65"/>
     </g>
    </g>
   </g>
   <g id="matplotlib.axis_2">
    <g id="ytick_1">
     <g id="line2d_10">
      <path clip-path="url(#p824524b32a)" d="M 112.5 619.0128 
L 810 619.0128 
" style="fill:none;stroke:#ffffff;stroke-dasharray:7.4,3.2;stroke-dashoffset:0;stroke-width:2;"/>
     </g>
     <g id="text_11">
      <!-- −1.5 -->
      <defs>
       <path d="M 10.59375 35.5 
L 73.1875 35.5 
L 73.1875 27.203125 
L 10.59375 27.203125 
z
" id="DejaVuSans-2212"/>
       <path d="M 10.6875 12.40625 
L 21 12.40625 
L 21 0 
L 10.6875 0 
z
" id="DejaVuSans-2e"/>
      </defs>
      <g style="fill:#262626;" transform="translate(43.577813 627.371081)scale(0.22 -0.22)">
       <use xlink:href="#DejaVuSans-2212"/>
       <use x="83.789062" xlink:href="#DejaVuSans-31"/>
       <use x="147.412109" xlink:href="#DejaVuSans-2e"/>
       <use x="179.199219" xlink:href="#DejaVuSans-35"/>
      </g>
     </g>
    </g>
    <g id="ytick_2">
     <g id="line2d_11">
      <path clip-path="url(#p824524b32a)" d="M 112.5 521.64 
L 810 521.64 
" style="fill:none;stroke:#ffffff;stroke-dasharray:7.4,3.2;stroke-dashoffset:0;stroke-width:2;"/>
     </g>
     <g id="text_12">
      <!-- −0.5 -->
      <g style="fill:#262626;" transform="translate(43.577813 529.998281)scale(0.22 -0.22)">
       <use xlink:href="#DejaVuSans-2212"/>
       <use x="83.789062" xlink:href="#DejaVuSans-30"/>
       <use x="147.412109" xlink:href="#DejaVuSans-2e"/>
       <use x="179.199219" xlink:href="#DejaVuSans-35"/>
      </g>
     </g>
    </g>
    <g id="ytick_3">
     <g id="line2d_12">
      <path clip-path="url(#p824524b32a)" d="M 112.5 424.2672 
L 810 424.2672 
" style="fill:none;stroke:#ffffff;stroke-dasharray:7.4,3.2;stroke-dashoffset:0;stroke-width:2;"/>
     </g>
     <g id="text_13">
      <!-- 0.5 -->
      <g style="fill:#262626;" transform="translate(62.013125 432.625481)scale(0.22 -0.22)">
       <use xlink:href="#DejaVuSans-30"/>
       <use x="63.623047" xlink:href="#DejaVuSans-2e"/>
       <use x="95.410156" xlink:href="#DejaVuSans-35"/>
      </g>
     </g>
    </g>
    <g id="ytick_4">
     <g id="line2d_13">
      <path clip-path="url(#p824524b32a)" d="M 112.5 326.8944 
L 810 326.8944 
" style="fill:none;stroke:#ffffff;stroke-dasharray:7.4,3.2;stroke-dashoffset:0;stroke-width:2;"/>
     </g>
     <g id="text_14">
      <!-- 1.5 -->
      <g style="fill:#262626;" transform="translate(62.013125 335.252681)scale(0.22 -0.22)">
       <use xlink:href="#DejaVuSans-31"/>
       <use x="63.623047" xlink:href="#DejaVuSans-2e"/>
       <use x="95.410156" xlink:href="#DejaVuSans-35"/>
      </g>
     </g>
    </g>
    <g id="ytick_5">
     <g id="line2d_14">
      <path clip-path="url(#p824524b32a)" d="M 112.5 229.5216 
L 810 229.5216 
" style="fill:none;stroke:#ffffff;stroke-dasharray:7.4,3.2;stroke-dashoffset:0;stroke-width:2;"/>
     </g>
     <g id="text_15">
      <!-- 2.5 -->
      <g style="fill:#262626;" transform="translate(62.013125 237.879881)scale(0.22 -0.22)">
       <use xlink:href="#DejaVuSans-32"/>
       <use x="63.623047" xlink:href="#DejaVuSans-2e"/>
       <use x="95.410156" xlink:href="#DejaVuSans-35"/>
      </g>
     </g>
    </g>
    <g id="ytick_6">
     <g id="line2d_15">
      <path clip-path="url(#p824524b32a)" d="M 112.5 132.1488 
L 810 132.1488 
" style="fill:none;stroke:#ffffff;stroke-dasharray:7.4,3.2;stroke-dashoffset:0;stroke-width:2;"/>
     </g>
     <g id="text_16">
      <!-- 3.5 -->
      <defs>
       <path d="M 40.578125 39.3125 
Q 47.65625 37.796875 51.625 33 
Q 55.609375 28.21875 55.609375 21.1875 
Q 55.609375 10.40625 48.1875 4.484375 
Q 40.765625 -1.421875 27.09375 -1.421875 
Q 22.515625 -1.421875 17.65625 -0.515625 
Q 12.796875 0.390625 7.625 2.203125 
L 7.625 11.71875 
Q 11.71875 9.328125 16.59375 8.109375 
Q 21.484375 6.890625 26.8125 6.890625 
Q 36.078125 6.890625 40.9375 10.546875 
Q 45.796875 14.203125 45.796875 21.1875 
Q 45.796875 27.640625 41.28125 31.265625 
Q 36.765625 34.90625 28.71875 34.90625 
L 20.21875 34.90625 
L 20.21875 43.015625 
L 29.109375 43.015625 
Q 36.375 43.015625 40.234375 45.921875 
Q 44.09375 48.828125 44.09375 54.296875 
Q 44.09375 59.90625 40.109375 62.90625 
Q 36.140625 65.921875 28.71875 65.921875 
Q 24.65625 65.921875 20.015625 65.03125 
Q 15.375 64.15625 9.8125 62.3125 
L 9.8125 71.09375 
Q 15.4375 72.65625 20.34375 73.4375 
Q 25.25 74.21875 29.59375 74.21875 
Q 40.828125 74.21875 47.359375 69.109375 
Q 53.90625 64.015625 53.90625 55.328125 
Q 53.90625 49.265625 50.4375 45.09375 
Q 46.96875 40.921875 40.578125 39.3125 
z
" id="DejaVuSans-33"/>
      </defs>
      <g style="fill:#262626;" transform="translate(62.013125 140.507081)scale(0.22 -0.22)">
       <use xlink:href="#DejaVuSans-33"/>
       <use x="63.623047" xlink:href="#DejaVuSans-2e"/>
       <use x="95.410156" xlink:href="#DejaVuSans-35"/>
      </g>
     </g>
    </g>
    <g id="text_17">
     <!-- velocity -->
     <defs>
      <path d="M 2.984375 54.6875 
L 12.5 54.6875 
L 29.59375 8.796875 
L 46.6875 54.6875 
L 56.203125 54.6875 
L 35.6875 0 
L 23.484375 0 
z
" id="DejaVuSans-76"/>
      <path d="M 9.421875 75.984375 
L 18.40625 75.984375 
L 18.40625 0 
L 9.421875 0 
z
" id="DejaVuSans-6c"/>
      <path d="M 30.609375 48.390625 
Q 23.390625 48.390625 19.1875 42.75 
Q 14.984375 37.109375 14.984375 27.296875 
Q 14.984375 17.484375 19.15625 11.84375 
Q 23.34375 6.203125 30.609375 6.203125 
Q 37.796875 6.203125 41.984375 11.859375 
Q 46.1875 17.53125 46.1875 27.296875 
Q 46.1875 37.015625 41.984375 42.703125 
Q 37.796875 48.390625 30.609375 48.390625 
z
M 30.609375 56 
Q 42.328125 56 49.015625 48.375 
Q 55.71875 40.765625 55.71875 27.296875 
Q 55.71875 13.875 49.015625 6.21875 
Q 42.328125 -1.421875 30.609375 -1.421875 
Q 18.84375 -1.421875 12.171875 6.21875 
Q 5.515625 13.875 5.515625 27.296875 
Q 5.515625 40.765625 12.171875 48.375 
Q 18.84375 56 30.609375 56 
z
" id="DejaVuSans-6f"/>
      <path d="M 48.78125 52.59375 
L 48.78125 44.1875 
Q 44.96875 46.296875 41.140625 47.34375 
Q 37.3125 48.390625 33.40625 48.390625 
Q 24.65625 48.390625 19.8125 42.84375 
Q 14.984375 37.3125 14.984375 27.296875 
Q 14.984375 17.28125 19.8125 11.734375 
Q 24.65625 6.203125 33.40625 6.203125 
Q 37.3125 6.203125 41.140625 7.25 
Q 44.96875 8.296875 48.78125 10.40625 
L 48.78125 2.09375 
Q 45.015625 0.34375 40.984375 -0.53125 
Q 36.96875 -1.421875 32.421875 -1.421875 
Q 20.0625 -1.421875 12.78125 6.34375 
Q 5.515625 14.109375 5.515625 27.296875 
Q 5.515625 40.671875 12.859375 48.328125 
Q 20.21875 56 33.015625 56 
Q 37.15625 56 41.109375 55.140625 
Q 45.0625 54.296875 48.78125 52.59375 
z
" id="DejaVuSans-63"/>
      <path d="M 32.171875 -5.078125 
Q 28.375 -14.84375 24.75 -17.8125 
Q 21.140625 -20.796875 15.09375 -20.796875 
L 7.90625 -20.796875 
L 7.90625 -13.28125 
L 13.1875 -13.28125 
Q 16.890625 -13.28125 18.9375 -11.515625 
Q 21 -9.765625 23.484375 -3.21875 
L 25.09375 0.875 
L 2.984375 54.6875 
L 12.5 54.6875 
L 29.59375 11.921875 
L 46.6875 54.6875 
L 56.203125 54.6875 
z
" id="DejaVuSans-79"/>
     </defs>
     <g style="fill:#262626;" transform="translate(34.586562 398.13885)rotate(-90)scale(0.24 -0.24)">
      <use xlink:href="#DejaVuSans-76"/>
      <use x="59.179688" xlink:href="#DejaVuSans-65"/>
      <use x="120.703125" xlink:href="#DejaVuSans-6c"/>
      <use x="148.486328" xlink:href="#DejaVuSans-6f"/>
      <use x="209.667969" xlink:href="#DejaVuSans-63"/>
      <use x="264.648438" xlink:href="#DejaVuSans-69"/>
      <use x="292.431641" xlink:href="#DejaVuSans-74"/>
      <use x="331.640625" xlink:href="#DejaVuSans-79"/>
     </g>
    </g>
   </g>
   <g id="line2d_16">
    <path clip-path="url(#p824524b32a)" d="M 113.14651 443.453282 
L 115.739657 443.127953 
L 125.321723 440.032699 
L 141.09029 434.501782 
L 146.676497 432.284668 
L 153.644298 429.667471 
L 157.559577 428.211694 
L 159.349967 427.777284 
L 161.047732 426.853405 
L 164.195815 425.913676 
L 165.671872 425.134922 
L 167.095497 424.711644 
L 168.472355 423.720813 
L 169.808175 423.165503 
L 171.106221 422.178847 
L 174.799507 419.736129 
L 175.977346 418.90949 
L 177.132113 418.35738 
L 179.376273 416.869263 
L 180.462846 416.431123 
L 181.524229 415.801901 
L 183.574319 415.159959 
L 184.565297 414.533014 
L 185.534345 414.288726 
L 186.484092 413.717632 
L 187.41423 413.821442 
L 188.324914 412.996294 
L 189.215881 413.389981 
L 190.089894 412.397252 
L 190.947298 412.780565 
L 192.620213 412.162995 
L 193.437978 412.573032 
L 194.244281 411.506767 
L 195.040344 412.040505 
L 196.605953 411.148515 
L 197.377199 411.550039 
L 198.141319 410.237385 
L 198.900151 410.928753 
L 199.652777 410.026764 
L 200.401096 409.532961 
L 201.144951 409.932193 
L 201.8853 407.97415 
L 202.623202 408.172393 
L 203.358017 407.509035 
L 204.09178 406.374737 
L 204.823004 406.478916 
L 205.553914 404.96602 
L 207.014456 404.102773 
L 207.744208 403.055634 
L 208.47486 403.513355 
L 209.208312 401.615218 
L 209.943961 402.084289 
L 211.424061 400.827881 
L 212.168631 400.686347 
L 212.917768 399.789381 
L 213.669509 400.040372 
L 214.426733 398.768288 
L 215.188597 399.485015 
L 215.955193 397.780081 
L 216.727652 398.397296 
L 217.506796 397.180023 
L 218.290862 397.180853 
L 219.079656 395.932114 
L 219.872119 396.014946 
L 220.669641 394.431477 
L 221.471771 395.126997 
L 222.278671 393.579553 
L 223.091151 393.947921 
L 223.90844 392.990655 
L 224.730813 392.912781 
L 225.559769 392.656903 
L 226.394414 392.058481 
L 227.235398 392.062657 
L 228.083488 391.273092 
L 228.938792 391.419414 
L 229.80099 390.684105 
L 230.670269 390.686156 
L 232.433031 389.909883 
L 233.32802 390.099123 
L 234.230695 389.407521 
L 236.085791 388.521731 
L 237.036261 387.735189 
L 238.007342 387.478028 
L 238.998417 386.8583 
L 240.0075 386.04389 
L 241.034694 385.743668 
L 242.077655 385.771751 
L 243.131592 385.48118 
L 244.19715 385.420971 
L 245.270717 385.644351 
L 246.349281 386.195677 
L 247.430895 386.457823 
L 248.512929 386.8912 
L 249.59314 387.645298 
L 250.669402 388.598671 
L 252.809903 389.771486 
L 253.872187 390.627943 
L 254.930559 391.651319 
L 255.986374 391.614721 
L 258.091096 392.927621 
L 260.193174 392.912787 
L 261.244857 393.686717 
L 262.298187 393.397477 
L 265.45759 393.435229 
L 266.502205 393.177078 
L 267.535108 393.289593 
L 268.551818 393.661815 
L 269.550315 393.656114 
L 270.525206 394.727022 
L 271.47314 394.978201 
L 272.389569 395.824622 
L 273.272139 397.966888 
L 274.121437 398.337406 
L 274.941103 401.444379 
L 275.734594 401.517319 
L 276.506909 404.693359 
L 277.260367 406.065197 
L 277.998501 406.758444 
L 278.724011 410.250067 
L 279.439735 409.048283 
L 280.852405 413.978212 
L 281.552888 411.062067 
L 282.252305 413.831041 
L 282.95061 415.665349 
L 283.650243 411.865574 
L 284.352163 414.345068 
L 285.056363 415.965894 
L 285.763934 411.710896 
L 286.474646 414.082764 
L 287.187542 415.506239 
L 287.905043 410.82328 
L 288.626948 413.231209 
L 289.35274 414.573686 
L 290.084994 409.775425 
L 290.823729 412.093295 
L 291.568716 411.127855 
L 292.320876 408.712002 
L 293.078113 410.936462 
L 293.842365 407.899303 
L 294.611127 409.26569 
L 295.383058 410.15551 
L 296.159084 407.245895 
L 296.936959 410.052087 
L 297.716726 407.856192 
L 299.280293 409.780061 
L 300.064236 406.943461 
L 300.848966 410.078185 
L 301.63758 407.18846 
L 302.428965 408.727448 
L 303.223157 408.442098 
L 304.023386 407.09016 
L 304.830485 409.359495 
L 305.64596 405.242987 
L 306.472354 407.354376 
L 307.310995 404.148499 
L 308.163566 405.062245 
L 309.028868 402.792784 
L 309.902685 403.374529 
L 310.784551 402.018376 
L 311.671835 403.132272 
L 312.565088 401.517389 
L 313.461549 402.689415 
L 314.362358 400.974808 
L 315.265435 402.550345 
L 316.171796 399.981877 
L 317.079635 402.514816 
L 317.987359 399.553461 
L 318.894531 402.805898 
L 319.799036 399.223342 
L 320.7003 402.917304 
L 321.596801 399.556082 
L 322.489745 402.303367 
L 323.377116 400.077041 
L 324.258977 402.390576 
L 325.134383 400.672089 
L 326.002524 403.070193 
L 326.864158 402.246583 
L 327.716962 403.968597 
L 328.561752 402.425992 
L 329.394761 406.27426 
L 330.21916 403.042764 
L 331.033271 407.27119 
L 331.83858 404.962025 
L 332.633657 408.163964 
L 333.421191 407.109959 
L 334.198523 408.617435 
L 334.967682 412.133826 
L 335.728839 408.863338 
L 336.481435 413.192192 
L 337.226355 413.659028 
L 337.962987 412.944071 
L 338.692491 416.561893 
L 339.416098 415.240963 
L 340.131176 415.523062 
L 340.84058 419.036845 
L 341.545031 416.894048 
L 342.245093 417.282564 
L 342.943105 420.487625 
L 343.636023 419.902628 
L 344.327282 418.163299 
L 345.017798 421.074798 
L 345.707608 422.95403 
L 346.394204 418.719446 
L 347.080638 420.538804 
L 347.767421 422.700923 
L 348.456109 420.57137 
L 349.146283 419.534892 
L 349.838997 421.564417 
L 350.535046 421.268073 
L 351.235769 418.265448 
L 351.94138 419.718933 
L 352.654202 420.915192 
L 353.372507 416.912315 
L 354.096762 417.93629 
L 354.827154 419.405224 
L 355.563463 415.527796 
L 356.308583 416.674342 
L 357.060614 418.388973 
L 357.816815 415.018641 
L 359.345837 415.999198 
L 360.117315 413.075093 
L 360.89435 414.501367 
L 361.676869 413.538992 
L 362.464172 412.17385 
L 363.257126 413.984267 
L 364.055406 410.707616 
L 364.857743 411.828314 
L 365.665875 411.141687 
L 366.477782 409.880705 
L 367.292231 410.92309 
L 368.108742 408.624721 
L 368.926709 410.018141 
L 369.746726 408.478204 
L 370.565676 409.076065 
L 371.383922 409.286294 
L 372.201351 408.051301 
L 373.016662 409.399158 
L 373.829502 407.506144 
L 374.639401 409.678808 
L 375.447504 409.31948 
L 376.251657 410.248782 
L 377.051077 410.642516 
L 377.845827 409.658412 
L 378.634856 411.933746 
L 379.417088 410.338182 
L 380.190749 411.686931 
L 380.954932 411.623063 
L 381.708365 411.264197 
L 382.451013 412.989657 
L 383.181334 411.756665 
L 383.899543 412.373464 
L 384.604541 414.262867 
L 385.296364 412.244399 
L 385.977052 413.570689 
L 386.647335 415.222314 
L 387.310691 413.120954 
L 387.968376 414.379668 
L 388.620127 416.460889 
L 389.267104 414.392358 
L 389.909441 415.446575 
L 390.54743 417.651386 
L 391.820942 416.93054 
L 392.461404 419.058385 
L 393.101777 420.538028 
L 393.742191 418.805711 
L 394.382529 419.768434 
L 395.021843 421.663396 
L 396.28875 420.870891 
L 396.921397 422.100886 
L 397.553151 424.445566 
L 398.182736 422.680191 
L 398.812006 423.080765 
L 399.439977 424.147586 
L 400.062512 426.537775 
L 400.678961 425.559223 
L 401.290689 426.415919 
L 401.899367 428.216473 
L 402.506037 431.244597 
L 403.111513 432.101219 
L 403.716119 430.795037 
L 404.320593 431.695778 
L 404.924667 433.891253 
L 405.53261 438.505048 
L 406.145479 441.388783 
L 406.761589 437.840413 
L 408.650891 443.918703 
L 409.298365 446.947965 
L 409.954434 449.293822 
L 410.61866 448.888372 
L 411.293852 450.295574 
L 411.980195 453.018514 
L 412.679843 455.164964 
L 414.124216 460.534387 
L 415.629296 465.938948 
L 418.007189 474.305207 
L 418.824245 477.511135 
L 419.648107 480.228351 
L 423.813107 496.125671 
L 427.14688 507.397817 
L 428.819821 513.511231 
L 431.342432 522.682689 
L 435.597723 537.140532 
L 438.191502 545.508945 
L 441.711193 555.834205 
L 442.603067 557.879873 
L 443.500626 560.749943 
L 445.311776 564.620672 
L 446.226555 566.757242 
L 447.146656 568.295065 
L 448.073476 570.36967 
L 449.00671 572.144251 
L 451.845184 576.453414 
L 453.772684 579.242173 
L 455.728999 581.499698 
L 457.714672 583.256129 
L 458.718791 583.997234 
L 462.801539 586.210346 
L 463.83613 586.718377 
L 466.969737 587.133233 
L 468.023461 587.449677 
L 472.297086 587.378779 
L 476.656944 586.450339 
L 478.872984 585.886583 
L 479.990704 585.625229 
L 482.246755 584.917573 
L 483.385361 584.621016 
L 487.991606 582.059089 
L 490.327483 580.058365 
L 491.506228 578.975225 
L 492.690109 577.39829 
L 493.874088 575.081278 
L 495.053377 571.615597 
L 496.22059 567.136229 
L 499.333395 544.268351 
L 500.269076 539.018455 
L 501.20795 535.757933 
L 502.166388 533.026743 
L 504.127837 529.160576 
L 505.105737 527.485488 
L 506.083303 526.154106 
L 507.059927 524.623902 
L 508.036146 523.688763 
L 509.015005 522.381502 
L 509.995286 521.353827 
L 510.979899 520.565028 
L 511.970577 519.549979 
L 512.966808 518.693347 
L 513.967247 518.035789 
L 514.972855 517.065469 
L 515.985253 516.509454 
L 519.07184 514.460411 
L 520.11764 513.851367 
L 521.174235 513.01599 
L 522.24043 512.660975 
L 524.4049 511.361022 
L 525.502713 511.003113 
L 526.613641 510.501391 
L 527.730816 509.795091 
L 529.974252 509.065095 
L 531.10091 508.37146 
L 532.231041 507.96853 
L 533.364525 507.807677 
L 534.501748 507.049888 
L 535.642605 506.62815 
L 536.786163 506.462274 
L 539.08428 505.480608 
L 541.399304 505.025402 
L 542.563451 504.523549 
L 543.732507 504.160415 
L 544.906419 504.081777 
L 547.269413 503.240967 
L 548.459256 502.992007 
L 549.654096 502.931048 
L 550.855311 502.463725 
L 552.062753 502.163731 
L 554.496118 501.84955 
L 556.949793 501.063286 
L 559.421388 500.714499 
L 561.917386 499.989535 
L 564.436213 499.774466 
L 566.980869 498.968985 
L 568.262807 498.816885 
L 569.550917 498.815635 
L 570.845916 498.508332 
L 572.14807 498.049012 
L 573.456998 497.833989 
L 574.772606 497.8471 
L 576.094906 497.61938 
L 577.424921 497.135787 
L 578.762618 496.887553 
L 580.106948 497.012493 
L 581.458623 496.877806 
L 582.817333 496.422294 
L 584.183582 496.091491 
L 585.557337 496.184422 
L 586.938814 496.038604 
L 589.726513 495.316923 
L 591.13219 495.429293 
L 592.545716 495.425237 
L 595.399702 494.594354 
L 598.287361 494.70744 
L 599.744832 494.44512 
L 601.211864 494.028226 
L 602.687811 493.905687 
L 604.172781 493.959522 
L 605.666569 493.778787 
L 607.170469 493.37343 
L 608.684794 493.173248 
L 610.20825 493.294344 
L 611.740847 493.225187 
L 614.838368 492.481613 
L 617.977567 492.547264 
L 622.767574 491.759208 
L 624.386 491.86495 
L 626.016065 491.675255 
L 627.657724 491.342049 
L 629.311764 491.141742 
L 632.65397 491.1942 
L 637.753728 490.454351 
L 639.473542 490.547374 
L 641.200542 490.475724 
L 644.688167 489.866026 
L 646.448113 489.843708 
L 648.219838 489.960818 
L 650.002836 489.733936 
L 651.795605 489.367838 
L 653.602292 489.172099 
L 657.244169 489.216067 
L 660.938562 488.640554 
L 666.572825 488.387048 
L 670.399282 487.947247 
L 700.983477 486.08642 
L 705.348671 485.922537 
L 709.788306 485.597836 
L 718.914646 485.158613 
L 723.606296 484.833099 
L 728.387544 484.715989 
L 735.734709 484.201736 
L 740.759296 484.109109 
L 745.889153 483.739521 
L 751.129785 483.614357 
L 756.48498 483.361154 
L 761.962647 483.114979 
L 770.415769 482.872044 
L 776.214603 482.647863 
L 785.174196 482.40628 
L 800.8567 481.938292 
L 814.166633 481.57004 
L 821.092984 481.37508 
L 821.092984 481.37508 
" style="fill:none;stroke:#66c2a5;stroke-linecap:round;stroke-width:3;"/>
   </g>
   <g id="line2d_17">
    <path clip-path="url(#p824524b32a)" d="M 113.14651 420.20984 
L 115.739657 420.134872 
L 122.150443 418.329351 
L 125.321723 417.14499 
L 128.507974 415.687864 
L 134.847075 412.156955 
L 137.995505 410.206365 
L 141.09029 408.07146 
L 143.990404 405.707453 
L 149.168707 400.725795 
L 151.483742 398.188991 
L 153.644298 395.61793 
L 157.559577 389.881809 
L 159.349967 387.149221 
L 162.65805 380.921807 
L 164.195815 377.76408 
L 167.095497 371.108967 
L 169.808175 364.000895 
L 172.366874 356.454036 
L 175.977346 345.135744 
L 179.376273 333.827453 
L 183.574319 318.553798 
L 188.324914 299.938247 
L 190.947298 289.230998 
L 195.827611 271.080696 
L 197.377199 266.00974 
L 198.141319 263.75686 
L 198.900151 262.040868 
L 199.652777 260.057406 
L 201.144951 257.305699 
L 201.8853 256.45843 
L 203.358017 255.400892 
L 204.823004 255.390129 
L 205.553914 255.897883 
L 207.014456 256.462522 
L 207.744208 256.740227 
L 209.208312 257.086617 
L 209.943961 256.962881 
L 212.168631 257.317875 
L 213.669509 257.800169 
L 215.188597 258.840271 
L 216.727652 260.0943 
L 217.506796 261.211064 
L 218.290862 262.089776 
L 221.471771 267.252379 
L 223.90844 270.952989 
L 224.730813 272.076299 
L 225.559769 273.508262 
L 227.235398 275.98712 
L 228.938792 279.023723 
L 230.670269 281.878801 
L 232.433031 285.171069 
L 233.32802 286.96654 
L 234.230695 288.373746 
L 236.085791 295.426095 
L 237.036261 298.406924 
L 240.0075 311.448446 
L 241.034694 315.562111 
L 242.077655 319.013263 
L 244.19715 323.542041 
L 245.270717 325.111389 
L 246.349281 325.892747 
L 247.430895 326.202503 
L 248.512929 325.777043 
L 249.59314 324.660351 
L 251.741952 321.156521 
L 253.872187 316.654792 
L 255.986374 312.249555 
L 259.14222 305.962317 
L 261.244857 302.02513 
L 263.352666 298.358056 
L 265.45759 293.830003 
L 266.502205 291.008327 
L 267.535108 287.370974 
L 269.550315 278.5342 
L 270.525206 272.966543 
L 271.47314 266.737511 
L 273.272139 252.491184 
L 277.998501 210.230499 
L 279.439735 200.503543 
L 280.852405 194.16859 
L 281.552888 192.216352 
L 282.95061 190.092471 
L 283.650243 190.030456 
L 284.352163 190.423717 
L 285.056363 191.045119 
L 287.187542 194.29404 
L 289.35274 199.675216 
L 293.842365 215.544092 
L 294.611127 217.294896 
L 295.383058 218.575681 
L 296.159084 220.10801 
L 297.716726 221.362755 
L 298.497249 221.506829 
L 299.280293 222.346488 
L 300.848966 222.605813 
L 301.63758 223.761472 
L 303.223157 225.185207 
L 304.830485 228.910738 
L 305.64596 231.16917 
L 309.028868 244.306159 
L 310.784551 247.09452 
L 311.671835 247.596773 
L 312.565088 248.281616 
L 313.461549 248.157569 
L 314.362358 248.393203 
L 315.265435 247.98576 
L 316.171796 247.864199 
L 318.894531 245.86047 
L 320.7003 243.856577 
L 321.596801 242.393163 
L 322.489745 241.363665 
L 324.258977 237.915648 
L 326.002524 233.881526 
L 327.716962 228.874832 
L 328.561752 226.190641 
L 331.033271 216.688173 
L 331.83858 213.601222 
L 332.633657 210.016338 
L 333.421191 207.020407 
L 334.967682 200.246563 
L 338.692491 184.173334 
L 339.416098 181.781013 
L 340.131176 178.594691 
L 342.245093 172.229227 
L 342.943105 170.981272 
L 343.636023 168.591545 
L 344.327282 167.272366 
L 345.707608 165.675472 
L 346.394204 164.475621 
L 347.080638 164.747704 
L 347.767421 165.25607 
L 349.146283 167.061934 
L 349.838997 168.766714 
L 351.235769 171.688966 
L 351.94138 173.518971 
L 355.563463 185.939245 
L 357.060614 192.347915 
L 357.816815 194.436876 
L 358.579348 197.328619 
L 362.464172 206.944807 
L 364.055406 209.551713 
L 364.857743 210.447672 
L 365.665875 211.53982 
L 366.477782 212.129252 
L 368.108742 212.572754 
L 369.746726 212.435998 
L 371.383922 211.391063 
L 373.016662 209.554333 
L 373.829502 208.42359 
L 377.051077 202.966602 
L 378.634856 199.840652 
L 382.451013 191.086572 
L 387.310691 177.065941 
L 388.620127 172.70098 
L 390.54743 165.619617 
L 391.820942 159.915426 
L 392.461404 157.588886 
L 393.101777 154.78217 
L 393.742191 151.458353 
L 395.021843 145.990737 
L 395.656478 142.675598 
L 398.812006 130.394073 
L 399.439977 128.941471 
L 400.678961 125.253712 
L 401.290689 124.481904 
L 401.899367 124.767446 
L 402.506037 124.720072 
L 403.111513 124.09876 
L 403.716119 124.437565 
L 404.320593 125.903953 
L 404.924667 126.755931 
L 406.761589 132.400225 
L 409.298365 144.084839 
L 413.393389 168.174202 
L 414.124216 173.254301 
L 415.629296 181.342345 
L 416.404724 185.104276 
L 417.199377 189.912467 
L 418.007189 193.226979 
L 419.648107 201.249219 
L 421.313093 208.215757 
L 422.98033 213.848972 
L 423.813107 216.228798 
L 425.479027 219.729132 
L 427.14688 222.047902 
L 427.982618 223.091683 
L 428.819821 223.920439 
L 429.658582 224.36559 
L 430.499131 224.940107 
L 431.342432 225.184779 
L 432.188268 225.104532 
L 433.036174 225.393817 
L 433.886653 225.421105 
L 434.740473 225.07751 
L 435.597723 224.395031 
L 436.458481 224.622859 
L 439.064748 222.864049 
L 439.94211 222.504632 
L 440.824184 221.995059 
L 441.711193 221.678346 
L 442.603067 220.898436 
L 443.500626 220.564429 
L 445.311776 219.586662 
L 447.146656 218.997643 
L 449.00671 218.879576 
L 449.946266 218.814265 
L 452.805351 219.450389 
L 453.772684 219.926981 
L 456.718035 221.954824 
L 459.730583 224.639139 
L 466.969737 233.487154 
L 470.148476 237.95332 
L 471.219825 239.243098 
L 473.37945 242.326246 
L 476.656944 246.613516 
L 481.115183 252.790539 
L 483.385361 256.39522 
L 484.530593 258.283365 
L 485.679516 260.688289 
L 486.832822 263.810514 
L 487.991606 267.885469 
L 489.15625 272.713102 
L 490.327483 278.801125 
L 491.506228 287.244656 
L 492.690109 297.973059 
L 493.874088 312.340101 
L 495.053377 330.810435 
L 497.346945 381.319106 
L 499.333395 429.920753 
L 500.269076 442.774277 
L 501.20795 451.696678 
L 502.166388 456.534003 
L 503.146908 459.532862 
L 504.127837 461.909341 
L 505.105737 463.035662 
L 506.083303 463.768364 
L 508.036146 463.97279 
L 509.015005 463.726396 
L 509.995286 462.983221 
L 510.979899 462.724065 
L 513.967247 460.799862 
L 514.972855 459.778266 
L 515.985253 459.597495 
L 517.006833 458.571694 
L 518.032698 457.762091 
L 519.07184 457.589052 
L 521.174235 455.847018 
L 522.24043 455.805026 
L 524.4049 454.134337 
L 525.502713 454.041664 
L 526.613641 453.446562 
L 527.730816 452.608232 
L 528.851139 452.561923 
L 529.974252 452.240045 
L 531.10091 451.328113 
L 532.231041 451.141635 
L 533.364525 451.471242 
L 534.501748 450.176908 
L 535.642605 449.908337 
L 536.786163 450.315973 
L 537.93315 449.65281 
L 539.08428 449.238206 
L 540.239749 449.325214 
L 541.399304 449.583881 
L 542.563451 448.898486 
L 543.732507 448.621984 
L 544.906419 449.385982 
L 546.085574 448.723233 
L 547.269413 448.416514 
L 548.459256 448.494338 
L 549.654096 449.125954 
L 550.855311 448.436235 
L 552.062753 448.310454 
L 553.276249 448.747434 
L 554.496118 448.91092 
L 556.949793 447.918979 
L 558.182826 448.295105 
L 559.421388 448.451599 
L 561.917386 447.869478 
L 563.173725 448.383886 
L 564.436213 448.611891 
L 565.705115 448.34315 
L 566.980869 447.79914 
L 568.262807 448.056306 
L 569.550917 448.793614 
L 570.845916 448.717712 
L 572.14807 448.102112 
L 573.456998 448.134596 
L 574.772606 448.95384 
L 576.094906 449.062876 
L 577.424921 448.312583 
L 578.762618 448.267627 
L 580.106948 449.327244 
L 581.458623 449.73581 
L 582.817333 449.037833 
L 584.183582 448.777513 
L 585.557337 449.835759 
L 586.938814 450.130079 
L 588.328667 449.642278 
L 589.726513 449.350867 
L 591.13219 450.442888 
L 592.545716 451.097234 
L 593.968262 450.637239 
L 595.399702 449.983231 
L 598.287361 451.865571 
L 599.744832 451.802669 
L 601.211864 451.285236 
L 602.687811 451.68475 
L 604.172781 452.640747 
L 605.666569 452.82485 
L 607.170469 452.29151 
L 608.684794 452.459385 
L 610.20825 453.517273 
L 611.740847 454.003243 
L 614.838368 453.125895 
L 617.977567 454.797983 
L 619.563185 454.683273 
L 621.15942 454.204778 
L 622.767574 454.537308 
L 624.386 455.614476 
L 626.016065 455.737109 
L 627.657724 455.383641 
L 629.311764 455.500785 
L 632.65397 457.150882 
L 634.343133 456.939845 
L 636.043285 456.557804 
L 637.753728 456.877063 
L 639.473542 457.900557 
L 641.200542 458.292448 
L 642.938687 457.891041 
L 644.688167 457.790563 
L 646.448113 458.46047 
L 648.219838 459.455735 
L 650.002836 459.380445 
L 651.795605 458.908279 
L 653.602292 459.013612 
L 655.417988 459.857081 
L 657.244169 460.438428 
L 660.938562 460.055258 
L 662.804393 460.456229 
L 664.683105 461.004717 
L 666.572825 461.19547 
L 668.478337 461.104569 
L 670.399282 461.229332 
L 672.330025 461.523575 
L 674.278343 461.950425 
L 678.211172 462.130946 
L 690.388108 463.454688 
L 694.573358 463.993441 
L 700.983477 464.428115 
L 705.348671 465.10147 
L 707.557743 464.964483 
L 714.308253 465.638289 
L 716.596929 465.939325 
L 718.914646 466.026237 
L 721.246212 465.968421 
L 723.606296 466.070573 
L 725.980882 466.538401 
L 728.387544 466.790554 
L 733.266114 466.549157 
L 735.734709 466.744346 
L 738.240158 467.210132 
L 740.759296 467.443459 
L 743.315764 467.288658 
L 745.889153 467.28627 
L 748.503408 467.46181 
L 751.129785 467.879585 
L 753.799137 468.10223 
L 759.214817 468.031963 
L 761.962647 468.170284 
L 767.562998 468.711303 
L 776.214603 468.887805 
L 779.162116 469.201902 
L 791.329969 469.470748 
L 794.462871 469.700444 
L 804.119101 469.952523 
L 810.767426 470.133689 
L 814.166633 470.344518 
L 821.092984 470.44522 
L 821.092984 470.44522 
" style="fill:none;stroke:#66c2a5;stroke-dasharray:12,4.5;stroke-dashoffset:0;stroke-width:3;"/>
   </g>
   <g id="line2d_18">
    <path clip-path="url(#p824524b32a)" d="M 112.924838 437.671597 
L 114.621083 437.479942 
L 124.860335 434.235703 
L 126.824164 433.909052 
L 128.757877 432.55454 
L 130.659433 432.326061 
L 132.532116 431.556811 
L 134.372933 430.533391 
L 136.148618 429.921251 
L 137.847734 429.008813 
L 141.017998 427.931396 
L 142.498618 426.64663 
L 143.914592 426.604138 
L 145.270118 425.44567 
L 146.570755 425.531873 
L 147.816829 424.32499 
L 149.013097 424.461293 
L 150.164007 423.284969 
L 151.27243 423.34488 
L 152.339544 422.352826 
L 153.370626 422.443112 
L 154.367269 421.771945 
L 155.335724 421.448109 
L 156.271043 421.279055 
L 157.179286 420.589636 
L 158.062259 420.695088 
L 158.921257 420.099273 
L 159.760077 419.717796 
L 160.579079 419.927757 
L 161.380081 418.96386 
L 162.165639 418.874319 
L 162.935499 418.912396 
L 163.691353 418.013635 
L 164.434651 417.839622 
L 165.164484 417.925451 
L 165.882165 416.818439 
L 167.286048 416.614937 
L 167.973734 415.568926 
L 168.652994 415.240839 
L 169.324145 415.422265 
L 169.987085 414.149139 
L 170.6442 414.131123 
L 171.293201 414.23931 
L 171.936389 413.185895 
L 172.573681 412.930223 
L 173.204226 413.058502 
L 174.447657 411.764622 
L 175.059758 411.896161 
L 175.664515 411.705543 
L 176.262422 410.902978 
L 176.853047 410.845056 
L 177.436167 411.310139 
L 178.012899 410.274051 
L 178.581921 409.937231 
L 179.143985 410.46371 
L 179.700026 410.026474 
L 180.249139 409.315747 
L 180.791633 409.411006 
L 181.32829 410.223991 
L 181.859069 408.846846 
L 182.383451 408.748259 
L 182.901433 409.268869 
L 183.413402 409.199424 
L 183.919611 408.381584 
L 184.419525 408.250283 
L 184.914232 409.237732 
L 185.403605 408.072017 
L 185.888072 407.988335 
L 186.367555 408.021345 
L 186.842496 409.081167 
L 187.312914 407.687867 
L 187.7796 407.731829 
L 188.242044 407.651265 
L 188.700207 408.676786 
L 189.155356 407.498639 
L 189.607072 407.434931 
L 190.055108 407.255451 
L 190.499937 408.258652 
L 191.381261 407.056972 
L 191.817463 406.77384 
L 192.250979 407.582074 
L 192.682165 407.558344 
L 193.110974 406.474609 
L 193.536993 406.284182 
L 193.961156 406.617441 
L 194.383147 407.11687 
L 194.803153 405.699424 
L 195.637709 405.585238 
L 196.052595 406.568588 
L 196.465833 404.900674 
L 197.288292 404.46526 
L 197.697921 404.87742 
L 198.106449 404.610798 
L 198.514085 403.474993 
L 199.326592 403.181473 
L 199.731694 403.530802 
L 200.136133 402.22074 
L 200.540043 401.93765 
L 200.943411 401.50451 
L 201.346585 402.676941 
L 201.749858 400.883782 
L 202.557114 400.105894 
L 202.960293 400.967371 
L 203.768052 399.338698 
L 204.17246 398.984346 
L 204.577985 399.709986 
L 204.984445 399.151995 
L 205.390989 398.287407 
L 205.798122 398.120146 
L 206.206625 398.856827 
L 206.616557 398.299998 
L 207.027162 397.424837 
L 207.438679 397.316168 
L 207.851484 398.113919 
L 208.681749 396.542596 
L 209.098396 396.460773 
L 209.516807 397.38737 
L 209.937507 395.938312 
L 210.359879 395.590926 
L 210.783616 395.515379 
L 211.209226 396.24428 
L 211.63717 394.730565 
L 212.067218 394.521071 
L 212.936247 394.586112 
L 213.372709 393.441722 
L 213.811557 393.231051 
L 214.252241 393.736804 
L 214.695052 392.484625 
L 215.139552 392.157924 
L 215.586584 392.211984 
L 216.035821 391.875876 
L 216.486821 391.168114 
L 216.940395 390.909277 
L 217.396118 391.399123 
L 217.854354 390.187817 
L 218.314073 390.01245 
L 218.776562 390.54127 
L 219.241672 389.427383 
L 219.708887 389.176604 
L 220.178736 389.879099 
L 220.650622 388.786835 
L 221.124387 388.538027 
L 221.599725 389.232598 
L 222.07603 388.368844 
L 222.553797 388.355521 
L 223.032873 388.963944 
L 223.513607 388.104041 
L 223.996231 388.066539 
L 224.481696 388.470877 
L 224.969299 387.645126 
L 225.459307 387.610676 
L 225.951241 388.146875 
L 226.445912 387.234007 
L 226.942725 387.155401 
L 227.442034 387.598878 
L 227.943077 387.037558 
L 228.446583 386.799957 
L 228.952374 387.242633 
L 229.461069 386.615538 
L 229.972461 386.448968 
L 230.487597 386.724058 
L 231.006846 385.967668 
L 231.528308 386.207855 
L 232.055046 385.985818 
L 232.587681 385.158409 
L 233.125771 385.495683 
L 233.668212 384.712982 
L 234.214307 384.577085 
L 235.326315 383.803381 
L 235.887872 384.188516 
L 236.451035 383.71411 
L 237.019372 383.727029 
L 237.589021 383.894521 
L 238.161045 383.629976 
L 238.735742 384.102282 
L 239.31512 383.423339 
L 239.896871 383.980603 
L 240.480327 383.555794 
L 241.069592 383.413325 
L 241.660657 383.697253 
L 242.254295 383.590392 
L 242.852265 383.841793 
L 243.451199 383.775373 
L 244.051588 384.194088 
L 244.655208 383.984315 
L 245.865732 384.779436 
L 246.471552 384.787809 
L 247.078588 385.355905 
L 247.684756 385.445552 
L 248.289525 386.220546 
L 248.895064 386.07014 
L 249.499432 386.637817 
L 250.705339 387.138145 
L 251.30737 387.839623 
L 251.908088 387.770324 
L 252.508366 388.491651 
L 253.107702 388.369853 
L 254.304847 389.18205 
L 254.903221 389.148911 
L 255.50153 389.680127 
L 256.099815 389.496736 
L 256.698825 389.871189 
L 257.297578 389.758595 
L 257.896989 389.922045 
L 258.496372 390.313982 
L 259.096099 390.003827 
L 259.695872 390.316192 
L 260.296123 390.009303 
L 260.895741 390.105886 
L 261.49405 390.324479 
L 262.091603 390.11956 
L 262.686245 390.505175 
L 263.278284 390.309398 
L 263.867126 390.35961 
L 264.451368 390.753054 
L 265.030051 390.766588 
L 265.602649 391.120092 
L 266.168023 391.283844 
L 266.725053 391.699937 
L 267.274217 392.524951 
L 267.814123 392.618843 
L 268.344444 393.156173 
L 268.864316 394.349887 
L 269.372357 394.601939 
L 269.868921 395.395762 
L 270.354918 396.927423 
L 270.830575 397.343585 
L 273.078103 402.800247 
L 273.506259 404.286677 
L 273.92849 405.165887 
L 274.345527 405.679089 
L 275.570279 409.14658 
L 275.971324 409.028928 
L 276.765826 410.647684 
L 277.159769 411.252016 
L 277.55206 412.221031 
L 277.943303 411.967648 
L 278.723573 412.739896 
L 279.11321 413.001665 
L 279.502882 413.961901 
L 279.892714 413.358075 
L 280.283045 413.277671 
L 281.066146 413.520688 
L 281.459013 414.384122 
L 281.852881 413.510702 
L 282.247959 413.147152 
L 283.440972 413.450586 
L 283.841201 413.19807 
L 284.242963 412.42011 
L 284.645847 412.416783 
L 285.050752 412.256296 
L 285.457478 412.369606 
L 285.86628 411.912215 
L 286.277458 411.067434 
L 286.69138 410.860877 
L 287.107678 410.489987 
L 287.526493 410.343548 
L 287.948223 409.516363 
L 288.798702 409.054341 
L 289.22696 408.670271 
L 289.656845 408.925935 
L 290.088654 408.194822 
L 290.521665 408.085584 
L 290.955764 407.751688 
L 291.390621 408.358629 
L 291.826858 407.68444 
L 292.700014 407.618078 
L 293.137578 408.048981 
L 294.014852 407.622322 
L 294.452901 407.89458 
L 294.892749 407.842482 
L 295.332746 408.270521 
L 295.7721 407.827914 
L 296.212892 407.845734 
L 297.095656 408.359216 
L 297.537636 407.780828 
L 297.980152 407.835522 
L 298.425396 407.593863 
L 298.869717 408.236558 
L 299.316271 407.363604 
L 300.213976 407.352776 
L 301.578508 406.619108 
L 302.040114 405.941444 
L 302.50401 406.116967 
L 303.92244 404.019475 
L 304.403325 404.037906 
L 304.890554 403.142656 
L 305.876366 402.234443 
L 306.37496 402.19054 
L 306.876408 401.615904 
L 307.379359 401.363647 
L 307.885534 401.332826 
L 308.902308 400.744383 
L 309.413239 400.94623 
L 310.438517 400.374313 
L 311.465105 400.557912 
L 311.978671 400.181915 
L 312.492979 400.134577 
L 313.007464 400.24801 
L 313.522559 399.809438 
L 314.035929 400.040283 
L 314.549743 399.944759 
L 315.063939 399.574949 
L 315.57721 399.741246 
L 317.629191 399.48958 
L 318.140492 399.739013 
L 318.651716 399.264318 
L 319.66835 399.622094 
L 320.175769 399.350718 
L 320.68014 399.476481 
L 321.18386 399.739215 
L 321.68508 399.834218 
L 322.184426 399.72273 
L 323.174596 400.883429 
L 323.667008 400.46026 
L 324.642804 401.498483 
L 325.126648 401.408583 
L 326.087425 402.195417 
L 326.563187 402.779471 
L 327.035656 402.80573 
L 327.506537 403.222268 
L 327.973319 404.11543 
L 328.437021 404.122372 
L 328.897849 404.49031 
L 330.709081 406.590632 
L 331.153791 406.957493 
L 331.594806 407.795219 
L 332.032262 408.364517 
L 332.466656 408.636255 
L 333.325061 409.996261 
L 333.750129 411.019446 
L 334.172264 411.123023 
L 335.418493 413.154382 
L 335.828194 414.169168 
L 336.23536 414.144701 
L 336.640231 414.626646 
L 337.441988 416.072876 
L 337.839961 417.056882 
L 338.235197 417.087911 
L 339.411299 418.885717 
L 339.800541 419.729423 
L 340.188108 419.912497 
L 340.574369 419.812517 
L 341.342852 421.101156 
L 341.726317 421.291233 
L 342.49094 422.188508 
L 342.872347 422.067137 
L 344.01354 422.892733 
L 344.393925 422.863517 
L 344.774874 423.416118 
L 345.538726 422.716137 
L 345.921011 422.925807 
L 346.304528 422.688007 
L 346.688319 422.761842 
L 347.46155 422.599213 
L 347.850626 421.821999 
L 348.63248 421.505787 
L 349.02598 421.189144 
L 349.420087 421.595995 
L 349.817763 420.760558 
L 350.215353 420.479545 
L 350.616112 419.836706 
L 351.422009 419.74757 
L 352.236727 419.12246 
L 352.64678 418.482787 
L 353.059835 418.249253 
L 353.473426 418.694549 
L 353.891003 417.890142 
L 354.309777 417.84707 
L 354.73027 417.471002 
L 355.154987 416.876944 
L 356.008056 416.637938 
L 356.871181 415.733739 
L 357.304406 415.592812 
L 357.740454 414.954424 
L 358.178218 414.665357 
L 358.617287 414.841195 
L 359.058232 414.121247 
L 359.501086 413.777772 
L 359.944782 413.619049 
L 360.389295 413.702008 
L 360.835841 413.011667 
L 361.283664 412.527947 
L 361.73226 412.492599 
L 362.634352 412.135249 
L 363.087531 411.482403 
L 364.452502 411.066504 
L 364.9087 410.617583 
L 365.364962 410.402073 
L 365.821507 410.417363 
L 367.193912 409.784181 
L 367.651418 409.851792 
L 368.109292 409.692979 
L 368.567025 410.073911 
L 369.024748 409.978737 
L 369.482179 410.01906 
L 370.396168 409.863717 
L 372.217518 409.971004 
L 373.123328 410.063125 
L 373.575084 410.091065 
L 374.025832 410.393733 
L 374.474839 410.947496 
L 374.923283 410.462838 
L 375.370334 410.544664 
L 375.815814 410.802075 
L 376.259581 411.438681 
L 376.701617 411.186821 
L 377.142106 411.357188 
L 378.0178 412.106234 
L 378.886463 412.086618 
L 379.31779 412.566124 
L 379.748407 412.573642 
L 380.176411 413.250445 
L 380.602919 413.006013 
L 381.028043 413.174064 
L 381.450368 413.828664 
L 381.870497 413.821957 
L 383.11634 414.894547 
L 383.525816 415.562987 
L 383.932332 415.6247 
L 385.132571 416.940309 
L 385.916723 417.651873 
L 386.304056 417.929417 
L 386.689186 418.757212 
L 387.072156 418.928097 
L 387.453 419.35633 
L 387.832139 419.603326 
L 388.584062 420.537805 
L 388.956666 421.443093 
L 389.327307 421.242398 
L 390.061996 422.039454 
L 391.148776 424.072929 
L 391.507178 424.111179 
L 392.219567 424.865249 
L 392.929942 425.813341 
L 393.284485 426.190342 
L 393.990357 427.500238 
L 394.34273 427.467595 
L 394.694593 427.96686 
L 395.045934 428.70371 
L 395.749184 429.143186 
L 396.10061 429.496696 
L 397.50625 431.807637 
L 397.856783 432.22985 
L 398.207497 432.259434 
L 398.557343 432.582392 
L 398.907669 432.464402 
L 399.258463 432.599509 
L 399.609122 433.555706 
L 399.960162 433.409584 
L 400.66092 433.925165 
L 401.012525 433.776853 
L 401.36381 434.160383 
L 401.716336 434.071283 
L 402.424738 434.606416 
L 402.781259 435.22623 
L 403.138403 435.142364 
L 403.498208 434.551667 
L 404.219947 435.431484 
L 404.584438 435.357923 
L 404.949491 436.027843 
L 405.316669 435.974551 
L 405.686501 436.208977 
L 406.058064 437.403153 
L 406.432454 436.698934 
L 406.809113 436.726099 
L 407.187478 437.320063 
L 407.569525 437.383798 
L 407.954589 437.69819 
L 408.340628 438.310544 
L 408.731222 437.828588 
L 409.123993 438.315941 
L 409.518585 439.298995 
L 409.917795 439.27581 
L 410.725853 440.029744 
L 411.549293 439.996951 
L 411.96498 440.301641 
L 412.384897 440.020935 
L 412.808924 440.213246 
L 413.235096 441.297324 
L 413.663499 441.30435 
L 414.095363 440.921928 
L 414.96418 441.535485 
L 415.402742 441.537657 
L 415.843792 441.780634 
L 416.286265 442.189309 
L 417.179218 442.666272 
L 418.080694 442.843326 
L 418.990203 443.765154 
L 420.824954 444.682016 
L 421.747555 445.439972 
L 423.599264 447.606626 
L 424.063318 447.866503 
L 424.991443 448.662812 
L 426.38457 450.653883 
L 426.849609 450.921973 
L 428.708148 452.772887 
L 429.172101 453.516004 
L 431.495404 456.081429 
L 433.355218 458.577178 
L 434.286771 460.187117 
L 435.219649 461.82313 
L 436.153756 463.207477 
L 437.085155 465.13104 
L 438.934571 468.348991 
L 439.39423 469.589668 
L 440.766435 472.101048 
L 441.67622 473.772949 
L 443.034458 476.060148 
L 443.936004 477.453915 
L 447.069569 482.368932 
L 447.514495 483.171733 
L 448.403828 484.477736 
L 449.735481 486.50117 
L 450.179109 487.577016 
L 450.622358 488.335193 
L 451.065974 488.850104 
L 451.509559 489.755092 
L 454.613396 493.287546 
L 455.501128 493.984862 
L 456.834548 495.531211 
L 458.619941 497.557683 
L 459.965068 498.741394 
L 462.219979 500.222344 
L 462.673401 501.015198 
L 463.127657 501.203942 
L 463.582959 501.909147 
L 464.495494 502.413827 
L 466.331186 503.713793 
L 466.792125 503.865426 
L 467.718107 503.884336 
L 469.109559 504.386313 
L 470.041186 504.632103 
L 471.912877 505.489382 
L 472.852385 505.387857 
L 473.323484 505.262871 
L 474.264381 505.791516 
L 474.73603 506.485313 
L 475.208876 506.969127 
L 478.055113 507.981478 
L 479.005303 507.540629 
L 479.481234 507.547755 
L 480.429368 508.51908 
L 481.377602 508.992391 
L 482.326775 508.914467 
L 482.801687 508.868637 
L 483.273819 509.135613 
L 484.214715 509.2345 
L 485.155819 510.009938 
L 486.098303 510.298978 
L 486.567751 510.979776 
L 487.036284 511.971167 
L 487.503794 511.885498 
L 489.370348 511.948181 
L 489.83673 512.29951 
L 490.764965 513.316778 
L 491.687886 513.163933 
L 493.069346 513.05142 
L 493.530856 513.258501 
L 493.990776 514.02926 
L 494.90612 514.60214 
L 495.36227 514.555126 
L 496.274142 514.15787 
L 496.730867 513.963284 
L 497.187953 514.19254 
L 497.644249 514.645174 
L 498.09995 515.277889 
L 498.555446 516.138066 
L 499.010478 516.22202 
L 499.465087 516.079209 
L 499.919841 516.069418 
L 500.831193 515.465475 
L 501.287011 515.627092 
L 501.74253 516.114006 
L 502.197691 516.354657 
L 502.652314 516.437648 
L 503.560731 516.070931 
L 504.015951 515.718862 
L 504.927071 515.756191 
L 505.838458 516.444747 
L 506.29412 516.565624 
L 507.204297 516.376321 
L 508.114619 515.8865 
L 509.025869 516.370691 
L 509.482546 517.13006 
L 509.939703 517.3804 
L 510.853734 517.236598 
L 511.766516 517.065463 
L 512.222854 516.829654 
L 512.680125 516.804111 
L 514.051664 517.346538 
L 514.964162 516.994676 
L 515.878045 516.42499 
L 517.249098 517.255716 
L 517.705993 517.142627 
L 518.16265 516.904602 
L 518.620405 516.311652 
L 519.077379 516.416777 
L 519.534536 516.664275 
L 519.99187 516.670472 
L 520.450305 517.02647 
L 521.827758 517.402932 
L 522.28677 517.40529 
L 523.205456 516.802534 
L 524.126185 516.680997 
L 524.586685 516.910204 
L 525.04754 516.881466 
L 526.894849 515.889553 
L 527.357842 516.042473 
L 528.285002 516.021113 
L 528.750088 515.842732 
L 529.685078 514.982745 
L 530.152779 514.768271 
L 531.089113 514.653075 
L 531.558226 515.073774 
L 532.028311 514.971516 
L 532.499158 515.205891 
L 532.971934 514.784379 
L 533.919961 514.599916 
L 534.39464 514.321332 
L 534.869979 513.859783 
L 535.344031 513.89019 
L 535.817774 514.070943 
L 537.723687 513.525707 
L 538.683622 512.343118 
L 539.161269 512.857675 
L 540.599081 512.472975 
L 541.08051 512.408908 
L 542.048108 511.501599 
L 542.531479 511.517162 
L 543.014579 512.240335 
L 543.981128 511.802719 
L 544.952436 511.532634 
L 545.441304 511.04397 
L 545.93117 510.829257 
L 546.420323 510.852963 
L 548.373628 510.060628 
L 548.862945 510.144589 
L 549.355739 509.583999 
L 549.850399 509.294724 
L 550.344442 509.464305 
L 551.33435 509.370419 
L 551.829043 509.01126 
L 553.310697 508.710149 
L 553.809987 507.679235 
L 554.310807 507.809778 
L 554.811185 508.203936 
L 555.812279 508.293807 
L 556.814787 508.123576 
L 557.315118 508.088267 
L 557.815355 507.762433 
L 558.320264 506.651403 
L 558.82522 506.562488 
L 559.329641 506.76791 
L 559.834627 506.831669 
L 560.340473 506.702758 
L 561.351391 506.611237 
L 562.36405 506.297515 
L 562.873105 505.491648 
L 563.383485 505.172982 
L 563.893775 505.179288 
L 564.916737 504.972011 
L 565.428444 504.849878 
L 565.939583 504.941895 
L 566.451143 505.194719 
L 567.48193 504.37129 
L 568.515663 504.253115 
L 569.550312 503.960297 
L 570.582795 503.452566 
L 571.099684 503.382261 
L 572.140338 502.755922 
L 574.754477 502.346482 
L 575.276128 502.311442 
L 577.377115 500.963194 
L 577.906364 500.729494 
L 578.967052 500.695992 
L 579.494868 500.990597 
L 580.548015 501.024786 
L 581.075674 500.71456 
L 582.137744 499.883031 
L 583.207192 499.334853 
L 584.272925 499.340761 
L 584.80333 499.34663 
L 585.864408 498.995726 
L 587.465134 497.746489 
L 589.067839 497.702883 
L 589.599639 497.80796 
L 590.663492 497.449918 
L 591.195218 497.451415 
L 592.266793 496.546193 
L 593.338592 496.584478 
L 594.944124 496.246031 
L 596.552248 495.460715 
L 597.091465 495.32712 
L 597.630997 495.320843 
L 598.171292 495.18887 
L 598.713692 494.922884 
L 599.798496 494.958993 
L 600.339716 495.045562 
L 601.427684 494.661223 
L 602.524951 494.186633 
L 603.62452 494.098952 
L 604.726213 494.381226 
L 605.277089 494.381549 
L 607.497267 493.57623 
L 609.17168 493.435493 
L 610.290804 493.606866 
L 613.119244 493.256895 
L 613.691719 493.267968 
L 614.839024 493.538493 
L 617.14354 493.599319 
L 617.720527 493.726042 
L 619.463031 493.686036 
L 620.627463 493.826609 
L 625.29948 493.857203 
L 626.47279 493.962217 
L 630.00169 493.778262 
L 630.592668 493.781905 
L 631.182746 493.941017 
L 631.771077 493.96999 
L 632.950298 493.626662 
L 634.134254 493.486257 
L 635.321757 493.529296 
L 635.916953 493.442571 
L 637.10481 493.586706 
L 638.29116 493.53933 
L 639.480589 493.584424 
L 640.674829 493.763389 
L 642.465018 493.862766 
L 644.855173 494.016198 
L 646.054335 494.137641 
L 647.253317 494.026858 
L 650.854293 493.492155 
L 653.856823 492.701289 
L 655.057717 492.394957 
L 656.257612 492.077068 
L 657.455424 491.585859 
L 659.257922 491.259249 
L 661.658567 490.521063 
L 664.061911 490.05566 
L 664.664782 489.770369 
L 665.266414 489.792967 
L 667.064533 489.348779 
L 670.655166 488.836009 
L 671.846002 488.502461 
L 674.226325 488.475703 
L 679.5595 487.41637 
L 680.149586 487.101383 
L 680.739019 487.229173 
L 681.913984 486.853579 
L 685.995123 485.362761 
L 687.151195 484.692588 
L 688.867201 483.370351 
L 689.436945 483.038886 
L 690.005875 482.547261 
L 690.57332 482.519598 
L 691.705289 481.90339 
L 693.401963 480.796893 
L 694.539324 480.35913 
L 698.584411 478.849342 
L 699.767032 478.665148 
L 700.967312 478.585829 
L 701.575452 478.540444 
L 702.79746 478.124441 
L 703.409173 478.022407 
L 704.630895 477.582963 
L 707.684131 477.290251 
L 708.904171 477.153258 
L 709.514574 477.281031 
L 710.124095 477.238692 
L 711.340875 477.410361 
L 713.77155 477.524085 
L 714.986343 477.739388 
L 718.006092 477.797581 
L 720.990453 477.559728 
L 722.733826 477.147128 
L 724.409618 477.350797 
L 724.951639 477.934626 
L 725.484495 478.674852 
L 726.019089 478.986842 
L 726.565422 478.53609 
L 729.969522 472.54185 
L 731.132178 471.151041 
L 732.308611 470.055191 
L 732.308611 470.055191 
" style="fill:none;stroke:#fc8d62;stroke-linecap:round;stroke-width:3;"/>
   </g>
   <g id="line2d_19">
    <path clip-path="url(#p824524b32a)" d="M 112.924838 409.169427 
L 114.621083 409.019792 
L 118.795341 407.36772 
L 122.867031 405.317979 
L 126.824164 403.032963 
L 128.757877 401.78144 
L 134.372933 397.693155 
L 139.469531 393.272259 
L 142.498618 390.181389 
L 146.570755 385.414746 
L 149.013097 382.218037 
L 152.339544 377.167256 
L 153.370626 375.48928 
L 158.062259 366.574259 
L 162.165639 357.228042 
L 166.589522 344.993629 
L 167.973734 340.674961 
L 170.6442 332.404995 
L 171.293201 329.909455 
L 172.573681 325.943749 
L 174.447657 319.384198 
L 176.853047 310.749492 
L 190.499937 257.54644 
L 194.383147 245.058876 
L 195.637709 242.00485 
L 196.877632 239.521339 
L 198.514085 237.793172 
L 199.326592 237.184845 
L 199.731694 236.928167 
L 201.346585 236.569389 
L 202.153468 236.98726 
L 202.557114 236.804136 
L 203.36395 237.142023 
L 204.17246 236.871005 
L 204.984445 237.30137 
L 205.390989 237.449395 
L 205.798122 237.204469 
L 206.616557 237.545284 
L 207.438679 237.944538 
L 207.851484 238.047809 
L 208.266145 238.396284 
L 208.681749 238.45832 
L 209.098396 238.983535 
L 209.516807 239.257696 
L 209.937507 239.800968 
L 210.359879 240.009069 
L 211.63717 241.94819 
L 212.067218 242.450326 
L 212.936247 244.295851 
L 213.372709 244.617218 
L 214.252241 246.827627 
L 214.695052 248.005466 
L 215.139552 248.817994 
L 216.035821 251.203831 
L 216.486821 252.063592 
L 217.396118 254.31497 
L 217.854354 255.530263 
L 218.314073 256.137132 
L 219.241672 258.510901 
L 221.124387 262.008918 
L 221.599725 262.577371 
L 222.07603 262.756642 
L 223.032873 263.507056 
L 223.996231 264.602852 
L 224.481696 265.745967 
L 225.951241 267.95675 
L 226.942725 269.648043 
L 227.442034 270.420137 
L 227.943077 270.967374 
L 229.972461 274.436921 
L 231.006846 277.270883 
L 231.528308 277.952366 
L 233.668212 285.727822 
L 234.214307 287.128195 
L 234.76841 290.560269 
L 235.887872 293.273294 
L 236.451035 293.591824 
L 237.019372 295.624325 
L 237.589021 295.832013 
L 238.161045 296.411977 
L 238.735742 297.168754 
L 239.31512 298.914995 
L 239.896871 299.562368 
L 240.480327 299.835383 
L 241.069592 302.179779 
L 241.660657 302.522066 
L 242.254295 303.229703 
L 242.852265 304.874521 
L 243.451199 304.716065 
L 244.051588 305.042051 
L 244.655208 306.158876 
L 245.2605 306.580954 
L 245.865732 306.087129 
L 246.471552 305.922511 
L 247.078588 306.257069 
L 247.684756 305.410052 
L 248.289525 304.275843 
L 248.895064 304.195293 
L 249.499432 303.238547 
L 250.705339 301.086655 
L 251.30737 300.237934 
L 251.908088 298.920298 
L 252.508366 297.902552 
L 254.304847 294.408794 
L 260.296123 283.504577 
L 262.091603 279.394002 
L 264.451368 271.638387 
L 265.602649 266.46711 
L 266.725053 260.21535 
L 267.814123 253.218809 
L 269.372357 240.837162 
L 271.29639 222.813127 
L 274.757919 190.671181 
L 275.971324 181.648525 
L 277.159769 175.074032 
L 277.943303 172.032014 
L 278.723573 170.085685 
L 279.502882 169.071909 
L 279.892714 168.763393 
L 280.283045 168.836649 
L 281.066146 169.362466 
L 281.459013 169.69341 
L 282.247959 170.806264 
L 283.841201 174.39945 
L 285.050752 177.887695 
L 285.86628 180.856357 
L 287.107678 186.489645 
L 288.37241 192.408531 
L 289.22696 195.42416 
L 290.521665 198.777735 
L 290.955764 199.583569 
L 291.390621 200.076617 
L 291.826858 201.021097 
L 292.700014 201.290814 
L 293.575989 202.312732 
L 294.014852 202.577429 
L 294.452901 201.883581 
L 294.892749 203.068697 
L 295.332746 203.060317 
L 295.7721 202.512452 
L 296.212892 203.41383 
L 296.653578 203.122041 
L 297.095656 203.936271 
L 297.537636 203.688787 
L 297.980152 203.83424 
L 298.425396 205.539426 
L 298.869717 204.626403 
L 299.764792 206.933775 
L 300.213976 207.073 
L 300.667143 209.40353 
L 301.121689 209.922519 
L 301.578508 210.932166 
L 302.040114 213.692407 
L 302.50401 214.66974 
L 302.971636 216.47931 
L 303.445079 219.619081 
L 304.403325 222.963417 
L 304.890554 226.023727 
L 306.37496 230.254254 
L 306.876408 231.097938 
L 307.379359 231.218108 
L 307.885534 232.303278 
L 308.902308 232.68054 
L 309.925538 233.16328 
L 310.438517 233.142958 
L 310.951271 232.943632 
L 311.465105 233.28836 
L 311.978671 232.945011 
L 312.492979 232.922081 
L 313.007464 232.764336 
L 313.522559 232.993487 
L 314.035929 232.054311 
L 315.063939 232.255344 
L 315.57721 231.400721 
L 316.090322 230.985959 
L 316.60404 230.971727 
L 317.629191 229.388329 
L 318.651716 228.552054 
L 319.160418 227.276773 
L 320.175769 226.345355 
L 320.68014 224.758875 
L 321.18386 224.334844 
L 322.680871 220.968626 
L 323.174596 219.67812 
L 323.667008 218.850477 
L 324.155986 217.100186 
L 324.642804 215.875634 
L 325.60791 212.489801 
L 326.087425 211.301826 
L 327.035656 207.071758 
L 327.506537 206.096908 
L 328.437021 201.691578 
L 330.26143 193.62493 
L 331.153791 189.48257 
L 335.828194 166.121472 
L 338.628352 153.321355 
L 339.020586 152.431987 
L 340.959047 145.724477 
L 341.342852 144.741368 
L 341.726317 144.292535 
L 342.10884 143.43045 
L 343.633539 141.297264 
L 344.01354 141.155143 
L 345.156286 142.074666 
L 345.538726 142.887219 
L 345.921011 142.890318 
L 346.304528 144.079154 
L 346.688319 144.364975 
L 347.074525 146.229054 
L 347.46155 146.768652 
L 347.850626 148.463468 
L 348.240814 149.265531 
L 349.02598 152.067675 
L 349.420087 152.508818 
L 349.817763 155.487639 
L 350.215353 155.586367 
L 350.616112 158.138758 
L 351.018584 159.380448 
L 351.422009 160.21834 
L 351.829132 163.075614 
L 352.236727 163.399572 
L 353.059835 167.421438 
L 353.473426 167.855778 
L 353.891003 170.663344 
L 354.73027 172.360585 
L 355.154987 175.169427 
L 356.008056 176.666313 
L 356.438745 178.954026 
L 356.871181 179.958293 
L 357.304406 180.49282 
L 357.740454 182.651653 
L 359.944782 187.572098 
L 360.389295 188.26287 
L 360.835841 189.55448 
L 361.283664 190.326833 
L 361.73226 190.692168 
L 362.634352 192.414595 
L 363.996792 193.389978 
L 364.452502 193.858778 
L 365.821507 194.001709 
L 366.278865 194.267297 
L 366.736495 194.099087 
L 367.193912 193.736528 
L 368.109292 193.490758 
L 368.567025 193.225382 
L 369.482179 192.241973 
L 369.939065 191.611311 
L 370.396168 191.184819 
L 370.852484 190.261405 
L 371.308373 189.695577 
L 372.217518 188.265022 
L 372.670881 187.72498 
L 373.123328 186.768061 
L 374.025832 185.497768 
L 374.474839 184.253354 
L 374.923283 183.8996 
L 376.259581 180.897704 
L 378.453137 175.475342 
L 379.31779 172.852175 
L 379.748407 172.312878 
L 380.176411 170.484216 
L 381.028043 168.490138 
L 381.450368 166.693296 
L 382.288417 164.465277 
L 382.703396 162.848488 
L 383.11634 161.873023 
L 383.932332 158.583218 
L 384.335674 157.153917 
L 384.735372 155.170266 
L 385.132571 154.019851 
L 392.574749 121.693173 
L 393.284485 119.539 
L 393.990357 116.460595 
L 394.34273 115.508483 
L 395.045934 112.594897 
L 395.749184 111.029675 
L 396.452325 108.875369 
L 397.155551 107.595956 
L 397.50625 106.382088 
L 397.856783 105.74 
L 398.207497 105.885471 
L 398.557343 104.794353 
L 398.907669 104.939721 
L 399.258463 104.953659 
L 399.609122 104.543654 
L 399.960162 104.928543 
L 400.310485 104.083784 
L 400.66092 103.911517 
L 401.012525 105.079896 
L 401.36381 104.54023 
L 401.716336 105.475872 
L 402.424738 106.313341 
L 402.781259 107.464036 
L 403.138403 107.129293 
L 403.498208 109.146445 
L 403.858339 109.124772 
L 404.219947 109.900677 
L 404.584438 112.343348 
L 404.949491 112.535708 
L 407.187478 121.778883 
L 407.954589 126.627542 
L 408.340628 126.757252 
L 408.731222 130.292084 
L 409.123993 131.675269 
L 409.518585 132.49686 
L 409.917795 135.64656 
L 410.320494 137.919029 
L 410.725853 139.27937 
L 411.549293 144.521145 
L 411.96498 145.221079 
L 412.808924 150.249327 
L 413.235096 151.59449 
L 413.663499 153.373009 
L 414.095363 156.128705 
L 414.96418 159.029769 
L 415.402742 161.460481 
L 415.843792 163.194833 
L 416.286265 164.25053 
L 417.179218 167.936795 
L 417.628574 169.136729 
L 418.080694 170.993287 
L 419.906278 176.273481 
L 420.824954 178.398979 
L 421.286401 179.655275 
L 421.747555 180.320551 
L 422.672631 181.904141 
L 423.135957 182.553718 
L 423.599264 182.746778 
L 424.063318 183.260298 
L 424.527341 183.454847 
L 425.456451 184.149017 
L 425.920469 183.78986 
L 426.38457 183.824751 
L 426.849609 184.278396 
L 427.314295 183.987631 
L 427.778447 183.525001 
L 428.243673 183.670009 
L 429.172101 182.697645 
L 429.637266 182.772221 
L 430.101388 182.051498 
L 430.565524 181.625324 
L 431.030669 181.47242 
L 431.495404 180.751922 
L 432.425061 179.918228 
L 433.820625 177.991549 
L 434.286771 177.497058 
L 434.753305 176.752414 
L 435.219649 175.775441 
L 435.686771 175.358178 
L 438.01225 171.194753 
L 439.39423 168.453418 
L 439.852888 167.690875 
L 441.221319 164.535256 
L 441.67622 164.197556 
L 443.034458 161.252268 
L 443.485848 160.634364 
L 444.385285 158.491378 
L 444.83471 158.215291 
L 446.177636 155.739785 
L 447.514495 153.679888 
L 447.959472 153.504793 
L 448.403828 152.869286 
L 449.291711 152.060502 
L 450.179109 151.559715 
L 450.622358 151.166633 
L 451.065974 151.359698 
L 451.953051 151.107759 
L 452.396269 150.902563 
L 452.839404 150.843595 
L 453.282804 150.901662 
L 453.725901 150.729542 
L 454.169516 151.023024 
L 455.057404 151.321734 
L 455.501128 151.017124 
L 455.944792 150.984966 
L 456.834548 151.973787 
L 457.280094 152.133894 
L 458.173083 152.89796 
L 458.619941 152.832775 
L 459.515791 153.687402 
L 459.965068 154.391271 
L 460.415011 154.835522 
L 460.86535 155.072565 
L 461.315947 155.172185 
L 461.767602 155.853179 
L 462.219979 156.271383 
L 463.582959 157.917982 
L 464.038849 158.232665 
L 464.495494 158.720562 
L 464.953475 159.479319 
L 465.412303 159.986709 
L 465.871702 160.270437 
L 466.331186 160.233413 
L 467.718107 162.738429 
L 468.181821 162.897108 
L 468.645378 162.77826 
L 469.109559 163.120802 
L 470.508727 165.165254 
L 470.976717 165.403121 
L 471.444336 165.099372 
L 472.382326 166.167564 
L 472.852385 166.492503 
L 473.323484 167.135306 
L 473.794288 166.936225 
L 474.264381 166.395885 
L 475.208876 167.771846 
L 476.157795 168.954251 
L 476.632766 168.897568 
L 477.106614 168.175628 
L 478.055113 168.463392 
L 478.529898 168.661409 
L 479.481234 169.368236 
L 479.955627 168.393563 
L 480.429368 167.931315 
L 480.903477 168.077381 
L 481.851748 168.075251 
L 482.326775 168.552401 
L 482.801687 168.54272 
L 483.273819 166.840282 
L 483.744237 165.811123 
L 484.685376 165.951838 
L 485.155819 165.825554 
L 485.626892 166.220421 
L 486.098303 166.381317 
L 486.567751 165.179947 
L 487.503794 163.98246 
L 487.970774 163.618148 
L 488.437525 163.570897 
L 488.903827 163.328037 
L 489.370348 163.555377 
L 489.83673 163.501441 
L 490.301791 162.745291 
L 490.764965 161.625125 
L 491.22688 160.893301 
L 491.687886 160.406259 
L 492.608681 160.107921 
L 493.069346 160.426179 
L 493.530856 161.033074 
L 494.90612 158.172533 
L 495.36227 157.59282 
L 495.818123 157.357181 
L 496.274142 157.504511 
L 496.730867 157.976685 
L 497.187953 158.12876 
L 498.09995 156.790584 
L 498.555446 156.304428 
L 499.919841 154.429418 
L 500.831193 154.191591 
L 501.74253 152.367215 
L 502.652314 150.187849 
L 503.106175 148.825688 
L 504.015951 148.234566 
L 504.471217 147.520354 
L 504.927071 147.07699 
L 505.838458 145.24316 
L 506.29412 145.020993 
L 506.749531 144.623094 
L 507.204297 144.041154 
L 508.570003 144.150565 
L 509.025869 144.549037 
L 509.939703 145.765705 
L 510.396971 146.721646 
L 510.853734 149.272302 
L 511.766516 156.023771 
L 512.680125 162.501717 
L 513.594775 171.010861 
L 514.964162 186.018265 
L 521.827758 285.940004 
L 523.205456 302.064007 
L 524.126185 313.673185 
L 525.04754 322.7081 
L 525.970496 332.650738 
L 529.685078 366.543069 
L 530.620762 373.285085 
L 531.558226 379.059298 
L 532.971934 389.151311 
L 533.919961 395.48911 
L 534.39464 397.395768 
L 534.869979 400.043913 
L 535.817774 403.387663 
L 536.292514 405.824826 
L 536.768219 407.580791 
L 537.723687 413.472211 
L 538.203687 416.234068 
L 538.683622 417.647301 
L 539.161269 417.916879 
L 541.08051 426.063281 
L 542.048108 430.562311 
L 543.497395 433.35542 
L 544.465997 436.900005 
L 544.952436 438.355439 
L 545.441304 441.03467 
L 545.93117 442.678795 
L 546.420323 442.979559 
L 546.908931 443.48445 
L 547.397436 444.417336 
L 547.885362 444.813573 
L 548.862945 447.14589 
L 549.355739 450.128204 
L 549.850399 452.002347 
L 550.344442 452.272091 
L 550.839484 453.668684 
L 551.33435 453.965241 
L 551.829043 454.80729 
L 552.32235 454.608602 
L 553.310697 456.778573 
L 553.809987 459.861237 
L 554.310807 461.31114 
L 554.811185 461.322784 
L 555.812279 462.17392 
L 556.313384 462.569703 
L 556.814787 463.147513 
L 557.315118 462.784518 
L 557.815355 463.030663 
L 558.320264 466.205102 
L 559.834627 467.061075 
L 560.340473 467.820378 
L 560.845762 467.626541 
L 562.36405 469.42382 
L 562.873105 471.211232 
L 563.383485 472.426473 
L 563.893775 472.775769 
L 564.916737 473.910384 
L 566.451143 474.377063 
L 566.965253 475.506896 
L 567.48193 477.327491 
L 567.998613 477.276359 
L 568.515663 477.44514 
L 569.03328 477.735549 
L 569.550312 477.470515 
L 570.582795 477.436953 
L 571.099684 478.30645 
L 572.140338 480.979093 
L 573.185215 481.772005 
L 573.708641 482.562118 
L 574.232105 482.592368 
L 574.754477 482.213761 
L 575.276128 482.220103 
L 575.798589 482.914885 
L 576.322322 483.873138 
L 576.849014 485.562082 
L 577.377115 486.473111 
L 577.906364 487.03238 
L 578.436969 488.207703 
L 578.967052 488.488411 
L 579.494868 487.063463 
L 580.021325 487.155724 
L 580.548015 487.418851 
L 581.075674 488.109729 
L 581.605659 489.912805 
L 582.137744 490.772997 
L 582.672045 492.316843 
L 583.207192 493.230023 
L 584.272925 492.027999 
L 584.80333 491.785481 
L 585.333689 491.781601 
L 585.864408 492.353496 
L 587.465134 495.521135 
L 587.999996 495.854217 
L 588.534215 495.478367 
L 589.067839 495.364159 
L 589.599639 494.540157 
L 590.131523 494.102769 
L 590.663492 494.330272 
L 591.195218 494.10873 
L 592.266793 496.210586 
L 592.802978 495.294757 
L 593.874215 494.142061 
L 594.410014 493.547699 
L 594.944124 491.881427 
L 595.478596 491.39129 
L 596.014411 491.162977 
L 597.630997 489.467393 
L 598.171292 488.276877 
L 598.713692 487.687558 
L 599.256478 486.760458 
L 599.798496 484.620049 
L 600.339716 483.240372 
L 601.427684 482.092229 
L 601.975458 482.824493 
L 602.524951 483.027922 
L 603.62452 480.75166 
L 604.726213 479.366136 
L 605.277089 478.389939 
L 606.38329 478.08491 
L 606.9393 477.93344 
L 607.497267 478.137864 
L 608.055757 477.717876 
L 608.613677 476.768421 
L 609.17168 476.111924 
L 609.730524 475.712373 
L 610.290804 475.975381 
L 610.852565 475.863473 
L 611.416421 476.704464 
L 612.549284 477.922849 
L 613.119244 479.112436 
L 614.26528 480.39101 
L 615.989602 482.4525 
L 617.14354 484.154451 
L 617.720527 484.570438 
L 618.299318 485.42425 
L 618.880361 485.99481 
L 619.463031 486.743115 
L 620.045412 486.551293 
L 620.627463 487.096396 
L 621.209082 487.210923 
L 621.789566 486.795474 
L 622.370465 486.999122 
L 622.952994 487.52587 
L 623.538235 488.526456 
L 624.125328 489.21857 
L 624.712156 489.132877 
L 625.29948 488.844141 
L 625.886619 488.406319 
L 627.057549 488.246551 
L 627.64309 488.966574 
L 628.230394 490.087732 
L 629.410887 492.982252 
L 630.592668 495.265565 
L 631.182746 495.863409 
L 631.771077 496.77604 
L 633.541716 502.541894 
L 634.134254 504.749843 
L 634.727438 507.562213 
L 635.321757 512.883025 
L 635.916953 520.850716 
L 636.511595 525.786059 
L 637.698004 533.388368 
L 638.885396 542.962057 
L 640.077173 553.236852 
L 641.272179 563.542385 
L 642.465018 572.224752 
L 643.658973 580.204835 
L 646.653646 597.518066 
L 647.853297 603.744334 
L 649.053652 608.627864 
L 650.253681 614.175104 
L 652.054296 619.927305 
L 653.256023 625.195442 
L 654.457708 628.484311 
L 655.057717 629.401889 
L 656.257612 632.065029 
L 657.455424 635.149654 
L 658.655998 638.495778 
L 659.257922 639.533434 
L 659.859615 640.066117 
L 660.460247 639.82063 
L 661.059938 640.068415 
L 661.658567 640.136606 
L 662.257412 641.016537 
L 663.459021 644.041123 
L 664.664782 645.790009 
L 665.266414 646.059127 
L 665.866477 645.829338 
L 668.263216 647.262867 
L 668.862255 647.868097 
L 669.460983 648.031099 
L 670.05838 647.721668 
L 670.655166 647.096074 
L 671.251048 646.972203 
L 671.846002 646.973834 
L 672.440944 647.298291 
L 673.036055 647.27507 
L 673.631316 647.006641 
L 674.226325 646.494262 
L 674.820767 646.233435 
L 676.009538 644.895406 
L 677.194638 643.109277 
L 677.786652 642.672893 
L 678.378399 641.952179 
L 679.5595 640.11065 
L 681.327333 638.193414 
L 681.913984 637.68905 
L 682.499485 636.370375 
L 683.084249 635.52317 
L 684.832506 632.23803 
L 685.995123 630.499722 
L 687.151195 628.463247 
L 688.296506 626.590257 
L 689.436945 624.062281 
L 690.005875 622.898381 
L 691.138485 621.486537 
L 691.705289 620.115265 
L 692.837808 618.178235 
L 693.971661 615.096689 
L 694.539324 614.277057 
L 695.110827 612.977824 
L 695.684264 612.112917 
L 697.419088 608.675637 
L 697.999309 607.823031 
L 698.584411 606.228073 
L 699.173752 605.156019 
L 700.364237 602.536324 
L 700.967312 601.885456 
L 701.575452 600.773802 
L 702.186233 599.891543 
L 704.02041 596.502775 
L 705.241391 594.053551 
L 705.851912 592.879882 
L 707.073629 591.00446 
L 707.684131 589.645282 
L 708.904171 587.473082 
L 709.514574 586.234701 
L 711.949116 580.005842 
L 713.164147 577.16921 
L 713.77155 576.023117 
L 715.5935 571.7172 
L 718.006092 564.52236 
L 721.57747 556.822856 
L 722.733826 553.765229 
L 723.860833 550.773313 
L 724.951639 548.524549 
L 726.565422 545.645665 
L 727.681411 543.249497 
L 728.247864 542.259379 
L 728.819325 541.026314 
L 729.969522 538.070584 
L 732.308611 532.699683 
L 732.308611 532.699683 
" style="fill:none;stroke:#fc8d62;stroke-dasharray:12,4.5;stroke-dashoffset:0;stroke-width:3;"/>
   </g>
   <g id="line2d_20"/>
   <g id="line2d_21"/>
   <g id="line2d_22"/>
   <g id="line2d_23"/>
   <g id="line2d_24"/>
   <g id="line2d_25"/>
   <g id="patch_3">
    <path d="M 112.5 619.0128 
L 112.5 83.4624 
" style="fill:none;stroke:#ffffff;stroke-linecap:square;stroke-linejoin:miter;stroke-width:2.5;"/>
   </g>
   <g id="patch_4">
    <path d="M 810 619.0128 
L 810 83.4624 
" style="fill:none;stroke:#ffffff;stroke-linecap:square;stroke-linejoin:miter;stroke-width:2.5;"/>
   </g>
   <g id="patch_5">
    <path d="M 112.5 619.0128 
L 810 619.0128 
" style="fill:none;stroke:#ffffff;stroke-linecap:square;stroke-linejoin:miter;stroke-width:2.5;"/>
   </g>
   <g id="patch_6">
    <path d="M 112.5 83.4624 
L 810 83.4624 
" style="fill:none;stroke:#ffffff;stroke-linecap:square;stroke-linejoin:miter;stroke-width:2.5;"/>
   </g>
   <g id="legend_1">
    <g id="patch_7">
     <path d="M 544.6525 295.425525 
L 794.6 295.425525 
Q 799 295.425525 799 291.025525 
L 799 98.8624 
Q 799 94.4624 794.6 94.4624 
L 544.6525 94.4624 
Q 540.2525 94.4624 540.2525 98.8624 
L 540.2525 291.025525 
Q 540.2525 295.425525 544.6525 295.425525 
z
" style="fill:#eaeaf2;opacity:0.8;stroke:#cccccc;stroke-linejoin:miter;stroke-width:2;"/>
    </g>
    <g id="line2d_26">
     <path d="M 549.0525 112.278962 
L 593.0525 112.278962 
" style="fill:none;"/>
    </g>
    <g id="line2d_27"/>
    <g id="text_18">
     <!-- Exp -->
     <defs>
      <path d="M 9.8125 72.90625 
L 55.90625 72.90625 
L 55.90625 64.59375 
L 19.671875 64.59375 
L 19.671875 43.015625 
L 54.390625 43.015625 
L 54.390625 34.71875 
L 19.671875 34.71875 
L 19.671875 8.296875 
L 56.78125 8.296875 
L 56.78125 0 
L 9.8125 0 
z
" id="DejaVuSans-45"/>
      <path d="M 54.890625 54.6875 
L 35.109375 28.078125 
L 55.90625 0 
L 45.3125 0 
L 29.390625 21.484375 
L 13.484375 0 
L 2.875 0 
L 24.125 28.609375 
L 4.6875 54.6875 
L 15.28125 54.6875 
L 29.78125 35.203125 
L 44.28125 54.6875 
z
" id="DejaVuSans-78"/>
      <path d="M 18.109375 8.203125 
L 18.109375 -20.796875 
L 9.078125 -20.796875 
L 9.078125 54.6875 
L 18.109375 54.6875 
L 18.109375 46.390625 
Q 20.953125 51.265625 25.265625 53.625 
Q 29.59375 56 35.59375 56 
Q 45.5625 56 51.78125 48.09375 
Q 58.015625 40.1875 58.015625 27.296875 
Q 58.015625 14.40625 51.78125 6.484375 
Q 45.5625 -1.421875 35.59375 -1.421875 
Q 29.59375 -1.421875 25.265625 0.953125 
Q 20.953125 3.328125 18.109375 8.203125 
z
M 48.6875 27.296875 
Q 48.6875 37.203125 44.609375 42.84375 
Q 40.53125 48.484375 33.40625 48.484375 
Q 26.265625 48.484375 22.1875 42.84375 
Q 18.109375 37.203125 18.109375 27.296875 
Q 18.109375 17.390625 22.1875 11.75 
Q 26.265625 6.109375 33.40625 6.109375 
Q 40.53125 6.109375 44.609375 11.75 
Q 48.6875 17.390625 48.6875 27.296875 
z
" id="DejaVuSans-70"/>
     </defs>
     <g style="fill:#262626;" transform="translate(610.6525 119.978962)scale(0.22 -0.22)">
      <use xlink:href="#DejaVuSans-45"/>
      <use x="63.183594" xlink:href="#DejaVuSans-78"/>
      <use x="122.363281" xlink:href="#DejaVuSans-70"/>
     </g>
    </g>
    <g id="line2d_28">
     <path d="M 549.0525 144.570837 
L 593.0525 144.570837 
" style="fill:none;stroke:#66c2a5;stroke-linecap:round;stroke-width:3;"/>
    </g>
    <g id="line2d_29"/>
    <g id="text_19">
     <!-- e000 -->
     <g style="fill:#262626;" transform="translate(610.6525 152.270837)scale(0.22 -0.22)">
      <use xlink:href="#DejaVuSans-65"/>
      <use x="61.523438" xlink:href="#DejaVuSans-30"/>
      <use x="125.146484" xlink:href="#DejaVuSans-30"/>
      <use x="188.769531" xlink:href="#DejaVuSans-30"/>
     </g>
    </g>
    <g id="line2d_30">
     <path d="M 549.0525 176.862712 
L 593.0525 176.862712 
" style="fill:none;stroke:#fc8d62;stroke-linecap:round;stroke-width:3;"/>
    </g>
    <g id="line2d_31"/>
    <g id="text_20">
     <!-- e000_a_indNB -->
     <defs>
      <path d="M 50.984375 -16.609375 
L 50.984375 -23.578125 
L -0.984375 -23.578125 
L -0.984375 -16.609375 
z
" id="DejaVuSans-5f"/>
      <path d="M 34.28125 27.484375 
Q 23.390625 27.484375 19.1875 25 
Q 14.984375 22.515625 14.984375 16.5 
Q 14.984375 11.71875 18.140625 8.90625 
Q 21.296875 6.109375 26.703125 6.109375 
Q 34.1875 6.109375 38.703125 11.40625 
Q 43.21875 16.703125 43.21875 25.484375 
L 43.21875 27.484375 
z
M 52.203125 31.203125 
L 52.203125 0 
L 43.21875 0 
L 43.21875 8.296875 
Q 40.140625 3.328125 35.546875 0.953125 
Q 30.953125 -1.421875 24.3125 -1.421875 
Q 15.921875 -1.421875 10.953125 3.296875 
Q 6 8.015625 6 15.921875 
Q 6 25.140625 12.171875 29.828125 
Q 18.359375 34.515625 30.609375 34.515625 
L 43.21875 34.515625 
L 43.21875 35.40625 
Q 43.21875 41.609375 39.140625 45 
Q 35.0625 48.390625 27.6875 48.390625 
Q 23 48.390625 18.546875 47.265625 
Q 14.109375 46.140625 10.015625 43.890625 
L 10.015625 52.203125 
Q 14.9375 54.109375 19.578125 55.046875 
Q 24.21875 56 28.609375 56 
Q 40.484375 56 46.34375 49.84375 
Q 52.203125 43.703125 52.203125 31.203125 
z
" id="DejaVuSans-61"/>
      <path d="M 54.890625 33.015625 
L 54.890625 0 
L 45.90625 0 
L 45.90625 32.71875 
Q 45.90625 40.484375 42.875 44.328125 
Q 39.84375 48.1875 33.796875 48.1875 
Q 26.515625 48.1875 22.3125 43.546875 
Q 18.109375 38.921875 18.109375 30.90625 
L 18.109375 0 
L 9.078125 0 
L 9.078125 54.6875 
L 18.109375 54.6875 
L 18.109375 46.1875 
Q 21.34375 51.125 25.703125 53.5625 
Q 30.078125 56 35.796875 56 
Q 45.21875 56 50.046875 50.171875 
Q 54.890625 44.34375 54.890625 33.015625 
z
" id="DejaVuSans-6e"/>
      <path d="M 45.40625 46.390625 
L 45.40625 75.984375 
L 54.390625 75.984375 
L 54.390625 0 
L 45.40625 0 
L 45.40625 8.203125 
Q 42.578125 3.328125 38.25 0.953125 
Q 33.9375 -1.421875 27.875 -1.421875 
Q 17.96875 -1.421875 11.734375 6.484375 
Q 5.515625 14.40625 5.515625 27.296875 
Q 5.515625 40.1875 11.734375 48.09375 
Q 17.96875 56 27.875 56 
Q 33.9375 56 38.25 53.625 
Q 42.578125 51.265625 45.40625 46.390625 
z
M 14.796875 27.296875 
Q 14.796875 17.390625 18.875 11.75 
Q 22.953125 6.109375 30.078125 6.109375 
Q 37.203125 6.109375 41.296875 11.75 
Q 45.40625 17.390625 45.40625 27.296875 
Q 45.40625 37.203125 41.296875 42.84375 
Q 37.203125 48.484375 30.078125 48.484375 
Q 22.953125 48.484375 18.875 42.84375 
Q 14.796875 37.203125 14.796875 27.296875 
z
" id="DejaVuSans-64"/>
      <path d="M 9.8125 72.90625 
L 23.09375 72.90625 
L 55.421875 11.921875 
L 55.421875 72.90625 
L 64.984375 72.90625 
L 64.984375 0 
L 51.703125 0 
L 19.390625 60.984375 
L 19.390625 0 
L 9.8125 0 
z
" id="DejaVuSans-4e"/>
      <path d="M 19.671875 34.8125 
L 19.671875 8.109375 
L 35.5 8.109375 
Q 43.453125 8.109375 47.28125 11.40625 
Q 51.125 14.703125 51.125 21.484375 
Q 51.125 28.328125 47.28125 31.5625 
Q 43.453125 34.8125 35.5 34.8125 
z
M 19.671875 64.796875 
L 19.671875 42.828125 
L 34.28125 42.828125 
Q 41.5 42.828125 45.03125 45.53125 
Q 48.578125 48.25 48.578125 53.8125 
Q 48.578125 59.328125 45.03125 62.0625 
Q 41.5 64.796875 34.28125 64.796875 
z
M 9.8125 72.90625 
L 35.015625 72.90625 
Q 46.296875 72.90625 52.390625 68.21875 
Q 58.5 63.53125 58.5 54.890625 
Q 58.5 48.1875 55.375 44.234375 
Q 52.25 40.28125 46.1875 39.3125 
Q 53.46875 37.75 57.5 32.78125 
Q 61.53125 27.828125 61.53125 20.40625 
Q 61.53125 10.640625 54.890625 5.3125 
Q 48.25 0 35.984375 0 
L 9.8125 0 
z
" id="DejaVuSans-42"/>
     </defs>
     <g style="fill:#262626;" transform="translate(610.6525 184.562712)scale(0.22 -0.22)">
      <use xlink:href="#DejaVuSans-65"/>
      <use x="61.523438" xlink:href="#DejaVuSans-30"/>
      <use x="125.146484" xlink:href="#DejaVuSans-30"/>
      <use x="188.769531" xlink:href="#DejaVuSans-30"/>
      <use x="252.392578" xlink:href="#DejaVuSans-5f"/>
      <use x="302.392578" xlink:href="#DejaVuSans-61"/>
      <use x="363.671875" xlink:href="#DejaVuSans-5f"/>
      <use x="413.671875" xlink:href="#DejaVuSans-69"/>
      <use x="441.455078" xlink:href="#DejaVuSans-6e"/>
      <use x="504.833984" xlink:href="#DejaVuSans-64"/>
      <use x="568.310547" xlink:href="#DejaVuSans-4e"/>
      <use x="643.115234" xlink:href="#DejaVuSans-42"/>
     </g>
    </g>
    <g id="line2d_32">
     <path d="M 549.0525 209.766462 
L 593.0525 209.766462 
" style="fill:none;"/>
    </g>
    <g id="line2d_33"/>
    <g id="text_21">
     <!-- Type -->
     <defs>
      <path d="M -0.296875 72.90625 
L 61.375 72.90625 
L 61.375 64.59375 
L 35.5 64.59375 
L 35.5 0 
L 25.59375 0 
L 25.59375 64.59375 
L -0.296875 64.59375 
z
" id="DejaVuSans-54"/>
     </defs>
     <g style="fill:#262626;" transform="translate(610.6525 217.466462)scale(0.22 -0.22)">
      <use xlink:href="#DejaVuSans-54"/>
      <use x="60.849609" xlink:href="#DejaVuSans-79"/>
      <use x="120.029297" xlink:href="#DejaVuSans-70"/>
      <use x="183.505859" xlink:href="#DejaVuSans-65"/>
     </g>
    </g>
    <g id="line2d_34">
     <path d="M 549.0525 242.058337 
L 593.0525 242.058337 
" style="fill:none;stroke:#333333;stroke-linecap:round;stroke-width:3;"/>
    </g>
    <g id="line2d_35"/>
    <g id="text_22">
     <!-- Trench -->
     <defs>
      <path d="M 41.109375 46.296875 
Q 39.59375 47.171875 37.8125 47.578125 
Q 36.03125 48 33.890625 48 
Q 26.265625 48 22.1875 43.046875 
Q 18.109375 38.09375 18.109375 28.8125 
L 18.109375 0 
L 9.078125 0 
L 9.078125 54.6875 
L 18.109375 54.6875 
L 18.109375 46.1875 
Q 20.953125 51.171875 25.484375 53.578125 
Q 30.03125 56 36.53125 56 
Q 37.453125 56 38.578125 55.875 
Q 39.703125 55.765625 41.0625 55.515625 
z
" id="DejaVuSans-72"/>
      <path d="M 54.890625 33.015625 
L 54.890625 0 
L 45.90625 0 
L 45.90625 32.71875 
Q 45.90625 40.484375 42.875 44.328125 
Q 39.84375 48.1875 33.796875 48.1875 
Q 26.515625 48.1875 22.3125 43.546875 
Q 18.109375 38.921875 18.109375 30.90625 
L 18.109375 0 
L 9.078125 0 
L 9.078125 75.984375 
L 18.109375 75.984375 
L 18.109375 46.1875 
Q 21.34375 51.125 25.703125 53.5625 
Q 30.078125 56 35.796875 56 
Q 45.21875 56 50.046875 50.171875 
Q 54.890625 44.34375 54.890625 33.015625 
z
" id="DejaVuSans-68"/>
     </defs>
     <g style="fill:#262626;" transform="translate(610.6525 249.758337)scale(0.22 -0.22)">
      <use xlink:href="#DejaVuSans-54"/>
      <use x="60.865234" xlink:href="#DejaVuSans-72"/>
      <use x="101.947266" xlink:href="#DejaVuSans-65"/>
      <use x="163.470703" xlink:href="#DejaVuSans-6e"/>
      <use x="226.849609" xlink:href="#DejaVuSans-63"/>
      <use x="281.830078" xlink:href="#DejaVuSans-68"/>
     </g>
    </g>
    <g id="line2d_36">
     <path d="M 549.0525 274.350212 
L 593.0525 274.350212 
" style="fill:none;stroke:#333333;stroke-dasharray:12,4.5;stroke-dashoffset:0;stroke-width:3;"/>
    </g>
    <g id="line2d_37"/>
    <g id="text_23">
     <!-- SubductingPlate -->
     <defs>
      <path d="M 53.515625 70.515625 
L 53.515625 60.890625 
Q 47.90625 63.578125 42.921875 64.890625 
Q 37.9375 66.21875 33.296875 66.21875 
Q 25.25 66.21875 20.875 63.09375 
Q 16.5 59.96875 16.5 54.203125 
Q 16.5 49.359375 19.40625 46.890625 
Q 22.3125 44.4375 30.421875 42.921875 
L 36.375 41.703125 
Q 47.40625 39.59375 52.65625 34.296875 
Q 57.90625 29 57.90625 20.125 
Q 57.90625 9.515625 50.796875 4.046875 
Q 43.703125 -1.421875 29.984375 -1.421875 
Q 24.8125 -1.421875 18.96875 -0.25 
Q 13.140625 0.921875 6.890625 3.21875 
L 6.890625 13.375 
Q 12.890625 10.015625 18.65625 8.296875 
Q 24.421875 6.59375 29.984375 6.59375 
Q 38.421875 6.59375 43.015625 9.90625 
Q 47.609375 13.234375 47.609375 19.390625 
Q 47.609375 24.75 44.3125 27.78125 
Q 41.015625 30.8125 33.5 32.328125 
L 27.484375 33.5 
Q 16.453125 35.6875 11.515625 40.375 
Q 6.59375 45.0625 6.59375 53.421875 
Q 6.59375 63.09375 13.40625 68.65625 
Q 20.21875 74.21875 32.171875 74.21875 
Q 37.3125 74.21875 42.625 73.28125 
Q 47.953125 72.359375 53.515625 70.515625 
z
" id="DejaVuSans-53"/>
      <path d="M 8.5 21.578125 
L 8.5 54.6875 
L 17.484375 54.6875 
L 17.484375 21.921875 
Q 17.484375 14.15625 20.5 10.265625 
Q 23.53125 6.390625 29.59375 6.390625 
Q 36.859375 6.390625 41.078125 11.03125 
Q 45.3125 15.671875 45.3125 23.6875 
L 45.3125 54.6875 
L 54.296875 54.6875 
L 54.296875 0 
L 45.3125 0 
L 45.3125 8.40625 
Q 42.046875 3.421875 37.71875 1 
Q 33.40625 -1.421875 27.6875 -1.421875 
Q 18.265625 -1.421875 13.375 4.4375 
Q 8.5 10.296875 8.5 21.578125 
z
M 31.109375 56 
z
" id="DejaVuSans-75"/>
      <path d="M 48.6875 27.296875 
Q 48.6875 37.203125 44.609375 42.84375 
Q 40.53125 48.484375 33.40625 48.484375 
Q 26.265625 48.484375 22.1875 42.84375 
Q 18.109375 37.203125 18.109375 27.296875 
Q 18.109375 17.390625 22.1875 11.75 
Q 26.265625 6.109375 33.40625 6.109375 
Q 40.53125 6.109375 44.609375 11.75 
Q 48.6875 17.390625 48.6875 27.296875 
z
M 18.109375 46.390625 
Q 20.953125 51.265625 25.265625 53.625 
Q 29.59375 56 35.59375 56 
Q 45.5625 56 51.78125 48.09375 
Q 58.015625 40.1875 58.015625 27.296875 
Q 58.015625 14.40625 51.78125 6.484375 
Q 45.5625 -1.421875 35.59375 -1.421875 
Q 29.59375 -1.421875 25.265625 0.953125 
Q 20.953125 3.328125 18.109375 8.203125 
L 18.109375 0 
L 9.078125 0 
L 9.078125 75.984375 
L 18.109375 75.984375 
z
" id="DejaVuSans-62"/>
      <path d="M 45.40625 27.984375 
Q 45.40625 37.75 41.375 43.109375 
Q 37.359375 48.484375 30.078125 48.484375 
Q 22.859375 48.484375 18.828125 43.109375 
Q 14.796875 37.75 14.796875 27.984375 
Q 14.796875 18.265625 18.828125 12.890625 
Q 22.859375 7.515625 30.078125 7.515625 
Q 37.359375 7.515625 41.375 12.890625 
Q 45.40625 18.265625 45.40625 27.984375 
z
M 54.390625 6.78125 
Q 54.390625 -7.171875 48.1875 -13.984375 
Q 42 -20.796875 29.203125 -20.796875 
Q 24.46875 -20.796875 20.265625 -20.09375 
Q 16.0625 -19.390625 12.109375 -17.921875 
L 12.109375 -9.1875 
Q 16.0625 -11.328125 19.921875 -12.34375 
Q 23.78125 -13.375 27.78125 -13.375 
Q 36.625 -13.375 41.015625 -8.765625 
Q 45.40625 -4.15625 45.40625 5.171875 
L 45.40625 9.625 
Q 42.625 4.78125 38.28125 2.390625 
Q 33.9375 0 27.875 0 
Q 17.828125 0 11.671875 7.65625 
Q 5.515625 15.328125 5.515625 27.984375 
Q 5.515625 40.671875 11.671875 48.328125 
Q 17.828125 56 27.875 56 
Q 33.9375 56 38.28125 53.609375 
Q 42.625 51.21875 45.40625 46.390625 
L 45.40625 54.6875 
L 54.390625 54.6875 
z
" id="DejaVuSans-67"/>
      <path d="M 19.671875 64.796875 
L 19.671875 37.40625 
L 32.078125 37.40625 
Q 38.96875 37.40625 42.71875 40.96875 
Q 46.484375 44.53125 46.484375 51.125 
Q 46.484375 57.671875 42.71875 61.234375 
Q 38.96875 64.796875 32.078125 64.796875 
z
M 9.8125 72.90625 
L 32.078125 72.90625 
Q 44.34375 72.90625 50.609375 67.359375 
Q 56.890625 61.8125 56.890625 51.125 
Q 56.890625 40.328125 50.609375 34.8125 
Q 44.34375 29.296875 32.078125 29.296875 
L 19.671875 29.296875 
L 19.671875 0 
L 9.8125 0 
z
" id="DejaVuSans-50"/>
     </defs>
     <g style="fill:#262626;" transform="translate(610.6525 282.050212)scale(0.22 -0.22)">
      <use xlink:href="#DejaVuSans-53"/>
      <use x="63.476562" xlink:href="#DejaVuSans-75"/>
      <use x="126.855469" xlink:href="#DejaVuSans-62"/>
      <use x="190.332031" xlink:href="#DejaVuSans-64"/>
      <use x="253.808594" xlink:href="#DejaVuSans-75"/>
      <use x="317.1875" xlink:href="#DejaVuSans-63"/>
      <use x="372.167969" xlink:href="#DejaVuSans-74"/>
      <use x="411.376953" xlink:href="#DejaVuSans-69"/>
      <use x="439.160156" xlink:href="#DejaVuSans-6e"/>
      <use x="502.539062" xlink:href="#DejaVuSans-67"/>
      <use x="566.015625" xlink:href="#DejaVuSans-50"/>
      <use x="626.318359" xlink:href="#DejaVuSans-6c"/>
      <use x="654.101562" xlink:href="#DejaVuSans-61"/>
      <use x="715.380859" xlink:href="#DejaVuSans-74"/>
      <use x="754.589844" xlink:href="#DejaVuSans-65"/>
     </g>
    </g>
   </g>
  </g>
 </g>
 <defs>
  <clipPath id="p824524b32a">
   <rect height="535.5504" width="697.5" x="112.5" y="83.4624"/>
  </clipPath>
 </defs>
</svg>
