<?xml version="1.0" encoding="utf-8" standalone="no"?>
<!DOCTYPE svg PUBLIC "-//W3C//DTD SVG 1.1//EN"
  "http://www.w3.org/Graphics/SVG/1.1/DTD/svg11.dtd">
<!-- Created with matplotlib (http://matplotlib.org/) -->
<svg height="695.52pt" version="1.1" viewBox="0 0 900 695.52" width="900pt" xmlns="http://www.w3.org/2000/svg" xmlns:xlink="http://www.w3.org/1999/xlink">
 <defs>
  <style type="text/css">
*{stroke-linecap:butt;stroke-linejoin:round;}
  </style>
 </defs>
 <g id="figure_1">
  <g id="patch_1">
   <path d="M 0 695.52 
L 900 695.52 
L 900 0 
L 0 0 
z
" style="fill:#ffffff;"/>
  </g>
  <g id="axes_1">
   <g id="patch_2">
    <path d="M 112.5 619.0128 
L 810 619.0128 
L 810 83.4624 
L 112.5 83.4624 
z
" style="fill:#eaeaf2;"/>
   </g>
   <g id="matplotlib.axis_1">
    <g id="xtick_1">
     <g id="line2d_1">
      <path clip-path="url(#p7b1ee4b86a)" d="M 112.5 619.0128 
L 112.5 83.4624 
" style="fill:none;stroke:#ffffff;stroke-dasharray:7.4,3.2;stroke-dashoffset:0;stroke-width:2;"/>
     </g>
     <g id="text_1">
      <!-- 0 -->
      <defs>
       <path d="M 31.78125 66.40625 
Q 24.171875 66.40625 20.328125 58.90625 
Q 16.5 51.421875 16.5 36.375 
Q 16.5 21.390625 20.328125 13.890625 
Q 24.171875 6.390625 31.78125 6.390625 
Q 39.453125 6.390625 43.28125 13.890625 
Q 47.125 21.390625 47.125 36.375 
Q 47.125 51.421875 43.28125 58.90625 
Q 39.453125 66.40625 31.78125 66.40625 
z
M 31.78125 74.21875 
Q 44.046875 74.21875 50.515625 64.515625 
Q 56.984375 54.828125 56.984375 36.375 
Q 56.984375 17.96875 50.515625 8.265625 
Q 44.046875 -1.421875 31.78125 -1.421875 
Q 19.53125 -1.421875 13.0625 8.265625 
Q 6.59375 17.96875 6.59375 36.375 
Q 6.59375 54.828125 13.0625 64.515625 
Q 19.53125 74.21875 31.78125 74.21875 
z
" id="DejaVuSans-30"/>
      </defs>
      <g style="fill:#262626;" transform="translate(105.50125 651.229362)scale(0.22 -0.22)">
       <use xlink:href="#DejaVuSans-30"/>
      </g>
     </g>
    </g>
    <g id="xtick_2">
     <g id="line2d_2">
      <path clip-path="url(#p7b1ee4b86a)" d="M 190 619.0128 
L 190 83.4624 
" style="fill:none;stroke:#ffffff;stroke-dasharray:7.4,3.2;stroke-dashoffset:0;stroke-width:2;"/>
     </g>
     <g id="text_2">
      <!-- 25 -->
      <defs>
       <path d="M 19.1875 8.296875 
L 53.609375 8.296875 
L 53.609375 0 
L 7.328125 0 
L 7.328125 8.296875 
Q 12.9375 14.109375 22.625 23.890625 
Q 32.328125 33.6875 34.8125 36.53125 
Q 39.546875 41.84375 41.421875 45.53125 
Q 43.3125 49.21875 43.3125 52.78125 
Q 43.3125 58.59375 39.234375 62.25 
Q 35.15625 65.921875 28.609375 65.921875 
Q 23.96875 65.921875 18.8125 64.3125 
Q 13.671875 62.703125 7.8125 59.421875 
L 7.8125 69.390625 
Q 13.765625 71.78125 18.9375 73 
Q 24.125 74.21875 28.421875 74.21875 
Q 39.75 74.21875 46.484375 68.546875 
Q 53.21875 62.890625 53.21875 53.421875 
Q 53.21875 48.921875 51.53125 44.890625 
Q 49.859375 40.875 45.40625 35.40625 
Q 44.1875 33.984375 37.640625 27.21875 
Q 31.109375 20.453125 19.1875 8.296875 
z
" id="DejaVuSans-32"/>
       <path d="M 10.796875 72.90625 
L 49.515625 72.90625 
L 49.515625 64.59375 
L 19.828125 64.59375 
L 19.828125 46.734375 
Q 21.96875 47.46875 24.109375 47.828125 
Q 26.265625 48.1875 28.421875 48.1875 
Q 40.625 48.1875 47.75 41.5 
Q 54.890625 34.8125 54.890625 23.390625 
Q 54.890625 11.625 47.5625 5.09375 
Q 40.234375 -1.421875 26.90625 -1.421875 
Q 22.3125 -1.421875 17.546875 -0.640625 
Q 12.796875 0.140625 7.71875 1.703125 
L 7.71875 11.625 
Q 12.109375 9.234375 16.796875 8.0625 
Q 21.484375 6.890625 26.703125 6.890625 
Q 35.15625 6.890625 40.078125 11.328125 
Q 45.015625 15.765625 45.015625 23.390625 
Q 45.015625 31 40.078125 35.4375 
Q 35.15625 39.890625 26.703125 39.890625 
Q 22.75 39.890625 18.8125 39.015625 
Q 14.890625 38.140625 10.796875 36.28125 
z
" id="DejaVuSans-35"/>
      </defs>
      <g style="fill:#262626;" transform="translate(176.0025 651.229362)scale(0.22 -0.22)">
       <use xlink:href="#DejaVuSans-32"/>
       <use x="63.623047" xlink:href="#DejaVuSans-35"/>
      </g>
     </g>
    </g>
    <g id="xtick_3">
     <g id="line2d_3">
      <path clip-path="url(#p7b1ee4b86a)" d="M 267.5 619.0128 
L 267.5 83.4624 
" style="fill:none;stroke:#ffffff;stroke-dasharray:7.4,3.2;stroke-dashoffset:0;stroke-width:2;"/>
     </g>
     <g id="text_3">
      <!-- 50 -->
      <g style="fill:#262626;" transform="translate(253.5025 651.229362)scale(0.22 -0.22)">
       <use xlink:href="#DejaVuSans-35"/>
       <use x="63.623047" xlink:href="#DejaVuSans-30"/>
      </g>
     </g>
    </g>
    <g id="xtick_4">
     <g id="line2d_4">
      <path clip-path="url(#p7b1ee4b86a)" d="M 345 619.0128 
L 345 83.4624 
" style="fill:none;stroke:#ffffff;stroke-dasharray:7.4,3.2;stroke-dashoffset:0;stroke-width:2;"/>
     </g>
     <g id="text_4">
      <!-- 75 -->
      <defs>
       <path d="M 8.203125 72.90625 
L 55.078125 72.90625 
L 55.078125 68.703125 
L 28.609375 0 
L 18.3125 0 
L 43.21875 64.59375 
L 8.203125 64.59375 
z
" id="DejaVuSans-37"/>
      </defs>
      <g style="fill:#262626;" transform="translate(331.0025 651.229362)scale(0.22 -0.22)">
       <use xlink:href="#DejaVuSans-37"/>
       <use x="63.623047" xlink:href="#DejaVuSans-35"/>
      </g>
     </g>
    </g>
    <g id="xtick_5">
     <g id="line2d_5">
      <path clip-path="url(#p7b1ee4b86a)" d="M 422.5 619.0128 
L 422.5 83.4624 
" style="fill:none;stroke:#ffffff;stroke-dasharray:7.4,3.2;stroke-dashoffset:0;stroke-width:2;"/>
     </g>
     <g id="text_5">
      <!-- 100 -->
      <defs>
       <path d="M 12.40625 8.296875 
L 28.515625 8.296875 
L 28.515625 63.921875 
L 10.984375 60.40625 
L 10.984375 69.390625 
L 28.421875 72.90625 
L 38.28125 72.90625 
L 38.28125 8.296875 
L 54.390625 8.296875 
L 54.390625 0 
L 12.40625 0 
z
" id="DejaVuSans-31"/>
      </defs>
      <g style="fill:#262626;" transform="translate(401.50375 651.229362)scale(0.22 -0.22)">
       <use xlink:href="#DejaVuSans-31"/>
       <use x="63.623047" xlink:href="#DejaVuSans-30"/>
       <use x="127.246094" xlink:href="#DejaVuSans-30"/>
      </g>
     </g>
    </g>
    <g id="xtick_6">
     <g id="line2d_6">
      <path clip-path="url(#p7b1ee4b86a)" d="M 500 619.0128 
L 500 83.4624 
" style="fill:none;stroke:#ffffff;stroke-dasharray:7.4,3.2;stroke-dashoffset:0;stroke-width:2;"/>
     </g>
     <g id="text_6">
      <!-- 125 -->
      <g style="fill:#262626;" transform="translate(479.00375 651.229362)scale(0.22 -0.22)">
       <use xlink:href="#DejaVuSans-31"/>
       <use x="63.623047" xlink:href="#DejaVuSans-32"/>
       <use x="127.246094" xlink:href="#DejaVuSans-35"/>
      </g>
     </g>
    </g>
    <g id="xtick_7">
     <g id="line2d_7">
      <path clip-path="url(#p7b1ee4b86a)" d="M 577.5 619.0128 
L 577.5 83.4624 
" style="fill:none;stroke:#ffffff;stroke-dasharray:7.4,3.2;stroke-dashoffset:0;stroke-width:2;"/>
     </g>
     <g id="text_7">
      <!-- 150 -->
      <g style="fill:#262626;" transform="translate(556.50375 651.229362)scale(0.22 -0.22)">
       <use xlink:href="#DejaVuSans-31"/>
       <use x="63.623047" xlink:href="#DejaVuSans-35"/>
       <use x="127.246094" xlink:href="#DejaVuSans-30"/>
      </g>
     </g>
    </g>
    <g id="xtick_8">
     <g id="line2d_8">
      <path clip-path="url(#p7b1ee4b86a)" d="M 655 619.0128 
L 655 83.4624 
" style="fill:none;stroke:#ffffff;stroke-dasharray:7.4,3.2;stroke-dashoffset:0;stroke-width:2;"/>
     </g>
     <g id="text_8">
      <!-- 175 -->
      <g style="fill:#262626;" transform="translate(634.00375 651.229362)scale(0.22 -0.22)">
       <use xlink:href="#DejaVuSans-31"/>
       <use x="63.623047" xlink:href="#DejaVuSans-37"/>
       <use x="127.246094" xlink:href="#DejaVuSans-35"/>
      </g>
     </g>
    </g>
    <g id="xtick_9">
     <g id="line2d_9">
      <path clip-path="url(#p7b1ee4b86a)" d="M 732.5 619.0128 
L 732.5 83.4624 
" style="fill:none;stroke:#ffffff;stroke-dasharray:7.4,3.2;stroke-dashoffset:0;stroke-width:2;"/>
     </g>
     <g id="text_9">
      <!-- 200 -->
      <g style="fill:#262626;" transform="translate(711.50375 651.229362)scale(0.22 -0.22)">
       <use xlink:href="#DejaVuSans-32"/>
       <use x="63.623047" xlink:href="#DejaVuSans-30"/>
       <use x="127.246094" xlink:href="#DejaVuSans-30"/>
      </g>
     </g>
    </g>
    <g id="xtick_10">
     <g id="line2d_10">
      <path clip-path="url(#p7b1ee4b86a)" d="M 810 619.0128 
L 810 83.4624 
" style="fill:none;stroke:#ffffff;stroke-dasharray:7.4,3.2;stroke-dashoffset:0;stroke-width:2;"/>
     </g>
     <g id="text_10">
      <!-- 225 -->
      <g style="fill:#262626;" transform="translate(789.00375 651.229362)scale(0.22 -0.22)">
       <use xlink:href="#DejaVuSans-32"/>
       <use x="63.623047" xlink:href="#DejaVuSans-32"/>
       <use x="127.246094" xlink:href="#DejaVuSans-35"/>
      </g>
     </g>
    </g>
    <g id="text_11">
     <!-- time -->
     <defs>
      <path d="M 18.3125 70.21875 
L 18.3125 54.6875 
L 36.8125 54.6875 
L 36.8125 47.703125 
L 18.3125 47.703125 
L 18.3125 18.015625 
Q 18.3125 11.328125 20.140625 9.421875 
Q 21.96875 7.515625 27.59375 7.515625 
L 36.8125 7.515625 
L 36.8125 0 
L 27.59375 0 
Q 17.1875 0 13.234375 3.875 
Q 9.28125 7.765625 9.28125 18.015625 
L 9.28125 47.703125 
L 2.6875 47.703125 
L 2.6875 54.6875 
L 9.28125 54.6875 
L 9.28125 70.21875 
z
" id="DejaVuSans-74"/>
      <path d="M 9.421875 54.6875 
L 18.40625 54.6875 
L 18.40625 0 
L 9.421875 0 
z
M 9.421875 75.984375 
L 18.40625 75.984375 
L 18.40625 64.59375 
L 9.421875 64.59375 
z
" id="DejaVuSans-69"/>
      <path d="M 52 44.1875 
Q 55.375 50.25 60.0625 53.125 
Q 64.75 56 71.09375 56 
Q 79.640625 56 84.28125 50.015625 
Q 88.921875 44.046875 88.921875 33.015625 
L 88.921875 0 
L 79.890625 0 
L 79.890625 32.71875 
Q 79.890625 40.578125 77.09375 44.375 
Q 74.3125 48.1875 68.609375 48.1875 
Q 61.625 48.1875 57.5625 43.546875 
Q 53.515625 38.921875 53.515625 30.90625 
L 53.515625 0 
L 44.484375 0 
L 44.484375 32.71875 
Q 44.484375 40.625 41.703125 44.40625 
Q 38.921875 48.1875 33.109375 48.1875 
Q 26.21875 48.1875 22.15625 43.53125 
Q 18.109375 38.875 18.109375 30.90625 
L 18.109375 0 
L 9.078125 0 
L 9.078125 54.6875 
L 18.109375 54.6875 
L 18.109375 46.1875 
Q 21.1875 51.21875 25.484375 53.609375 
Q 29.78125 56 35.6875 56 
Q 41.65625 56 45.828125 52.96875 
Q 50 49.953125 52 44.1875 
z
" id="DejaVuSans-6d"/>
      <path d="M 56.203125 29.59375 
L 56.203125 25.203125 
L 14.890625 25.203125 
Q 15.484375 15.921875 20.484375 11.0625 
Q 25.484375 6.203125 34.421875 6.203125 
Q 39.59375 6.203125 44.453125 7.46875 
Q 49.3125 8.734375 54.109375 11.28125 
L 54.109375 2.78125 
Q 49.265625 0.734375 44.1875 -0.34375 
Q 39.109375 -1.421875 33.890625 -1.421875 
Q 20.796875 -1.421875 13.15625 6.1875 
Q 5.515625 13.8125 5.515625 26.8125 
Q 5.515625 40.234375 12.765625 48.109375 
Q 20.015625 56 32.328125 56 
Q 43.359375 56 49.78125 48.890625 
Q 56.203125 41.796875 56.203125 29.59375 
z
M 47.21875 32.234375 
Q 47.125 39.59375 43.09375 43.984375 
Q 39.0625 48.390625 32.421875 48.390625 
Q 24.90625 48.390625 20.390625 44.140625 
Q 15.875 39.890625 15.1875 32.171875 
z
" id="DejaVuSans-65"/>
     </defs>
     <g style="fill:#262626;" transform="translate(434.139375 678.040925)scale(0.24 -0.24)">
      <use xlink:href="#DejaVuSans-74"/>
      <use x="39.208984" xlink:href="#DejaVuSans-69"/>
      <use x="66.992188" xlink:href="#DejaVuSans-6d"/>
      <use x="164.404297" xlink:href="#DejaVuSans-65"/>
     </g>
    </g>
   </g>
   <g id="matplotlib.axis_2">
    <g id="ytick_1">
     <g id="line2d_11">
      <path clip-path="url(#p7b1ee4b86a)" d="M 112.5 619.0128 
L 810 619.0128 
" style="fill:none;stroke:#ffffff;stroke-dasharray:7.4,3.2;stroke-dashoffset:0;stroke-width:2;"/>
     </g>
     <g id="text_12">
      <!-- −1.0 -->
      <defs>
       <path d="M 10.59375 35.5 
L 73.1875 35.5 
L 73.1875 27.203125 
L 10.59375 27.203125 
z
" id="DejaVuSans-2212"/>
       <path d="M 10.6875 12.40625 
L 21 12.40625 
L 21 0 
L 10.6875 0 
z
" id="DejaVuSans-2e"/>
      </defs>
      <g style="fill:#262626;" transform="translate(43.577813 627.371081)scale(0.22 -0.22)">
       <use xlink:href="#DejaVuSans-2212"/>
       <use x="83.789062" xlink:href="#DejaVuSans-31"/>
       <use x="147.412109" xlink:href="#DejaVuSans-2e"/>
       <use x="179.199219" xlink:href="#DejaVuSans-30"/>
      </g>
     </g>
    </g>
    <g id="ytick_2">
     <g id="line2d_12">
      <path clip-path="url(#p7b1ee4b86a)" d="M 112.5 559.5072 
L 810 559.5072 
" style="fill:none;stroke:#ffffff;stroke-dasharray:7.4,3.2;stroke-dashoffset:0;stroke-width:2;"/>
     </g>
     <g id="text_13">
      <!-- −0.5 -->
      <g style="fill:#262626;" transform="translate(43.577813 567.865481)scale(0.22 -0.22)">
       <use xlink:href="#DejaVuSans-2212"/>
       <use x="83.789062" xlink:href="#DejaVuSans-30"/>
       <use x="147.412109" xlink:href="#DejaVuSans-2e"/>
       <use x="179.199219" xlink:href="#DejaVuSans-35"/>
      </g>
     </g>
    </g>
    <g id="ytick_3">
     <g id="line2d_13">
      <path clip-path="url(#p7b1ee4b86a)" d="M 112.5 500.0016 
L 810 500.0016 
" style="fill:none;stroke:#ffffff;stroke-dasharray:7.4,3.2;stroke-dashoffset:0;stroke-width:2;"/>
     </g>
     <g id="text_14">
      <!-- 0.0 -->
      <g style="fill:#262626;" transform="translate(62.013125 508.359881)scale(0.22 -0.22)">
       <use xlink:href="#DejaVuSans-30"/>
       <use x="63.623047" xlink:href="#DejaVuSans-2e"/>
       <use x="95.410156" xlink:href="#DejaVuSans-30"/>
      </g>
     </g>
    </g>
    <g id="ytick_4">
     <g id="line2d_14">
      <path clip-path="url(#p7b1ee4b86a)" d="M 112.5 440.496 
L 810 440.496 
" style="fill:none;stroke:#ffffff;stroke-dasharray:7.4,3.2;stroke-dashoffset:0;stroke-width:2;"/>
     </g>
     <g id="text_15">
      <!-- 0.5 -->
      <g style="fill:#262626;" transform="translate(62.013125 448.854281)scale(0.22 -0.22)">
       <use xlink:href="#DejaVuSans-30"/>
       <use x="63.623047" xlink:href="#DejaVuSans-2e"/>
       <use x="95.410156" xlink:href="#DejaVuSans-35"/>
      </g>
     </g>
    </g>
    <g id="ytick_5">
     <g id="line2d_15">
      <path clip-path="url(#p7b1ee4b86a)" d="M 112.5 380.9904 
L 810 380.9904 
" style="fill:none;stroke:#ffffff;stroke-dasharray:7.4,3.2;stroke-dashoffset:0;stroke-width:2;"/>
     </g>
     <g id="text_16">
      <!-- 1.0 -->
      <g style="fill:#262626;" transform="translate(62.013125 389.348681)scale(0.22 -0.22)">
       <use xlink:href="#DejaVuSans-31"/>
       <use x="63.623047" xlink:href="#DejaVuSans-2e"/>
       <use x="95.410156" xlink:href="#DejaVuSans-30"/>
      </g>
     </g>
    </g>
    <g id="ytick_6">
     <g id="line2d_16">
      <path clip-path="url(#p7b1ee4b86a)" d="M 112.5 321.4848 
L 810 321.4848 
" style="fill:none;stroke:#ffffff;stroke-dasharray:7.4,3.2;stroke-dashoffset:0;stroke-width:2;"/>
     </g>
     <g id="text_17">
      <!-- 1.5 -->
      <g style="fill:#262626;" transform="translate(62.013125 329.843081)scale(0.22 -0.22)">
       <use xlink:href="#DejaVuSans-31"/>
       <use x="63.623047" xlink:href="#DejaVuSans-2e"/>
       <use x="95.410156" xlink:href="#DejaVuSans-35"/>
      </g>
     </g>
    </g>
    <g id="ytick_7">
     <g id="line2d_17">
      <path clip-path="url(#p7b1ee4b86a)" d="M 112.5 261.9792 
L 810 261.9792 
" style="fill:none;stroke:#ffffff;stroke-dasharray:7.4,3.2;stroke-dashoffset:0;stroke-width:2;"/>
     </g>
     <g id="text_18">
      <!-- 2.0 -->
      <g style="fill:#262626;" transform="translate(62.013125 270.337481)scale(0.22 -0.22)">
       <use xlink:href="#DejaVuSans-32"/>
       <use x="63.623047" xlink:href="#DejaVuSans-2e"/>
       <use x="95.410156" xlink:href="#DejaVuSans-30"/>
      </g>
     </g>
    </g>
    <g id="ytick_8">
     <g id="line2d_18">
      <path clip-path="url(#p7b1ee4b86a)" d="M 112.5 202.4736 
L 810 202.4736 
" style="fill:none;stroke:#ffffff;stroke-dasharray:7.4,3.2;stroke-dashoffset:0;stroke-width:2;"/>
     </g>
     <g id="text_19">
      <!-- 2.5 -->
      <g style="fill:#262626;" transform="translate(62.013125 210.831881)scale(0.22 -0.22)">
       <use xlink:href="#DejaVuSans-32"/>
       <use x="63.623047" xlink:href="#DejaVuSans-2e"/>
       <use x="95.410156" xlink:href="#DejaVuSans-35"/>
      </g>
     </g>
    </g>
    <g id="ytick_9">
     <g id="line2d_19">
      <path clip-path="url(#p7b1ee4b86a)" d="M 112.5 142.968 
L 810 142.968 
" style="fill:none;stroke:#ffffff;stroke-dasharray:7.4,3.2;stroke-dashoffset:0;stroke-width:2;"/>
     </g>
     <g id="text_20">
      <!-- 3.0 -->
      <defs>
       <path d="M 40.578125 39.3125 
Q 47.65625 37.796875 51.625 33 
Q 55.609375 28.21875 55.609375 21.1875 
Q 55.609375 10.40625 48.1875 4.484375 
Q 40.765625 -1.421875 27.09375 -1.421875 
Q 22.515625 -1.421875 17.65625 -0.515625 
Q 12.796875 0.390625 7.625 2.203125 
L 7.625 11.71875 
Q 11.71875 9.328125 16.59375 8.109375 
Q 21.484375 6.890625 26.8125 6.890625 
Q 36.078125 6.890625 40.9375 10.546875 
Q 45.796875 14.203125 45.796875 21.1875 
Q 45.796875 27.640625 41.28125 31.265625 
Q 36.765625 34.90625 28.71875 34.90625 
L 20.21875 34.90625 
L 20.21875 43.015625 
L 29.109375 43.015625 
Q 36.375 43.015625 40.234375 45.921875 
Q 44.09375 48.828125 44.09375 54.296875 
Q 44.09375 59.90625 40.109375 62.90625 
Q 36.140625 65.921875 28.71875 65.921875 
Q 24.65625 65.921875 20.015625 65.03125 
Q 15.375 64.15625 9.8125 62.3125 
L 9.8125 71.09375 
Q 15.4375 72.65625 20.34375 73.4375 
Q 25.25 74.21875 29.59375 74.21875 
Q 40.828125 74.21875 47.359375 69.109375 
Q 53.90625 64.015625 53.90625 55.328125 
Q 53.90625 49.265625 50.4375 45.09375 
Q 46.96875 40.921875 40.578125 39.3125 
z
" id="DejaVuSans-33"/>
      </defs>
      <g style="fill:#262626;" transform="translate(62.013125 151.326281)scale(0.22 -0.22)">
       <use xlink:href="#DejaVuSans-33"/>
       <use x="63.623047" xlink:href="#DejaVuSans-2e"/>
       <use x="95.410156" xlink:href="#DejaVuSans-30"/>
      </g>
     </g>
    </g>
    <g id="ytick_10">
     <g id="line2d_20">
      <path clip-path="url(#p7b1ee4b86a)" d="M 112.5 83.4624 
L 810 83.4624 
" style="fill:none;stroke:#ffffff;stroke-dasharray:7.4,3.2;stroke-dashoffset:0;stroke-width:2;"/>
     </g>
     <g id="text_21">
      <!-- 3.5 -->
      <g style="fill:#262626;" transform="translate(62.013125 91.820681)scale(0.22 -0.22)">
       <use xlink:href="#DejaVuSans-33"/>
       <use x="63.623047" xlink:href="#DejaVuSans-2e"/>
       <use x="95.410156" xlink:href="#DejaVuSans-35"/>
      </g>
     </g>
    </g>
    <g id="text_22">
     <!-- velocity -->
     <defs>
      <path d="M 2.984375 54.6875 
L 12.5 54.6875 
L 29.59375 8.796875 
L 46.6875 54.6875 
L 56.203125 54.6875 
L 35.6875 0 
L 23.484375 0 
z
" id="DejaVuSans-76"/>
      <path d="M 9.421875 75.984375 
L 18.40625 75.984375 
L 18.40625 0 
L 9.421875 0 
z
" id="DejaVuSans-6c"/>
      <path d="M 30.609375 48.390625 
Q 23.390625 48.390625 19.1875 42.75 
Q 14.984375 37.109375 14.984375 27.296875 
Q 14.984375 17.484375 19.15625 11.84375 
Q 23.34375 6.203125 30.609375 6.203125 
Q 37.796875 6.203125 41.984375 11.859375 
Q 46.1875 17.53125 46.1875 27.296875 
Q 46.1875 37.015625 41.984375 42.703125 
Q 37.796875 48.390625 30.609375 48.390625 
z
M 30.609375 56 
Q 42.328125 56 49.015625 48.375 
Q 55.71875 40.765625 55.71875 27.296875 
Q 55.71875 13.875 49.015625 6.21875 
Q 42.328125 -1.421875 30.609375 -1.421875 
Q 18.84375 -1.421875 12.171875 6.21875 
Q 5.515625 13.875 5.515625 27.296875 
Q 5.515625 40.765625 12.171875 48.375 
Q 18.84375 56 30.609375 56 
z
" id="DejaVuSans-6f"/>
      <path d="M 48.78125 52.59375 
L 48.78125 44.1875 
Q 44.96875 46.296875 41.140625 47.34375 
Q 37.3125 48.390625 33.40625 48.390625 
Q 24.65625 48.390625 19.8125 42.84375 
Q 14.984375 37.3125 14.984375 27.296875 
Q 14.984375 17.28125 19.8125 11.734375 
Q 24.65625 6.203125 33.40625 6.203125 
Q 37.3125 6.203125 41.140625 7.25 
Q 44.96875 8.296875 48.78125 10.40625 
L 48.78125 2.09375 
Q 45.015625 0.34375 40.984375 -0.53125 
Q 36.96875 -1.421875 32.421875 -1.421875 
Q 20.0625 -1.421875 12.78125 6.34375 
Q 5.515625 14.109375 5.515625 27.296875 
Q 5.515625 40.671875 12.859375 48.328125 
Q 20.21875 56 33.015625 56 
Q 37.15625 56 41.109375 55.140625 
Q 45.0625 54.296875 48.78125 52.59375 
z
" id="DejaVuSans-63"/>
      <path d="M 32.171875 -5.078125 
Q 28.375 -14.84375 24.75 -17.8125 
Q 21.140625 -20.796875 15.09375 -20.796875 
L 7.90625 -20.796875 
L 7.90625 -13.28125 
L 13.1875 -13.28125 
Q 16.890625 -13.28125 18.9375 -11.515625 
Q 21 -9.765625 23.484375 -3.21875 
L 25.09375 0.875 
L 2.984375 54.6875 
L 12.5 54.6875 
L 29.59375 11.921875 
L 46.6875 54.6875 
L 56.203125 54.6875 
z
" id="DejaVuSans-79"/>
     </defs>
     <g style="fill:#262626;" transform="translate(34.586562 398.13885)rotate(-90)scale(0.24 -0.24)">
      <use xlink:href="#DejaVuSans-76"/>
      <use x="59.179688" xlink:href="#DejaVuSans-65"/>
      <use x="120.703125" xlink:href="#DejaVuSans-6c"/>
      <use x="148.486328" xlink:href="#DejaVuSans-6f"/>
      <use x="209.667969" xlink:href="#DejaVuSans-63"/>
      <use x="264.648438" xlink:href="#DejaVuSans-69"/>
      <use x="292.431641" xlink:href="#DejaVuSans-74"/>
      <use x="331.640625" xlink:href="#DejaVuSans-79"/>
     </g>
    </g>
   </g>
   <g id="line2d_21">
    <path clip-path="url(#p7b1ee4b86a)" d="M 113.074675 463.946075 
L 115.378118 463.600842 
L 123.91142 459.542683 
L 126.755726 458.303836 
L 129.604081 456.913574 
L 132.438682 455.741453 
L 140.548209 451.653609 
L 142.930732 450.741073 
L 145.138391 449.518085 
L 147.188365 448.231075 
L 149.101008 447.180185 
L 154.153749 444.724722 
L 157.086339 443.34032 
L 158.448375 442.3861 
L 159.756223 441.685328 
L 163.421761 439.119554 
L 166.789236 435.881678 
L 167.857647 435.189727 
L 168.904749 433.89114 
L 169.930923 433.827525 
L 170.939322 432.624472 
L 171.92694 432.479643 
L 172.89437 431.258423 
L 173.838114 431.203528 
L 174.759683 429.867285 
L 175.659897 430.020448 
L 176.540036 428.639116 
L 177.40069 428.994504 
L 178.243637 428.017102 
L 179.069856 427.970535 
L 179.877807 427.562813 
L 180.669438 427.029381 
L 181.444851 427.913931 
L 182.206996 426.172394 
L 182.956056 427.409167 
L 183.693038 426.353655 
L 184.4199 426.462566 
L 185.136374 426.740922 
L 185.844151 425.114106 
L 186.543649 426.344995 
L 187.235566 424.487892 
L 187.921377 424.989481 
L 188.600188 425.288317 
L 189.274527 423.340945 
L 189.943264 424.292522 
L 190.608288 422.990265 
L 191.269708 422.273607 
L 191.927625 423.111876 
L 192.583751 419.972947 
L 193.237134 420.639254 
L 193.889672 419.965527 
L 194.540447 418.041596 
L 195.190563 418.836351 
L 195.840937 415.695005 
L 196.490311 416.602168 
L 197.140408 415.35972 
L 197.791638 414.363444 
L 198.44521 414.981159 
L 199.101278 412.663342 
L 199.760185 414.165262 
L 200.420974 412.272383 
L 201.085551 412.676752 
L 201.753804 411.726255 
L 202.425155 411.285787 
L 203.100839 411.186891 
L 203.780246 409.791626 
L 204.464044 410.518676 
L 205.15398 408.449633 
L 205.848351 409.157703 
L 206.548424 407.015825 
L 207.251798 408.208312 
L 207.95932 405.648555 
L 208.670649 406.275422 
L 209.386648 404.483732 
L 210.106472 405.263044 
L 210.831306 403.630342 
L 211.559698 404.510835 
L 212.292962 402.926004 
L 213.031677 403.176903 
L 213.776531 402.372649 
L 214.526963 402.081638 
L 215.283767 401.928003 
L 216.047213 400.784586 
L 216.815702 401.544684 
L 217.591173 399.735036 
L 218.372949 400.201974 
L 219.163083 399.515083 
L 219.96099 399.342798 
L 220.765427 399.621966 
L 221.584355 397.711336 
L 222.418336 397.701608 
L 223.265377 397.08203 
L 224.129537 395.668331 
L 225.009252 395.659076 
L 225.908069 394.823843 
L 226.819996 393.807707 
L 227.743175 394.117547 
L 228.678201 393.662767 
L 229.623206 394.03242 
L 230.573551 393.676221 
L 231.531708 394.314668 
L 232.493437 394.817982 
L 233.455248 395.78296 
L 234.417547 395.820963 
L 235.377319 396.713701 
L 237.286478 399.119514 
L 238.235377 399.377843 
L 239.182183 400.462704 
L 240.126912 401.269519 
L 242.010414 401.931803 
L 242.951483 402.510249 
L 243.894577 402.686782 
L 244.840285 402.17813 
L 245.790111 402.820164 
L 246.744436 402.680135 
L 247.702878 401.951116 
L 249.620101 401.976117 
L 250.574474 401.454988 
L 251.52109 401.296382 
L 253.366383 401.927443 
L 254.255594 401.81609 
L 255.111922 403.631658 
L 255.933664 404.646826 
L 256.724615 406.194367 
L 257.485969 408.724765 
L 258.22247 410.358714 
L 258.936411 413.080644 
L 259.630672 414.727843 
L 260.309122 417.044701 
L 260.97364 419.858577 
L 261.628501 420.237552 
L 262.275812 423.463675 
L 262.917473 423.330888 
L 263.555675 424.224585 
L 264.191965 426.096326 
L 264.827579 424.446862 
L 265.464406 425.867144 
L 266.103194 426.319303 
L 266.745671 424.641443 
L 267.393055 425.992248 
L 268.045666 425.309293 
L 268.703733 423.991396 
L 269.36743 425.36726 
L 270.035339 422.73281 
L 270.70966 422.850175 
L 271.390061 423.546834 
L 272.074797 421.520917 
L 272.764589 422.685008 
L 273.458552 420.975556 
L 274.156212 420.983279 
L 274.857819 421.202215 
L 275.562563 419.820307 
L 276.270685 421.060338 
L 276.980101 419.085341 
L 277.692573 420.515299 
L 278.406052 419.385148 
L 279.121585 419.81525 
L 279.839086 420.464284 
L 280.557511 419.593802 
L 281.277449 420.64971 
L 281.996905 419.170291 
L 282.718897 420.599602 
L 283.440551 419.353641 
L 284.164913 419.77386 
L 284.891532 419.19041 
L 285.624122 418.452413 
L 286.361893 418.679353 
L 287.106975 417.232665 
L 287.860723 417.469439 
L 288.625023 415.297766 
L 289.400029 415.401766 
L 290.190269 413.073304 
L 290.995067 412.898744 
L 291.815538 410.899976 
L 292.650122 410.320255 
L 294.345549 409.423094 
L 295.202974 409.769684 
L 296.065106 408.617856 
L 296.932656 409.347105 
L 297.804594 408.657188 
L 298.681252 408.388294 
L 299.563559 408.511895 
L 300.451785 407.509283 
L 301.344476 407.705734 
L 302.243123 407.085318 
L 304.055402 406.694649 
L 304.966604 405.714665 
L 305.881832 405.385349 
L 306.797206 405.715014 
L 307.711065 404.235261 
L 309.516039 404.87087 
L 310.404705 403.93185 
L 311.276339 405.332443 
L 312.124014 406.457626 
L 312.944003 407.204167 
L 313.736828 410.024133 
L 314.50425 411.041696 
L 315.246403 414.728951 
L 315.966524 416.014599 
L 316.665702 419.510479 
L 317.345002 421.197459 
L 318.009127 424.016211 
L 318.658011 427.572386 
L 319.295925 428.059174 
L 320.544558 433.469987 
L 321.16003 433.530359 
L 322.379132 437.057955 
L 322.98405 437.171297 
L 323.587984 437.616528 
L 324.190868 438.31433 
L 324.793683 439.586935 
L 325.398029 438.19753 
L 326.004828 438.622725 
L 326.614638 438.604269 
L 327.229793 437.936728 
L 327.851747 436.7289 
L 328.479865 435.803406 
L 329.112738 436.399246 
L 329.752639 434.392634 
L 330.397854 433.746971 
L 331.047701 434.663071 
L 331.702764 433.438708 
L 332.360445 433.028524 
L 333.021681 433.671633 
L 333.687869 432.055998 
L 334.355201 431.885112 
L 335.026524 432.715249 
L 335.701697 430.90578 
L 336.382325 430.688736 
L 337.067488 430.879108 
L 337.75881 429.733624 
L 338.460275 430.029556 
L 339.168211 429.489228 
L 340.61464 428.039088 
L 341.355228 425.394856 
L 342.10943 424.410863 
L 343.665248 420.298526 
L 344.465339 418.65931 
L 345.279996 417.717474 
L 346.099809 417.26139 
L 346.925942 416.355677 
L 347.753292 416.215668 
L 348.58483 415.45728 
L 350.25383 414.542233 
L 351.090242 413.997245 
L 351.927405 413.657921 
L 352.764305 412.506427 
L 353.601192 412.605607 
L 354.439689 411.354856 
L 355.273329 411.671161 
L 356.103018 410.71979 
L 356.925134 410.655948 
L 358.542579 409.952356 
L 359.332422 410.219454 
L 360.106944 409.723752 
L 360.861644 410.927226 
L 361.597101 410.364522 
L 362.312511 412.050249 
L 363.00727 412.00397 
L 364.345819 416.154138 
L 364.994451 418.257595 
L 365.626458 421.682867 
L 366.243563 423.029399 
L 367.436375 429.158801 
L 368.019688 430.056045 
L 369.164536 436.466582 
L 369.72626 437.170567 
L 370.834664 441.177479 
L 371.37994 443.947938 
L 371.919981 443.751597 
L 374.068475 449.194229 
L 374.607701 448.116388 
L 375.14404 449.634917 
L 375.675212 450.414516 
L 376.726561 453.610165 
L 377.251436 451.636693 
L 377.777958 452.050201 
L 378.30535 452.790939 
L 378.836124 454.058796 
L 379.37325 457.407963 
L 379.916907 455.031053 
L 380.465893 454.589766 
L 381.581872 458.134755 
L 382.152315 461.208461 
L 382.731774 465.194824 
L 383.319704 462.57881 
L 383.916981 464.561121 
L 385.149559 471.048971 
L 386.433226 477.991133 
L 387.095717 481.021407 
L 388.468743 485.085657 
L 389.924313 491.43251 
L 392.268811 498.924763 
L 393.092162 501.329859 
L 394.810246 505.584688 
L 396.565952 510.422035 
L 405.384711 539.468924 
L 406.283484 541.876408 
L 409.008153 550.734802 
L 410.850049 556.478657 
L 413.655694 563.726205 
L 418.460451 574.767946 
L 419.442861 576.928301 
L 420.432388 578.560869 
L 422.435462 582.266042 
L 425.503834 586.991726 
L 428.655326 590.881719 
L 430.802705 592.896317 
L 431.891453 593.663321 
L 432.990244 594.624023 
L 434.099046 595.278007 
L 435.218263 596.167664 
L 437.48826 597.303405 
L 438.638755 597.576085 
L 439.799952 598.11777 
L 440.97137 598.339432 
L 442.153552 598.700323 
L 444.551974 599.107176 
L 445.768144 599.375933 
L 448.232609 599.616136 
L 449.482347 599.537267 
L 450.743778 599.587382 
L 452.016651 599.383481 
L 453.301572 599.525111 
L 454.597975 599.365288 
L 455.906396 599.398109 
L 458.558014 599.092081 
L 462.620316 598.840611 
L 463.996824 598.537958 
L 465.384446 598.520089 
L 472.475615 597.410541 
L 476.845969 596.093011 
L 479.798494 595.100577 
L 485.776508 592.063715 
L 487.279911 591.16576 
L 488.783645 589.953386 
L 490.284732 588.00292 
L 491.780913 584.589342 
L 493.270574 578.828119 
L 494.74556 573.693877 
L 496.170018 570.140321 
L 497.425322 564.745889 
L 498.590436 560.556442 
L 499.743669 557.601363 
L 500.92206 555.539594 
L 502.15287 553.62492 
L 504.751605 550.175187 
L 508.727887 546.110056 
L 510.062704 545.03638 
L 511.404269 543.790354 
L 512.750979 542.950958 
L 514.104896 541.846193 
L 515.465547 541.156678 
L 516.834232 540.207546 
L 518.209641 539.39027 
L 519.592811 538.756741 
L 520.984082 537.93431 
L 522.382769 537.466255 
L 525.203558 536.111862 
L 526.625902 535.712513 
L 528.056388 535.090549 
L 533.853707 533.222588 
L 542.760648 530.785977 
L 544.266093 530.535187 
L 547.295062 529.724022 
L 548.817677 529.45383 
L 551.878709 528.655012 
L 553.416302 528.418841 
L 558.062249 527.335027 
L 559.621826 527.06377 
L 562.758034 526.332488 
L 564.334494 526.106554 
L 567.506462 525.404539 
L 575.552094 523.924964 
L 583.786648 522.279947 
L 587.136754 521.79591 
L 588.824132 521.488654 
L 592.223601 521.14421 
L 595.655233 520.531534 
L 599.118551 520.26341 
L 602.614021 519.814407 
L 606.141626 519.584891 
L 609.702392 519.166703 
L 613.29755 518.992148 
L 616.927836 518.602963 
L 620.59388 518.422034 
L 629.920217 517.790233 
L 645.348907 516.825278 
L 689.281176 514.596572 
L 693.758322 514.408726 
L 698.292641 514.234043 
L 702.884102 514.082351 
L 712.250894 513.647748 
L 760.545747 512.000121 
L 766.04737 511.832585 
L 774.472106 511.579365 
L 807.297312 510.629055 
L 813.626811 510.487007 
L 833.369457 509.957345 
L 843.696829 509.723045 
L 872.923625 509.123814 
L 872.923625 509.123814 
" style="fill:none;stroke:#66c2a5;stroke-linecap:round;stroke-width:3;"/>
   </g>
   <g id="line2d_22">
    <path clip-path="url(#p7b1ee4b86a)" d="M 113.074675 471.593349 
L 121.080554 472.19715 
L 123.91142 472.047557 
L 126.755726 471.596679 
L 129.604081 470.895023 
L 132.438682 469.797196 
L 135.236814 468.847799 
L 137.979085 467.614511 
L 140.548209 466.031682 
L 142.930732 464.160939 
L 147.188365 460.419362 
L 149.101008 458.15039 
L 150.891837 455.581318 
L 154.153749 450.246945 
L 155.658422 447.18099 
L 159.756223 437.568406 
L 161.017411 434.374889 
L 164.574079 423.856202 
L 166.789236 416.825096 
L 167.857647 412.814 
L 168.904749 409.743209 
L 169.930923 405.273293 
L 170.939322 402.250462 
L 171.92694 397.610387 
L 172.89437 394.42536 
L 173.838114 389.537013 
L 174.759683 386.162054 
L 175.659897 381.241586 
L 176.540036 377.997839 
L 177.40069 373.010348 
L 178.243637 369.344626 
L 179.877807 360.781401 
L 180.669438 357.078316 
L 181.444851 351.791411 
L 182.206996 349.615158 
L 182.956056 344.294344 
L 183.693038 341.39312 
L 185.136374 333.42983 
L 185.844151 331.600721 
L 186.543649 326.983652 
L 187.235566 325.598267 
L 188.600188 318.952474 
L 189.274527 318.89875 
L 189.943264 315.46473 
L 190.608288 315.14933 
L 191.269708 314.302879 
L 191.927625 312.277527 
L 192.583751 314.968858 
L 193.237134 313.707697 
L 193.889672 314.38495 
L 194.540447 316.511581 
L 195.190563 316.050506 
L 195.840937 319.891952 
L 196.490311 319.386704 
L 197.140408 320.856356 
L 197.791638 322.033232 
L 198.44521 321.620378 
L 199.101278 324.02889 
L 199.760185 322.661224 
L 200.420974 324.84404 
L 201.085551 324.725623 
L 201.753804 326.004916 
L 202.425155 326.894648 
L 203.100839 327.286908 
L 203.780246 329.517828 
L 204.464044 329.393473 
L 205.15398 332.528771 
L 205.848351 332.78083 
L 206.548424 336.438947 
L 207.251798 336.563101 
L 207.95932 340.846659 
L 208.670649 341.730524 
L 209.386648 345.313782 
L 210.106472 345.880004 
L 210.831306 349.12376 
L 211.559698 349.403502 
L 212.292962 352.574969 
L 213.031677 353.971481 
L 213.776531 356.666932 
L 215.283767 360.587732 
L 216.047213 363.721258 
L 216.815702 364.323543 
L 217.591173 368.154172 
L 218.372949 369.417552 
L 219.163083 372.55247 
L 219.96099 374.831265 
L 220.765427 376.257699 
L 221.584355 382.475916 
L 223.265377 391.288252 
L 224.129537 397.573474 
L 225.009252 402.588724 
L 225.908069 409.75111 
L 226.819996 414.918771 
L 227.743175 417.823612 
L 228.678201 421.76783 
L 229.623206 424.149675 
L 231.531708 427.510627 
L 232.493437 428.018926 
L 233.455248 426.653403 
L 234.417547 426.416577 
L 235.377319 423.917443 
L 236.333767 420.979359 
L 237.286478 417.530074 
L 238.235377 414.895214 
L 240.126912 408.570519 
L 242.951483 401.024124 
L 243.894577 399.08644 
L 244.840285 397.943065 
L 245.790111 396.014682 
L 246.744436 394.83656 
L 247.702878 394.187093 
L 248.662472 392.122208 
L 249.620101 389.462224 
L 250.574474 387.295061 
L 251.52109 383.687132 
L 252.453371 378.410273 
L 254.255594 365.566993 
L 255.933664 346.639866 
L 256.724615 336.478265 
L 260.309122 281.664188 
L 260.97364 271.675566 
L 261.628501 265.372806 
L 262.275812 257.280053 
L 264.191965 245.747471 
L 264.827579 246.28265 
L 265.464406 244.728078 
L 266.103194 244.724041 
L 266.745671 247.882511 
L 267.393055 248.836318 
L 268.045666 251.998087 
L 268.703733 256.027332 
L 269.36743 257.687634 
L 270.035339 262.689027 
L 270.70966 266.079809 
L 271.390061 268.636701 
L 272.074797 273.070484 
L 272.764589 274.651551 
L 273.458552 278.774754 
L 274.857819 282.746306 
L 275.562563 285.837988 
L 276.270685 286.409382 
L 276.980101 289.107315 
L 277.692573 289.203638 
L 278.406052 290.92251 
L 279.121585 291.42268 
L 279.839086 291.731296 
L 280.557511 293.062917 
L 281.277449 292.686547 
L 281.996905 293.976983 
L 282.718897 293.690542 
L 283.440551 294.829164 
L 284.164913 295.602708 
L 284.891532 297.114666 
L 285.624122 300.451368 
L 286.361893 302.204699 
L 287.106975 306.610719 
L 287.860723 309.753247 
L 288.625023 315.977818 
L 289.400029 319.782879 
L 290.190269 327.77345 
L 290.995067 332.902977 
L 291.815538 339.951285 
L 292.650122 344.502622 
L 293.494494 346.864768 
L 294.345549 348.317054 
L 295.202974 348.745719 
L 296.065106 350.349606 
L 296.932656 350.151947 
L 297.804594 350.909743 
L 298.681252 351.42757 
L 299.563559 351.47428 
L 300.451785 352.912126 
L 301.344476 352.628925 
L 302.243123 353.576418 
L 303.146693 353.6828 
L 305.881832 354.846458 
L 306.797206 353.567206 
L 307.711065 353.864408 
L 309.516039 349.041303 
L 310.404705 346.486283 
L 311.276339 340.612059 
L 312.124014 333.766907 
L 312.944003 325.591213 
L 314.50425 304.967199 
L 315.246403 292.018872 
L 315.966524 281.462287 
L 317.345002 257.562584 
L 319.295925 227.109355 
L 320.544558 209.342726 
L 321.16003 205.209279 
L 322.379132 194.729062 
L 322.98405 192.87548 
L 323.587984 191.703079 
L 324.793683 188.012009 
L 325.398029 190.094039 
L 326.004828 190.73777 
L 326.614638 192.719153 
L 327.229793 196.849108 
L 328.479865 206.703858 
L 329.112738 209.258713 
L 329.752639 215.423055 
L 330.397854 219.048992 
L 331.047701 221.227271 
L 331.702764 225.874247 
L 332.360445 228.498944 
L 333.021681 230.198243 
L 333.687869 234.479434 
L 335.026524 237.485568 
L 335.701697 241.417448 
L 336.382325 243.868945 
L 337.067488 245.620993 
L 339.885427 260.356892 
L 340.61464 266.030882 
L 344.465339 302.967237 
L 345.279996 308.315817 
L 346.099809 310.183885 
L 346.925942 312.92344 
L 347.753292 313.611703 
L 348.58483 315.204946 
L 349.418335 315.704659 
L 351.090242 317.034472 
L 351.927405 317.393752 
L 352.764305 318.44526 
L 353.601192 318.006761 
L 354.439689 319.434084 
L 355.273329 317.874219 
L 356.103018 318.515995 
L 356.925134 317.44902 
L 357.739549 316.592971 
L 358.542579 315.369764 
L 360.106944 311.243504 
L 360.861644 306.838242 
L 361.597101 303.696742 
L 363.00727 291.69131 
L 364.345819 273.425829 
L 364.994451 264.099251 
L 370.834664 155.816649 
L 371.37994 146.350745 
L 372.994382 129.292497 
L 374.068475 121.098733 
L 374.607701 120.939736 
L 375.675212 116.56941 
L 376.201984 115.190967 
L 376.726561 114.245919 
L 377.251436 118.354857 
L 378.836124 125.563497 
L 379.37325 126.838624 
L 379.916907 134.234271 
L 380.465893 139.925053 
L 381.019614 142.755837 
L 381.581872 146.240515 
L 382.731774 149.67072 
L 383.319704 157.355055 
L 384.527199 162.19542 
L 385.149559 164.512357 
L 385.78464 167.857364 
L 386.433226 169.634322 
L 387.095717 172.310996 
L 389.186867 185.266377 
L 389.924313 188.907878 
L 393.092162 212.338856 
L 393.939187 219.570468 
L 395.689459 232.584438 
L 396.565952 236.860197 
L 397.440445 240.303864 
L 399.190322 243.297798 
L 400.066993 243.954641 
L 400.945559 244.151187 
L 402.710756 244.0069 
L 404.489653 242.435398 
L 405.384711 241.126407 
L 406.283484 240.275024 
L 407.187152 238.490454 
L 408.095414 237.037306 
L 411.779091 228.317806 
L 412.714435 225.495059 
L 414.602966 221.288841 
L 415.557371 218.583928 
L 419.442861 209.384569 
L 420.432388 207.850746 
L 422.435462 204.123389 
L 423.449427 202.60637 
L 425.503834 200.37201 
L 427.595539 198.576776 
L 428.655326 198.101015 
L 430.802705 197.619207 
L 432.990244 198.090262 
L 435.218263 199.347683 
L 437.48826 201.427333 
L 439.799952 204.139339 
L 453.301572 222.550413 
L 459.9004 230.784953 
L 465.384446 236.977966 
L 471.037193 244.035209 
L 473.923894 247.988143 
L 475.381125 250.313184 
L 476.845969 253.105927 
L 478.318633 256.244364 
L 479.798494 259.879367 
L 481.285204 263.975707 
L 482.777388 268.437384 
L 484.275208 273.863276 
L 485.776508 280.054858 
L 487.279911 287.967193 
L 488.783645 297.605518 
L 490.284732 310.286299 
L 493.270574 341.645758 
L 494.74556 360.080951 
L 496.170018 387.084128 
L 497.425322 415.983045 
L 498.590436 439.31835 
L 499.743669 453.203331 
L 500.92206 462.067513 
L 502.15287 466.408594 
L 503.433754 469.776214 
L 504.751605 471.124417 
L 506.073754 471.763968 
L 508.727887 471.044495 
L 510.062704 470.391682 
L 511.404269 469.252442 
L 512.750979 468.786723 
L 514.104896 467.476 
L 515.465547 466.954709 
L 516.834232 465.953908 
L 518.209641 465.170823 
L 519.592811 464.67308 
L 520.984082 463.693647 
L 522.382769 463.517811 
L 523.78887 463.019476 
L 525.203558 462.267512 
L 526.625902 462.252265 
L 529.49438 461.343397 
L 530.939904 461.285741 
L 532.393089 460.867643 
L 533.853707 460.70852 
L 535.32143 460.671519 
L 536.796494 460.281716 
L 538.277658 460.151581 
L 539.765594 460.145663 
L 541.260144 459.892106 
L 542.760648 459.826309 
L 544.266093 460.057462 
L 545.77784 459.77377 
L 547.295062 459.686189 
L 548.817677 459.886587 
L 550.345597 459.653486 
L 551.878709 459.585419 
L 553.416302 459.827589 
L 554.959338 459.736928 
L 556.507962 459.526001 
L 559.621826 459.822722 
L 561.186958 459.656343 
L 562.758034 459.664067 
L 564.334494 459.896511 
L 567.506462 459.815432 
L 569.101606 459.893554 
L 570.703125 460.137876 
L 572.312174 459.867267 
L 578.82163 459.926026 
L 582.123572 459.682456 
L 585.457644 459.980991 
L 588.824132 460.096093 
L 592.223601 460.463581 
L 595.655233 460.413236 
L 597.383207 460.549668 
L 599.118551 460.900322 
L 600.862291 460.941391 
L 609.702392 461.820395 
L 611.495597 462.263209 
L 613.29755 462.464768 
L 615.108363 462.506274 
L 616.927836 462.66514 
L 620.59388 463.388638 
L 622.44014 463.589935 
L 624.295746 463.666816 
L 626.160964 463.871791 
L 629.920217 464.52981 
L 637.552975 465.555796 
L 639.486218 465.698581 
L 645.348907 466.498108 
L 649.310194 466.949044 
L 651.307143 467.278307 
L 659.407144 468.141152 
L 665.603223 469.014137 
L 669.794219 469.458704 
L 674.034272 470.049197 
L 678.325075 470.505693 
L 689.281176 471.629745 
L 691.513011 471.977161 
L 696.018557 472.218304 
L 698.292641 472.716891 
L 702.884102 473.230371 
L 707.53647 473.621677 
L 712.250894 474.104851 
L 714.631763 474.230916 
L 717.029577 474.49429 
L 719.443143 474.948338 
L 726.787829 475.379658 
L 731.77121 476.139501 
L 736.828047 476.366798 
L 741.958131 477.151491 
L 747.166448 477.545858 
L 752.455834 478.125748 
L 755.131621 478.296801 
L 763.285833 479.182308 
L 768.832543 479.441806 
L 788.997134 481.222553 
L 794.987157 481.664649 
L 798.023071 481.953135 
L 804.177098 482.281068 
L 810.446737 482.885618 
L 816.837552 483.299788 
L 833.369457 484.305733 
L 840.218218 484.857289 
L 847.213281 485.197669 
L 850.766477 485.500289 
L 865.372882 486.279222 
L 869.126536 486.629371 
L 872.923625 486.793959 
L 872.923625 486.793959 
" style="fill:none;stroke:#66c2a5;stroke-dasharray:12,4.5;stroke-dashoffset:0;stroke-width:3;"/>
   </g>
   <g id="line2d_23">
    <path clip-path="url(#p7b1ee4b86a)" d="M 113.322677 473.86499 
L 117.207103 472.97538 
L 130.329436 466.753962 
L 134.090062 464.715706 
L 143.676443 459.019486 
L 148.762889 455.401617 
L 151.042309 453.523534 
L 153.191351 451.464185 
L 157.077143 446.795169 
L 160.506495 442.395898 
L 163.57348 438.837228 
L 170.124433 430.454972 
L 172.446882 427.852934 
L 173.559678 427.059171 
L 174.641263 426.12124 
L 175.697241 425.668704 
L 176.723914 425.507762 
L 177.725746 425.04728 
L 178.700302 425.353912 
L 179.655376 425.305619 
L 181.506521 425.565745 
L 182.408809 425.638902 
L 184.173569 425.384272 
L 185.041574 424.663884 
L 186.760652 422.153524 
L 187.610777 421.652522 
L 188.451071 420.535779 
L 189.275364 420.134455 
L 190.082407 419.386758 
L 190.875037 419.332419 
L 191.654383 418.825255 
L 192.42237 419.316614 
L 193.181002 418.539936 
L 193.930582 419.180192 
L 194.672454 418.286639 
L 195.406002 419.213362 
L 196.132445 418.031105 
L 196.851578 418.723911 
L 197.566729 418.325119 
L 198.276749 417.67767 
L 198.984499 417.739009 
L 199.690046 416.301677 
L 200.393266 416.365784 
L 201.095119 414.124006 
L 201.794662 413.964489 
L 202.493657 411.142924 
L 203.190269 410.757736 
L 203.884062 408.721248 
L 204.576965 408.144795 
L 205.269129 406.584531 
L 205.963449 406.072159 
L 207.369664 403.980797 
L 208.088028 402.650155 
L 208.821329 402.187092 
L 209.576278 400.381341 
L 210.355904 399.586748 
L 211.171985 397.252411 
L 212.024653 395.860688 
L 213.854484 391.791706 
L 214.823441 390.419672 
L 215.810141 389.655232 
L 216.81272 389.213649 
L 217.818233 389.244897 
L 218.81999 389.616276 
L 219.821654 389.756501 
L 221.826868 390.233443 
L 224.836686 390.491073 
L 225.85051 389.940688 
L 227.9317 388.329722 
L 231.229315 385.543699 
L 232.368017 384.714513 
L 235.947265 380.816241 
L 237.187076 379.650429 
L 238.440425 379.155809 
L 239.701209 378.494705 
L 240.969609 378.084103 
L 242.242116 377.810132 
L 243.513995 377.329407 
L 244.788691 376.968735 
L 246.071016 376.861824 
L 247.35079 376.561966 
L 248.611997 375.948169 
L 249.854498 376.080204 
L 252.293963 375.856401 
L 253.494139 375.887261 
L 254.682861 375.646264 
L 255.860119 375.751102 
L 258.174529 375.326987 
L 259.300769 375.478202 
L 260.402868 375.770291 
L 261.482252 375.918146 
L 262.541927 376.19382 
L 263.581476 376.26411 
L 264.598286 376.617816 
L 266.560307 378.36312 
L 267.503798 379.31078 
L 268.42331 380.565929 
L 269.320696 382.004289 
L 270.196745 383.848749 
L 271.892049 386.884949 
L 273.516918 391.778534 
L 274.308784 392.536372 
L 275.088828 394.550145 
L 276.623404 396.753784 
L 277.378191 399.182958 
L 278.128026 399.224546 
L 278.871931 401.070582 
L 279.611115 401.763095 
L 280.348837 403.202019 
L 281.083615 403.409276 
L 281.819213 404.315325 
L 282.555566 404.61378 
L 283.294757 404.740286 
L 284.036435 405.320601 
L 284.782216 404.862148 
L 285.534723 405.124957 
L 286.294217 403.686558 
L 287.063558 404.187029 
L 287.843575 402.897664 
L 288.638315 403.151737 
L 290.273233 401.120528 
L 291.119549 400.634043 
L 291.990294 398.966749 
L 292.890242 397.733646 
L 294.781713 394.567013 
L 295.76631 392.91311 
L 297.789317 391.030397 
L 299.878424 389.12896 
L 303.052876 388.208268 
L 304.113067 388.15432 
L 305.175214 388.480739 
L 307.29834 388.036729 
L 309.391862 387.813373 
L 310.423979 387.837245 
L 312.443376 387.192023 
L 313.423888 387.060263 
L 314.385892 387.401781 
L 317.120294 389.768407 
L 317.982477 390.86773 
L 319.634523 393.766107 
L 320.440933 394.765738 
L 321.22752 396.710989 
L 321.99432 397.619412 
L 323.483169 400.297614 
L 324.206682 401.013445 
L 324.920533 403.238044 
L 325.624068 403.561202 
L 326.32095 405.461549 
L 327.011959 405.345834 
L 327.699686 406.948079 
L 328.385232 407.153548 
L 329.06951 408.625945 
L 329.752424 408.11802 
L 330.439896 408.766253 
L 331.127874 408.084934 
L 331.821102 408.658355 
L 332.515565 408.449212 
L 333.215342 408.460337 
L 333.918562 407.876189 
L 334.625596 407.638705 
L 335.336873 407.893223 
L 336.05397 406.972505 
L 336.774384 407.357012 
L 337.501503 406.728556 
L 338.233288 407.168086 
L 338.971445 406.517073 
L 339.712607 406.253033 
L 340.458779 406.161386 
L 341.208358 406.254637 
L 341.966707 405.832843 
L 342.728466 405.596334 
L 343.497145 405.581664 
L 344.271772 404.879995 
L 345.055442 404.703362 
L 345.848768 402.705227 
L 346.653613 402.567895 
L 347.473485 400.588695 
L 348.307878 399.149556 
L 349.159682 398.333713 
L 350.032882 395.567309 
L 350.926583 393.996647 
L 351.839948 392.781112 
L 352.767343 391.276005 
L 354.620865 388.761954 
L 355.546206 388.615397 
L 356.470895 387.880135 
L 357.396997 386.563883 
L 358.323973 386.359742 
L 359.250655 385.570487 
L 360.177293 384.934287 
L 362.028192 384.104859 
L 362.953962 384.067489 
L 364.807671 382.727346 
L 365.738126 382.275692 
L 366.670411 381.230393 
L 367.604341 381.148963 
L 368.538167 381.700065 
L 370.404699 382.489681 
L 371.338737 383.188975 
L 372.273398 383.168669 
L 373.207685 384.042991 
L 375.080082 384.449583 
L 376.01804 384.824009 
L 376.955707 383.896379 
L 378.832266 384.883047 
L 379.770423 385.691847 
L 380.707756 386.348567 
L 381.640564 385.442458 
L 382.561326 385.464007 
L 383.460659 386.027888 
L 384.347156 385.938727 
L 385.219825 386.402627 
L 386.080427 386.186893 
L 387.751584 387.96427 
L 388.574291 386.3369 
L 389.391402 387.243526 
L 390.205674 387.913782 
L 391.838026 387.364235 
L 392.645294 388.687364 
L 393.448192 388.904165 
L 394.248948 388.540892 
L 395.04339 389.470707 
L 395.835907 389.382493 
L 396.628717 389.089916 
L 397.426515 390.325586 
L 398.230126 389.769763 
L 399.041803 390.684748 
L 399.861949 395.224616 
L 400.694698 393.52506 
L 402.385166 396.04027 
L 403.23246 397.990401 
L 404.075201 406.435808 
L 404.914098 403.852177 
L 405.749265 407.315127 
L 407.407633 412.600219 
L 408.233057 415.973915 
L 409.055608 422.401185 
L 409.877006 423.708721 
L 411.517253 432.9403 
L 413.156667 441.017115 
L 416.444663 460.328468 
L 417.268282 463.844199 
L 420.585277 481.180746 
L 423.097882 494.147513 
L 425.637805 505.8718 
L 429.072319 519.668902 
L 433.456922 534.070824 
L 437.973078 544.583675 
L 441.703758 551.113706 
L 442.654373 552.539333 
L 443.612731 554.280427 
L 445.55255 557.424611 
L 446.534785 559.306488 
L 447.525326 560.82983 
L 448.524094 562.590357 
L 449.532525 564.632816 
L 450.549538 566.191847 
L 451.575723 568.259123 
L 453.657737 571.698254 
L 454.713283 573.91262 
L 455.778125 575.493756 
L 456.853796 577.702001 
L 457.939301 579.359638 
L 459.034953 581.288229 
L 461.257211 584.258633 
L 464.667302 588.86861 
L 465.824174 590.136471 
L 468.166995 592.22995 
L 469.353912 593.045958 
L 470.552462 594.324049 
L 471.761061 595.375616 
L 474.209977 597.127476 
L 475.44952 597.545192 
L 476.698925 598.583209 
L 477.957468 598.750598 
L 479.225171 599.729799 
L 480.502231 600.227961 
L 481.788247 600.922126 
L 483.082437 601.197728 
L 484.386215 601.784088 
L 485.699872 601.962866 
L 487.023443 602.577835 
L 489.700089 603.070747 
L 491.053123 603.325934 
L 492.415923 603.798914 
L 493.789324 603.613203 
L 495.172934 603.972839 
L 496.566832 604.084511 
L 499.382449 604.504425 
L 502.237712 604.491257 
L 503.679774 604.282623 
L 505.130911 604.305954 
L 506.591488 604.003944 
L 508.061672 603.93754 
L 509.541859 603.578351 
L 511.031945 603.060665 
L 512.532891 602.244672 
L 514.043451 601.87396 
L 518.635332 599.789854 
L 521.742284 597.675777 
L 523.309322 596.951614 
L 524.885186 596.094968 
L 526.469896 595.610972 
L 528.063168 594.781359 
L 529.664728 594.320653 
L 531.274392 593.234127 
L 532.892532 592.528455 
L 541.098491 587.240864 
L 542.763754 586.17676 
L 547.810953 583.498493 
L 549.51007 582.252546 
L 554.664832 579.259302 
L 556.403415 578.504664 
L 563.461047 574.429236 
L 568.85987 571.242444 
L 570.680352 570.48584 
L 572.509998 569.40141 
L 574.350404 568.859638 
L 576.200143 568.492827 
L 578.059737 567.849212 
L 581.809999 567.028578 
L 583.701331 566.771735 
L 589.431407 564.953387 
L 591.352101 564.628473 
L 593.268893 564.756878 
L 595.176891 563.84422 
L 597.066132 561.198853 
L 598.804259 555.046169 
L 600.097079 547.616274 
L 601.154591 544.29474 
L 602.122065 542.797739 
L 603.066129 540.753008 
L 604.043128 537.833728 
L 605.071002 535.233533 
L 607.310221 531.635327 
L 608.521883 530.256157 
L 609.802059 529.58762 
L 611.138205 529.413291 
L 612.495461 529.362515 
L 615.266798 528.858614 
L 618.106544 528.700266 
L 619.548916 528.46553 
L 621.005792 528.472308 
L 622.476618 528.354015 
L 623.959396 528.040229 
L 625.453833 527.898018 
L 626.961311 527.882237 
L 630.007839 527.233542 
L 631.547561 527.109834 
L 633.098473 526.867551 
L 634.658621 526.403192 
L 637.807084 526.164874 
L 639.395681 525.516304 
L 640.992163 525.19388 
L 642.598699 525.352949 
L 644.214566 524.620051 
L 645.838736 524.229629 
L 647.470199 524.33583 
L 649.111288 523.886556 
L 650.760571 523.29969 
L 652.417251 523.207102 
L 654.082671 523.321648 
L 655.756853 522.509766 
L 657.438399 522.12143 
L 659.127656 522.530291 
L 662.531009 521.389502 
L 664.243517 521.368914 
L 665.96329 521.547655 
L 667.689969 520.85716 
L 669.424416 520.487428 
L 671.165578 520.698425 
L 672.913974 520.48072 
L 674.670142 519.935105 
L 676.433299 519.677719 
L 678.204007 519.925532 
L 681.766666 519.150715 
L 683.559315 519.005045 
L 685.359204 519.211893 
L 688.980521 518.453961 
L 690.802604 518.409319 
L 692.63276 518.57232 
L 694.469432 518.096594 
L 696.313743 517.847599 
L 698.165871 517.820226 
L 700.025628 517.93011 
L 701.89317 517.517584 
L 703.768382 517.299146 
L 707.542855 517.356414 
L 709.442495 516.949216 
L 711.350087 516.754146 
L 715.190081 516.833591 
L 717.122334 516.431153 
L 721.010151 516.259021 
L 722.966875 516.317458 
L 724.932963 516.000627 
L 726.906712 515.81391 
L 730.880206 515.775736 
L 734.8889 515.356381 
L 740.969455 515.119787 
L 745.071988 514.790568 
L 751.298462 514.467755 
L 757.615414 514.147248 
L 797.582542 512.154346 
L 799.916306 512.139004 
L 806.99772 511.707152 
L 811.784633 511.646686 
L 819.070843 511.276626 
L 824.003129 511.165801 
L 828.996976 510.88345 
L 836.601808 510.696771 
L 839.168102 510.514872 
L 863.022962 509.803781 
L 868.524611 509.583391 
L 874.105103 509.518494 
L 882.621176 509.171934 
L 891.323067 508.955203 
L 897.234355 508.748175 
L 901 508.681859 
L 901 508.681859 
" style="fill:none;stroke:#fc8d62;stroke-linecap:round;stroke-width:3;"/>
   </g>
   <g id="line2d_24">
    <path clip-path="url(#p7b1ee4b86a)" d="M 113.322677 478.276381 
L 117.207103 478.413426 
L 121.875784 478.280789 
L 126.257539 477.534168 
L 130.329436 476.153282 
L 137.568601 472.790048 
L 140.773218 470.89381 
L 143.676443 468.518772 
L 146.327483 466.167568 
L 148.762889 463.468443 
L 153.191351 457.275276 
L 155.198168 454.131718 
L 157.077143 450.497395 
L 160.506495 443.040614 
L 162.081991 439.141884 
L 164.995473 430.429337 
L 166.354305 426.06064 
L 170.124433 412.248071 
L 173.559678 397.709785 
L 175.697241 387.063665 
L 176.723914 380.793381 
L 177.725746 375.467586 
L 178.700302 368.596814 
L 179.655376 362.818992 
L 182.408809 343.264252 
L 184.173569 330.887971 
L 185.041574 325.582478 
L 185.90376 321.006309 
L 186.760652 317.128639 
L 190.082407 298.132026 
L 192.42237 282.961194 
L 193.181002 279.228928 
L 193.930582 274.031168 
L 194.672454 270.699961 
L 195.406002 265.808292 
L 196.132445 263.73903 
L 196.851578 259.671268 
L 198.276749 256.31187 
L 198.984499 255.15538 
L 199.690046 255.947246 
L 200.393266 255.908217 
L 201.095119 258.466472 
L 201.794662 259.207526 
L 202.493657 263.12463 
L 203.190269 264.516099 
L 203.884062 267.842687 
L 204.576965 269.874958 
L 205.963449 275.750136 
L 207.369664 284.607343 
L 208.821329 298.237894 
L 210.355904 320.13897 
L 211.171985 336.218605 
L 213.854484 380.565196 
L 214.823441 393.493594 
L 215.810141 404.234439 
L 216.81272 412.482937 
L 217.818233 416.30089 
L 218.81999 415.82696 
L 219.821654 414.232454 
L 221.826868 409.372502 
L 222.829695 408.602916 
L 223.832135 408.778049 
L 224.836686 409.564066 
L 225.85051 412.032326 
L 226.8804 416.363587 
L 229.007338 428.701109 
L 230.107881 435.607884 
L 231.229315 440.448172 
L 232.368017 443.861261 
L 233.535127 449.713594 
L 235.947265 459.198592 
L 237.187076 462.295992 
L 238.440425 463.691951 
L 240.969609 465.668304 
L 242.242116 465.938154 
L 243.513995 466.081445 
L 244.788691 465.874502 
L 246.071016 465.947932 
L 247.35079 465.0845 
L 248.611997 464.940789 
L 251.081707 461.908959 
L 253.494139 457.965108 
L 254.682861 456.540706 
L 255.860119 454.657146 
L 258.174529 451.667884 
L 259.300769 448.803055 
L 261.482252 442.278452 
L 263.581476 435.881609 
L 264.598286 431.910962 
L 265.591467 426.862545 
L 266.560307 420.682912 
L 267.503798 412.966634 
L 269.320696 395.291053 
L 271.892049 365.518928 
L 273.516918 342.366334 
L 274.308784 334.340831 
L 275.088828 324.919619 
L 276.623404 309.531831 
L 277.378191 300.39043 
L 278.128026 296.035658 
L 278.871931 289.392872 
L 279.611115 284.326078 
L 281.083615 276.661377 
L 281.819213 274.583729 
L 282.555566 273.065099 
L 283.294757 273.334852 
L 284.036435 272.771607 
L 284.782216 274.448781 
L 285.534723 276.74324 
L 287.063558 284.167634 
L 288.638315 296.434475 
L 289.446722 303.436302 
L 291.119549 323.025413 
L 293.82101 362.42778 
L 294.781713 373.323798 
L 295.76631 381.122358 
L 296.767567 384.900296 
L 297.789317 389.365449 
L 298.827483 392.999035 
L 299.878424 395.678608 
L 300.932276 395.202614 
L 301.989028 395.155923 
L 303.052876 396.534378 
L 304.113067 394.539461 
L 305.175214 393.506715 
L 306.240107 393.555181 
L 309.391862 385.783036 
L 312.443376 375.342431 
L 314.385892 366.532742 
L 316.232997 352.432999 
L 317.120294 344.7495 
L 317.982477 335.797952 
L 319.634523 315.436152 
L 320.440933 308.292851 
L 321.99432 287.758755 
L 324.920533 253.942455 
L 326.32095 240.286311 
L 327.699686 231.088227 
L 328.385232 228.236924 
L 329.06951 224.84458 
L 329.752424 223.72398 
L 330.439896 225.070176 
L 331.127874 225.421497 
L 331.821102 227.725141 
L 332.515565 228.728098 
L 333.215342 231.958343 
L 335.336873 239.149369 
L 336.05397 243.523428 
L 336.774384 245.140833 
L 337.501503 249.491414 
L 338.233288 251.848331 
L 338.971445 256.101599 
L 339.712607 258.031263 
L 340.458779 260.917109 
L 341.208358 262.671877 
L 341.966707 267.989855 
L 342.728466 270.284441 
L 344.271772 276.547732 
L 345.055442 280.977895 
L 345.848768 287.303057 
L 346.653613 292.643068 
L 348.307878 309.579897 
L 349.159682 317.79088 
L 350.032882 329.036956 
L 351.839948 346.791239 
L 352.767343 354.066303 
L 354.620865 365.601015 
L 355.546206 367.986015 
L 357.396997 373.975892 
L 358.323973 376.17631 
L 359.250655 379.177276 
L 361.103039 383.334908 
L 362.028192 385.055856 
L 362.953962 386.025018 
L 363.880111 387.445344 
L 364.807671 388.460517 
L 365.738126 388.229603 
L 366.670411 389.414645 
L 367.604341 389.093401 
L 368.538167 388.332712 
L 369.471364 387.754014 
L 370.404699 386.532881 
L 372.273398 382.273027 
L 373.207685 380.478981 
L 375.080082 375.056703 
L 376.01804 372.56605 
L 376.955707 372.381818 
L 379.770423 364.390538 
L 380.707756 362.628971 
L 381.640564 361.638192 
L 382.561326 359.687637 
L 383.460659 356.424944 
L 384.347156 355.561201 
L 385.219825 353.931946 
L 386.080427 353.123156 
L 387.751584 347.203435 
L 388.574291 348.268255 
L 390.205674 342.916042 
L 391.021942 342.260094 
L 391.838026 342.043404 
L 392.645294 338.517356 
L 393.448192 337.356666 
L 394.248948 337.374824 
L 395.04339 335.970051 
L 395.835907 335.192707 
L 396.628717 334.780845 
L 397.426515 333.892882 
L 398.230126 335.338579 
L 399.041803 335.543695 
L 399.861949 331.748292 
L 400.694698 335.473532 
L 401.536922 335.820525 
L 402.385166 336.821432 
L 403.23246 337.511058 
L 404.075201 331.934014 
L 404.914098 337.453199 
L 405.749265 337.233882 
L 406.580405 337.787085 
L 407.407633 339.057255 
L 408.233057 337.837267 
L 409.055608 334.7556 
L 409.877006 335.845942 
L 410.697436 333.887478 
L 411.517253 330.736957 
L 412.336711 329.431481 
L 413.156667 325.834541 
L 413.97728 323.170513 
L 414.799022 319.238221 
L 415.620898 317.112528 
L 416.444663 312.126358 
L 417.268282 310.366521 
L 418.094933 305.645321 
L 418.922397 303.470684 
L 419.75308 298.499566 
L 420.585277 295.618432 
L 422.257776 287.103237 
L 423.097882 283.918455 
L 423.941601 279.603891 
L 424.787883 276.700218 
L 425.637805 273.031518 
L 426.490861 270.371763 
L 429.072319 260.896207 
L 429.940127 258.544042 
L 430.812513 255.44225 
L 433.456922 247.82863 
L 434.34829 246.660547 
L 435.245784 244.362291 
L 436.148608 243.096722 
L 437.057197 241.529173 
L 437.973078 239.429132 
L 439.824077 237.608516 
L 440.760009 236.14282 
L 441.703758 235.231302 
L 442.654373 234.594393 
L 443.612731 233.331258 
L 445.55255 231.740163 
L 446.534785 230.140609 
L 447.525326 229.494874 
L 448.524094 228.644583 
L 449.532525 226.838502 
L 450.549538 226.042097 
L 452.612078 223.521572 
L 455.778125 219.685335 
L 456.853796 217.944219 
L 457.939301 217.075544 
L 459.034953 215.58742 
L 460.14101 214.749642 
L 461.257211 213.71545 
L 462.383576 212.517806 
L 463.520181 211.654985 
L 464.667302 210.438757 
L 465.824174 209.409047 
L 468.166995 208.17081 
L 469.353912 207.694147 
L 470.552462 206.54622 
L 471.761061 206.024625 
L 474.209977 205.343887 
L 475.44952 205.476822 
L 476.698925 205.249734 
L 477.957468 205.9636 
L 479.225171 205.846588 
L 480.502231 206.226921 
L 481.788247 206.395039 
L 483.082437 206.915931 
L 484.386215 206.967484 
L 485.699872 207.35924 
L 487.023443 207.283113 
L 491.053123 207.64541 
L 492.415923 207.598118 
L 493.789324 208.032578 
L 495.172934 207.941786 
L 500.805253 209.207308 
L 502.237712 209.755305 
L 503.679774 210.450085 
L 505.130911 211.021112 
L 506.591488 211.944982 
L 508.061672 212.662486 
L 509.541859 213.622073 
L 511.031945 214.858875 
L 512.532891 216.406345 
L 514.043451 217.541495 
L 518.635332 222.622018 
L 523.309322 228.601686 
L 529.664728 236.383377 
L 531.274392 239.0606 
L 532.892532 241.287786 
L 536.151576 246.579392 
L 539.441645 252.213503 
L 541.098491 254.661071 
L 542.763754 257.42545 
L 546.119742 261.937313 
L 547.810953 264.209522 
L 549.51007 266.781882 
L 552.936836 271.282078 
L 558.152222 277.957299 
L 563.461047 286.098873 
L 567.050396 292.116943 
L 568.85987 294.870344 
L 570.680352 297.293325 
L 572.509998 300.035738 
L 574.350404 302.206747 
L 576.200143 304.151988 
L 579.929442 308.475067 
L 581.809999 310.215976 
L 583.701331 312.441625 
L 585.602721 315.12843 
L 587.513203 318.166621 
L 589.431407 323.123709 
L 591.352101 333.152957 
L 593.268893 347.052235 
L 595.176891 366.399347 
L 597.066132 395.098883 
L 598.804259 438.344594 
L 601.154591 544.381432 
L 602.122065 570.456034 
L 603.066129 579.904686 
L 604.043128 580.644857 
L 605.071002 578.89459 
L 606.159929 575.666781 
L 608.521883 565.206846 
L 612.495461 544.046635 
L 615.266798 532.021698 
L 618.106544 521.968352 
L 619.548916 518.264079 
L 622.476618 510.156667 
L 623.959396 507.139024 
L 625.453833 504.469623 
L 626.961311 501.243779 
L 628.480292 498.666128 
L 630.007839 497.109174 
L 631.547561 494.411108 
L 633.098473 492.114624 
L 634.658621 490.765982 
L 636.22757 489.229579 
L 637.807084 487.076033 
L 639.395681 485.974761 
L 640.992163 485.012692 
L 642.598699 483.147314 
L 644.214566 482.124919 
L 645.838736 481.542372 
L 649.111288 479.502998 
L 652.417251 478.595994 
L 654.082671 477.401876 
L 657.438399 476.845172 
L 659.127656 475.880366 
L 660.825404 475.592573 
L 662.531009 475.550104 
L 664.243517 475.085902 
L 665.96329 474.34199 
L 667.689969 474.616991 
L 669.424416 474.327777 
L 671.165578 473.678243 
L 672.913974 473.614204 
L 674.670142 473.698376 
L 676.433299 473.625799 
L 678.204007 473.061219 
L 679.982031 473.156716 
L 681.766666 473.42704 
L 683.559315 473.156556 
L 685.359204 472.737644 
L 687.166173 473.117728 
L 688.980521 473.280129 
L 690.802604 473.047664 
L 692.63276 472.698871 
L 694.469432 473.167194 
L 696.313743 473.374801 
L 698.165871 473.261178 
L 700.025628 472.98821 
L 701.89317 473.460686 
L 705.65133 473.749645 
L 707.542855 473.52859 
L 711.350087 474.205878 
L 713.265808 474.284516 
L 715.190081 474.021256 
L 717.122334 474.308902 
L 719.062434 474.864938 
L 721.010151 475.072613 
L 722.966875 474.80043 
L 724.932963 475.003819 
L 726.906712 475.447163 
L 728.888908 475.60881 
L 730.880206 475.470814 
L 732.880429 475.628144 
L 734.8889 476.026454 
L 736.906175 476.281841 
L 740.969455 476.315281 
L 745.071988 476.949322 
L 749.213132 477.0066 
L 751.298462 477.366316 
L 755.498997 477.665111 
L 757.615414 477.635101 
L 761.87764 478.161095 
L 768.349961 478.470984 
L 770.527819 478.784302 
L 777.130697 479.112097 
L 781.58908 479.572622 
L 786.097438 479.89951 
L 788.369295 480.120222 
L 792.951407 480.294182 
L 797.582542 480.839055 
L 802.26455 480.892515 
L 804.624272 481.148125 
L 806.99772 481.518878 
L 809.383861 481.637218 
L 811.784633 481.526147 
L 814.198933 481.578417 
L 819.070843 482.252136 
L 824.003129 482.178052 
L 826.492772 482.450188 
L 828.996976 482.958801 
L 831.515533 483.113004 
L 834.051036 482.957805 
L 836.601808 482.950389 
L 841.750404 483.690517 
L 844.348955 483.71358 
L 846.964233 483.525495 
L 849.59668 483.713579 
L 852.245633 484.103652 
L 854.910863 484.279086 
L 860.299281 484.265272 
L 863.022962 484.507392 
L 865.763924 484.887904 
L 868.524611 485.00143 
L 874.105103 484.909428 
L 879.761616 485.535863 
L 885.500909 485.558223 
L 888.401525 485.599929 
L 894.267243 486.16599 
L 901 486.297263 
L 901 486.297263 
" style="fill:none;stroke:#fc8d62;stroke-dasharray:12,4.5;stroke-dashoffset:0;stroke-width:3;"/>
   </g>
   <g id="line2d_25"/>
   <g id="line2d_26"/>
   <g id="line2d_27"/>
   <g id="line2d_28"/>
   <g id="line2d_29"/>
   <g id="line2d_30"/>
   <g id="patch_3">
    <path d="M 112.5 619.0128 
L 112.5 83.4624 
" style="fill:none;stroke:#ffffff;stroke-linecap:square;stroke-linejoin:miter;stroke-width:2.5;"/>
   </g>
   <g id="patch_4">
    <path d="M 810 619.0128 
L 810 83.4624 
" style="fill:none;stroke:#ffffff;stroke-linecap:square;stroke-linejoin:miter;stroke-width:2.5;"/>
   </g>
   <g id="patch_5">
    <path d="M 112.5 619.0128 
L 810 619.0128 
" style="fill:none;stroke:#ffffff;stroke-linecap:square;stroke-linejoin:miter;stroke-width:2.5;"/>
   </g>
   <g id="patch_6">
    <path d="M 112.5 83.4624 
L 810 83.4624 
" style="fill:none;stroke:#ffffff;stroke-linecap:square;stroke-linejoin:miter;stroke-width:2.5;"/>
   </g>
   <g id="legend_1">
    <g id="patch_7">
     <path d="M 573.675313 295.425525 
L 794.6 295.425525 
Q 799 295.425525 799 291.025525 
L 799 98.8624 
Q 799 94.4624 794.6 94.4624 
L 573.675313 94.4624 
Q 569.275313 94.4624 569.275313 98.8624 
L 569.275313 291.025525 
Q 569.275313 295.425525 573.675313 295.425525 
z
" style="fill:#eaeaf2;opacity:0.8;stroke:#cccccc;stroke-linejoin:miter;stroke-width:2;"/>
    </g>
    <g id="line2d_31">
     <path d="M 578.075312 112.278962 
L 622.075312 112.278962 
" style="fill:none;"/>
    </g>
    <g id="line2d_32"/>
    <g id="text_23">
     <!-- Exp -->
     <defs>
      <path d="M 9.8125 72.90625 
L 55.90625 72.90625 
L 55.90625 64.59375 
L 19.671875 64.59375 
L 19.671875 43.015625 
L 54.390625 43.015625 
L 54.390625 34.71875 
L 19.671875 34.71875 
L 19.671875 8.296875 
L 56.78125 8.296875 
L 56.78125 0 
L 9.8125 0 
z
" id="DejaVuSans-45"/>
      <path d="M 54.890625 54.6875 
L 35.109375 28.078125 
L 55.90625 0 
L 45.3125 0 
L 29.390625 21.484375 
L 13.484375 0 
L 2.875 0 
L 24.125 28.609375 
L 4.6875 54.6875 
L 15.28125 54.6875 
L 29.78125 35.203125 
L 44.28125 54.6875 
z
" id="DejaVuSans-78"/>
      <path d="M 18.109375 8.203125 
L 18.109375 -20.796875 
L 9.078125 -20.796875 
L 9.078125 54.6875 
L 18.109375 54.6875 
L 18.109375 46.390625 
Q 20.953125 51.265625 25.265625 53.625 
Q 29.59375 56 35.59375 56 
Q 45.5625 56 51.78125 48.09375 
Q 58.015625 40.1875 58.015625 27.296875 
Q 58.015625 14.40625 51.78125 6.484375 
Q 45.5625 -1.421875 35.59375 -1.421875 
Q 29.59375 -1.421875 25.265625 0.953125 
Q 20.953125 3.328125 18.109375 8.203125 
z
M 48.6875 27.296875 
Q 48.6875 37.203125 44.609375 42.84375 
Q 40.53125 48.484375 33.40625 48.484375 
Q 26.265625 48.484375 22.1875 42.84375 
Q 18.109375 37.203125 18.109375 27.296875 
Q 18.109375 17.390625 22.1875 11.75 
Q 26.265625 6.109375 33.40625 6.109375 
Q 40.53125 6.109375 44.609375 11.75 
Q 48.6875 17.390625 48.6875 27.296875 
z
" id="DejaVuSans-70"/>
     </defs>
     <g style="fill:#262626;" transform="translate(639.675313 119.978962)scale(0.22 -0.22)">
      <use xlink:href="#DejaVuSans-45"/>
      <use x="63.183594" xlink:href="#DejaVuSans-78"/>
      <use x="122.363281" xlink:href="#DejaVuSans-70"/>
     </g>
    </g>
    <g id="line2d_33">
     <path d="M 578.075312 144.570837 
L 622.075312 144.570837 
" style="fill:none;stroke:#66c2a5;stroke-linecap:round;stroke-width:3;"/>
    </g>
    <g id="line2d_34"/>
    <g id="text_24">
     <!-- e030 -->
     <g style="fill:#262626;" transform="translate(639.675313 152.270837)scale(0.22 -0.22)">
      <use xlink:href="#DejaVuSans-65"/>
      <use x="61.523438" xlink:href="#DejaVuSans-30"/>
      <use x="125.146484" xlink:href="#DejaVuSans-33"/>
      <use x="188.769531" xlink:href="#DejaVuSans-30"/>
     </g>
    </g>
    <g id="line2d_35">
     <path d="M 578.075312 176.862712 
L 622.075312 176.862712 
" style="fill:none;stroke:#fc8d62;stroke-linecap:round;stroke-width:3;"/>
    </g>
    <g id="line2d_36"/>
    <g id="text_25">
     <!-- e030_hiSpEta -->
     <defs>
      <path d="M 50.984375 -16.609375 
L 50.984375 -23.578125 
L -0.984375 -23.578125 
L -0.984375 -16.609375 
z
" id="DejaVuSans-5f"/>
      <path d="M 54.890625 33.015625 
L 54.890625 0 
L 45.90625 0 
L 45.90625 32.71875 
Q 45.90625 40.484375 42.875 44.328125 
Q 39.84375 48.1875 33.796875 48.1875 
Q 26.515625 48.1875 22.3125 43.546875 
Q 18.109375 38.921875 18.109375 30.90625 
L 18.109375 0 
L 9.078125 0 
L 9.078125 75.984375 
L 18.109375 75.984375 
L 18.109375 46.1875 
Q 21.34375 51.125 25.703125 53.5625 
Q 30.078125 56 35.796875 56 
Q 45.21875 56 50.046875 50.171875 
Q 54.890625 44.34375 54.890625 33.015625 
z
" id="DejaVuSans-68"/>
      <path d="M 53.515625 70.515625 
L 53.515625 60.890625 
Q 47.90625 63.578125 42.921875 64.890625 
Q 37.9375 66.21875 33.296875 66.21875 
Q 25.25 66.21875 20.875 63.09375 
Q 16.5 59.96875 16.5 54.203125 
Q 16.5 49.359375 19.40625 46.890625 
Q 22.3125 44.4375 30.421875 42.921875 
L 36.375 41.703125 
Q 47.40625 39.59375 52.65625 34.296875 
Q 57.90625 29 57.90625 20.125 
Q 57.90625 9.515625 50.796875 4.046875 
Q 43.703125 -1.421875 29.984375 -1.421875 
Q 24.8125 -1.421875 18.96875 -0.25 
Q 13.140625 0.921875 6.890625 3.21875 
L 6.890625 13.375 
Q 12.890625 10.015625 18.65625 8.296875 
Q 24.421875 6.59375 29.984375 6.59375 
Q 38.421875 6.59375 43.015625 9.90625 
Q 47.609375 13.234375 47.609375 19.390625 
Q 47.609375 24.75 44.3125 27.78125 
Q 41.015625 30.8125 33.5 32.328125 
L 27.484375 33.5 
Q 16.453125 35.6875 11.515625 40.375 
Q 6.59375 45.0625 6.59375 53.421875 
Q 6.59375 63.09375 13.40625 68.65625 
Q 20.21875 74.21875 32.171875 74.21875 
Q 37.3125 74.21875 42.625 73.28125 
Q 47.953125 72.359375 53.515625 70.515625 
z
" id="DejaVuSans-53"/>
      <path d="M 34.28125 27.484375 
Q 23.390625 27.484375 19.1875 25 
Q 14.984375 22.515625 14.984375 16.5 
Q 14.984375 11.71875 18.140625 8.90625 
Q 21.296875 6.109375 26.703125 6.109375 
Q 34.1875 6.109375 38.703125 11.40625 
Q 43.21875 16.703125 43.21875 25.484375 
L 43.21875 27.484375 
z
M 52.203125 31.203125 
L 52.203125 0 
L 43.21875 0 
L 43.21875 8.296875 
Q 40.140625 3.328125 35.546875 0.953125 
Q 30.953125 -1.421875 24.3125 -1.421875 
Q 15.921875 -1.421875 10.953125 3.296875 
Q 6 8.015625 6 15.921875 
Q 6 25.140625 12.171875 29.828125 
Q 18.359375 34.515625 30.609375 34.515625 
L 43.21875 34.515625 
L 43.21875 35.40625 
Q 43.21875 41.609375 39.140625 45 
Q 35.0625 48.390625 27.6875 48.390625 
Q 23 48.390625 18.546875 47.265625 
Q 14.109375 46.140625 10.015625 43.890625 
L 10.015625 52.203125 
Q 14.9375 54.109375 19.578125 55.046875 
Q 24.21875 56 28.609375 56 
Q 40.484375 56 46.34375 49.84375 
Q 52.203125 43.703125 52.203125 31.203125 
z
" id="DejaVuSans-61"/>
     </defs>
     <g style="fill:#262626;" transform="translate(639.675313 184.562712)scale(0.22 -0.22)">
      <use xlink:href="#DejaVuSans-65"/>
      <use x="61.523438" xlink:href="#DejaVuSans-30"/>
      <use x="125.146484" xlink:href="#DejaVuSans-33"/>
      <use x="188.769531" xlink:href="#DejaVuSans-30"/>
      <use x="252.392578" xlink:href="#DejaVuSans-5f"/>
      <use x="302.392578" xlink:href="#DejaVuSans-68"/>
      <use x="365.771484" xlink:href="#DejaVuSans-69"/>
      <use x="393.554688" xlink:href="#DejaVuSans-53"/>
      <use x="457.03125" xlink:href="#DejaVuSans-70"/>
      <use x="520.507812" xlink:href="#DejaVuSans-45"/>
      <use x="583.691406" xlink:href="#DejaVuSans-74"/>
      <use x="622.900391" xlink:href="#DejaVuSans-61"/>
     </g>
    </g>
    <g id="line2d_37">
     <path d="M 578.075312 209.766462 
L 622.075312 209.766462 
" style="fill:none;"/>
    </g>
    <g id="line2d_38"/>
    <g id="text_26">
     <!-- Type -->
     <defs>
      <path d="M -0.296875 72.90625 
L 61.375 72.90625 
L 61.375 64.59375 
L 35.5 64.59375 
L 35.5 0 
L 25.59375 0 
L 25.59375 64.59375 
L -0.296875 64.59375 
z
" id="DejaVuSans-54"/>
     </defs>
     <g style="fill:#262626;" transform="translate(639.675313 217.466462)scale(0.22 -0.22)">
      <use xlink:href="#DejaVuSans-54"/>
      <use x="60.849609" xlink:href="#DejaVuSans-79"/>
      <use x="120.029297" xlink:href="#DejaVuSans-70"/>
      <use x="183.505859" xlink:href="#DejaVuSans-65"/>
     </g>
    </g>
    <g id="line2d_39">
     <path d="M 578.075312 242.058337 
L 622.075312 242.058337 
" style="fill:none;stroke:#333333;stroke-linecap:round;stroke-width:3;"/>
    </g>
    <g id="line2d_40"/>
    <g id="text_27">
     <!-- Trench -->
     <defs>
      <path d="M 41.109375 46.296875 
Q 39.59375 47.171875 37.8125 47.578125 
Q 36.03125 48 33.890625 48 
Q 26.265625 48 22.1875 43.046875 
Q 18.109375 38.09375 18.109375 28.8125 
L 18.109375 0 
L 9.078125 0 
L 9.078125 54.6875 
L 18.109375 54.6875 
L 18.109375 46.1875 
Q 20.953125 51.171875 25.484375 53.578125 
Q 30.03125 56 36.53125 56 
Q 37.453125 56 38.578125 55.875 
Q 39.703125 55.765625 41.0625 55.515625 
z
" id="DejaVuSans-72"/>
      <path d="M 54.890625 33.015625 
L 54.890625 0 
L 45.90625 0 
L 45.90625 32.71875 
Q 45.90625 40.484375 42.875 44.328125 
Q 39.84375 48.1875 33.796875 48.1875 
Q 26.515625 48.1875 22.3125 43.546875 
Q 18.109375 38.921875 18.109375 30.90625 
L 18.109375 0 
L 9.078125 0 
L 9.078125 54.6875 
L 18.109375 54.6875 
L 18.109375 46.1875 
Q 21.34375 51.125 25.703125 53.5625 
Q 30.078125 56 35.796875 56 
Q 45.21875 56 50.046875 50.171875 
Q 54.890625 44.34375 54.890625 33.015625 
z
" id="DejaVuSans-6e"/>
     </defs>
     <g style="fill:#262626;" transform="translate(639.675313 249.758337)scale(0.22 -0.22)">
      <use xlink:href="#DejaVuSans-54"/>
      <use x="60.865234" xlink:href="#DejaVuSans-72"/>
      <use x="101.947266" xlink:href="#DejaVuSans-65"/>
      <use x="163.470703" xlink:href="#DejaVuSans-6e"/>
      <use x="226.849609" xlink:href="#DejaVuSans-63"/>
      <use x="281.830078" xlink:href="#DejaVuSans-68"/>
     </g>
    </g>
    <g id="line2d_41">
     <path d="M 578.075312 274.350212 
L 622.075312 274.350212 
" style="fill:none;stroke:#333333;stroke-dasharray:12,4.5;stroke-dashoffset:0;stroke-width:3;"/>
    </g>
    <g id="line2d_42"/>
    <g id="text_28">
     <!-- Convergence -->
     <defs>
      <path d="M 64.40625 67.28125 
L 64.40625 56.890625 
Q 59.421875 61.53125 53.78125 63.8125 
Q 48.140625 66.109375 41.796875 66.109375 
Q 29.296875 66.109375 22.65625 58.46875 
Q 16.015625 50.828125 16.015625 36.375 
Q 16.015625 21.96875 22.65625 14.328125 
Q 29.296875 6.6875 41.796875 6.6875 
Q 48.140625 6.6875 53.78125 8.984375 
Q 59.421875 11.28125 64.40625 15.921875 
L 64.40625 5.609375 
Q 59.234375 2.09375 53.4375 0.328125 
Q 47.65625 -1.421875 41.21875 -1.421875 
Q 24.65625 -1.421875 15.125 8.703125 
Q 5.609375 18.84375 5.609375 36.375 
Q 5.609375 53.953125 15.125 64.078125 
Q 24.65625 74.21875 41.21875 74.21875 
Q 47.75 74.21875 53.53125 72.484375 
Q 59.328125 70.75 64.40625 67.28125 
z
" id="DejaVuSans-43"/>
      <path d="M 45.40625 27.984375 
Q 45.40625 37.75 41.375 43.109375 
Q 37.359375 48.484375 30.078125 48.484375 
Q 22.859375 48.484375 18.828125 43.109375 
Q 14.796875 37.75 14.796875 27.984375 
Q 14.796875 18.265625 18.828125 12.890625 
Q 22.859375 7.515625 30.078125 7.515625 
Q 37.359375 7.515625 41.375 12.890625 
Q 45.40625 18.265625 45.40625 27.984375 
z
M 54.390625 6.78125 
Q 54.390625 -7.171875 48.1875 -13.984375 
Q 42 -20.796875 29.203125 -20.796875 
Q 24.46875 -20.796875 20.265625 -20.09375 
Q 16.0625 -19.390625 12.109375 -17.921875 
L 12.109375 -9.1875 
Q 16.0625 -11.328125 19.921875 -12.34375 
Q 23.78125 -13.375 27.78125 -13.375 
Q 36.625 -13.375 41.015625 -8.765625 
Q 45.40625 -4.15625 45.40625 5.171875 
L 45.40625 9.625 
Q 42.625 4.78125 38.28125 2.390625 
Q 33.9375 0 27.875 0 
Q 17.828125 0 11.671875 7.65625 
Q 5.515625 15.328125 5.515625 27.984375 
Q 5.515625 40.671875 11.671875 48.328125 
Q 17.828125 56 27.875 56 
Q 33.9375 56 38.28125 53.609375 
Q 42.625 51.21875 45.40625 46.390625 
L 45.40625 54.6875 
L 54.390625 54.6875 
z
" id="DejaVuSans-67"/>
     </defs>
     <g style="fill:#262626;" transform="translate(639.675313 282.050212)scale(0.22 -0.22)">
      <use xlink:href="#DejaVuSans-43"/>
      <use x="69.824219" xlink:href="#DejaVuSans-6f"/>
      <use x="131.005859" xlink:href="#DejaVuSans-6e"/>
      <use x="194.384766" xlink:href="#DejaVuSans-76"/>
      <use x="253.564453" xlink:href="#DejaVuSans-65"/>
      <use x="315.087891" xlink:href="#DejaVuSans-72"/>
      <use x="356.185547" xlink:href="#DejaVuSans-67"/>
      <use x="419.662109" xlink:href="#DejaVuSans-65"/>
      <use x="481.185547" xlink:href="#DejaVuSans-6e"/>
      <use x="544.564453" xlink:href="#DejaVuSans-63"/>
      <use x="599.544922" xlink:href="#DejaVuSans-65"/>
     </g>
    </g>
   </g>
  </g>
 </g>
 <defs>
  <clipPath id="p7b1ee4b86a">
   <rect height="535.5504" width="697.5" x="112.5" y="83.4624"/>
  </clipPath>
 </defs>
</svg>
