<?xml version="1.0" encoding="utf-8" standalone="no"?>
<!DOCTYPE svg PUBLIC "-//W3C//DTD SVG 1.1//EN"
  "http://www.w3.org/Graphics/SVG/1.1/DTD/svg11.dtd">
<!-- Created with matplotlib (http://matplotlib.org/) -->
<svg height="695.52pt" version="1.1" viewBox="0 0 900 695.52" width="900pt" xmlns="http://www.w3.org/2000/svg" xmlns:xlink="http://www.w3.org/1999/xlink">
 <defs>
  <style type="text/css">
*{stroke-linecap:butt;stroke-linejoin:round;}
  </style>
 </defs>
 <g id="figure_1">
  <g id="patch_1">
   <path d="M 0 695.52 
L 900 695.52 
L 900 0 
L 0 0 
z
" style="fill:#ffffff;"/>
  </g>
  <g id="axes_1">
   <g id="patch_2">
    <path d="M 112.5 619.0128 
L 810 619.0128 
L 810 83.4624 
L 112.5 83.4624 
z
" style="fill:#ffffff;"/>
   </g>
   <g id="matplotlib.axis_1">
    <g id="xtick_1">
     <g id="line2d_1">
      <defs>
       <path d="M 0 0 
L 0 12 
" id="m076edc3f5b" style="stroke:#262626;stroke-width:2.5;"/>
      </defs>
      <g>
       <use style="fill:#262626;stroke:#262626;stroke-width:2.5;" x="112.5" xlink:href="#m076edc3f5b" y="619.0128"/>
      </g>
     </g>
     <g id="text_1">
      <!-- 0 -->
      <defs>
       <path d="M 31.78125 66.40625 
Q 24.171875 66.40625 20.328125 58.90625 
Q 16.5 51.421875 16.5 36.375 
Q 16.5 21.390625 20.328125 13.890625 
Q 24.171875 6.390625 31.78125 6.390625 
Q 39.453125 6.390625 43.28125 13.890625 
Q 47.125 21.390625 47.125 36.375 
Q 47.125 51.421875 43.28125 58.90625 
Q 39.453125 66.40625 31.78125 66.40625 
z
M 31.78125 74.21875 
Q 44.046875 74.21875 50.515625 64.515625 
Q 56.984375 54.828125 56.984375 36.375 
Q 56.984375 17.96875 50.515625 8.265625 
Q 44.046875 -1.421875 31.78125 -1.421875 
Q 19.53125 -1.421875 13.0625 8.265625 
Q 6.59375 17.96875 6.59375 36.375 
Q 6.59375 54.828125 13.0625 64.515625 
Q 19.53125 74.21875 31.78125 74.21875 
z
" id="DejaVuSans-30"/>
      </defs>
      <g style="fill:#262626;" transform="translate(105.50125 651.229362)scale(0.22 -0.22)">
       <use xlink:href="#DejaVuSans-30"/>
      </g>
     </g>
    </g>
    <g id="xtick_2">
     <g id="line2d_2">
      <g>
       <use style="fill:#262626;stroke:#262626;stroke-width:2.5;" x="228.75" xlink:href="#m076edc3f5b" y="619.0128"/>
      </g>
     </g>
     <g id="text_2">
      <!-- 10 -->
      <defs>
       <path d="M 12.40625 8.296875 
L 28.515625 8.296875 
L 28.515625 63.921875 
L 10.984375 60.40625 
L 10.984375 69.390625 
L 28.421875 72.90625 
L 38.28125 72.90625 
L 38.28125 8.296875 
L 54.390625 8.296875 
L 54.390625 0 
L 12.40625 0 
z
" id="DejaVuSans-31"/>
      </defs>
      <g style="fill:#262626;" transform="translate(214.7525 651.229362)scale(0.22 -0.22)">
       <use xlink:href="#DejaVuSans-31"/>
       <use x="63.623047" xlink:href="#DejaVuSans-30"/>
      </g>
     </g>
    </g>
    <g id="xtick_3">
     <g id="line2d_3">
      <g>
       <use style="fill:#262626;stroke:#262626;stroke-width:2.5;" x="345" xlink:href="#m076edc3f5b" y="619.0128"/>
      </g>
     </g>
     <g id="text_3">
      <!-- 20 -->
      <defs>
       <path d="M 19.1875 8.296875 
L 53.609375 8.296875 
L 53.609375 0 
L 7.328125 0 
L 7.328125 8.296875 
Q 12.9375 14.109375 22.625 23.890625 
Q 32.328125 33.6875 34.8125 36.53125 
Q 39.546875 41.84375 41.421875 45.53125 
Q 43.3125 49.21875 43.3125 52.78125 
Q 43.3125 58.59375 39.234375 62.25 
Q 35.15625 65.921875 28.609375 65.921875 
Q 23.96875 65.921875 18.8125 64.3125 
Q 13.671875 62.703125 7.8125 59.421875 
L 7.8125 69.390625 
Q 13.765625 71.78125 18.9375 73 
Q 24.125 74.21875 28.421875 74.21875 
Q 39.75 74.21875 46.484375 68.546875 
Q 53.21875 62.890625 53.21875 53.421875 
Q 53.21875 48.921875 51.53125 44.890625 
Q 49.859375 40.875 45.40625 35.40625 
Q 44.1875 33.984375 37.640625 27.21875 
Q 31.109375 20.453125 19.1875 8.296875 
z
" id="DejaVuSans-32"/>
      </defs>
      <g style="fill:#262626;" transform="translate(331.0025 651.229362)scale(0.22 -0.22)">
       <use xlink:href="#DejaVuSans-32"/>
       <use x="63.623047" xlink:href="#DejaVuSans-30"/>
      </g>
     </g>
    </g>
    <g id="xtick_4">
     <g id="line2d_4">
      <g>
       <use style="fill:#262626;stroke:#262626;stroke-width:2.5;" x="461.25" xlink:href="#m076edc3f5b" y="619.0128"/>
      </g>
     </g>
     <g id="text_4">
      <!-- 30 -->
      <defs>
       <path d="M 40.578125 39.3125 
Q 47.65625 37.796875 51.625 33 
Q 55.609375 28.21875 55.609375 21.1875 
Q 55.609375 10.40625 48.1875 4.484375 
Q 40.765625 -1.421875 27.09375 -1.421875 
Q 22.515625 -1.421875 17.65625 -0.515625 
Q 12.796875 0.390625 7.625 2.203125 
L 7.625 11.71875 
Q 11.71875 9.328125 16.59375 8.109375 
Q 21.484375 6.890625 26.8125 6.890625 
Q 36.078125 6.890625 40.9375 10.546875 
Q 45.796875 14.203125 45.796875 21.1875 
Q 45.796875 27.640625 41.28125 31.265625 
Q 36.765625 34.90625 28.71875 34.90625 
L 20.21875 34.90625 
L 20.21875 43.015625 
L 29.109375 43.015625 
Q 36.375 43.015625 40.234375 45.921875 
Q 44.09375 48.828125 44.09375 54.296875 
Q 44.09375 59.90625 40.109375 62.90625 
Q 36.140625 65.921875 28.71875 65.921875 
Q 24.65625 65.921875 20.015625 65.03125 
Q 15.375 64.15625 9.8125 62.3125 
L 9.8125 71.09375 
Q 15.4375 72.65625 20.34375 73.4375 
Q 25.25 74.21875 29.59375 74.21875 
Q 40.828125 74.21875 47.359375 69.109375 
Q 53.90625 64.015625 53.90625 55.328125 
Q 53.90625 49.265625 50.4375 45.09375 
Q 46.96875 40.921875 40.578125 39.3125 
z
" id="DejaVuSans-33"/>
      </defs>
      <g style="fill:#262626;" transform="translate(447.2525 651.229362)scale(0.22 -0.22)">
       <use xlink:href="#DejaVuSans-33"/>
       <use x="63.623047" xlink:href="#DejaVuSans-30"/>
      </g>
     </g>
    </g>
    <g id="xtick_5">
     <g id="line2d_5">
      <g>
       <use style="fill:#262626;stroke:#262626;stroke-width:2.5;" x="577.5" xlink:href="#m076edc3f5b" y="619.0128"/>
      </g>
     </g>
     <g id="text_5">
      <!-- 40 -->
      <defs>
       <path d="M 37.796875 64.3125 
L 12.890625 25.390625 
L 37.796875 25.390625 
z
M 35.203125 72.90625 
L 47.609375 72.90625 
L 47.609375 25.390625 
L 58.015625 25.390625 
L 58.015625 17.1875 
L 47.609375 17.1875 
L 47.609375 0 
L 37.796875 0 
L 37.796875 17.1875 
L 4.890625 17.1875 
L 4.890625 26.703125 
z
" id="DejaVuSans-34"/>
      </defs>
      <g style="fill:#262626;" transform="translate(563.5025 651.229362)scale(0.22 -0.22)">
       <use xlink:href="#DejaVuSans-34"/>
       <use x="63.623047" xlink:href="#DejaVuSans-30"/>
      </g>
     </g>
    </g>
    <g id="xtick_6">
     <g id="line2d_6">
      <g>
       <use style="fill:#262626;stroke:#262626;stroke-width:2.5;" x="693.75" xlink:href="#m076edc3f5b" y="619.0128"/>
      </g>
     </g>
     <g id="text_6">
      <!-- 50 -->
      <defs>
       <path d="M 10.796875 72.90625 
L 49.515625 72.90625 
L 49.515625 64.59375 
L 19.828125 64.59375 
L 19.828125 46.734375 
Q 21.96875 47.46875 24.109375 47.828125 
Q 26.265625 48.1875 28.421875 48.1875 
Q 40.625 48.1875 47.75 41.5 
Q 54.890625 34.8125 54.890625 23.390625 
Q 54.890625 11.625 47.5625 5.09375 
Q 40.234375 -1.421875 26.90625 -1.421875 
Q 22.3125 -1.421875 17.546875 -0.640625 
Q 12.796875 0.140625 7.71875 1.703125 
L 7.71875 11.625 
Q 12.109375 9.234375 16.796875 8.0625 
Q 21.484375 6.890625 26.703125 6.890625 
Q 35.15625 6.890625 40.078125 11.328125 
Q 45.015625 15.765625 45.015625 23.390625 
Q 45.015625 31 40.078125 35.4375 
Q 35.15625 39.890625 26.703125 39.890625 
Q 22.75 39.890625 18.8125 39.015625 
Q 14.890625 38.140625 10.796875 36.28125 
z
" id="DejaVuSans-35"/>
      </defs>
      <g style="fill:#262626;" transform="translate(679.7525 651.229362)scale(0.22 -0.22)">
       <use xlink:href="#DejaVuSans-35"/>
       <use x="63.623047" xlink:href="#DejaVuSans-30"/>
      </g>
     </g>
    </g>
    <g id="xtick_7">
     <g id="line2d_7">
      <g>
       <use style="fill:#262626;stroke:#262626;stroke-width:2.5;" x="810" xlink:href="#m076edc3f5b" y="619.0128"/>
      </g>
     </g>
     <g id="text_7">
      <!-- 60 -->
      <defs>
       <path d="M 33.015625 40.375 
Q 26.375 40.375 22.484375 35.828125 
Q 18.609375 31.296875 18.609375 23.390625 
Q 18.609375 15.53125 22.484375 10.953125 
Q 26.375 6.390625 33.015625 6.390625 
Q 39.65625 6.390625 43.53125 10.953125 
Q 47.40625 15.53125 47.40625 23.390625 
Q 47.40625 31.296875 43.53125 35.828125 
Q 39.65625 40.375 33.015625 40.375 
z
M 52.59375 71.296875 
L 52.59375 62.3125 
Q 48.875 64.0625 45.09375 64.984375 
Q 41.3125 65.921875 37.59375 65.921875 
Q 27.828125 65.921875 22.671875 59.328125 
Q 17.53125 52.734375 16.796875 39.40625 
Q 19.671875 43.65625 24.015625 45.921875 
Q 28.375 48.1875 33.59375 48.1875 
Q 44.578125 48.1875 50.953125 41.515625 
Q 57.328125 34.859375 57.328125 23.390625 
Q 57.328125 12.15625 50.6875 5.359375 
Q 44.046875 -1.421875 33.015625 -1.421875 
Q 20.359375 -1.421875 13.671875 8.265625 
Q 6.984375 17.96875 6.984375 36.375 
Q 6.984375 53.65625 15.1875 63.9375 
Q 23.390625 74.21875 37.203125 74.21875 
Q 40.921875 74.21875 44.703125 73.484375 
Q 48.484375 72.75 52.59375 71.296875 
z
" id="DejaVuSans-36"/>
      </defs>
      <g style="fill:#262626;" transform="translate(796.0025 651.229362)scale(0.22 -0.22)">
       <use xlink:href="#DejaVuSans-36"/>
       <use x="63.623047" xlink:href="#DejaVuSans-30"/>
      </g>
     </g>
    </g>
    <g id="text_8">
     <!-- time -->
     <defs>
      <path d="M 18.3125 70.21875 
L 18.3125 54.6875 
L 36.8125 54.6875 
L 36.8125 47.703125 
L 18.3125 47.703125 
L 18.3125 18.015625 
Q 18.3125 11.328125 20.140625 9.421875 
Q 21.96875 7.515625 27.59375 7.515625 
L 36.8125 7.515625 
L 36.8125 0 
L 27.59375 0 
Q 17.1875 0 13.234375 3.875 
Q 9.28125 7.765625 9.28125 18.015625 
L 9.28125 47.703125 
L 2.6875 47.703125 
L 2.6875 54.6875 
L 9.28125 54.6875 
L 9.28125 70.21875 
z
" id="DejaVuSans-74"/>
      <path d="M 9.421875 54.6875 
L 18.40625 54.6875 
L 18.40625 0 
L 9.421875 0 
z
M 9.421875 75.984375 
L 18.40625 75.984375 
L 18.40625 64.59375 
L 9.421875 64.59375 
z
" id="DejaVuSans-69"/>
      <path d="M 52 44.1875 
Q 55.375 50.25 60.0625 53.125 
Q 64.75 56 71.09375 56 
Q 79.640625 56 84.28125 50.015625 
Q 88.921875 44.046875 88.921875 33.015625 
L 88.921875 0 
L 79.890625 0 
L 79.890625 32.71875 
Q 79.890625 40.578125 77.09375 44.375 
Q 74.3125 48.1875 68.609375 48.1875 
Q 61.625 48.1875 57.5625 43.546875 
Q 53.515625 38.921875 53.515625 30.90625 
L 53.515625 0 
L 44.484375 0 
L 44.484375 32.71875 
Q 44.484375 40.625 41.703125 44.40625 
Q 38.921875 48.1875 33.109375 48.1875 
Q 26.21875 48.1875 22.15625 43.53125 
Q 18.109375 38.875 18.109375 30.90625 
L 18.109375 0 
L 9.078125 0 
L 9.078125 54.6875 
L 18.109375 54.6875 
L 18.109375 46.1875 
Q 21.1875 51.21875 25.484375 53.609375 
Q 29.78125 56 35.6875 56 
Q 41.65625 56 45.828125 52.96875 
Q 50 49.953125 52 44.1875 
z
" id="DejaVuSans-6d"/>
      <path d="M 56.203125 29.59375 
L 56.203125 25.203125 
L 14.890625 25.203125 
Q 15.484375 15.921875 20.484375 11.0625 
Q 25.484375 6.203125 34.421875 6.203125 
Q 39.59375 6.203125 44.453125 7.46875 
Q 49.3125 8.734375 54.109375 11.28125 
L 54.109375 2.78125 
Q 49.265625 0.734375 44.1875 -0.34375 
Q 39.109375 -1.421875 33.890625 -1.421875 
Q 20.796875 -1.421875 13.15625 6.1875 
Q 5.515625 13.8125 5.515625 26.8125 
Q 5.515625 40.234375 12.765625 48.109375 
Q 20.015625 56 32.328125 56 
Q 43.359375 56 49.78125 48.890625 
Q 56.203125 41.796875 56.203125 29.59375 
z
M 47.21875 32.234375 
Q 47.125 39.59375 43.09375 43.984375 
Q 39.0625 48.390625 32.421875 48.390625 
Q 24.90625 48.390625 20.390625 44.140625 
Q 15.875 39.890625 15.1875 32.171875 
z
" id="DejaVuSans-65"/>
     </defs>
     <g style="fill:#262626;" transform="translate(434.139375 678.040925)scale(0.24 -0.24)">
      <use xlink:href="#DejaVuSans-74"/>
      <use x="39.208984" xlink:href="#DejaVuSans-69"/>
      <use x="66.992188" xlink:href="#DejaVuSans-6d"/>
      <use x="164.404297" xlink:href="#DejaVuSans-65"/>
     </g>
    </g>
   </g>
   <g id="matplotlib.axis_2">
    <g id="ytick_1">
     <g id="line2d_8">
      <defs>
       <path d="M 0 0 
L -12 0 
" id="m6e59931905" style="stroke:#262626;stroke-width:2.5;"/>
      </defs>
      <g>
       <use style="fill:#262626;stroke:#262626;stroke-width:2.5;" x="112.5" xlink:href="#m6e59931905" y="597.089357"/>
      </g>
     </g>
     <g id="text_9">
      <!-- −4 -->
      <defs>
       <path d="M 10.59375 35.5 
L 73.1875 35.5 
L 73.1875 27.203125 
L 10.59375 27.203125 
z
" id="DejaVuSans-2212"/>
      </defs>
      <g style="fill:#262626;" transform="translate(64.567188 605.447638)scale(0.22 -0.22)">
       <use xlink:href="#DejaVuSans-2212"/>
       <use x="83.789062" xlink:href="#DejaVuSans-34"/>
      </g>
     </g>
    </g>
    <g id="ytick_2">
     <g id="line2d_9">
      <g>
       <use style="fill:#262626;stroke:#262626;stroke-width:2.5;" x="112.5" xlink:href="#m6e59931905" y="536.415228"/>
      </g>
     </g>
     <g id="text_10">
      <!-- −2 -->
      <g style="fill:#262626;" transform="translate(64.567188 544.773509)scale(0.22 -0.22)">
       <use xlink:href="#DejaVuSans-2212"/>
       <use x="83.789062" xlink:href="#DejaVuSans-32"/>
      </g>
     </g>
    </g>
    <g id="ytick_3">
     <g id="line2d_10">
      <g>
       <use style="fill:#262626;stroke:#262626;stroke-width:2.5;" x="112.5" xlink:href="#m6e59931905" y="475.741099"/>
      </g>
     </g>
     <g id="text_11">
      <!-- 0 -->
      <g style="fill:#262626;" transform="translate(83.0025 484.09938)scale(0.22 -0.22)">
       <use xlink:href="#DejaVuSans-30"/>
      </g>
     </g>
    </g>
    <g id="ytick_4">
     <g id="line2d_11">
      <g>
       <use style="fill:#262626;stroke:#262626;stroke-width:2.5;" x="112.5" xlink:href="#m6e59931905" y="415.06697"/>
      </g>
     </g>
     <g id="text_12">
      <!-- 2 -->
      <g style="fill:#262626;" transform="translate(83.0025 423.425252)scale(0.22 -0.22)">
       <use xlink:href="#DejaVuSans-32"/>
      </g>
     </g>
    </g>
    <g id="ytick_5">
     <g id="line2d_12">
      <g>
       <use style="fill:#262626;stroke:#262626;stroke-width:2.5;" x="112.5" xlink:href="#m6e59931905" y="354.392842"/>
      </g>
     </g>
     <g id="text_13">
      <!-- 4 -->
      <g style="fill:#262626;" transform="translate(83.0025 362.751123)scale(0.22 -0.22)">
       <use xlink:href="#DejaVuSans-34"/>
      </g>
     </g>
    </g>
    <g id="ytick_6">
     <g id="line2d_13">
      <g>
       <use style="fill:#262626;stroke:#262626;stroke-width:2.5;" x="112.5" xlink:href="#m6e59931905" y="293.718713"/>
      </g>
     </g>
     <g id="text_14">
      <!-- 6 -->
      <g style="fill:#262626;" transform="translate(83.0025 302.076994)scale(0.22 -0.22)">
       <use xlink:href="#DejaVuSans-36"/>
      </g>
     </g>
    </g>
    <g id="ytick_7">
     <g id="line2d_14">
      <g>
       <use style="fill:#262626;stroke:#262626;stroke-width:2.5;" x="112.5" xlink:href="#m6e59931905" y="233.044584"/>
      </g>
     </g>
     <g id="text_15">
      <!-- 8 -->
      <defs>
       <path d="M 31.78125 34.625 
Q 24.75 34.625 20.71875 30.859375 
Q 16.703125 27.09375 16.703125 20.515625 
Q 16.703125 13.921875 20.71875 10.15625 
Q 24.75 6.390625 31.78125 6.390625 
Q 38.8125 6.390625 42.859375 10.171875 
Q 46.921875 13.96875 46.921875 20.515625 
Q 46.921875 27.09375 42.890625 30.859375 
Q 38.875 34.625 31.78125 34.625 
z
M 21.921875 38.8125 
Q 15.578125 40.375 12.03125 44.71875 
Q 8.5 49.078125 8.5 55.328125 
Q 8.5 64.0625 14.71875 69.140625 
Q 20.953125 74.21875 31.78125 74.21875 
Q 42.671875 74.21875 48.875 69.140625 
Q 55.078125 64.0625 55.078125 55.328125 
Q 55.078125 49.078125 51.53125 44.71875 
Q 48 40.375 41.703125 38.8125 
Q 48.828125 37.15625 52.796875 32.3125 
Q 56.78125 27.484375 56.78125 20.515625 
Q 56.78125 9.90625 50.3125 4.234375 
Q 43.84375 -1.421875 31.78125 -1.421875 
Q 19.734375 -1.421875 13.25 4.234375 
Q 6.78125 9.90625 6.78125 20.515625 
Q 6.78125 27.484375 10.78125 32.3125 
Q 14.796875 37.15625 21.921875 38.8125 
z
M 18.3125 54.390625 
Q 18.3125 48.734375 21.84375 45.5625 
Q 25.390625 42.390625 31.78125 42.390625 
Q 38.140625 42.390625 41.71875 45.5625 
Q 45.3125 48.734375 45.3125 54.390625 
Q 45.3125 60.0625 41.71875 63.234375 
Q 38.140625 66.40625 31.78125 66.40625 
Q 25.390625 66.40625 21.84375 63.234375 
Q 18.3125 60.0625 18.3125 54.390625 
z
" id="DejaVuSans-38"/>
      </defs>
      <g style="fill:#262626;" transform="translate(83.0025 241.402865)scale(0.22 -0.22)">
       <use xlink:href="#DejaVuSans-38"/>
      </g>
     </g>
    </g>
    <g id="ytick_8">
     <g id="line2d_15">
      <g>
       <use style="fill:#262626;stroke:#262626;stroke-width:2.5;" x="112.5" xlink:href="#m6e59931905" y="172.370455"/>
      </g>
     </g>
     <g id="text_16">
      <!-- 10 -->
      <g style="fill:#262626;" transform="translate(69.005 180.728737)scale(0.22 -0.22)">
       <use xlink:href="#DejaVuSans-31"/>
       <use x="63.623047" xlink:href="#DejaVuSans-30"/>
      </g>
     </g>
    </g>
    <g id="ytick_9">
     <g id="line2d_16">
      <g>
       <use style="fill:#262626;stroke:#262626;stroke-width:2.5;" x="112.5" xlink:href="#m6e59931905" y="111.696327"/>
      </g>
     </g>
     <g id="text_17">
      <!-- 12 -->
      <g style="fill:#262626;" transform="translate(69.005 120.054608)scale(0.22 -0.22)">
       <use xlink:href="#DejaVuSans-31"/>
       <use x="63.623047" xlink:href="#DejaVuSans-32"/>
      </g>
     </g>
    </g>
    <g id="text_18">
     <!-- velocity -->
     <defs>
      <path d="M 2.984375 54.6875 
L 12.5 54.6875 
L 29.59375 8.796875 
L 46.6875 54.6875 
L 56.203125 54.6875 
L 35.6875 0 
L 23.484375 0 
z
" id="DejaVuSans-76"/>
      <path d="M 9.421875 75.984375 
L 18.40625 75.984375 
L 18.40625 0 
L 9.421875 0 
z
" id="DejaVuSans-6c"/>
      <path d="M 30.609375 48.390625 
Q 23.390625 48.390625 19.1875 42.75 
Q 14.984375 37.109375 14.984375 27.296875 
Q 14.984375 17.484375 19.15625 11.84375 
Q 23.34375 6.203125 30.609375 6.203125 
Q 37.796875 6.203125 41.984375 11.859375 
Q 46.1875 17.53125 46.1875 27.296875 
Q 46.1875 37.015625 41.984375 42.703125 
Q 37.796875 48.390625 30.609375 48.390625 
z
M 30.609375 56 
Q 42.328125 56 49.015625 48.375 
Q 55.71875 40.765625 55.71875 27.296875 
Q 55.71875 13.875 49.015625 6.21875 
Q 42.328125 -1.421875 30.609375 -1.421875 
Q 18.84375 -1.421875 12.171875 6.21875 
Q 5.515625 13.875 5.515625 27.296875 
Q 5.515625 40.765625 12.171875 48.375 
Q 18.84375 56 30.609375 56 
z
" id="DejaVuSans-6f"/>
      <path d="M 48.78125 52.59375 
L 48.78125 44.1875 
Q 44.96875 46.296875 41.140625 47.34375 
Q 37.3125 48.390625 33.40625 48.390625 
Q 24.65625 48.390625 19.8125 42.84375 
Q 14.984375 37.3125 14.984375 27.296875 
Q 14.984375 17.28125 19.8125 11.734375 
Q 24.65625 6.203125 33.40625 6.203125 
Q 37.3125 6.203125 41.140625 7.25 
Q 44.96875 8.296875 48.78125 10.40625 
L 48.78125 2.09375 
Q 45.015625 0.34375 40.984375 -0.53125 
Q 36.96875 -1.421875 32.421875 -1.421875 
Q 20.0625 -1.421875 12.78125 6.34375 
Q 5.515625 14.109375 5.515625 27.296875 
Q 5.515625 40.671875 12.859375 48.328125 
Q 20.21875 56 33.015625 56 
Q 37.15625 56 41.109375 55.140625 
Q 45.0625 54.296875 48.78125 52.59375 
z
" id="DejaVuSans-63"/>
      <path d="M 32.171875 -5.078125 
Q 28.375 -14.84375 24.75 -17.8125 
Q 21.140625 -20.796875 15.09375 -20.796875 
L 7.90625 -20.796875 
L 7.90625 -13.28125 
L 13.1875 -13.28125 
Q 16.890625 -13.28125 18.9375 -11.515625 
Q 21 -9.765625 23.484375 -3.21875 
L 25.09375 0.875 
L 2.984375 54.6875 
L 12.5 54.6875 
L 29.59375 11.921875 
L 46.6875 54.6875 
L 56.203125 54.6875 
z
" id="DejaVuSans-79"/>
     </defs>
     <g style="fill:#262626;" transform="translate(55.575937 398.13885)rotate(-90)scale(0.24 -0.24)">
      <use xlink:href="#DejaVuSans-76"/>
      <use x="59.179688" xlink:href="#DejaVuSans-65"/>
      <use x="120.703125" xlink:href="#DejaVuSans-6c"/>
      <use x="148.486328" xlink:href="#DejaVuSans-6f"/>
      <use x="209.667969" xlink:href="#DejaVuSans-63"/>
      <use x="264.648438" xlink:href="#DejaVuSans-69"/>
      <use x="292.431641" xlink:href="#DejaVuSans-74"/>
      <use x="331.640625" xlink:href="#DejaVuSans-79"/>
     </g>
    </g>
   </g>
   <g id="line2d_17">
    <path clip-path="url(#p9cc67122a2)" d="M 113.14651 445.104445 
L 115.739657 444.766584 
L 125.321723 441.552103 
L 141.09029 435.808137 
L 146.676497 433.505622 
L 153.644298 430.787612 
L 157.559577 429.275759 
L 159.349967 428.824615 
L 161.047732 427.86515 
L 164.195815 426.889222 
L 165.671872 426.080472 
L 167.095497 425.640889 
L 168.472355 424.611891 
L 169.808175 424.035191 
L 171.106221 423.01053 
L 174.799507 420.473719 
L 175.977346 419.615239 
L 177.132113 419.041862 
L 179.376273 417.496424 
L 180.462846 417.041407 
L 181.524229 416.387948 
L 183.574319 415.721278 
L 184.565297 415.070183 
L 185.534345 414.816486 
L 186.484092 414.223394 
L 187.41423 414.331202 
L 188.324914 413.47427 
L 189.215881 413.883122 
L 190.089894 412.852153 
L 190.947298 413.250231 
L 192.620213 412.608873 
L 193.437978 413.034705 
L 194.244281 411.927367 
L 195.040344 412.481664 
L 196.605953 411.555316 
L 197.377199 411.972305 
L 198.141319 410.609089 
L 198.900151 411.327088 
L 199.652777 410.390355 
L 200.401096 409.877531 
L 201.144951 410.292141 
L 201.8853 408.258676 
L 202.623202 408.464555 
L 203.358017 407.775645 
L 204.09178 406.597654 
L 204.823004 406.705846 
L 205.553914 405.134674 
L 207.014456 404.238175 
L 207.744208 403.150701 
L 208.47486 403.626053 
L 209.208312 401.6548 
L 209.943961 402.141941 
L 211.424061 400.837136 
L 212.168631 400.69015 
L 212.917768 399.758633 
L 213.669509 400.019293 
L 214.426733 398.698209 
L 215.188597 399.442543 
L 215.955193 397.671937 
L 216.727652 398.312926 
L 217.506796 397.048765 
L 218.290862 397.049626 
L 219.079656 395.752786 
L 219.872119 395.83881 
L 220.669641 394.194346 
L 221.471771 394.916657 
L 222.278671 393.309606 
L 223.091151 393.692163 
L 223.90844 392.698024 
L 224.730813 392.61715 
L 225.559769 392.351416 
L 226.394414 391.729944 
L 227.235398 391.734281 
L 228.083488 390.914302 
L 228.938792 391.06626 
L 229.80099 390.302627 
L 230.670269 390.304757 
L 232.433031 389.498583 
L 233.32802 389.695112 
L 234.230695 388.97687 
L 235.14966 388.581877 
L 236.085791 388.05696 
L 237.036261 387.240121 
L 238.007342 386.973054 
L 238.998417 386.329455 
L 240.0075 385.483674 
L 241.034694 385.171887 
L 242.077655 385.201053 
L 243.131592 384.899288 
L 244.19715 384.836761 
L 245.270717 385.068745 
L 246.349281 385.641308 
L 247.430895 385.913551 
L 248.512929 386.363622 
L 249.59314 387.146767 
L 250.669402 388.136864 
L 252.809903 389.354854 
L 253.872187 390.244302 
L 254.930559 391.307097 
L 255.986374 391.26909 
L 258.091096 392.632562 
L 260.193174 392.617157 
L 261.244857 393.420898 
L 262.298187 393.120517 
L 265.45759 393.159724 
L 266.502205 392.891628 
L 267.535108 393.008478 
L 268.551818 393.395038 
L 269.550315 393.389117 
L 270.525206 394.501275 
L 271.47314 394.76213 
L 272.389569 395.641154 
L 273.272139 397.865939 
L 274.121437 398.250729 
L 274.941103 401.477381 
L 275.734594 401.553131 
L 276.506909 404.85151 
L 277.260367 406.276191 
L 277.998501 406.996141 
L 278.724011 410.62226 
L 279.439735 409.374184 
L 280.852405 414.494011 
L 281.552888 411.465537 
L 282.252305 414.341171 
L 282.95061 416.246135 
L 283.650243 412.299996 
L 284.352163 414.874997 
L 285.056363 416.558258 
L 285.763934 412.139359 
L 286.474646 414.602591 
L 287.187542 416.080896 
L 287.905043 411.217552 
L 288.626948 413.718234 
L 289.35274 415.112422 
L 290.084994 410.129334 
L 290.823729 412.536487 
L 291.568716 411.53386 
L 292.320876 409.024949 
L 293.078113 411.335095 
L 293.842365 408.180945 
L 294.611127 409.599964 
L 295.383058 410.52406 
L 296.159084 407.502368 
L 296.936959 410.416653 
L 297.716726 408.136174 
L 298.497249 409.229275 
L 299.280293 410.134149 
L 300.064236 407.188285 
L 300.848966 410.443757 
L 301.63758 407.442722 
L 302.428965 409.040991 
L 303.223157 408.744649 
L 304.023386 407.340635 
L 304.830485 409.697383 
L 305.64596 405.42231 
L 306.472354 407.615028 
L 307.310995 404.285663 
L 308.163566 405.234605 
L 309.028868 402.877726 
L 309.902685 403.481879 
L 310.784551 402.073489 
L 311.671835 403.230291 
L 312.565088 401.553203 
L 313.461549 402.770376 
L 314.362358 400.989722 
L 315.265435 402.625949 
L 316.171796 399.958544 
L 317.079635 402.589051 
L 317.987359 399.513627 
L 318.894531 402.891345 
L 319.799036 399.170791 
L 320.7003 403.007043 
L 321.596801 399.516348 
L 322.489745 402.369457 
L 323.377116 400.057374 
L 324.258977 402.460025 
L 325.134383 400.675343 
L 326.002524 403.16582 
L 326.864158 402.310485 
L 327.716962 404.098831 
L 328.561752 402.496806 
L 329.394761 406.493307 
L 330.21916 403.137335 
L 331.033271 407.528638 
L 331.83858 405.130525 
L 332.633657 408.455802 
L 333.421191 407.361197 
L 334.198523 408.92674 
L 334.967682 412.578581 
L 335.728839 409.182115 
L 336.481435 413.677714 
L 337.226355 414.162532 
L 337.962987 413.420035 
L 338.692491 417.177214 
L 339.416098 415.805402 
L 340.131176 416.098368 
L 340.84058 419.747499 
L 341.545031 417.522163 
L 342.245093 417.925645 
L 342.943105 421.254163 
L 343.636023 420.646632 
L 344.327282 418.840305 
L 345.017798 421.863954 
L 345.707608 423.815572 
L 346.394204 419.417875 
L 347.080638 421.307313 
L 347.767421 423.552716 
L 348.456109 421.341133 
L 349.146283 420.264731 
L 349.838997 422.372433 
L 350.535046 422.064673 
L 351.235769 418.946388 
L 351.94138 420.455861 
L 352.654202 421.698199 
L 353.372507 417.541134 
L 354.096762 418.604552 
L 354.827154 420.130069 
L 355.563463 416.103284 
L 356.308583 417.293994 
L 357.060614 419.074672 
L 357.816815 415.574516 
L 359.345837 416.592845 
L 360.117315 413.556104 
L 360.89435 415.037318 
L 361.676869 414.037872 
L 362.464172 412.620146 
L 363.257126 414.500299 
L 364.055406 411.097433 
L 364.857743 412.2613 
L 365.665875 411.548224 
L 366.477782 410.23867 
L 367.292231 411.321207 
L 368.108742 408.934306 
L 368.926709 410.3814 
L 369.746726 408.782145 
L 370.565676 409.403035 
L 371.383922 409.621362 
L 372.201351 408.338799 
L 373.016662 409.738574 
L 373.829502 407.772642 
L 374.639401 410.028997 
L 375.447504 409.655826 
L 376.251657 410.620925 
L 377.051077 411.029825 
L 377.845827 410.007815 
L 378.634856 412.370793 
L 379.417088 410.713769 
L 380.190749 412.114471 
L 380.954932 412.048142 
L 381.708365 411.675453 
L 382.451013 413.467377 
L 383.181334 412.186891 
L 383.899543 412.827449 
L 384.604541 414.789631 
L 385.296364 412.693412 
L 385.977052 414.07079 
L 386.647335 415.786035 
L 387.310691 413.603732 
L 387.968376 414.91093 
L 388.620127 417.072319 
L 389.267104 414.924109 
L 389.909441 416.018935 
L 390.54743 418.308674 
L 391.820942 417.560061 
L 392.461404 419.76987 
L 393.101777 421.306507 
L 393.742191 419.507462 
L 394.382529 420.507269 
L 395.021843 422.475224 
L 396.28875 421.652192 
L 396.921397 422.929566 
L 397.553151 425.364562 
L 398.182736 423.531186 
L 398.812006 423.947189 
L 399.439977 425.055103 
L 400.062512 427.537361 
L 400.678961 426.521116 
L 401.290689 427.410811 
L 401.899367 429.280722 
L 402.506037 432.425488 
L 403.111513 433.315106 
L 403.716119 431.958611 
L 404.320593 432.894048 
L 404.924667 435.174092 
L 405.53261 439.965607 
L 406.145479 442.960422 
L 406.761589 439.275371 
L 408.650891 445.587793 
L 409.298365 448.733741 
L 409.954434 451.16996 
L 410.61866 450.748891 
L 411.293852 452.210298 
L 411.980195 455.038125 
L 412.679843 457.267254 
L 414.124216 462.843505 
L 415.629296 468.456246 
L 418.007189 477.14477 
L 418.824245 480.474188 
L 419.648107 483.296069 
L 423.813107 499.805746 
L 427.14688 511.512089 
L 428.819821 517.860988 
L 431.342432 527.385726 
L 435.597723 542.400477 
L 438.191502 551.091237 
L 441.711193 561.814221 
L 442.603067 563.938686 
L 443.500626 566.91931 
L 445.311776 570.939138 
L 446.226555 573.158007 
L 447.146656 574.755066 
L 448.073476 576.909584 
L 449.00671 578.752521 
L 451.845184 583.22767 
L 453.772684 586.12385 
L 455.728999 588.468334 
L 457.714672 590.292422 
L 458.718791 591.062074 
L 462.801539 593.360434 
L 463.83613 593.888034 
L 466.969737 594.31887 
L 468.023461 594.647504 
L 472.297086 594.573875 
L 476.656944 593.609671 
L 478.872984 593.0242 
L 479.990704 592.752779 
L 482.246755 592.017864 
L 483.385361 591.709884 
L 487.991606 589.049273 
L 490.327483 586.971482 
L 491.506228 585.84662 
L 492.690109 584.208942 
L 493.874088 581.80268 
L 495.053377 578.203504 
L 496.22059 573.551593 
L 499.333395 549.802856 
L 500.269076 544.350736 
L 501.20795 540.964622 
L 502.166388 538.128227 
L 504.127837 534.113138 
L 505.105737 532.373526 
L 506.083303 530.99086 
L 507.059927 529.401713 
L 508.036146 528.430553 
L 509.015005 527.072938 
L 509.995286 526.005677 
L 510.979899 525.186494 
L 511.970577 524.132346 
L 512.966808 523.242716 
L 513.967247 522.55983 
L 514.972855 521.552133 
L 515.985253 520.974701 
L 519.07184 518.846731 
L 520.11764 518.214226 
L 521.174235 517.346671 
L 522.24043 516.977981 
L 524.4049 515.627955 
L 525.502713 515.256259 
L 526.613641 514.73521 
L 527.730816 514.001705 
L 529.974252 513.243589 
L 531.10091 512.523236 
L 532.231041 512.104786 
L 533.364525 511.937737 
L 534.501748 511.150758 
L 535.642605 510.712774 
L 536.786163 510.540509 
L 539.08428 509.52103 
L 541.399304 509.04829 
L 542.563451 508.527105 
L 543.732507 508.149984 
L 544.906419 508.068317 
L 547.269413 507.195119 
L 548.459256 506.936569 
L 549.654096 506.873262 
L 550.855311 506.387938 
L 552.062753 506.076388 
L 554.496118 505.750105 
L 556.949793 504.933555 
L 559.421388 504.571333 
L 561.917386 503.818444 
L 564.436213 503.59509 
L 566.980869 502.758583 
L 568.262807 502.600624 
L 569.550917 502.599326 
L 570.845916 502.280186 
L 572.14807 501.803173 
L 573.456998 501.579867 
L 574.772606 501.593484 
L 576.094906 501.356992 
L 577.424921 500.854771 
L 578.762618 500.596975 
L 580.106948 500.726727 
L 581.458623 500.586853 
L 582.817333 500.113795 
L 584.183582 499.77025 
L 585.557337 499.866759 
L 586.938814 499.715325 
L 589.726513 498.965845 
L 591.13219 499.082544 
L 592.545716 499.078331 
L 595.399702 498.215443 
L 598.287361 498.332885 
L 599.744832 498.06046 
L 601.211864 497.627508 
L 602.687811 497.500249 
L 604.172781 497.556158 
L 605.666569 497.368461 
L 607.170469 496.94749 
L 608.684794 496.739597 
L 610.20825 496.865357 
L 611.740847 496.793537 
L 614.838368 496.021321 
L 617.977567 496.0895 
L 622.767574 495.271089 
L 624.386 495.380904 
L 626.016065 495.183902 
L 627.657724 494.837861 
L 629.311764 494.629839 
L 632.65397 494.684318 
L 637.753728 493.915969 
L 639.473542 494.012576 
L 641.200542 493.938166 
L 644.688167 493.304982 
L 646.448113 493.281805 
L 648.219838 493.403426 
L 650.002836 493.167805 
L 651.795605 492.787605 
L 653.602292 492.584326 
L 657.244169 492.629988 
L 660.938562 492.032306 
L 666.572825 491.769035 
L 670.399282 491.312293 
L 692.469152 489.931065 
L 696.689468 489.67916 
L 700.983477 489.379788 
L 705.348671 489.209592 
L 709.788306 488.872384 
L 718.914646 488.416242 
L 723.606296 488.07819 
L 728.387544 487.956569 
L 733.266114 487.536553 
L 738.240158 487.415659 
L 740.759296 487.326312 
L 745.889153 486.942488 
L 751.129785 486.812502 
L 756.48498 486.549546 
L 761.962647 486.293888 
L 770.415769 486.041596 
L 776.214603 485.80878 
L 785.174196 485.557891 
L 797.644439 485.173979 
L 821.092984 484.48697 
L 821.092984 484.48697 
" style="fill:none;stroke:#66c2a5;stroke-linecap:round;stroke-width:3;"/>
   </g>
   <g id="line2d_18">
    <path clip-path="url(#p9cc67122a2)" d="M 113.14651 420.965678 
L 115.739657 420.887823 
L 122.150443 419.012754 
L 125.321723 417.782771 
L 128.507974 416.269518 
L 134.847075 412.6026 
L 137.995505 410.576874 
L 141.09029 408.359734 
L 143.990404 405.904666 
L 149.168707 400.731118 
L 151.483742 398.096598 
L 153.644298 395.426501 
L 157.559577 389.469427 
L 159.349967 386.631582 
L 162.65805 380.164291 
L 164.195815 376.88493 
L 167.095497 369.973465 
L 169.808175 362.591594 
L 172.366874 354.754035 
L 175.977346 342.999768 
L 179.376273 331.255888 
L 183.574319 315.3939 
L 188.324914 296.061287 
L 190.947298 284.941602 
L 195.827611 266.092159 
L 197.377199 260.825873 
L 198.141319 258.486213 
L 198.900151 256.704122 
L 199.652777 254.644258 
L 201.144951 251.786557 
L 201.8853 250.906651 
L 203.358017 249.808378 
L 204.823004 249.7972 
L 205.553914 250.324513 
L 207.014456 250.910902 
L 207.744208 251.199303 
L 209.208312 251.559036 
L 209.943961 251.430534 
L 212.168631 251.799202 
L 213.669509 252.300073 
L 215.188597 253.38024 
L 216.727652 254.682573 
L 217.506796 255.842354 
L 218.290862 256.754914 
L 221.471771 262.116378 
L 223.90844 265.959533 
L 224.730813 267.126113 
L 225.559769 268.613234 
L 227.235398 271.187576 
L 228.938792 274.341148 
L 230.670269 277.306201 
L 232.433031 280.725286 
L 233.32802 282.589918 
L 234.230695 284.051328 
L 236.085791 291.37533 
L 237.036261 294.470979 
L 240.0075 308.014853 
L 241.034694 312.286975 
L 242.077655 315.871063 
L 244.19715 320.574287 
L 245.270717 322.204085 
L 246.349281 323.015541 
L 247.430895 323.337228 
L 248.512929 322.89538 
L 249.59314 321.735674 
L 251.741952 318.096878 
L 252.809903 315.882176 
L 254.930559 311.03983 
L 260.193174 300.183558 
L 264.406592 292.185482 
L 265.45759 289.717758 
L 266.502205 286.787392 
L 267.535108 283.00993 
L 269.550315 273.832769 
L 270.525206 268.050648 
L 271.47314 261.581677 
L 273.272139 246.786589 
L 277.998501 202.898045 
L 279.439735 192.796413 
L 280.852405 186.217441 
L 281.552888 184.190003 
L 282.95061 181.984312 
L 283.650243 181.919907 
L 284.352163 182.328317 
L 285.056363 182.973655 
L 287.187542 186.347723 
L 289.35274 191.936179 
L 293.842365 208.416315 
L 294.611127 210.234559 
L 295.383058 211.56468 
L 296.159084 213.156033 
L 297.716726 214.45911 
L 298.497249 214.608733 
L 299.280293 215.480735 
L 300.848966 215.75005 
L 301.63758 216.950224 
L 303.223157 218.428801 
L 304.830485 222.297837 
L 305.64596 224.643263 
L 309.028868 238.286282 
L 310.784551 241.182048 
L 311.671835 241.703648 
L 312.565088 242.414871 
L 313.461549 242.286046 
L 314.362358 242.530756 
L 315.265435 242.107619 
L 316.171796 241.981376 
L 318.894531 239.900463 
L 320.7003 237.819382 
L 321.596801 236.299598 
L 322.489745 235.230444 
L 324.258977 231.649612 
L 326.002524 227.460097 
L 327.716962 222.260548 
L 328.561752 219.472964 
L 331.033271 209.604466 
L 331.83858 206.398607 
L 332.633657 202.675635 
L 333.421191 199.564302 
L 334.967682 192.529533 
L 338.692491 175.837173 
L 339.416098 173.352701 
L 340.131176 170.043643 
L 342.245093 163.432985 
L 342.943105 162.13696 
L 343.636023 159.655181 
L 344.327282 158.285188 
L 345.707608 156.626782 
L 346.394204 155.380714 
L 347.080638 155.663277 
L 347.767421 156.191226 
L 349.146283 158.06665 
L 349.838997 159.837098 
L 351.235769 162.871914 
L 351.94138 164.772409 
L 355.563463 177.671106 
L 356.308583 181.255259 
L 357.060614 184.326634 
L 357.816815 186.496061 
L 358.579348 189.499192 
L 362.464172 199.48579 
L 364.055406 202.193113 
L 364.857743 203.123584 
L 365.665875 204.257801 
L 366.477782 204.869938 
L 368.108742 205.330523 
L 369.746726 205.188499 
L 371.383922 204.103313 
L 373.016662 202.195834 
L 373.829502 201.021535 
L 377.051077 195.354347 
L 378.634856 192.107987 
L 382.451013 183.016705 
L 387.310691 168.456006 
L 388.620127 163.92291 
L 390.54743 156.568776 
L 391.820942 150.644863 
L 392.461404 148.228706 
L 393.101777 145.313877 
L 393.742191 141.862028 
L 395.021843 136.183802 
L 395.656478 132.740966 
L 398.812006 119.986363 
L 399.439977 118.477808 
L 400.678961 114.647998 
L 401.290689 113.846461 
L 401.899367 114.143001 
L 402.506037 114.093803 
L 403.111513 113.448558 
L 403.716119 113.800414 
L 404.320593 115.323286 
L 404.924667 116.208082 
L 406.761589 122.069792 
L 409.298365 134.204491 
L 413.393389 159.221763 
L 414.124216 164.497544 
L 415.629296 172.897135 
L 416.404724 176.803974 
L 417.199377 181.797373 
L 418.007189 185.239559 
L 419.648107 193.570811 
L 421.313093 200.805697 
L 422.98033 206.6559 
L 423.813107 209.127396 
L 425.479027 212.762561 
L 427.14688 215.170648 
L 427.982618 216.254635 
L 428.819821 217.115314 
L 429.658582 217.577613 
L 430.499131 218.17426 
L 431.342432 218.428357 
L 432.188268 218.345018 
L 433.036174 218.645446 
L 433.886653 218.673785 
L 434.740473 218.316955 
L 435.597723 217.608187 
L 436.458481 217.844791 
L 439.064748 216.018233 
L 439.94211 215.644972 
L 440.824184 215.11577 
L 441.711193 214.786857 
L 442.603067 213.976906 
L 443.500626 213.630033 
L 445.311776 212.614603 
L 447.146656 212.002895 
L 449.00671 211.88028 
L 449.946266 211.812454 
L 452.805351 212.473081 
L 453.772684 212.96803 
L 456.718035 215.073985 
L 459.730583 217.861699 
L 464.876149 224.367546 
L 468.023461 228.591436 
L 470.148476 231.688735 
L 471.219825 233.028194 
L 472.297086 234.729439 
L 481.115183 247.097475 
L 483.385361 250.841006 
L 484.530593 252.801882 
L 485.679516 255.299443 
L 486.832822 258.541934 
L 487.991606 262.773854 
L 489.15625 267.787445 
L 490.327483 274.109975 
L 491.506228 282.878747 
L 492.690109 294.020402 
L 493.874088 308.940854 
L 495.053377 328.122656 
L 497.346945 380.576893 
L 499.333395 431.05065 
L 500.269076 444.399285 
L 501.20795 453.665372 
L 502.166388 458.689028 
L 503.146908 461.803402 
L 504.127837 464.271421 
L 505.105737 465.441128 
L 506.083303 466.202052 
L 508.036146 466.414353 
L 509.015005 466.158469 
L 509.995286 465.386667 
L 510.979899 465.117527 
L 513.967247 463.119205 
L 514.972855 462.058259 
L 515.985253 461.870524 
L 517.006833 460.805209 
L 518.032698 459.964421 
L 519.07184 459.784717 
L 520.11764 458.956234 
L 521.174235 457.975581 
L 522.24043 457.931971 
L 524.4049 456.196928 
L 525.502713 456.100685 
L 526.613641 455.482661 
L 527.730816 454.612038 
L 528.851139 454.563946 
L 529.974252 454.229669 
L 531.10091 453.28261 
L 532.231041 453.088949 
L 533.364525 453.431252 
L 534.501748 452.087061 
L 535.642605 451.808145 
L 536.786163 452.231483 
L 537.93315 451.542776 
L 539.08428 451.112201 
L 540.239749 451.20256 
L 541.399304 451.471191 
L 542.563451 450.759395 
L 543.732507 450.472242 
L 544.906419 451.265669 
L 546.085574 450.577391 
L 547.269413 450.258858 
L 548.459256 450.33968 
L 549.654096 450.995625 
L 550.855311 450.279338 
L 552.062753 450.148713 
L 553.276249 450.602525 
L 554.496118 450.772308 
L 556.949793 449.742158 
L 558.182826 450.132772 
L 559.421388 450.295295 
L 561.917386 449.69075 
L 563.173725 450.224973 
L 564.436213 450.46176 
L 565.705115 450.182668 
L 566.980869 449.617703 
L 568.262807 449.884774 
L 569.550917 450.650483 
L 570.845916 450.571658 
L 572.14807 449.932345 
L 573.456998 449.96608 
L 574.772606 450.816882 
L 576.094906 450.930117 
L 577.424921 450.150924 
L 578.762618 450.104236 
L 580.106948 451.204668 
L 581.458623 451.628972 
L 582.817333 450.904109 
L 584.183582 450.633762 
L 585.557337 451.732772 
L 586.938814 452.038428 
L 588.328667 451.531838 
L 589.726513 451.229201 
L 591.13219 452.363287 
L 592.545716 453.042838 
L 593.968262 452.565123 
L 595.399702 451.885923 
L 598.287361 453.840771 
L 599.744832 453.775445 
L 601.211864 453.238082 
L 602.687811 453.652984 
L 604.172781 454.645806 
L 605.666569 454.837001 
L 607.170469 454.283116 
L 608.684794 454.457458 
L 610.20825 455.556095 
L 611.740847 456.060784 
L 614.838368 455.149642 
L 617.977567 456.886137 
L 619.563185 456.767009 
L 621.15942 456.270082 
L 622.767574 456.615422 
L 624.386 457.734082 
L 626.016065 457.861438 
L 627.657724 457.494355 
L 629.311764 457.616011 
L 632.65397 459.329669 
L 634.343133 459.110502 
L 636.043285 458.713745 
L 637.753728 459.045303 
L 639.473542 460.108221 
L 641.200542 460.515207 
L 642.938687 460.098339 
L 644.688167 459.99399 
L 646.448113 460.689701 
L 648.219838 461.723304 
L 650.002836 461.645114 
L 651.795605 461.15476 
L 653.602292 461.26415 
L 655.417988 462.14011 
L 657.244169 462.743849 
L 660.938562 462.34592 
L 662.804393 462.762336 
L 664.683105 463.331952 
L 666.572825 463.530052 
L 668.478337 463.43565 
L 670.399282 463.565219 
L 672.330025 463.870796 
L 674.278343 464.314087 
L 678.211172 464.501562 
L 680.201175 464.715232 
L 682.207033 464.817552 
L 684.230676 465.210506 
L 696.689468 466.573357 
L 700.983477 466.887217 
L 705.348671 467.58651 
L 707.557743 467.444245 
L 714.308253 468.144006 
L 716.596929 468.456638 
L 718.914646 468.546898 
L 721.246212 468.486855 
L 723.606296 468.592941 
L 725.980882 469.07879 
L 728.387544 469.340656 
L 733.266114 469.089961 
L 735.734709 469.292668 
L 738.240158 469.776396 
L 740.759296 470.01871 
L 743.315764 469.857947 
L 745.889153 469.855467 
L 748.503408 470.037768 
L 751.129785 470.471636 
L 753.799137 470.702857 
L 759.214817 470.629883 
L 761.962647 470.773532 
L 767.562998 471.335391 
L 776.214603 471.518692 
L 779.162116 471.844888 
L 791.329969 472.124089 
L 794.462871 472.362633 
L 800.8567 472.536795 
L 810.767426 472.812566 
L 814.166633 473.031517 
L 821.092984 473.136097 
L 821.092984 473.136097 
" style="fill:none;stroke:#66c2a5;stroke-dasharray:12,4.5;stroke-dashoffset:0;stroke-width:3;"/>
   </g>
   <g id="line2d_19">
    <path clip-path="url(#p9cc67122a2)" d="M 113.146509 445.104801 
L 115.737883 444.811457 
L 125.337848 441.363249 
L 128.537692 440.310603 
L 131.742091 439.129301 
L 134.931017 438.133352 
L 144.054235 434.659921 
L 146.734574 433.884541 
L 149.218189 432.84537 
L 151.52441 431.751801 
L 153.676135 430.858862 
L 159.360467 428.772461 
L 162.659631 427.596137 
L 164.191922 426.785339 
L 165.663251 426.189895 
L 169.786981 424.009762 
L 173.575391 421.258546 
L 174.777353 420.670597 
L 175.955342 419.567191 
L 177.109788 419.513137 
L 178.244237 418.490906 
L 179.355308 418.367845 
L 180.443666 417.330177 
L 181.505378 417.283533 
L 182.542143 416.14813 
L 183.554884 416.278272 
L 184.54504 415.104557 
L 185.513276 415.40653 
L 186.461592 414.576034 
L 187.391088 414.536466 
L 189.190618 413.73677 
L 190.062957 414.488369 
L 190.920371 413.008589 
L 191.763063 414.059473 
L 192.592168 413.162607 
L 193.409887 413.255148 
L 194.21592 413.491666 
L 195.012169 412.109364 
L 195.799105 413.155248 
L 196.577512 411.577272 
L 197.349049 412.003471 
L 198.112711 412.257391 
L 198.871343 410.602713 
L 199.623672 411.411266 
L 200.371824 410.304742 
L 201.115921 409.695799 
L 201.856078 410.408074 
L 202.59422 407.740933 
L 203.329276 408.307093 
L 204.063382 407.734629 
L 204.795503 406.099869 
L 205.526883 406.77517 
L 206.258554 404.105976 
L 206.989099 404.87679 
L 207.720459 403.821085 
L 208.453092 402.974551 
L 209.188361 403.499423 
L 209.926437 401.529979 
L 210.667708 402.806156 
L 211.411095 401.197782 
L 212.158745 401.541373 
L 212.91053 400.733738 
L 213.665799 400.359473 
L 214.425944 400.275441 
L 215.190276 399.089887 
L 215.95955 399.70766 
L 216.735727 397.9496 
L 217.516895 398.551245 
L 218.304477 396.731296 
L 219.095772 397.74455 
L 219.891735 395.56953 
L 220.691981 396.102177 
L 221.497478 394.579782 
L 222.307281 395.241962 
L 223.122719 393.854659 
L 223.94216 394.602811 
L 224.767082 393.256185 
L 225.598137 393.469373 
L 226.436097 392.786 
L 227.280333 392.538729 
L 228.131737 392.408185 
L 228.990614 391.436626 
L 229.855165 392.08248 
L 230.72757 390.544826 
L 231.607067 390.941582 
L 232.495969 390.357932 
L 233.393614 390.211543 
L 234.298606 390.448751 
L 235.219899 388.825292 
L 236.158128 388.817027 
L 237.111049 388.290573 
L 238.083229 387.089356 
L 239.072909 387.081492 
L 240.084078 386.371796 
L 241.109996 385.508388 
L 242.148571 385.771658 
L 243.200477 385.385233 
L 244.263606 385.699326 
L 245.332745 385.396665 
L 247.492617 386.366817 
L 248.574654 387.186756 
L 249.657241 387.219047 
L 250.736983 387.977605 
L 252.884788 390.021819 
L 253.9523 390.24132 
L 255.017456 391.163124 
L 256.080276 391.848673 
L 258.199216 392.411414 
L 259.257918 392.902918 
L 260.318899 393.052918 
L 261.382821 392.620717 
L 262.451374 393.166252 
L 263.524991 393.04727 
L 264.603238 392.427824 
L 266.760114 392.449067 
L 267.833783 392.006266 
L 268.898726 391.871499 
L 270.974681 392.407709 
L 271.975044 392.313093 
L 272.938412 393.855777 
L 273.862872 394.718363 
L 274.752692 396.033305 
L 275.609216 398.183379 
L 276.437779 399.571742 
L 277.240963 401.884559 
L 278.022006 403.28418 
L 278.785262 405.252809 
L 279.532845 407.643753 
L 280.269564 407.965768 
L 280.997788 410.706997 
L 281.719657 410.594168 
L 282.437634 411.35354 
L 283.15346 412.943954 
L 283.868526 411.542409 
L 284.584957 412.749219 
L 285.303594 413.133417 
L 286.02638 411.707744 
L 286.754686 412.855519 
L 287.488874 412.275214 
L 288.229199 411.155401 
L 288.975859 412.324469 
L 289.727256 410.085983 
L 290.485868 410.185708 
L 291.251318 410.777657 
L 292.021646 409.05624 
L 292.797663 410.045366 
L 293.578371 408.592848 
L 294.363238 408.59941 
L 295.152546 408.78544 
L 295.945383 407.611235 
L 296.74202 408.664887 
L 297.540114 406.986737 
L 298.341645 408.201768 
L 299.144308 407.241482 
L 299.949283 407.606938 
L 300.756471 408.158421 
L 301.5647 407.418775 
L 302.37463 408.315977 
L 303.184019 407.058918 
L 303.996259 408.273401 
L 304.80812 407.21471 
L 305.623027 407.571769 
L 307.264637 406.448939 
L 308.094629 406.64177 
L 308.932847 405.412522 
L 309.780813 405.613708 
L 310.640651 403.768443 
L 311.512533 403.856811 
L 312.401552 401.878322 
L 313.30695 401.729999 
L 314.229981 400.03165 
L 316.118806 399.163421 
L 317.076243 398.776747 
L 318.040846 399.071244 
L 319.010744 398.092538 
L 319.986738 398.71218 
L 320.967669 398.125958 
L 321.953908 397.89748 
L 322.946504 398.002503 
L 323.945758 397.150587 
L 324.950035 397.31751 
L 325.961013 396.790344 
L 327.999828 396.458394 
L 329.02493 395.625703 
L 330.054561 395.345884 
L 331.084357 395.626 
L 332.112448 394.368657 
L 334.143044 394.908733 
L 335.142793 394.110849 
L 336.123382 395.300931 
L 337.077015 396.256996 
L 337.999503 396.89133 
L 338.891432 399.287448 
L 339.754782 400.15207 
L 340.589704 403.285122 
L 341.39984 404.377534 
L 342.186414 407.347975 
L 342.950627 408.781399 
L 343.697768 411.176485 
L 344.427762 414.198159 
L 345.145416 414.611782 
L 346.550128 419.209338 
L 347.242534 419.260635 
L 348.614024 422.258026 
L 349.294557 422.354332 
L 349.973982 422.732644 
L 350.652226 423.325565 
L 351.330393 424.406895 
L 352.010282 423.22632 
L 352.692931 423.587608 
L 353.378967 423.571925 
L 354.071017 423.004718 
L 354.770715 421.978428 
L 355.477349 421.192039 
L 356.18933 421.698322 
L 356.909219 419.993309 
L 357.635086 419.444691 
L 358.366163 420.223099 
L 359.10311 419.18276 
L 359.843 418.834228 
L 360.586891 419.380676 
L 361.336353 418.007875 
L 362.087102 417.862673 
L 362.842339 418.568038 
L 363.601909 417.030537 
L 364.367615 416.846115 
L 365.138424 417.007874 
L 365.916161 416.034558 
L 366.705309 416.286011 
L 367.501737 415.826896 
L 369.12897 414.594715 
L 369.962132 412.347917 
L 370.810608 411.51182 
L 372.560904 408.017577 
L 373.461006 406.624739 
L 374.377496 405.824463 
L 375.299785 405.436929 
L 376.229185 404.667347 
L 377.159953 404.548382 
L 378.095434 403.903982 
L 379.973058 403.126468 
L 380.914023 402.663392 
L 381.85583 402.37507 
L 382.797343 401.396648 
L 383.738841 401.480921 
L 384.68215 400.418161 
L 385.619996 400.686925 
L 386.553396 399.878547 
L 387.478276 399.8243 
L 389.297901 399.22646 
L 390.186475 399.453412 
L 391.057811 399.032216 
L 391.906849 400.054805 
L 392.734239 399.576676 
L 393.539075 401.009034 
L 394.320679 400.969712 
L 395.826546 404.4961 
L 396.556257 406.283403 
L 397.267265 409.193848 
L 397.961508 410.337993 
L 399.303422 415.546133 
L 399.959649 416.308519 
L 401.247604 421.755537 
L 401.879543 422.353712 
L 403.126497 425.758376 
L 403.739933 428.112429 
L 404.347478 427.945598 
L 406.764535 432.570191 
L 407.371163 431.654352 
L 407.974545 432.944642 
L 408.572114 433.607066 
L 409.754881 436.322401 
L 410.345365 434.645547 
L 410.937703 434.996903 
L 411.531018 435.626307 
L 412.128139 436.703603 
L 412.732406 439.549382 
L 413.34402 437.529727 
L 413.961629 437.154766 
L 415.217106 440.166936 
L 415.858854 442.778656 
L 416.510746 446.16586 
L 417.172167 443.943039 
L 417.844103 445.627404 
L 418.530599 448.134742 
L 420.674879 457.038855 
L 421.420181 459.613672 
L 422.964836 463.067056 
L 424.602352 468.459963 
L 427.239912 474.826113 
L 428.166183 476.869717 
L 430.099027 480.485036 
L 432.074196 484.595319 
L 441.9953 509.276395 
L 443.00642 511.322029 
L 446.071673 518.848986 
L 448.143805 523.729527 
L 451.300156 529.887752 
L 456.705508 539.269894 
L 457.810719 541.105543 
L 458.923937 542.492732 
L 461.177395 545.64101 
L 464.629313 549.656412 
L 468.174742 552.961731 
L 471.815384 555.325252 
L 473.051525 556.141558 
L 474.298927 556.697247 
L 475.558046 557.453187 
L 478.111793 558.418223 
L 479.4061 558.649918 
L 480.712446 559.110187 
L 482.030292 559.298533 
L 483.360246 559.605181 
L 486.058471 559.950883 
L 488.80665 560.305752 
L 490.199185 560.383345 
L 494.456233 560.185659 
L 495.901769 560.306001 
L 497.360222 560.1702 
L 498.832196 560.198088 
L 501.815266 559.938057 
L 506.385356 559.724384 
L 507.933927 559.46722 
L 509.495002 559.452037 
L 517.472567 558.509256 
L 522.389215 557.389754 
L 525.710806 556.546485 
L 532.436071 553.96607 
L 534.127399 553.20308 
L 535.8191 552.172929 
L 537.507824 550.515622 
L 539.191027 547.615113 
L 540.866896 542.719814 
L 542.526255 538.35726 
L 544.128771 535.337812 
L 545.540987 530.754175 
L 546.851741 527.194412 
L 548.149128 524.683488 
L 549.474818 522.931607 
L 550.859479 521.304713 
L 553.783056 518.373483 
L 558.256373 514.91935 
L 559.758042 514.00705 
L 561.267302 512.948305 
L 562.782351 512.235071 
L 564.305508 511.296355 
L 565.83624 510.710476 
L 568.923347 509.209563 
L 570.479412 508.671255 
L 572.044593 507.972437 
L 573.618115 507.574732 
L 576.791503 506.423907 
L 578.39164 506.084581 
L 580.000936 505.556099 
L 586.52292 503.968897 
L 596.543229 501.898515 
L 598.236854 501.685419 
L 601.644444 500.996174 
L 603.357386 500.766593 
L 606.801048 500.087839 
L 608.530839 499.887165 
L 613.75753 498.96625 
L 615.512054 498.735764 
L 619.040289 498.114395 
L 620.813805 497.922419 
L 624.38227 497.325919 
L 635.268648 495.776615 
L 642.697479 494.67096 
L 646.466348 494.259675 
L 650.272182 493.843152 
L 652.189051 493.705927 
L 656.049637 493.185338 
L 659.94587 492.957513 
L 663.878273 492.575996 
L 669.844935 492.168768 
L 673.870046 491.991174 
L 705.359495 490.306869 
L 774.090947 487.788263 
L 806.367165 486.820039 
L 812.014019 486.666051 
L 817.744586 486.506267 
L 835.460574 486.089955 
L 857.21862 485.5787 
L 894.146976 484.771224 
L 901 484.657921 
L 901 484.657921 
" style="fill:none;stroke:#fc8d62;stroke-linecap:round;stroke-width:3;"/>
   </g>
   <g id="line2d_20">
    <path clip-path="url(#p9cc67122a2)" d="M 113.146509 420.966374 
L 115.737883 420.824798 
L 118.957476 419.914477 
L 122.153124 418.847708 
L 125.337848 417.610761 
L 128.537692 416.175006 
L 131.742091 414.397507 
L 138.078915 410.455941 
L 141.16397 408.19703 
L 146.734574 403.430813 
L 149.218189 400.762324 
L 151.52441 398.118862 
L 153.676135 395.297983 
L 155.690817 392.406282 
L 159.360467 386.496043 
L 162.659631 379.929255 
L 165.663251 373.140551 
L 167.082087 369.678189 
L 171.083339 358.401317 
L 175.955342 342.87484 
L 180.443666 327.622284 
L 187.391088 299.784846 
L 190.062957 288.554506 
L 193.409887 275.313341 
L 195.012169 269.019517 
L 196.577512 263.387154 
L 197.349049 261.08699 
L 198.112711 258.420358 
L 198.871343 256.72003 
L 199.623672 254.610705 
L 201.115921 251.908016 
L 201.856078 250.899353 
L 202.59422 250.519031 
L 203.329276 250.013585 
L 204.063382 250.01658 
L 205.526883 250.472341 
L 206.258554 251.067215 
L 206.989099 251.408721 
L 209.188361 251.929301 
L 210.667708 252.12044 
L 212.91053 252.889148 
L 213.665799 253.270887 
L 214.425944 253.520157 
L 215.190276 254.230212 
L 215.95955 254.74232 
L 217.516895 256.464134 
L 223.122719 265.654099 
L 223.94216 266.639947 
L 225.598137 269.38791 
L 226.436097 270.994857 
L 227.280333 272.323606 
L 228.990614 275.639527 
L 229.855165 276.797141 
L 230.72757 278.514364 
L 231.607067 279.984611 
L 232.495969 282.064695 
L 233.393614 283.854592 
L 234.298606 285.303838 
L 236.158128 292.618807 
L 237.111049 295.917086 
L 239.072909 304.309991 
L 240.084078 309.686159 
L 241.109996 313.2137 
L 244.263606 321.248117 
L 245.332745 322.417293 
L 246.410672 324.343735 
L 247.492617 325.203301 
L 248.574654 324.862958 
L 249.657241 324.69402 
L 251.812988 321.798998 
L 255.017456 316.116207 
L 258.199216 310.475891 
L 260.318899 307.305534 
L 261.382821 305.90181 
L 264.603238 302.517477 
L 265.682781 300.820015 
L 267.833783 296.239775 
L 268.898726 293.039358 
L 269.947542 288.870756 
L 270.974681 283.849209 
L 271.975044 278.084311 
L 272.938412 271.66551 
L 274.752692 257.087896 
L 278.785262 219.732003 
L 279.532845 213.635638 
L 280.269564 208.602211 
L 281.719657 200.990993 
L 282.437634 198.584906 
L 283.15346 196.904795 
L 283.868526 195.95799 
L 284.584957 195.843883 
L 285.303594 196.224652 
L 286.02638 197.482724 
L 287.488874 201.547189 
L 289.727256 208.442026 
L 291.251318 214.187425 
L 294.363238 222.360298 
L 295.152546 224.184107 
L 296.74202 227.176062 
L 297.540114 227.790339 
L 298.341645 229.087216 
L 299.144308 229.587451 
L 300.756471 231.191614 
L 301.5647 231.583444 
L 302.37463 232.160845 
L 303.184019 232.000267 
L 303.996259 232.97136 
L 304.80812 232.880155 
L 305.623027 233.894492 
L 306.440473 234.683444 
L 307.264637 236.891557 
L 308.094629 238.574189 
L 309.780813 243.960112 
L 311.512533 250.725371 
L 312.401552 255.536452 
L 314.229981 264.037259 
L 315.168887 267.411932 
L 316.118806 269.0434 
L 317.076243 269.890731 
L 318.040846 270.549463 
L 319.986738 271.385268 
L 320.967669 271.442944 
L 323.945758 272.168993 
L 324.950035 272.095281 
L 325.961013 272.373197 
L 326.97753 272.293997 
L 327.999828 272.466134 
L 329.02493 272.02214 
L 330.054561 272.007887 
L 331.084357 271.201026 
L 332.112448 270.196215 
L 334.143044 266.638109 
L 335.142793 263.669231 
L 336.123382 259.867997 
L 337.077015 255.007752 
L 337.999503 248.695218 
L 339.754782 234.43178 
L 342.186414 210.993859 
L 342.950627 202.781514 
L 345.852577 177.625165 
L 346.550128 172.237149 
L 347.242534 168.776266 
L 347.931 166.061165 
L 348.614024 162.86864 
L 349.294557 161.389962 
L 349.973982 160.772087 
L 350.652226 159.663283 
L 351.330393 159.310043 
L 352.010282 159.898566 
L 352.692931 160.80683 
L 353.378967 162.474724 
L 354.071017 165.41673 
L 355.477349 171.97761 
L 356.18933 174.654748 
L 356.909219 178.187562 
L 358.366163 183.349181 
L 359.10311 186.257368 
L 360.586891 190.129372 
L 361.336353 192.39429 
L 362.087102 193.417677 
L 363.601909 197.312167 
L 365.916161 202.937323 
L 366.705309 206.215903 
L 367.501737 208.533966 
L 368.308605 211.564102 
L 370.810608 224.46731 
L 372.560904 235.230633 
L 374.377496 242.949486 
L 375.299785 244.149245 
L 376.229185 245.707457 
L 377.159953 246.173307 
L 378.095434 246.882682 
L 379.033127 246.96147 
L 379.973058 247.155443 
L 381.85583 247.213594 
L 382.797343 247.128636 
L 383.738841 246.840317 
L 384.68215 246.99035 
L 385.619996 245.933701 
L 386.553396 245.670638 
L 388.394492 243.688539 
L 389.297901 242.345206 
L 390.186475 240.714166 
L 391.057811 238.644888 
L 391.906849 235.924336 
L 392.734239 232.776882 
L 393.539075 228.704429 
L 394.320679 223.968929 
L 395.081982 218.407232 
L 397.267265 198.61356 
L 398.639344 183.869374 
L 401.879543 145.879318 
L 404.347478 122.247323 
L 406.159996 112.560251 
L 406.764535 110.617281 
L 407.371163 109.566342 
L 407.974545 108.797226 
L 408.572114 107.8056 
L 409.164732 107.971126 
L 409.754881 108.54667 
L 410.345365 110.361171 
L 411.531018 115.083719 
L 412.732406 122.473643 
L 417.172167 152.797043 
L 418.530599 161.101593 
L 419.230754 166.075663 
L 419.94522 171.974337 
L 421.420181 181.175706 
L 424.602352 204.124329 
L 431.088141 255.220114 
L 433.058 266.400542 
L 435.026612 273.631917 
L 437.001254 279.603332 
L 437.992522 281.725751 
L 438.987101 284.171046 
L 440.988359 288.020896 
L 443.00642 290.632943 
L 445.044841 292.86992 
L 446.071673 293.539806 
L 447.104781 293.961742 
L 448.143805 294.713533 
L 449.188978 294.936726 
L 450.241239 294.712164 
L 451.300156 294.939412 
L 452.365836 294.94244 
L 453.439543 294.559752 
L 455.608869 294.444672 
L 457.810719 294.168908 
L 460.045785 294.232765 
L 462.318106 294.285785 
L 463.468544 294.607945 
L 464.629313 295.061826 
L 466.982481 295.773181 
L 470.590543 297.739894 
L 473.051525 299.608176 
L 474.298927 300.688259 
L 479.4061 306.101291 
L 483.360246 310.885748 
L 486.058471 313.953998 
L 488.80665 317.257548 
L 491.605141 320.279853 
L 498.832196 327.226614 
L 506.385356 333.629931 
L 507.933927 334.715887 
L 514.24715 339.818096 
L 519.101881 344.029283 
L 520.741265 345.71708 
L 522.389215 347.603058 
L 524.045962 349.823374 
L 527.383354 355.370576 
L 529.062062 358.619825 
L 530.747109 362.595252 
L 532.436071 367.07782 
L 534.127399 373.037923 
L 535.8191 380.197435 
L 537.507824 389.314959 
L 539.191027 400.137489 
L 540.866896 408.165213 
L 542.526255 419.467001 
L 544.128771 439.392091 
L 545.540987 459.363799 
L 546.851741 475.631991 
L 548.149128 484.919105 
L 549.474818 490.699099 
L 550.859479 492.760811 
L 552.300474 494.155808 
L 553.783056 493.836606 
L 555.270474 493.19493 
L 558.256373 490.314563 
L 559.758042 488.847569 
L 561.267302 486.820815 
L 562.782351 485.711861 
L 564.305508 483.659427 
L 565.83624 482.630607 
L 567.376012 480.973753 
L 568.923347 479.613931 
L 570.479412 478.652691 
L 572.044593 477.121652 
L 573.618115 476.574539 
L 575.199978 475.575455 
L 576.791503 474.361338 
L 578.39164 474.009056 
L 580.000936 473.066238 
L 581.618678 472.296623 
L 583.244892 471.853987 
L 584.879725 471.080825 
L 586.52292 470.581656 
L 588.174109 470.201962 
L 589.833556 469.468783 
L 591.499865 469.001546 
L 593.173794 468.70393 
L 594.855163 468.107785 
L 596.543229 467.761661 
L 598.236854 467.744975 
L 599.93757 467.115146 
L 601.644444 466.74026 
L 603.357386 466.680956 
L 605.076297 466.121237 
L 606.801048 465.746302 
L 608.530839 465.751399 
L 610.266755 465.343957 
L 612.008957 464.815784 
L 615.512054 464.595862 
L 617.272828 464.104115 
L 619.040289 463.839684 
L 620.813805 463.845216 
L 624.38227 463.179823 
L 626.176806 463.007824 
L 627.978516 463.055159 
L 629.788696 462.437312 
L 635.268648 461.758777 
L 638.964553 461.055472 
L 640.826519 460.594044 
L 644.57735 460.505841 
L 648.364648 460.090981 
L 652.189051 460.110562 
L 656.049637 459.547195 
L 657.993608 459.553928 
L 659.94587 459.733245 
L 661.907577 459.550614 
L 665.857921 459.636664 
L 667.846829 459.771982 
L 669.844935 459.588983 
L 671.852691 459.58316 
L 673.870046 459.924948 
L 675.897244 459.982363 
L 677.934408 459.83074 
L 679.981315 459.82193 
L 684.105616 460.282949 
L 686.182657 460.32943 
L 688.270214 460.224785 
L 692.478097 460.532661 
L 696.727613 460.823091 
L 703.184597 461.158998 
L 705.359495 461.159672 
L 711.95502 461.568299 
L 716.411468 461.756863 
L 718.658036 461.96268 
L 727.770537 462.306429 
L 734.741125 462.770425 
L 739.455996 463.005309 
L 744.226056 463.343062 
L 746.632546 463.382888 
L 753.938538 463.797184 
L 758.883452 463.840395 
L 763.889637 464.295044 
L 768.958377 464.264725 
L 771.516721 464.650618 
L 776.682115 464.958028 
L 781.916029 465.082355 
L 784.558809 465.273568 
L 792.595774 465.496022 
L 795.311036 465.880862 
L 803.573808 465.918664 
L 809.180111 466.506064 
L 814.869053 466.475314 
L 820.640398 467.036133 
L 826.499754 467.186023 
L 832.450313 467.594361 
L 838.493839 467.805281 
L 841.551466 467.92687 
L 844.634062 468.199496 
L 850.874111 468.22643 
L 873.559276 469.269782 
L 880.298051 469.477821 
L 883.713455 469.672027 
L 890.636736 469.75717 
L 897.690079 470.205959 
L 901 470.312971 
L 901 470.312971 
" style="fill:none;stroke:#fc8d62;stroke-dasharray:12,4.5;stroke-dashoffset:0;stroke-width:3;"/>
   </g>
   <g id="line2d_21">
    <path clip-path="url(#p9cc67122a2)" d="M 113.146509 445.104993 
L 115.73765 444.831546 
L 125.337953 441.342037 
L 134.880102 438.128065 
L 143.989334 434.602272 
L 149.169276 432.693232 
L 151.483328 431.79224 
L 153.640331 430.722787 
L 157.54997 429.287876 
L 159.33603 428.73676 
L 161.033455 427.975898 
L 164.177472 426.822432 
L 167.075603 425.681556 
L 168.451729 424.734144 
L 169.786142 424.109114 
L 171.082844 422.900065 
L 172.342589 422.236847 
L 173.571995 421.117021 
L 174.773165 420.543479 
L 175.950066 419.413206 
L 177.103821 418.944026 
L 178.23702 418.17795 
L 179.3478 417.804948 
L 180.435091 416.976305 
L 181.497535 416.736318 
L 182.534695 415.877534 
L 183.548858 415.772185 
L 184.540081 414.910042 
L 185.509851 415.203001 
L 186.459245 413.979013 
L 187.38917 414.586712 
L 188.299909 413.332635 
L 189.191943 414.026857 
L 190.066499 413.271416 
L 190.924856 413.271918 
L 191.768999 413.535136 
L 192.599383 412.518075 
L 193.417406 413.471351 
L 194.224289 411.900888 
L 195.020974 412.471314 
L 195.808161 412.443765 
L 196.587316 411.3646 
L 197.358425 412.218831 
L 198.122667 410.526918 
L 198.880855 410.838349 
L 199.633385 410.893929 
L 200.381191 409.44545 
L 201.124713 410.056741 
L 201.864629 408.687119 
L 202.601964 408.024385 
L 203.33698 408.371259 
L 204.070318 406.296324 
L 204.801565 406.587265 
L 205.532348 405.146646 
L 206.262467 404.350449 
L 206.99319 404.448011 
L 207.722607 402.778984 
L 208.453303 403.459201 
L 209.186644 401.580772 
L 209.922205 401.856109 
L 210.661593 401.4771 
L 211.402352 400.408023 
L 212.147199 400.886035 
L 212.896436 399.466857 
L 213.648722 400.663794 
L 214.406113 398.571305 
L 215.168766 399.346739 
L 215.935261 397.592821 
L 216.708122 398.151078 
L 217.487426 397.008177 
L 218.272103 396.967229 
L 219.060947 395.827377 
L 219.854097 395.693721 
L 220.652061 394.7588 
L 221.454706 394.702763 
L 222.261846 393.758784 
L 223.07404 393.879645 
L 223.891219 392.952247 
L 224.713779 393.501188 
L 225.54285 391.88049 
L 226.37783 392.573321 
L 227.219076 391.315624 
L 228.068103 391.919538 
L 228.924488 390.900662 
L 229.788156 391.009397 
L 230.658869 390.779547 
L 231.536516 389.591282 
L 232.422391 390.405683 
L 233.317123 389.144795 
L 234.220314 389.395737 
L 235.136545 389.218292 
L 236.070543 387.560948 
L 237.017702 388.047057 
L 237.98548 387.320541 
L 238.97101 386.084672 
L 239.976229 385.604356 
L 240.99718 385.506423 
L 242.032251 385.006127 
L 243.077349 384.936795 
L 247.35101 385.679137 
L 248.431221 386.223127 
L 249.509842 387.033281 
L 250.587384 387.413193 
L 252.733102 388.812764 
L 253.800272 389.716204 
L 254.863212 390.035608 
L 255.924158 390.659048 
L 256.981978 391.480842 
L 258.038568 391.924049 
L 259.096154 392.066721 
L 261.220588 392.701678 
L 262.291315 392.022304 
L 263.368708 392.09579 
L 264.453046 391.927151 
L 266.640256 390.868532 
L 267.739602 390.794643 
L 269.924255 390.009449 
L 270.997483 389.967149 
L 274.050814 391.599764 
L 275.901493 394.405102 
L 278.448654 399.772766 
L 280.034319 403.715077 
L 280.802762 405.138547 
L 281.558271 407.844787 
L 282.303468 407.885141 
L 283.04067 410.064212 
L 283.772617 410.303035 
L 284.502364 410.661366 
L 285.231944 412.354256 
L 285.963162 410.70885 
L 286.696999 411.416609 
L 287.434729 411.758539 
L 288.178139 410.239388 
L 288.928736 411.089376 
L 289.686653 409.644781 
L 290.453058 409.23859 
L 291.22694 409.468182 
L 292.008681 407.622667 
L 292.797573 408.105288 
L 293.59399 406.846686 
L 294.395287 406.780993 
L 296.012757 405.980016 
L 296.827272 406.595958 
L 297.645836 405.270964 
L 298.466763 406.410914 
L 299.290935 404.831645 
L 300.118141 405.827573 
L 300.948625 405.281971 
L 301.781719 405.748228 
L 303.453776 405.247244 
L 305.131681 404.936564 
L 305.972215 405.229616 
L 306.812665 404.543063 
L 307.652329 405.472975 
L 308.491906 404.571 
L 309.332871 405.727907 
L 310.174576 404.785481 
L 311.020185 405.68004 
L 311.871947 403.976539 
L 312.730445 404.613636 
L 313.597806 403.378396 
L 314.477069 403.171092 
L 315.369235 401.756581 
L 316.278363 401.636111 
L 317.206667 399.59256 
L 318.154783 399.397733 
L 319.122712 397.735425 
L 320.104362 397.18529 
L 321.0944 397.368907 
L 322.091386 396.81923 
L 323.094965 397.128111 
L 324.104279 396.514181 
L 325.121515 396.587159 
L 326.145367 396.196672 
L 327.176966 395.302474 
L 328.216549 395.050948 
L 329.264939 394.958907 
L 330.321735 393.675649 
L 332.461073 393.001416 
L 333.540432 392.093235 
L 334.626734 391.503743 
L 336.808076 390.833685 
L 337.894116 389.821823 
L 338.974264 389.749207 
L 340.039439 389.818128 
L 341.086967 389.319897 
L 342.109919 389.296291 
L 343.105773 390.06236 
L 345.009254 392.44131 
L 345.91659 395.011918 
L 346.794016 395.942727 
L 347.641903 398.965266 
L 348.464269 400.555744 
L 349.264284 403.416503 
L 350.043817 404.794291 
L 350.804261 408.681239 
L 351.5502 408.724251 
L 352.283422 412.004416 
L 353.005766 414.560198 
L 353.720893 414.414912 
L 354.429933 416.912913 
L 355.134879 418.836579 
L 355.838386 417.462844 
L 357.244496 421.189889 
L 357.951291 418.60068 
L 358.660555 419.726221 
L 359.371573 421.17899 
L 360.087868 419.117038 
L 360.811228 418.90698 
L 361.541185 419.5301 
L 362.281466 417.357365 
L 363.030416 416.658401 
L 363.787964 417.312719 
L 364.555567 415.152488 
L 365.329796 414.683104 
L 366.110221 415.239774 
L 366.895029 413.010634 
L 367.684131 413.977836 
L 369.271812 412.772832 
L 370.069954 414.496356 
L 370.869954 411.937388 
L 371.671657 412.956691 
L 373.285424 411.764005 
L 374.0981 412.731794 
L 374.918761 410.845983 
L 375.747615 411.600136 
L 376.585389 409.719477 
L 378.301606 408.139886 
L 379.183805 406.08523 
L 380.086646 405.297341 
L 381.009675 403.165514 
L 381.952257 402.350862 
L 382.912885 400.883221 
L 383.886692 400.077375 
L 384.872518 400.20742 
L 385.862839 398.889036 
L 386.857898 399.98931 
L 387.858623 398.95031 
L 388.861219 398.880611 
L 389.869283 399.012439 
L 390.880224 397.452615 
L 391.889491 397.706751 
L 392.892196 397.13913 
L 393.887765 396.026695 
L 394.876099 396.126824 
L 395.852071 394.731252 
L 396.809543 394.4957 
L 397.747871 394.415497 
L 398.667826 393.276408 
L 399.567887 393.900938 
L 400.449545 392.97146 
L 401.312103 394.132498 
L 402.15724 394.354198 
L 402.980869 395.582513 
L 403.78335 397.21476 
L 404.563794 399.930028 
L 405.321596 401.441341 
L 406.062714 405.801824 
L 406.786959 406.32055 
L 407.492537 410.810917 
L 408.182689 412.61926 
L 408.860228 413.922399 
L 409.524241 418.128791 
L 410.174643 420.149382 
L 410.812778 419.402121 
L 412.073609 426.029177 
L 412.697679 425.82049 
L 413.319085 425.028621 
L 413.937367 427.225847 
L 414.551549 430.259522 
L 415.162676 431.498391 
L 415.772089 427.726081 
L 416.380179 429.237638 
L 416.989522 431.533369 
L 417.601514 435.062982 
L 418.835606 428.839763 
L 419.459771 430.974171 
L 420.093538 435.813016 
L 420.737227 439.472085 
L 421.392184 435.484649 
L 422.05992 432.264174 
L 422.745091 435.244377 
L 423.446321 439.175206 
L 424.163286 441.999058 
L 424.894405 439.817544 
L 425.640916 441.032693 
L 427.17366 448.601412 
L 428.755616 454.627282 
L 429.569804 454.489713 
L 432.990318 467.62855 
L 435.687295 476.202095 
L 438.542816 483.896468 
L 439.542748 486.363995 
L 443.895549 495.294102 
L 445.087395 497.562888 
L 446.293785 499.617243 
L 447.502001 501.929051 
L 449.93043 505.629847 
L 452.388181 510.056097 
L 453.630719 511.831007 
L 454.883732 513.372812 
L 456.148818 515.447873 
L 457.426334 516.936929 
L 458.716767 518.234833 
L 460.022383 520.152412 
L 461.343201 521.403934 
L 462.68039 522.827312 
L 465.408435 525.162554 
L 469.647609 528.234704 
L 474.068286 530.369645 
L 478.672297 531.863376 
L 480.249131 532.238359 
L 481.845769 532.391445 
L 483.463407 532.850314 
L 485.101839 533.077163 
L 486.761668 533.17405 
L 490.144613 533.655403 
L 491.867908 533.532425 
L 497.163939 533.809035 
L 498.97292 533.704439 
L 506.42023 533.871179 
L 508.335233 533.764539 
L 526.469533 533.812143 
L 530.711431 533.709717 
L 532.860066 533.735164 
L 539.40861 533.45134 
L 541.625499 533.004221 
L 543.857999 532.82512 
L 559.885613 530.495734 
L 564.581881 529.746398 
L 569.324526 528.997218 
L 583.791967 526.214289 
L 591.14865 524.355167 
L 603.57681 520.697425 
L 611.125826 518.589595 
L 613.655075 517.997445 
L 616.186546 517.945072 
L 618.713365 518.286256 
L 621.231366 517.85838 
L 623.727189 516.838514 
L 627.771487 514.891811 
L 629.46134 513.579779 
L 631.199947 512.798874 
L 633.045811 511.021443 
L 634.997894 509.864322 
L 637.050112 508.272738 
L 641.266143 505.739673 
L 643.402648 504.601425 
L 647.73935 502.69699 
L 649.940549 501.828087 
L 652.162859 501.167801 
L 654.409274 500.372798 
L 656.678345 499.867731 
L 658.971919 499.196671 
L 663.624413 498.209997 
L 665.985849 497.641495 
L 668.368144 497.335831 
L 670.77384 496.76131 
L 675.649532 495.992847 
L 678.117755 495.574921 
L 680.605611 495.309704 
L 683.11306 494.828123 
L 688.185349 494.181113 
L 690.747325 493.80007 
L 693.325714 493.616981 
L 698.528679 492.859343 
L 701.153016 492.704662 
L 706.444487 492.003667 
L 709.109794 491.867583 
L 714.481607 491.232164 
L 717.186931 491.142657 
L 722.63693 490.561452 
L 725.381269 490.578051 
L 730.912228 490.031874 
L 733.698221 490.062362 
L 739.31152 489.634182 
L 744.97875 489.559258 
L 747.833212 489.31793 
L 756.463942 489.005875 
L 762.272676 488.83037 
L 765.192859 488.763374 
L 768.124412 488.544175 
L 774.021612 488.458804 
L 779.964907 488.252488 
L 822.910932 487.196042 
L 882.031457 486.080766 
L 892.365496 485.932065 
L 901 485.79675 
L 901 485.79675 
" style="fill:none;stroke:#8da0cb;stroke-linecap:round;stroke-width:3;"/>
   </g>
   <g id="line2d_22">
    <path clip-path="url(#p9cc67122a2)" d="M 113.146509 420.966846 
L 115.73765 420.808215 
L 118.957493 419.949242 
L 122.15283 418.860237 
L 125.337953 417.597389 
L 128.53232 416.124605 
L 131.718244 414.396846 
L 138.011227 410.427877 
L 141.088964 408.299926 
L 143.989334 405.976961 
L 146.678482 403.482553 
L 151.483328 398.16949 
L 153.640331 395.429811 
L 155.658817 392.514558 
L 159.33603 386.491645 
L 161.033455 383.411073 
L 164.177472 376.871589 
L 167.075603 369.977359 
L 169.786142 362.551633 
L 173.571995 350.703259 
L 180.435091 327.389476 
L 183.548858 315.41524 
L 195.020974 268.991547 
L 196.587316 263.51836 
L 198.122667 258.516873 
L 199.633385 254.66002 
L 201.124713 251.798952 
L 201.864629 250.857563 
L 202.601964 250.322064 
L 203.33698 250.041308 
L 204.070318 249.880787 
L 204.801565 249.994821 
L 205.532348 250.450853 
L 206.262467 250.67014 
L 206.99319 251.103889 
L 207.722607 251.173485 
L 209.186644 251.588164 
L 209.922205 251.487324 
L 210.661593 251.638794 
L 211.402352 251.607627 
L 212.147199 251.944997 
L 212.896436 252.125758 
L 214.406113 252.805175 
L 215.168766 253.530937 
L 215.935261 253.992236 
L 216.708122 254.771785 
L 217.487426 255.759108 
L 219.854097 259.539658 
L 221.454706 262.280283 
L 224.713779 267.425875 
L 225.54285 269.018683 
L 227.219076 271.670426 
L 228.924488 275.168944 
L 232.422391 281.645299 
L 233.317123 283.646062 
L 234.220314 285.351097 
L 235.136545 288.359665 
L 236.070543 292.392116 
L 237.017702 295.32675 
L 237.98548 300.084137 
L 238.97101 304.169435 
L 239.976229 309.256011 
L 240.99718 313.189803 
L 242.032251 316.597161 
L 243.077349 318.751603 
L 244.134245 321.543212 
L 245.201455 324.027665 
L 246.274017 324.999412 
L 247.35101 326.14159 
L 248.431221 326.867209 
L 250.587384 325.584683 
L 251.662252 324.294302 
L 252.733102 322.730613 
L 256.981978 315.592087 
L 259.096154 312.633457 
L 260.156148 311.389065 
L 261.220588 310.397084 
L 262.291315 309.601047 
L 264.453046 308.288432 
L 265.544616 307.558867 
L 267.739602 305.038916 
L 268.836077 302.913308 
L 269.924255 300.026186 
L 270.997483 296.2094 
L 272.050354 291.658111 
L 273.070147 286.408206 
L 274.050814 280.334331 
L 275.901493 266.623583 
L 281.558271 219.719142 
L 283.04067 211.039662 
L 283.772617 208.056402 
L 284.502364 206.453728 
L 285.231944 205.736846 
L 285.963162 205.785527 
L 286.696999 206.381592 
L 287.434729 207.557559 
L 288.178139 209.646496 
L 289.686653 215.1894 
L 291.22694 221.560918 
L 292.797573 227.759596 
L 293.59399 230.776996 
L 296.012757 236.862241 
L 297.645836 239.873044 
L 298.466763 240.822879 
L 300.118141 243.219233 
L 300.948625 244.441209 
L 301.781719 245.401858 
L 302.616566 246.055436 
L 303.453776 246.918108 
L 304.292053 247.225057 
L 305.131681 247.670155 
L 305.972215 247.890837 
L 306.812665 247.877607 
L 307.652329 247.383098 
L 308.491906 247.259706 
L 310.174576 247.37665 
L 311.020185 248.257158 
L 312.730445 251.641822 
L 313.597806 253.969187 
L 315.369235 260.44971 
L 317.206667 269.446903 
L 319.122712 278.546439 
L 320.104362 280.965312 
L 322.091386 282.478469 
L 327.176966 285.312216 
L 329.264939 286.598584 
L 332.461073 288.470882 
L 333.540432 288.596339 
L 334.626734 289.087017 
L 336.808076 289.050263 
L 338.974264 287.784369 
L 340.039439 286.155971 
L 341.086967 284.265245 
L 342.109919 280.92423 
L 343.105773 276.891475 
L 344.072869 271.885762 
L 345.91659 259.031415 
L 346.794016 251.427872 
L 351.5502 205.258508 
L 353.005766 193.266905 
L 354.429933 185.091796 
L 355.134879 181.882032 
L 356.540917 178.474196 
L 357.244496 177.811979 
L 357.951291 178.267299 
L 358.660555 178.934197 
L 359.371573 180.038699 
L 360.087868 182.131379 
L 361.541185 187.771916 
L 363.030416 195.831961 
L 364.555567 203.755746 
L 366.110221 209.431864 
L 367.684131 213.220967 
L 368.476754 214.670956 
L 370.069954 216.895929 
L 371.671657 218.25769 
L 372.477423 219.656943 
L 373.285424 220.342398 
L 374.0981 221.748202 
L 376.585389 229.520846 
L 378.301606 238.030533 
L 379.183805 243.120172 
L 381.009675 254.736371 
L 381.952257 259.963796 
L 382.912885 264.427946 
L 383.886692 267.083363 
L 384.872518 269.073656 
L 385.862839 269.020142 
L 387.858623 269.699818 
L 388.861219 269.284796 
L 389.869283 269.781975 
L 390.880224 269.68147 
L 391.889491 270.124154 
L 392.892196 270.341353 
L 393.887765 270.347881 
L 394.876099 270.486423 
L 395.852071 270.409562 
L 396.809543 269.766254 
L 397.747871 268.688531 
L 398.667826 267.356239 
L 399.567887 264.959569 
L 400.449545 262.126392 
L 402.15724 251.993371 
L 403.78335 237.927904 
L 405.321596 220.429273 
L 406.786959 201.351001 
L 409.524241 161.528779 
L 410.812778 145.372892 
L 411.44541 138.614335 
L 412.073609 133.263361 
L 413.319085 125.486971 
L 413.937367 122.890681 
L 414.551549 122.004592 
L 415.162676 122.355714 
L 416.380179 124.302649 
L 416.989522 126.080372 
L 417.601514 128.812593 
L 419.459771 139.285367 
L 420.093538 143.972691 
L 422.05992 162.384395 
L 423.446321 176.26742 
L 424.163286 182.517801 
L 426.401863 195.996216 
L 427.17366 200.048476 
L 433.875985 227.251586 
L 434.774131 231.158037 
L 436.617617 240.576729 
L 439.542748 258.661399 
L 443.895549 289.48911 
L 446.293785 303.330773 
L 447.502001 308.154135 
L 448.713168 312.280183 
L 449.93043 315.348557 
L 452.388181 320.784099 
L 454.883732 324.800643 
L 456.148818 326.877194 
L 461.343201 333.090246 
L 465.408435 337.05773 
L 468.214489 339.631236 
L 472.574829 344.124691 
L 477.117172 348.761744 
L 481.845769 353.955367 
L 485.101839 357.941385 
L 488.441981 361.967696 
L 490.144613 364.069413 
L 491.867908 365.89943 
L 495.376984 369.986732 
L 498.97292 373.801638 
L 500.802349 375.728151 
L 504.526243 379.265279 
L 506.42023 380.949579 
L 510.270943 383.960737 
L 514.203201 386.855419 
L 518.212912 389.431518 
L 522.301557 391.731464 
L 535.02637 398.256903 
L 539.40861 400.303163 
L 541.625499 401.116144 
L 546.106127 403.048058 
L 559.885613 409.158418 
L 564.581881 411.48308 
L 574.108632 416.321432 
L 578.931685 419.162954 
L 588.687366 425.035154 
L 593.61778 427.577285 
L 611.125826 435.80357 
L 613.655075 437.408109 
L 616.186546 441.000884 
L 618.713365 447.217337 
L 621.231366 454.448238 
L 623.727189 466.282556 
L 625.989452 486.22792 
L 627.771487 508.207159 
L 629.46134 519.287285 
L 631.199947 522.217871 
L 633.045811 522.523363 
L 634.997894 520.982756 
L 637.050112 518.509723 
L 639.149596 514.852758 
L 641.266143 511.849542 
L 643.402648 508.505753 
L 645.559959 505.42555 
L 649.940549 499.661478 
L 652.162859 497.464454 
L 654.409274 494.68434 
L 656.678345 492.759368 
L 658.971919 490.311436 
L 663.624413 486.760711 
L 665.985849 484.808486 
L 668.368144 483.478203 
L 670.77384 481.637501 
L 673.20111 480.31033 
L 675.649532 478.830062 
L 678.117755 477.527188 
L 680.605611 476.56596 
L 683.11306 475.238709 
L 688.185349 473.205353 
L 690.747325 472.138553 
L 693.325714 471.619626 
L 698.528679 469.776024 
L 701.153016 469.416006 
L 703.791887 468.585744 
L 706.444487 467.933448 
L 709.109794 467.63279 
L 711.789459 466.908909 
L 714.481607 466.473904 
L 717.186931 466.265662 
L 719.905367 465.666974 
L 722.63693 465.327433 
L 725.381269 465.507095 
L 730.912228 464.784973 
L 733.698221 464.990203 
L 739.31152 464.43112 
L 742.13862 464.633118 
L 744.97875 464.693597 
L 747.833212 464.394825 
L 750.698492 464.323893 
L 753.575275 464.364555 
L 759.362763 464.021389 
L 762.272676 464.182645 
L 765.192859 464.168215 
L 768.124412 463.938497 
L 774.021612 464.120035 
L 779.964907 464.057886 
L 785.952938 464.09321 
L 788.96578 464.048756 
L 795.02613 464.286145 
L 798.073809 464.171233 
L 822.910932 464.634676 
L 826.074709 464.769162 
L 832.441482 464.841996 
L 878.617883 465.863496 
L 895.844143 466.26987 
L 901 466.439523 
L 901 466.439523 
" style="fill:none;stroke:#8da0cb;stroke-dasharray:12,4.5;stroke-dashoffset:0;stroke-width:3;"/>
   </g>
   <g id="line2d_23"/>
   <g id="line2d_24"/>
   <g id="line2d_25"/>
   <g id="line2d_26"/>
   <g id="line2d_27"/>
   <g id="line2d_28"/>
   <g id="line2d_29"/>
   <g id="patch_3">
    <path d="M 112.5 619.0128 
L 112.5 83.4624 
" style="fill:none;stroke:#262626;stroke-linecap:square;stroke-linejoin:miter;stroke-width:2.5;"/>
   </g>
   <g id="patch_4">
    <path d="M 810 619.0128 
L 810 83.4624 
" style="fill:none;stroke:#262626;stroke-linecap:square;stroke-linejoin:miter;stroke-width:2.5;"/>
   </g>
   <g id="patch_5">
    <path d="M 112.5 619.0128 
L 810 619.0128 
" style="fill:none;stroke:#262626;stroke-linecap:square;stroke-linejoin:miter;stroke-width:2.5;"/>
   </g>
   <g id="patch_6">
    <path d="M 112.5 83.4624 
L 810 83.4624 
" style="fill:none;stroke:#262626;stroke-linecap:square;stroke-linejoin:miter;stroke-width:2.5;"/>
   </g>
   <g id="legend_1">
    <g id="patch_7">
     <path d="M 544.6525 327.105525 
L 794.6 327.105525 
Q 799 327.105525 799 322.705525 
L 799 98.8624 
Q 799 94.4624 794.6 94.4624 
L 544.6525 94.4624 
Q 540.2525 94.4624 540.2525 98.8624 
L 540.2525 322.705525 
Q 540.2525 327.105525 544.6525 327.105525 
z
" style="fill:#ffffff;opacity:0.8;stroke:#cccccc;stroke-linejoin:miter;stroke-width:2;"/>
    </g>
    <g id="line2d_30">
     <path d="M 549.0525 112.278963 
L 593.0525 112.278963 
" style="fill:none;"/>
    </g>
    <g id="line2d_31"/>
    <g id="text_19">
     <!-- Exp -->
     <defs>
      <path d="M 9.8125 72.90625 
L 55.90625 72.90625 
L 55.90625 64.59375 
L 19.671875 64.59375 
L 19.671875 43.015625 
L 54.390625 43.015625 
L 54.390625 34.71875 
L 19.671875 34.71875 
L 19.671875 8.296875 
L 56.78125 8.296875 
L 56.78125 0 
L 9.8125 0 
z
" id="DejaVuSans-45"/>
      <path d="M 54.890625 54.6875 
L 35.109375 28.078125 
L 55.90625 0 
L 45.3125 0 
L 29.390625 21.484375 
L 13.484375 0 
L 2.875 0 
L 24.125 28.609375 
L 4.6875 54.6875 
L 15.28125 54.6875 
L 29.78125 35.203125 
L 44.28125 54.6875 
z
" id="DejaVuSans-78"/>
      <path d="M 18.109375 8.203125 
L 18.109375 -20.796875 
L 9.078125 -20.796875 
L 9.078125 54.6875 
L 18.109375 54.6875 
L 18.109375 46.390625 
Q 20.953125 51.265625 25.265625 53.625 
Q 29.59375 56 35.59375 56 
Q 45.5625 56 51.78125 48.09375 
Q 58.015625 40.1875 58.015625 27.296875 
Q 58.015625 14.40625 51.78125 6.484375 
Q 45.5625 -1.421875 35.59375 -1.421875 
Q 29.59375 -1.421875 25.265625 0.953125 
Q 20.953125 3.328125 18.109375 8.203125 
z
M 48.6875 27.296875 
Q 48.6875 37.203125 44.609375 42.84375 
Q 40.53125 48.484375 33.40625 48.484375 
Q 26.265625 48.484375 22.1875 42.84375 
Q 18.109375 37.203125 18.109375 27.296875 
Q 18.109375 17.390625 22.1875 11.75 
Q 26.265625 6.109375 33.40625 6.109375 
Q 40.53125 6.109375 44.609375 11.75 
Q 48.6875 17.390625 48.6875 27.296875 
z
" id="DejaVuSans-70"/>
     </defs>
     <g style="fill:#262626;" transform="translate(610.6525 119.978963)scale(0.22 -0.22)">
      <use xlink:href="#DejaVuSans-45"/>
      <use x="63.183594" xlink:href="#DejaVuSans-78"/>
      <use x="122.363281" xlink:href="#DejaVuSans-70"/>
     </g>
    </g>
    <g id="line2d_32">
     <path d="M 549.0525 144.570838 
L 593.0525 144.570838 
" style="fill:none;stroke:#66c2a5;stroke-linecap:round;stroke-width:3;"/>
    </g>
    <g id="line2d_33"/>
    <g id="text_20">
     <!-- e000 -->
     <g style="fill:#262626;" transform="translate(610.6525 152.270838)scale(0.22 -0.22)">
      <use xlink:href="#DejaVuSans-65"/>
      <use x="61.523438" xlink:href="#DejaVuSans-30"/>
      <use x="125.146484" xlink:href="#DejaVuSans-30"/>
      <use x="188.769531" xlink:href="#DejaVuSans-30"/>
     </g>
    </g>
    <g id="line2d_34">
     <path d="M 549.0525 176.862713 
L 593.0525 176.862713 
" style="fill:none;stroke:#fc8d62;stroke-linecap:round;stroke-width:3;"/>
    </g>
    <g id="line2d_35"/>
    <g id="text_21">
     <!-- e030 -->
     <g style="fill:#262626;" transform="translate(610.6525 184.562713)scale(0.22 -0.22)">
      <use xlink:href="#DejaVuSans-65"/>
      <use x="61.523438" xlink:href="#DejaVuSans-30"/>
      <use x="125.146484" xlink:href="#DejaVuSans-33"/>
      <use x="188.769531" xlink:href="#DejaVuSans-30"/>
     </g>
    </g>
    <g id="line2d_36">
     <path d="M 549.0525 209.154588 
L 593.0525 209.154588 
" style="fill:none;stroke:#8da0cb;stroke-linecap:round;stroke-width:3;"/>
    </g>
    <g id="line2d_37"/>
    <g id="text_22">
     <!-- e050 -->
     <g style="fill:#262626;" transform="translate(610.6525 216.854588)scale(0.22 -0.22)">
      <use xlink:href="#DejaVuSans-65"/>
      <use x="61.523438" xlink:href="#DejaVuSans-30"/>
      <use x="125.146484" xlink:href="#DejaVuSans-35"/>
      <use x="188.769531" xlink:href="#DejaVuSans-30"/>
     </g>
    </g>
    <g id="line2d_38">
     <path d="M 549.0525 241.446463 
L 593.0525 241.446463 
" style="fill:none;"/>
    </g>
    <g id="line2d_39"/>
    <g id="text_23">
     <!-- Type -->
     <defs>
      <path d="M -0.296875 72.90625 
L 61.375 72.90625 
L 61.375 64.59375 
L 35.5 64.59375 
L 35.5 0 
L 25.59375 0 
L 25.59375 64.59375 
L -0.296875 64.59375 
z
" id="DejaVuSans-54"/>
     </defs>
     <g style="fill:#262626;" transform="translate(610.6525 249.146463)scale(0.22 -0.22)">
      <use xlink:href="#DejaVuSans-54"/>
      <use x="60.849609" xlink:href="#DejaVuSans-79"/>
      <use x="120.029297" xlink:href="#DejaVuSans-70"/>
      <use x="183.505859" xlink:href="#DejaVuSans-65"/>
     </g>
    </g>
    <g id="line2d_40">
     <path d="M 549.0525 273.738338 
L 593.0525 273.738338 
" style="fill:none;stroke:#333333;stroke-linecap:round;stroke-width:3;"/>
    </g>
    <g id="line2d_41"/>
    <g id="text_24">
     <!-- Trench -->
     <defs>
      <path d="M 41.109375 46.296875 
Q 39.59375 47.171875 37.8125 47.578125 
Q 36.03125 48 33.890625 48 
Q 26.265625 48 22.1875 43.046875 
Q 18.109375 38.09375 18.109375 28.8125 
L 18.109375 0 
L 9.078125 0 
L 9.078125 54.6875 
L 18.109375 54.6875 
L 18.109375 46.1875 
Q 20.953125 51.171875 25.484375 53.578125 
Q 30.03125 56 36.53125 56 
Q 37.453125 56 38.578125 55.875 
Q 39.703125 55.765625 41.0625 55.515625 
z
" id="DejaVuSans-72"/>
      <path d="M 54.890625 33.015625 
L 54.890625 0 
L 45.90625 0 
L 45.90625 32.71875 
Q 45.90625 40.484375 42.875 44.328125 
Q 39.84375 48.1875 33.796875 48.1875 
Q 26.515625 48.1875 22.3125 43.546875 
Q 18.109375 38.921875 18.109375 30.90625 
L 18.109375 0 
L 9.078125 0 
L 9.078125 54.6875 
L 18.109375 54.6875 
L 18.109375 46.1875 
Q 21.34375 51.125 25.703125 53.5625 
Q 30.078125 56 35.796875 56 
Q 45.21875 56 50.046875 50.171875 
Q 54.890625 44.34375 54.890625 33.015625 
z
" id="DejaVuSans-6e"/>
      <path d="M 54.890625 33.015625 
L 54.890625 0 
L 45.90625 0 
L 45.90625 32.71875 
Q 45.90625 40.484375 42.875 44.328125 
Q 39.84375 48.1875 33.796875 48.1875 
Q 26.515625 48.1875 22.3125 43.546875 
Q 18.109375 38.921875 18.109375 30.90625 
L 18.109375 0 
L 9.078125 0 
L 9.078125 75.984375 
L 18.109375 75.984375 
L 18.109375 46.1875 
Q 21.34375 51.125 25.703125 53.5625 
Q 30.078125 56 35.796875 56 
Q 45.21875 56 50.046875 50.171875 
Q 54.890625 44.34375 54.890625 33.015625 
z
" id="DejaVuSans-68"/>
     </defs>
     <g style="fill:#262626;" transform="translate(610.6525 281.438338)scale(0.22 -0.22)">
      <use xlink:href="#DejaVuSans-54"/>
      <use x="60.865234" xlink:href="#DejaVuSans-72"/>
      <use x="101.947266" xlink:href="#DejaVuSans-65"/>
      <use x="163.470703" xlink:href="#DejaVuSans-6e"/>
      <use x="226.849609" xlink:href="#DejaVuSans-63"/>
      <use x="281.830078" xlink:href="#DejaVuSans-68"/>
     </g>
    </g>
    <g id="line2d_42">
     <path d="M 549.0525 306.030213 
L 593.0525 306.030213 
" style="fill:none;stroke:#333333;stroke-dasharray:12,4.5;stroke-dashoffset:0;stroke-width:3;"/>
    </g>
    <g id="line2d_43"/>
    <g id="text_25">
     <!-- SubductingPlate -->
     <defs>
      <path d="M 53.515625 70.515625 
L 53.515625 60.890625 
Q 47.90625 63.578125 42.921875 64.890625 
Q 37.9375 66.21875 33.296875 66.21875 
Q 25.25 66.21875 20.875 63.09375 
Q 16.5 59.96875 16.5 54.203125 
Q 16.5 49.359375 19.40625 46.890625 
Q 22.3125 44.4375 30.421875 42.921875 
L 36.375 41.703125 
Q 47.40625 39.59375 52.65625 34.296875 
Q 57.90625 29 57.90625 20.125 
Q 57.90625 9.515625 50.796875 4.046875 
Q 43.703125 -1.421875 29.984375 -1.421875 
Q 24.8125 -1.421875 18.96875 -0.25 
Q 13.140625 0.921875 6.890625 3.21875 
L 6.890625 13.375 
Q 12.890625 10.015625 18.65625 8.296875 
Q 24.421875 6.59375 29.984375 6.59375 
Q 38.421875 6.59375 43.015625 9.90625 
Q 47.609375 13.234375 47.609375 19.390625 
Q 47.609375 24.75 44.3125 27.78125 
Q 41.015625 30.8125 33.5 32.328125 
L 27.484375 33.5 
Q 16.453125 35.6875 11.515625 40.375 
Q 6.59375 45.0625 6.59375 53.421875 
Q 6.59375 63.09375 13.40625 68.65625 
Q 20.21875 74.21875 32.171875 74.21875 
Q 37.3125 74.21875 42.625 73.28125 
Q 47.953125 72.359375 53.515625 70.515625 
z
" id="DejaVuSans-53"/>
      <path d="M 8.5 21.578125 
L 8.5 54.6875 
L 17.484375 54.6875 
L 17.484375 21.921875 
Q 17.484375 14.15625 20.5 10.265625 
Q 23.53125 6.390625 29.59375 6.390625 
Q 36.859375 6.390625 41.078125 11.03125 
Q 45.3125 15.671875 45.3125 23.6875 
L 45.3125 54.6875 
L 54.296875 54.6875 
L 54.296875 0 
L 45.3125 0 
L 45.3125 8.40625 
Q 42.046875 3.421875 37.71875 1 
Q 33.40625 -1.421875 27.6875 -1.421875 
Q 18.265625 -1.421875 13.375 4.4375 
Q 8.5 10.296875 8.5 21.578125 
z
M 31.109375 56 
z
" id="DejaVuSans-75"/>
      <path d="M 48.6875 27.296875 
Q 48.6875 37.203125 44.609375 42.84375 
Q 40.53125 48.484375 33.40625 48.484375 
Q 26.265625 48.484375 22.1875 42.84375 
Q 18.109375 37.203125 18.109375 27.296875 
Q 18.109375 17.390625 22.1875 11.75 
Q 26.265625 6.109375 33.40625 6.109375 
Q 40.53125 6.109375 44.609375 11.75 
Q 48.6875 17.390625 48.6875 27.296875 
z
M 18.109375 46.390625 
Q 20.953125 51.265625 25.265625 53.625 
Q 29.59375 56 35.59375 56 
Q 45.5625 56 51.78125 48.09375 
Q 58.015625 40.1875 58.015625 27.296875 
Q 58.015625 14.40625 51.78125 6.484375 
Q 45.5625 -1.421875 35.59375 -1.421875 
Q 29.59375 -1.421875 25.265625 0.953125 
Q 20.953125 3.328125 18.109375 8.203125 
L 18.109375 0 
L 9.078125 0 
L 9.078125 75.984375 
L 18.109375 75.984375 
z
" id="DejaVuSans-62"/>
      <path d="M 45.40625 46.390625 
L 45.40625 75.984375 
L 54.390625 75.984375 
L 54.390625 0 
L 45.40625 0 
L 45.40625 8.203125 
Q 42.578125 3.328125 38.25 0.953125 
Q 33.9375 -1.421875 27.875 -1.421875 
Q 17.96875 -1.421875 11.734375 6.484375 
Q 5.515625 14.40625 5.515625 27.296875 
Q 5.515625 40.1875 11.734375 48.09375 
Q 17.96875 56 27.875 56 
Q 33.9375 56 38.25 53.625 
Q 42.578125 51.265625 45.40625 46.390625 
z
M 14.796875 27.296875 
Q 14.796875 17.390625 18.875 11.75 
Q 22.953125 6.109375 30.078125 6.109375 
Q 37.203125 6.109375 41.296875 11.75 
Q 45.40625 17.390625 45.40625 27.296875 
Q 45.40625 37.203125 41.296875 42.84375 
Q 37.203125 48.484375 30.078125 48.484375 
Q 22.953125 48.484375 18.875 42.84375 
Q 14.796875 37.203125 14.796875 27.296875 
z
" id="DejaVuSans-64"/>
      <path d="M 45.40625 27.984375 
Q 45.40625 37.75 41.375 43.109375 
Q 37.359375 48.484375 30.078125 48.484375 
Q 22.859375 48.484375 18.828125 43.109375 
Q 14.796875 37.75 14.796875 27.984375 
Q 14.796875 18.265625 18.828125 12.890625 
Q 22.859375 7.515625 30.078125 7.515625 
Q 37.359375 7.515625 41.375 12.890625 
Q 45.40625 18.265625 45.40625 27.984375 
z
M 54.390625 6.78125 
Q 54.390625 -7.171875 48.1875 -13.984375 
Q 42 -20.796875 29.203125 -20.796875 
Q 24.46875 -20.796875 20.265625 -20.09375 
Q 16.0625 -19.390625 12.109375 -17.921875 
L 12.109375 -9.1875 
Q 16.0625 -11.328125 19.921875 -12.34375 
Q 23.78125 -13.375 27.78125 -13.375 
Q 36.625 -13.375 41.015625 -8.765625 
Q 45.40625 -4.15625 45.40625 5.171875 
L 45.40625 9.625 
Q 42.625 4.78125 38.28125 2.390625 
Q 33.9375 0 27.875 0 
Q 17.828125 0 11.671875 7.65625 
Q 5.515625 15.328125 5.515625 27.984375 
Q 5.515625 40.671875 11.671875 48.328125 
Q 17.828125 56 27.875 56 
Q 33.9375 56 38.28125 53.609375 
Q 42.625 51.21875 45.40625 46.390625 
L 45.40625 54.6875 
L 54.390625 54.6875 
z
" id="DejaVuSans-67"/>
      <path d="M 19.671875 64.796875 
L 19.671875 37.40625 
L 32.078125 37.40625 
Q 38.96875 37.40625 42.71875 40.96875 
Q 46.484375 44.53125 46.484375 51.125 
Q 46.484375 57.671875 42.71875 61.234375 
Q 38.96875 64.796875 32.078125 64.796875 
z
M 9.8125 72.90625 
L 32.078125 72.90625 
Q 44.34375 72.90625 50.609375 67.359375 
Q 56.890625 61.8125 56.890625 51.125 
Q 56.890625 40.328125 50.609375 34.8125 
Q 44.34375 29.296875 32.078125 29.296875 
L 19.671875 29.296875 
L 19.671875 0 
L 9.8125 0 
z
" id="DejaVuSans-50"/>
      <path d="M 34.28125 27.484375 
Q 23.390625 27.484375 19.1875 25 
Q 14.984375 22.515625 14.984375 16.5 
Q 14.984375 11.71875 18.140625 8.90625 
Q 21.296875 6.109375 26.703125 6.109375 
Q 34.1875 6.109375 38.703125 11.40625 
Q 43.21875 16.703125 43.21875 25.484375 
L 43.21875 27.484375 
z
M 52.203125 31.203125 
L 52.203125 0 
L 43.21875 0 
L 43.21875 8.296875 
Q 40.140625 3.328125 35.546875 0.953125 
Q 30.953125 -1.421875 24.3125 -1.421875 
Q 15.921875 -1.421875 10.953125 3.296875 
Q 6 8.015625 6 15.921875 
Q 6 25.140625 12.171875 29.828125 
Q 18.359375 34.515625 30.609375 34.515625 
L 43.21875 34.515625 
L 43.21875 35.40625 
Q 43.21875 41.609375 39.140625 45 
Q 35.0625 48.390625 27.6875 48.390625 
Q 23 48.390625 18.546875 47.265625 
Q 14.109375 46.140625 10.015625 43.890625 
L 10.015625 52.203125 
Q 14.9375 54.109375 19.578125 55.046875 
Q 24.21875 56 28.609375 56 
Q 40.484375 56 46.34375 49.84375 
Q 52.203125 43.703125 52.203125 31.203125 
z
" id="DejaVuSans-61"/>
     </defs>
     <g style="fill:#262626;" transform="translate(610.6525 313.730213)scale(0.22 -0.22)">
      <use xlink:href="#DejaVuSans-53"/>
      <use x="63.476562" xlink:href="#DejaVuSans-75"/>
      <use x="126.855469" xlink:href="#DejaVuSans-62"/>
      <use x="190.332031" xlink:href="#DejaVuSans-64"/>
      <use x="253.808594" xlink:href="#DejaVuSans-75"/>
      <use x="317.1875" xlink:href="#DejaVuSans-63"/>
      <use x="372.167969" xlink:href="#DejaVuSans-74"/>
      <use x="411.376953" xlink:href="#DejaVuSans-69"/>
      <use x="439.160156" xlink:href="#DejaVuSans-6e"/>
      <use x="502.539062" xlink:href="#DejaVuSans-67"/>
      <use x="566.015625" xlink:href="#DejaVuSans-50"/>
      <use x="626.318359" xlink:href="#DejaVuSans-6c"/>
      <use x="654.101562" xlink:href="#DejaVuSans-61"/>
      <use x="715.380859" xlink:href="#DejaVuSans-74"/>
      <use x="754.589844" xlink:href="#DejaVuSans-65"/>
     </g>
    </g>
   </g>
  </g>
 </g>
 <defs>
  <clipPath id="p9cc67122a2">
   <rect height="535.5504" width="697.5" x="112.5" y="83.4624"/>
  </clipPath>
 </defs>
</svg>
