<?xml version="1.0" encoding="utf-8" standalone="no"?>
<!DOCTYPE svg PUBLIC "-//W3C//DTD SVG 1.1//EN"
  "http://www.w3.org/Graphics/SVG/1.1/DTD/svg11.dtd">
<!-- Created with matplotlib (http://matplotlib.org/) -->
<svg height="695.52pt" version="1.1" viewBox="0 0 900 695.52" width="900pt" xmlns="http://www.w3.org/2000/svg" xmlns:xlink="http://www.w3.org/1999/xlink">
 <defs>
  <style type="text/css">
*{stroke-linecap:butt;stroke-linejoin:round;}
  </style>
 </defs>
 <g id="figure_1">
  <g id="patch_1">
   <path d="M 0 695.52 
L 900 695.52 
L 900 0 
L 0 0 
z
" style="fill:#ffffff;"/>
  </g>
  <g id="axes_1">
   <g id="patch_2">
    <path d="M 112.5 619.0128 
L 810 619.0128 
L 810 83.4624 
L 112.5 83.4624 
z
" style="fill:#ffffff;"/>
   </g>
   <g id="matplotlib.axis_1">
    <g id="xtick_1">
     <g id="line2d_1">
      <defs>
       <path d="M 0 0 
L 0 12 
" id="m0ae35c3c12" style="stroke:#262626;stroke-width:2.5;"/>
      </defs>
      <g>
       <use style="fill:#262626;stroke:#262626;stroke-width:2.5;" x="112.5" xlink:href="#m0ae35c3c12" y="619.0128"/>
      </g>
     </g>
     <g id="text_1">
      <!-- 0 -->
      <defs>
       <path d="M 31.78125 66.40625 
Q 24.171875 66.40625 20.328125 58.90625 
Q 16.5 51.421875 16.5 36.375 
Q 16.5 21.390625 20.328125 13.890625 
Q 24.171875 6.390625 31.78125 6.390625 
Q 39.453125 6.390625 43.28125 13.890625 
Q 47.125 21.390625 47.125 36.375 
Q 47.125 51.421875 43.28125 58.90625 
Q 39.453125 66.40625 31.78125 66.40625 
z
M 31.78125 74.21875 
Q 44.046875 74.21875 50.515625 64.515625 
Q 56.984375 54.828125 56.984375 36.375 
Q 56.984375 17.96875 50.515625 8.265625 
Q 44.046875 -1.421875 31.78125 -1.421875 
Q 19.53125 -1.421875 13.0625 8.265625 
Q 6.59375 17.96875 6.59375 36.375 
Q 6.59375 54.828125 13.0625 64.515625 
Q 19.53125 74.21875 31.78125 74.21875 
z
" id="DejaVuSans-30"/>
      </defs>
      <g style="fill:#262626;" transform="translate(105.50125 651.229362)scale(0.22 -0.22)">
       <use xlink:href="#DejaVuSans-30"/>
      </g>
     </g>
    </g>
    <g id="xtick_2">
     <g id="line2d_2">
      <g>
       <use style="fill:#262626;stroke:#262626;stroke-width:2.5;" x="199.6875" xlink:href="#m0ae35c3c12" y="619.0128"/>
      </g>
     </g>
     <g id="text_2">
      <!-- 25 -->
      <defs>
       <path d="M 19.1875 8.296875 
L 53.609375 8.296875 
L 53.609375 0 
L 7.328125 0 
L 7.328125 8.296875 
Q 12.9375 14.109375 22.625 23.890625 
Q 32.328125 33.6875 34.8125 36.53125 
Q 39.546875 41.84375 41.421875 45.53125 
Q 43.3125 49.21875 43.3125 52.78125 
Q 43.3125 58.59375 39.234375 62.25 
Q 35.15625 65.921875 28.609375 65.921875 
Q 23.96875 65.921875 18.8125 64.3125 
Q 13.671875 62.703125 7.8125 59.421875 
L 7.8125 69.390625 
Q 13.765625 71.78125 18.9375 73 
Q 24.125 74.21875 28.421875 74.21875 
Q 39.75 74.21875 46.484375 68.546875 
Q 53.21875 62.890625 53.21875 53.421875 
Q 53.21875 48.921875 51.53125 44.890625 
Q 49.859375 40.875 45.40625 35.40625 
Q 44.1875 33.984375 37.640625 27.21875 
Q 31.109375 20.453125 19.1875 8.296875 
z
" id="DejaVuSans-32"/>
       <path d="M 10.796875 72.90625 
L 49.515625 72.90625 
L 49.515625 64.59375 
L 19.828125 64.59375 
L 19.828125 46.734375 
Q 21.96875 47.46875 24.109375 47.828125 
Q 26.265625 48.1875 28.421875 48.1875 
Q 40.625 48.1875 47.75 41.5 
Q 54.890625 34.8125 54.890625 23.390625 
Q 54.890625 11.625 47.5625 5.09375 
Q 40.234375 -1.421875 26.90625 -1.421875 
Q 22.3125 -1.421875 17.546875 -0.640625 
Q 12.796875 0.140625 7.71875 1.703125 
L 7.71875 11.625 
Q 12.109375 9.234375 16.796875 8.0625 
Q 21.484375 6.890625 26.703125 6.890625 
Q 35.15625 6.890625 40.078125 11.328125 
Q 45.015625 15.765625 45.015625 23.390625 
Q 45.015625 31 40.078125 35.4375 
Q 35.15625 39.890625 26.703125 39.890625 
Q 22.75 39.890625 18.8125 39.015625 
Q 14.890625 38.140625 10.796875 36.28125 
z
" id="DejaVuSans-35"/>
      </defs>
      <g style="fill:#262626;" transform="translate(185.69 651.229362)scale(0.22 -0.22)">
       <use xlink:href="#DejaVuSans-32"/>
       <use x="63.623047" xlink:href="#DejaVuSans-35"/>
      </g>
     </g>
    </g>
    <g id="xtick_3">
     <g id="line2d_3">
      <g>
       <use style="fill:#262626;stroke:#262626;stroke-width:2.5;" x="286.875" xlink:href="#m0ae35c3c12" y="619.0128"/>
      </g>
     </g>
     <g id="text_3">
      <!-- 50 -->
      <g style="fill:#262626;" transform="translate(272.8775 651.229362)scale(0.22 -0.22)">
       <use xlink:href="#DejaVuSans-35"/>
       <use x="63.623047" xlink:href="#DejaVuSans-30"/>
      </g>
     </g>
    </g>
    <g id="xtick_4">
     <g id="line2d_4">
      <g>
       <use style="fill:#262626;stroke:#262626;stroke-width:2.5;" x="374.0625" xlink:href="#m0ae35c3c12" y="619.0128"/>
      </g>
     </g>
     <g id="text_4">
      <!-- 75 -->
      <defs>
       <path d="M 8.203125 72.90625 
L 55.078125 72.90625 
L 55.078125 68.703125 
L 28.609375 0 
L 18.3125 0 
L 43.21875 64.59375 
L 8.203125 64.59375 
z
" id="DejaVuSans-37"/>
      </defs>
      <g style="fill:#262626;" transform="translate(360.065 651.229362)scale(0.22 -0.22)">
       <use xlink:href="#DejaVuSans-37"/>
       <use x="63.623047" xlink:href="#DejaVuSans-35"/>
      </g>
     </g>
    </g>
    <g id="xtick_5">
     <g id="line2d_5">
      <g>
       <use style="fill:#262626;stroke:#262626;stroke-width:2.5;" x="461.25" xlink:href="#m0ae35c3c12" y="619.0128"/>
      </g>
     </g>
     <g id="text_5">
      <!-- 100 -->
      <defs>
       <path d="M 12.40625 8.296875 
L 28.515625 8.296875 
L 28.515625 63.921875 
L 10.984375 60.40625 
L 10.984375 69.390625 
L 28.421875 72.90625 
L 38.28125 72.90625 
L 38.28125 8.296875 
L 54.390625 8.296875 
L 54.390625 0 
L 12.40625 0 
z
" id="DejaVuSans-31"/>
      </defs>
      <g style="fill:#262626;" transform="translate(440.25375 651.229362)scale(0.22 -0.22)">
       <use xlink:href="#DejaVuSans-31"/>
       <use x="63.623047" xlink:href="#DejaVuSans-30"/>
       <use x="127.246094" xlink:href="#DejaVuSans-30"/>
      </g>
     </g>
    </g>
    <g id="xtick_6">
     <g id="line2d_6">
      <g>
       <use style="fill:#262626;stroke:#262626;stroke-width:2.5;" x="548.4375" xlink:href="#m0ae35c3c12" y="619.0128"/>
      </g>
     </g>
     <g id="text_6">
      <!-- 125 -->
      <g style="fill:#262626;" transform="translate(527.44125 651.229362)scale(0.22 -0.22)">
       <use xlink:href="#DejaVuSans-31"/>
       <use x="63.623047" xlink:href="#DejaVuSans-32"/>
       <use x="127.246094" xlink:href="#DejaVuSans-35"/>
      </g>
     </g>
    </g>
    <g id="xtick_7">
     <g id="line2d_7">
      <g>
       <use style="fill:#262626;stroke:#262626;stroke-width:2.5;" x="635.625" xlink:href="#m0ae35c3c12" y="619.0128"/>
      </g>
     </g>
     <g id="text_7">
      <!-- 150 -->
      <g style="fill:#262626;" transform="translate(614.62875 651.229362)scale(0.22 -0.22)">
       <use xlink:href="#DejaVuSans-31"/>
       <use x="63.623047" xlink:href="#DejaVuSans-35"/>
       <use x="127.246094" xlink:href="#DejaVuSans-30"/>
      </g>
     </g>
    </g>
    <g id="xtick_8">
     <g id="line2d_8">
      <g>
       <use style="fill:#262626;stroke:#262626;stroke-width:2.5;" x="722.8125" xlink:href="#m0ae35c3c12" y="619.0128"/>
      </g>
     </g>
     <g id="text_8">
      <!-- 175 -->
      <g style="fill:#262626;" transform="translate(701.81625 651.229362)scale(0.22 -0.22)">
       <use xlink:href="#DejaVuSans-31"/>
       <use x="63.623047" xlink:href="#DejaVuSans-37"/>
       <use x="127.246094" xlink:href="#DejaVuSans-35"/>
      </g>
     </g>
    </g>
    <g id="xtick_9">
     <g id="line2d_9">
      <g>
       <use style="fill:#262626;stroke:#262626;stroke-width:2.5;" x="810" xlink:href="#m0ae35c3c12" y="619.0128"/>
      </g>
     </g>
     <g id="text_9">
      <!-- 200 -->
      <g style="fill:#262626;" transform="translate(789.00375 651.229362)scale(0.22 -0.22)">
       <use xlink:href="#DejaVuSans-32"/>
       <use x="63.623047" xlink:href="#DejaVuSans-30"/>
       <use x="127.246094" xlink:href="#DejaVuSans-30"/>
      </g>
     </g>
    </g>
    <g id="text_10">
     <!-- Time (Myr) -->
     <defs>
      <path d="M -0.296875 72.90625 
L 61.375 72.90625 
L 61.375 64.59375 
L 35.5 64.59375 
L 35.5 0 
L 25.59375 0 
L 25.59375 64.59375 
L -0.296875 64.59375 
z
" id="DejaVuSans-54"/>
      <path d="M 9.421875 54.6875 
L 18.40625 54.6875 
L 18.40625 0 
L 9.421875 0 
z
M 9.421875 75.984375 
L 18.40625 75.984375 
L 18.40625 64.59375 
L 9.421875 64.59375 
z
" id="DejaVuSans-69"/>
      <path d="M 52 44.1875 
Q 55.375 50.25 60.0625 53.125 
Q 64.75 56 71.09375 56 
Q 79.640625 56 84.28125 50.015625 
Q 88.921875 44.046875 88.921875 33.015625 
L 88.921875 0 
L 79.890625 0 
L 79.890625 32.71875 
Q 79.890625 40.578125 77.09375 44.375 
Q 74.3125 48.1875 68.609375 48.1875 
Q 61.625 48.1875 57.5625 43.546875 
Q 53.515625 38.921875 53.515625 30.90625 
L 53.515625 0 
L 44.484375 0 
L 44.484375 32.71875 
Q 44.484375 40.625 41.703125 44.40625 
Q 38.921875 48.1875 33.109375 48.1875 
Q 26.21875 48.1875 22.15625 43.53125 
Q 18.109375 38.875 18.109375 30.90625 
L 18.109375 0 
L 9.078125 0 
L 9.078125 54.6875 
L 18.109375 54.6875 
L 18.109375 46.1875 
Q 21.1875 51.21875 25.484375 53.609375 
Q 29.78125 56 35.6875 56 
Q 41.65625 56 45.828125 52.96875 
Q 50 49.953125 52 44.1875 
z
" id="DejaVuSans-6d"/>
      <path d="M 56.203125 29.59375 
L 56.203125 25.203125 
L 14.890625 25.203125 
Q 15.484375 15.921875 20.484375 11.0625 
Q 25.484375 6.203125 34.421875 6.203125 
Q 39.59375 6.203125 44.453125 7.46875 
Q 49.3125 8.734375 54.109375 11.28125 
L 54.109375 2.78125 
Q 49.265625 0.734375 44.1875 -0.34375 
Q 39.109375 -1.421875 33.890625 -1.421875 
Q 20.796875 -1.421875 13.15625 6.1875 
Q 5.515625 13.8125 5.515625 26.8125 
Q 5.515625 40.234375 12.765625 48.109375 
Q 20.015625 56 32.328125 56 
Q 43.359375 56 49.78125 48.890625 
Q 56.203125 41.796875 56.203125 29.59375 
z
M 47.21875 32.234375 
Q 47.125 39.59375 43.09375 43.984375 
Q 39.0625 48.390625 32.421875 48.390625 
Q 24.90625 48.390625 20.390625 44.140625 
Q 15.875 39.890625 15.1875 32.171875 
z
" id="DejaVuSans-65"/>
      <path id="DejaVuSans-20"/>
      <path d="M 31 75.875 
Q 24.46875 64.65625 21.28125 53.65625 
Q 18.109375 42.671875 18.109375 31.390625 
Q 18.109375 20.125 21.3125 9.0625 
Q 24.515625 -2 31 -13.1875 
L 23.1875 -13.1875 
Q 15.875 -1.703125 12.234375 9.375 
Q 8.59375 20.453125 8.59375 31.390625 
Q 8.59375 42.28125 12.203125 53.3125 
Q 15.828125 64.359375 23.1875 75.875 
z
" id="DejaVuSans-28"/>
      <path d="M 9.8125 72.90625 
L 24.515625 72.90625 
L 43.109375 23.296875 
L 61.8125 72.90625 
L 76.515625 72.90625 
L 76.515625 0 
L 66.890625 0 
L 66.890625 64.015625 
L 48.09375 14.015625 
L 38.1875 14.015625 
L 19.390625 64.015625 
L 19.390625 0 
L 9.8125 0 
z
" id="DejaVuSans-4d"/>
      <path d="M 32.171875 -5.078125 
Q 28.375 -14.84375 24.75 -17.8125 
Q 21.140625 -20.796875 15.09375 -20.796875 
L 7.90625 -20.796875 
L 7.90625 -13.28125 
L 13.1875 -13.28125 
Q 16.890625 -13.28125 18.9375 -11.515625 
Q 21 -9.765625 23.484375 -3.21875 
L 25.09375 0.875 
L 2.984375 54.6875 
L 12.5 54.6875 
L 29.59375 11.921875 
L 46.6875 54.6875 
L 56.203125 54.6875 
z
" id="DejaVuSans-79"/>
      <path d="M 41.109375 46.296875 
Q 39.59375 47.171875 37.8125 47.578125 
Q 36.03125 48 33.890625 48 
Q 26.265625 48 22.1875 43.046875 
Q 18.109375 38.09375 18.109375 28.8125 
L 18.109375 0 
L 9.078125 0 
L 9.078125 54.6875 
L 18.109375 54.6875 
L 18.109375 46.1875 
Q 20.953125 51.171875 25.484375 53.578125 
Q 30.03125 56 36.53125 56 
Q 37.453125 56 38.578125 55.875 
Q 39.703125 55.765625 41.0625 55.515625 
z
" id="DejaVuSans-72"/>
      <path d="M 8.015625 75.875 
L 15.828125 75.875 
Q 23.140625 64.359375 26.78125 53.3125 
Q 30.421875 42.28125 30.421875 31.390625 
Q 30.421875 20.453125 26.78125 9.375 
Q 23.140625 -1.703125 15.828125 -13.1875 
L 8.015625 -13.1875 
Q 14.5 -2 17.703125 9.0625 
Q 20.90625 20.125 20.90625 31.390625 
Q 20.90625 42.671875 17.703125 53.65625 
Q 14.5 64.65625 8.015625 75.875 
z
" id="DejaVuSans-29"/>
     </defs>
     <g style="fill:#262626;" transform="translate(395.953125 678.040925)scale(0.24 -0.24)">
      <use xlink:href="#DejaVuSans-54"/>
      <use x="61.037109" xlink:href="#DejaVuSans-69"/>
      <use x="88.820312" xlink:href="#DejaVuSans-6d"/>
      <use x="186.232422" xlink:href="#DejaVuSans-65"/>
      <use x="247.755859" xlink:href="#DejaVuSans-20"/>
      <use x="279.542969" xlink:href="#DejaVuSans-28"/>
      <use x="318.556641" xlink:href="#DejaVuSans-4d"/>
      <use x="404.835938" xlink:href="#DejaVuSans-79"/>
      <use x="464.015625" xlink:href="#DejaVuSans-72"/>
      <use x="505.128906" xlink:href="#DejaVuSans-29"/>
     </g>
    </g>
   </g>
   <g id="matplotlib.axis_2">
    <g id="ytick_1">
     <g id="line2d_10">
      <defs>
       <path d="M 0 0 
L -12 0 
" id="mb2b087a934" style="stroke:#262626;stroke-width:2.5;"/>
      </defs>
      <g>
       <use style="fill:#262626;stroke:#262626;stroke-width:2.5;" x="112.5" xlink:href="#mb2b087a934" y="580.155779"/>
      </g>
     </g>
     <g id="text_11">
      <!-- 0.0 -->
      <defs>
       <path d="M 10.6875 12.40625 
L 21 12.40625 
L 21 0 
L 10.6875 0 
z
" id="DejaVuSans-2e"/>
      </defs>
      <g style="fill:#262626;" transform="translate(62.013125 588.51406)scale(0.22 -0.22)">
       <use xlink:href="#DejaVuSans-30"/>
       <use x="63.623047" xlink:href="#DejaVuSans-2e"/>
       <use x="95.410156" xlink:href="#DejaVuSans-30"/>
      </g>
     </g>
    </g>
    <g id="ytick_2">
     <g id="line2d_11">
      <g>
       <use style="fill:#262626;stroke:#262626;stroke-width:2.5;" x="112.5" xlink:href="#mb2b087a934" y="516.353863"/>
      </g>
     </g>
     <g id="text_12">
      <!-- 0.5 -->
      <g style="fill:#262626;" transform="translate(62.013125 524.712144)scale(0.22 -0.22)">
       <use xlink:href="#DejaVuSans-30"/>
       <use x="63.623047" xlink:href="#DejaVuSans-2e"/>
       <use x="95.410156" xlink:href="#DejaVuSans-35"/>
      </g>
     </g>
    </g>
    <g id="ytick_3">
     <g id="line2d_12">
      <g>
       <use style="fill:#262626;stroke:#262626;stroke-width:2.5;" x="112.5" xlink:href="#mb2b087a934" y="452.551947"/>
      </g>
     </g>
     <g id="text_13">
      <!-- 1.0 -->
      <g style="fill:#262626;" transform="translate(62.013125 460.910228)scale(0.22 -0.22)">
       <use xlink:href="#DejaVuSans-31"/>
       <use x="63.623047" xlink:href="#DejaVuSans-2e"/>
       <use x="95.410156" xlink:href="#DejaVuSans-30"/>
      </g>
     </g>
    </g>
    <g id="ytick_4">
     <g id="line2d_13">
      <g>
       <use style="fill:#262626;stroke:#262626;stroke-width:2.5;" x="112.5" xlink:href="#mb2b087a934" y="388.75003"/>
      </g>
     </g>
     <g id="text_14">
      <!-- 1.5 -->
      <g style="fill:#262626;" transform="translate(62.013125 397.108312)scale(0.22 -0.22)">
       <use xlink:href="#DejaVuSans-31"/>
       <use x="63.623047" xlink:href="#DejaVuSans-2e"/>
       <use x="95.410156" xlink:href="#DejaVuSans-35"/>
      </g>
     </g>
    </g>
    <g id="ytick_5">
     <g id="line2d_14">
      <g>
       <use style="fill:#262626;stroke:#262626;stroke-width:2.5;" x="112.5" xlink:href="#mb2b087a934" y="324.948114"/>
      </g>
     </g>
     <g id="text_15">
      <!-- 2.0 -->
      <g style="fill:#262626;" transform="translate(62.013125 333.306396)scale(0.22 -0.22)">
       <use xlink:href="#DejaVuSans-32"/>
       <use x="63.623047" xlink:href="#DejaVuSans-2e"/>
       <use x="95.410156" xlink:href="#DejaVuSans-30"/>
      </g>
     </g>
    </g>
    <g id="ytick_6">
     <g id="line2d_15">
      <g>
       <use style="fill:#262626;stroke:#262626;stroke-width:2.5;" x="112.5" xlink:href="#mb2b087a934" y="261.146198"/>
      </g>
     </g>
     <g id="text_16">
      <!-- 2.5 -->
      <g style="fill:#262626;" transform="translate(62.013125 269.504479)scale(0.22 -0.22)">
       <use xlink:href="#DejaVuSans-32"/>
       <use x="63.623047" xlink:href="#DejaVuSans-2e"/>
       <use x="95.410156" xlink:href="#DejaVuSans-35"/>
      </g>
     </g>
    </g>
    <g id="ytick_7">
     <g id="line2d_16">
      <g>
       <use style="fill:#262626;stroke:#262626;stroke-width:2.5;" x="112.5" xlink:href="#mb2b087a934" y="197.344282"/>
      </g>
     </g>
     <g id="text_17">
      <!-- 3.0 -->
      <defs>
       <path d="M 40.578125 39.3125 
Q 47.65625 37.796875 51.625 33 
Q 55.609375 28.21875 55.609375 21.1875 
Q 55.609375 10.40625 48.1875 4.484375 
Q 40.765625 -1.421875 27.09375 -1.421875 
Q 22.515625 -1.421875 17.65625 -0.515625 
Q 12.796875 0.390625 7.625 2.203125 
L 7.625 11.71875 
Q 11.71875 9.328125 16.59375 8.109375 
Q 21.484375 6.890625 26.8125 6.890625 
Q 36.078125 6.890625 40.9375 10.546875 
Q 45.796875 14.203125 45.796875 21.1875 
Q 45.796875 27.640625 41.28125 31.265625 
Q 36.765625 34.90625 28.71875 34.90625 
L 20.21875 34.90625 
L 20.21875 43.015625 
L 29.109375 43.015625 
Q 36.375 43.015625 40.234375 45.921875 
Q 44.09375 48.828125 44.09375 54.296875 
Q 44.09375 59.90625 40.109375 62.90625 
Q 36.140625 65.921875 28.71875 65.921875 
Q 24.65625 65.921875 20.015625 65.03125 
Q 15.375 64.15625 9.8125 62.3125 
L 9.8125 71.09375 
Q 15.4375 72.65625 20.34375 73.4375 
Q 25.25 74.21875 29.59375 74.21875 
Q 40.828125 74.21875 47.359375 69.109375 
Q 53.90625 64.015625 53.90625 55.328125 
Q 53.90625 49.265625 50.4375 45.09375 
Q 46.96875 40.921875 40.578125 39.3125 
z
" id="DejaVuSans-33"/>
      </defs>
      <g style="fill:#262626;" transform="translate(62.013125 205.702563)scale(0.22 -0.22)">
       <use xlink:href="#DejaVuSans-33"/>
       <use x="63.623047" xlink:href="#DejaVuSans-2e"/>
       <use x="95.410156" xlink:href="#DejaVuSans-30"/>
      </g>
     </g>
    </g>
    <g id="ytick_8">
     <g id="line2d_17">
      <g>
       <use style="fill:#262626;stroke:#262626;stroke-width:2.5;" x="112.5" xlink:href="#mb2b087a934" y="133.542366"/>
      </g>
     </g>
     <g id="text_18">
      <!-- 3.5 -->
      <g style="fill:#262626;" transform="translate(62.013125 141.900647)scale(0.22 -0.22)">
       <use xlink:href="#DejaVuSans-33"/>
       <use x="63.623047" xlink:href="#DejaVuSans-2e"/>
       <use x="95.410156" xlink:href="#DejaVuSans-35"/>
      </g>
     </g>
    </g>
    <g id="text_19">
     <!-- Velocity (cm/yr) -->
     <defs>
      <path d="M 28.609375 0 
L 0.78125 72.90625 
L 11.078125 72.90625 
L 34.1875 11.53125 
L 57.328125 72.90625 
L 67.578125 72.90625 
L 39.796875 0 
z
" id="DejaVuSans-56"/>
      <path d="M 9.421875 75.984375 
L 18.40625 75.984375 
L 18.40625 0 
L 9.421875 0 
z
" id="DejaVuSans-6c"/>
      <path d="M 30.609375 48.390625 
Q 23.390625 48.390625 19.1875 42.75 
Q 14.984375 37.109375 14.984375 27.296875 
Q 14.984375 17.484375 19.15625 11.84375 
Q 23.34375 6.203125 30.609375 6.203125 
Q 37.796875 6.203125 41.984375 11.859375 
Q 46.1875 17.53125 46.1875 27.296875 
Q 46.1875 37.015625 41.984375 42.703125 
Q 37.796875 48.390625 30.609375 48.390625 
z
M 30.609375 56 
Q 42.328125 56 49.015625 48.375 
Q 55.71875 40.765625 55.71875 27.296875 
Q 55.71875 13.875 49.015625 6.21875 
Q 42.328125 -1.421875 30.609375 -1.421875 
Q 18.84375 -1.421875 12.171875 6.21875 
Q 5.515625 13.875 5.515625 27.296875 
Q 5.515625 40.765625 12.171875 48.375 
Q 18.84375 56 30.609375 56 
z
" id="DejaVuSans-6f"/>
      <path d="M 48.78125 52.59375 
L 48.78125 44.1875 
Q 44.96875 46.296875 41.140625 47.34375 
Q 37.3125 48.390625 33.40625 48.390625 
Q 24.65625 48.390625 19.8125 42.84375 
Q 14.984375 37.3125 14.984375 27.296875 
Q 14.984375 17.28125 19.8125 11.734375 
Q 24.65625 6.203125 33.40625 6.203125 
Q 37.3125 6.203125 41.140625 7.25 
Q 44.96875 8.296875 48.78125 10.40625 
L 48.78125 2.09375 
Q 45.015625 0.34375 40.984375 -0.53125 
Q 36.96875 -1.421875 32.421875 -1.421875 
Q 20.0625 -1.421875 12.78125 6.34375 
Q 5.515625 14.109375 5.515625 27.296875 
Q 5.515625 40.671875 12.859375 48.328125 
Q 20.21875 56 33.015625 56 
Q 37.15625 56 41.109375 55.140625 
Q 45.0625 54.296875 48.78125 52.59375 
z
" id="DejaVuSans-63"/>
      <path d="M 18.3125 70.21875 
L 18.3125 54.6875 
L 36.8125 54.6875 
L 36.8125 47.703125 
L 18.3125 47.703125 
L 18.3125 18.015625 
Q 18.3125 11.328125 20.140625 9.421875 
Q 21.96875 7.515625 27.59375 7.515625 
L 36.8125 7.515625 
L 36.8125 0 
L 27.59375 0 
Q 17.1875 0 13.234375 3.875 
Q 9.28125 7.765625 9.28125 18.015625 
L 9.28125 47.703125 
L 2.6875 47.703125 
L 2.6875 54.6875 
L 9.28125 54.6875 
L 9.28125 70.21875 
z
" id="DejaVuSans-74"/>
      <path d="M 25.390625 72.90625 
L 33.6875 72.90625 
L 8.296875 -9.28125 
L 0 -9.28125 
z
" id="DejaVuSans-2f"/>
     </defs>
     <g style="fill:#262626;" transform="translate(53.021875 446.774475)rotate(-90)scale(0.24 -0.24)">
      <use xlink:href="#DejaVuSans-56"/>
      <use x="68.298828" xlink:href="#DejaVuSans-65"/>
      <use x="129.822266" xlink:href="#DejaVuSans-6c"/>
      <use x="157.605469" xlink:href="#DejaVuSans-6f"/>
      <use x="218.787109" xlink:href="#DejaVuSans-63"/>
      <use x="273.767578" xlink:href="#DejaVuSans-69"/>
      <use x="301.550781" xlink:href="#DejaVuSans-74"/>
      <use x="340.759766" xlink:href="#DejaVuSans-79"/>
      <use x="399.939453" xlink:href="#DejaVuSans-20"/>
      <use x="431.726562" xlink:href="#DejaVuSans-28"/>
      <use x="470.740234" xlink:href="#DejaVuSans-63"/>
      <use x="525.720703" xlink:href="#DejaVuSans-6d"/>
      <use x="623.132812" xlink:href="#DejaVuSans-2f"/>
      <use x="656.824219" xlink:href="#DejaVuSans-79"/>
      <use x="716.003906" xlink:href="#DejaVuSans-72"/>
      <use x="757.117188" xlink:href="#DejaVuSans-29"/>
     </g>
    </g>
   </g>
   <g id="line2d_18">
    <path clip-path="url(#p28354841ff)" d="M 113.14651 549.696017 
L 115.739657 550.024108 
L 122.150443 550.363581 
L 125.321723 550.162194 
L 128.507974 549.708813 
L 131.686526 548.961995 
L 137.995505 546.793445 
L 141.09029 545.519717 
L 143.990404 543.95439 
L 146.676497 542.020767 
L 149.168707 539.996196 
L 151.483742 537.9318 
L 153.644298 535.534982 
L 155.66551 532.828739 
L 157.559577 529.925733 
L 161.047732 524.045408 
L 162.65805 520.625995 
L 165.671872 513.724895 
L 167.095497 509.911244 
L 168.472355 506.572092 
L 173.5971 491.300149 
L 178.265864 475.409086 
L 179.376273 471.332235 
L 183.574319 453.556603 
L 184.565297 449.371887 
L 185.534345 444.642025 
L 186.484092 440.585565 
L 187.41423 435.526462 
L 188.324914 431.996949 
L 189.215881 426.520444 
L 190.089894 423.46055 
L 190.947298 418.248161 
L 192.620213 410.60116 
L 193.437978 406.122288 
L 194.244281 403.38679 
L 195.040344 398.842819 
L 196.605953 393.034699 
L 197.377199 389.430034 
L 198.141319 388.197898 
L 198.900151 385.043133 
L 199.652777 383.625898 
L 200.401096 382.496033 
L 201.144951 380.143809 
L 201.8853 381.599441 
L 202.623202 380.62048 
L 203.358017 380.823091 
L 204.09178 382.291603 
L 204.823004 382.158922 
L 205.553914 384.806918 
L 207.014456 386.678116 
L 207.744208 388.41428 
L 208.47486 387.977899 
L 209.208312 390.75583 
L 209.943961 389.978976 
L 211.424061 391.854161 
L 212.168631 392.27614 
L 212.917768 393.776666 
L 213.669509 393.754699 
L 214.426733 396.095391 
L 215.188597 395.845497 
L 215.955193 398.958845 
L 216.727652 398.914279 
L 217.506796 401.972957 
L 218.290862 403.123393 
L 219.079656 406.479269 
L 219.872119 407.853289 
L 220.669641 411.852014 
L 221.471771 412.580324 
L 222.278671 416.244827 
L 223.091151 417.496501 
L 223.90844 420.229456 
L 224.730813 421.803569 
L 226.394414 426.382717 
L 227.235398 428.042628 
L 228.083488 431.110001 
L 228.938792 432.864945 
L 229.80099 435.636508 
L 230.670269 437.56734 
L 234.230695 447.75436 
L 238.007342 469.074339 
L 240.0075 482.400918 
L 241.034694 488.185171 
L 242.077655 492.670989 
L 244.19715 499.065488 
L 245.270717 500.829335 
L 246.349281 501.130784 
L 247.430895 501.193176 
L 248.512929 500.067698 
L 249.59314 497.616091 
L 252.809903 487.443493 
L 254.930559 478.869667 
L 255.986374 476.150355 
L 258.091096 468.769395 
L 260.193174 463.517452 
L 261.244857 460.036302 
L 262.298187 458.017904 
L 263.352666 455.637374 
L 264.406592 452.895939 
L 266.502205 446.267012 
L 267.535108 441.352933 
L 269.550315 429.29232 
L 271.47314 412.100597 
L 272.389569 401.622266 
L 274.121437 378.915953 
L 274.941103 364.884115 
L 275.734594 354.860777 
L 276.506909 341.740519 
L 277.260367 331.25028 
L 277.998501 322.612409 
L 278.724011 311.236933 
L 279.439735 306.864798 
L 280.852405 292.102543 
L 281.552888 293.365712 
L 282.252305 288.232251 
L 282.95061 284.549987 
L 283.650243 289.448196 
L 284.352163 286.714259 
L 285.056363 285.404545 
L 285.763934 292.330826 
L 286.474646 290.823699 
L 287.187542 290.264513 
L 287.905043 298.802575 
L 288.626948 298.003185 
L 289.35274 298.538445 
L 290.084994 308.236629 
L 290.823729 308.790527 
L 291.568716 313.43657 
L 292.320876 320.523611 
L 293.078113 320.522464 
L 293.842365 328.08064 
L 295.383058 329.096753 
L 296.159084 334.917773 
L 296.936959 332.054085 
L 297.716726 335.7623 
L 298.497249 334.571763 
L 299.280293 334.530283 
L 300.064236 338.356307 
L 300.848966 334.479438 
L 301.63758 339.78078 
L 302.428965 338.790742 
L 303.223157 340.003688 
L 304.023386 344.138061 
L 304.830485 343.683655 
L 305.64596 352.037802 
L 306.472354 353.507021 
L 307.310995 362.036805 
L 308.163566 365.707935 
L 309.028868 372.464301 
L 309.902685 373.600359 
L 310.784551 377.133191 
L 311.671835 376.331654 
L 312.565088 379.345369 
L 313.461549 377.646908 
L 314.362358 380.202635 
L 315.265435 377.604005 
L 316.171796 380.810596 
L 317.079635 376.661594 
L 317.987359 379.608469 
L 318.894531 374.483988 
L 319.799036 377.963789 
L 320.7003 371.711959 
L 321.596801 374.198974 
L 322.489745 369.249625 
L 323.377116 369.89944 
L 324.258977 364.616829 
L 325.134383 364.263398 
L 326.002524 358.43963 
L 326.864158 356.305698 
L 327.716962 350.701194 
L 328.561752 349.205183 
L 329.394761 339.774277 
L 330.21916 340.237936 
L 331.033271 330.403042 
L 331.83858 329.383779 
L 332.633657 320.489871 
L 333.421191 317.945041 
L 334.198523 311.158855 
L 334.967682 302.484531 
L 335.728839 302.363736 
L 336.481435 292.42889 
L 337.226355 287.688103 
L 337.962987 284.305092 
L 338.692491 275.618262 
L 339.416098 274.214241 
L 340.131176 269.668989 
L 340.84058 262.366714 
L 341.545031 262.209935 
L 342.245093 259.02149 
L 342.943105 253.185959 
L 343.636023 250.82092 
L 344.327282 251.371513 
L 345.017798 246.560598 
L 345.707608 243.000742 
L 346.394204 246.977659 
L 347.767421 242.782818 
L 348.456109 246.808881 
L 349.146283 249.298321 
L 349.838997 248.872754 
L 350.535046 251.099514 
L 351.235769 257.025459 
L 351.94138 257.518875 
L 352.654202 259.203969 
L 353.372507 267.295397 
L 354.827154 271.097737 
L 355.563463 279.28758 
L 356.308583 282.307772 
L 357.060614 283.936453 
L 357.816815 291.090676 
L 358.579348 294.29984 
L 359.345837 296.1598 
L 360.117315 302.692824 
L 360.89435 303.586172 
L 362.464172 311.209909 
L 363.257126 310.517926 
L 364.055406 316.547623 
L 364.857743 316.253111 
L 366.477782 321.009044 
L 367.292231 319.917106 
L 368.108742 323.236164 
L 368.926709 321.259059 
L 369.746726 323.248955 
L 370.565676 321.738498 
L 371.383922 320.820627 
L 372.201351 321.258851 
L 373.016662 318.265749 
L 373.829502 319.26468 
L 374.639401 314.66962 
L 375.447504 313.621776 
L 377.051077 308.003366 
L 377.845827 307.263274 
L 378.634856 302.214797 
L 379.417088 301.963763 
L 380.190749 298.167144 
L 380.954932 295.638182 
L 381.708365 293.747153 
L 382.451013 289.359128 
L 383.181334 288.277449 
L 383.899543 285.152481 
L 384.604541 280.082214 
L 385.296364 279.97263 
L 385.977052 275.982424 
L 386.647335 270.979862 
L 387.310691 270.813495 
L 387.968376 266.431187 
L 388.620127 260.716484 
L 389.267104 260.430481 
L 389.909441 256.151037 
L 390.54743 249.876485 
L 391.820942 243.345977 
L 393.101777 231.891522 
L 393.742191 229.805913 
L 394.382529 225.099894 
L 395.021843 218.895881 
L 395.656478 215.086351 
L 396.28875 212.256948 
L 396.921397 207.871053 
L 397.553151 201.428842 
L 398.182736 199.649006 
L 399.439977 193.297934 
L 400.062512 187.539579 
L 400.678961 186.615345 
L 401.899367 182.49587 
L 402.506037 178.465532 
L 403.111513 176.528749 
L 403.716119 178.684449 
L 404.320593 179.425711 
L 404.924667 177.665102 
L 405.53261 174.179733 
L 406.145479 172.829349 
L 406.761589 179.88652 
L 408.012051 181.85119 
L 408.650891 183.759044 
L 409.298365 183.263674 
L 409.954434 185.218648 
L 410.61866 190.158584 
L 411.293852 194.201848 
L 411.980195 195.621232 
L 412.679843 198.616646 
L 413.393389 200.432691 
L 414.124216 203.684732 
L 414.870043 206.050118 
L 415.629296 207.201349 
L 416.404724 208.693363 
L 417.199377 211.572473 
L 418.007189 211.812062 
L 419.648107 214.562858 
L 420.478509 214.973347 
L 422.98033 214.176791 
L 423.813107 213.360188 
L 424.645961 212.086246 
L 425.479027 210.420946 
L 427.14688 206.214157 
L 428.819821 200.656628 
L 433.886653 179.05056 
L 435.597723 170.313149 
L 436.458481 166.914781 
L 439.064748 154.03805 
L 441.711193 142.255582 
L 444.403331 131.270581 
L 446.226555 124.818572 
L 447.146656 122.413066 
L 449.00671 117.214112 
L 449.946266 115.172429 
L 451.845184 111.913249 
L 452.805351 110.455281 
L 453.772684 109.285109 
L 455.728999 107.902881 
L 456.718035 107.8056 
L 457.714672 107.834255 
L 458.718791 108.040335 
L 459.730583 108.476002 
L 461.772627 110.08883 
L 463.83613 112.274885 
L 468.023461 118.244008 
L 471.219825 124.092732 
L 474.466928 130.303512 
L 477.76167 137.211636 
L 482.246755 147.205236 
L 483.385361 150.026734 
L 484.530593 153.302481 
L 485.679516 157.147405 
L 486.832822 162.133832 
L 487.991606 168.441646 
L 489.15625 176.017655 
L 490.327483 185.368135 
L 491.506228 197.852522 
L 492.690109 213.97826 
L 493.874088 235.842161 
L 495.053377 264.588582 
L 496.22059 302.689983 
L 499.333395 430.307036 
L 500.269076 454.030969 
L 501.20795 469.996286 
L 502.166388 479.914574 
L 503.146908 486.498455 
L 504.127837 492.02526 
L 505.105737 495.696415 
L 506.083303 498.401328 
L 507.059927 500.532532 
L 509.015005 503.290203 
L 509.995286 503.663032 
L 510.979899 504.35711 
L 512.966808 505.13169 
L 514.972855 505.082796 
L 515.985253 505.57454 
L 517.006833 505.173497 
L 518.032698 505.197885 
L 519.07184 505.627744 
L 521.174235 505.237733 
L 522.24043 505.647939 
L 524.4049 505.162101 
L 525.502713 505.509684 
L 527.730816 505.214291 
L 528.851139 505.592853 
L 529.974252 505.688432 
L 531.10091 505.40236 
L 532.231041 505.686013 
L 533.364525 506.328745 
L 534.501748 505.62562 
L 535.642605 505.826342 
L 536.786163 506.57791 
L 537.93315 506.402778 
L 539.08428 506.451973 
L 540.239749 506.865702 
L 541.399304 507.5015 
L 542.563451 507.260975 
L 543.732507 507.374503 
L 544.906419 508.478749 
L 546.085574 508.211644 
L 547.269413 508.310148 
L 548.459256 508.738388 
L 549.654096 509.645984 
L 550.855311 509.354541 
L 552.062753 509.582842 
L 553.276249 510.366373 
L 554.496118 510.781456 
L 556.949793 510.511923 
L 558.182826 511.211687 
L 559.421388 511.666978 
L 561.917386 511.854169 
L 563.173725 512.619514 
L 564.436213 513.108917 
L 565.705115 513.228608 
L 566.980869 513.09939 
L 568.262807 513.63572 
L 569.550917 514.603576 
L 570.845916 514.90682 
L 572.14807 514.702019 
L 573.456998 515.02637 
L 574.772606 516.08278 
L 576.094906 516.524087 
L 577.424921 516.174586 
L 578.762618 516.440975 
L 580.106948 517.665838 
L 581.458623 518.377753 
L 582.817333 518.06001 
L 584.183582 518.152376 
L 585.557337 519.417391 
L 586.938814 519.994176 
L 588.328667 519.868549 
L 589.726513 519.918784 
L 591.13219 521.202584 
L 592.545716 522.065398 
L 593.968262 521.957064 
L 595.399702 521.694379 
L 598.287361 524.012928 
L 599.744832 524.274258 
L 601.211864 524.142505 
L 602.687811 524.826638 
L 604.172781 526.008892 
L 605.666569 526.487 
L 607.170469 526.319283 
L 608.684794 526.801609 
L 610.20825 528.029244 
L 611.740847 528.756718 
L 614.838368 528.581413 
L 617.977567 530.686596 
L 619.563185 530.883372 
L 621.15942 530.74786 
L 622.767574 531.377712 
L 624.386 532.650732 
L 626.016065 533.060028 
L 627.657724 533.033476 
L 629.311764 533.449484 
L 632.65397 535.543137 
L 636.043285 535.552131 
L 637.753728 536.153855 
L 639.473542 537.373205 
L 641.200542 537.98066 
L 642.938687 537.922457 
L 644.688167 538.121947 
L 646.448113 539.029084 
L 648.219838 540.179877 
L 650.002836 540.378533 
L 651.795605 540.239535 
L 653.602292 540.634079 
L 655.417988 541.683082 
L 657.244169 542.443635 
L 660.938562 542.695694 
L 664.683105 544.076058 
L 666.572825 544.522116 
L 668.478337 544.731325 
L 670.399282 545.142836 
L 674.278343 546.29594 
L 678.211172 546.973155 
L 680.201175 547.423103 
L 682.207033 547.754936 
L 686.26526 548.788053 
L 694.573358 550.623333 
L 700.983477 551.773287 
L 705.348671 552.87046 
L 707.557743 552.963783 
L 714.308253 554.243764 
L 716.596929 554.781865 
L 718.914646 555.083433 
L 721.246212 555.238641 
L 723.606296 555.568109 
L 725.980882 556.214719 
L 728.387544 556.66509 
L 733.266114 556.878748 
L 735.734709 557.278447 
L 738.240158 557.897485 
L 740.759296 558.315997 
L 743.315764 558.375466 
L 745.889153 558.594338 
L 748.503408 558.964927 
L 751.129785 559.535882 
L 753.799137 559.936531 
L 759.214817 560.248219 
L 761.962647 560.571251 
L 767.562998 561.426506 
L 776.214603 562.123679 
L 779.162116 562.594279 
L 791.329969 563.49415 
L 794.462871 563.878199 
L 804.119101 564.593223 
L 821.092984 565.832559 
L 821.092984 565.832559 
" style="fill:none;stroke:#66c2a5;stroke-linecap:round;stroke-width:3;"/>
   </g>
   <g id="line2d_19">
    <path clip-path="url(#p28354841ff)" d="M 113.146509 549.696447 
L 122.153124 550.343842 
L 125.337848 550.183449 
L 128.537692 549.700017 
L 131.742091 548.947701 
L 134.931017 547.770611 
L 138.078915 546.752667 
L 141.16397 545.430336 
L 144.054235 543.733226 
L 146.734574 541.727416 
L 151.52441 537.715695 
L 153.676135 535.282903 
L 155.690817 532.528344 
L 159.360467 526.808828 
L 161.053225 523.521511 
L 165.663251 513.214896 
L 167.082087 509.790807 
L 171.083339 498.512669 
L 173.575391 490.973915 
L 174.777353 486.673216 
L 175.955342 483.380715 
L 177.109788 478.588069 
L 178.244237 475.34699 
L 179.355308 470.3719 
L 180.443666 466.956913 
L 181.505378 461.715627 
L 182.542143 458.096995 
L 183.554884 452.821269 
L 184.54504 449.343323 
L 185.513276 443.995734 
L 186.461592 440.065346 
L 188.300032 430.883854 
L 189.190618 426.913406 
L 190.062957 421.244784 
L 190.920371 418.911406 
L 191.763063 413.206428 
L 192.592168 410.095735 
L 193.409887 406.092432 
L 194.21592 401.557494 
L 195.012169 399.596323 
L 195.799105 394.645901 
L 196.577512 393.160491 
L 198.112711 386.03487 
L 198.871343 385.977267 
L 199.623672 382.29531 
L 200.371824 381.957138 
L 201.115921 381.049574 
L 201.856078 378.87799 
L 202.59422 381.763636 
L 203.329276 380.411419 
L 204.063382 381.13757 
L 204.795503 383.417744 
L 205.526883 382.92338 
L 206.258554 387.042178 
L 206.989099 386.500452 
L 207.720459 388.076213 
L 208.453092 389.338059 
L 209.188361 388.895397 
L 209.926437 391.477805 
L 210.667708 390.011393 
L 211.411095 392.351808 
L 212.158745 392.224841 
L 212.91053 393.596499 
L 213.665799 394.550471 
L 214.425944 394.971052 
L 215.190276 397.363045 
L 215.95955 397.229712 
L 216.735727 400.591378 
L 217.516895 400.861636 
L 218.304477 404.78387 
L 219.095772 404.916988 
L 219.891735 409.509819 
L 220.691981 410.4575 
L 221.497478 414.299469 
L 222.307281 414.906573 
L 223.122719 418.384529 
L 223.94216 418.684468 
L 224.767082 422.084916 
L 225.598137 423.582256 
L 226.436097 426.47232 
L 228.131737 430.676202 
L 228.990614 434.035969 
L 229.855165 434.681739 
L 230.72757 438.788941 
L 231.607067 440.143536 
L 232.495969 443.504797 
L 233.393614 445.948121 
L 234.298606 447.477544 
L 235.219899 454.144717 
L 237.111049 463.593305 
L 238.083229 470.332322 
L 239.072909 475.709674 
L 240.084078 483.389186 
L 241.109996 488.929953 
L 242.148571 492.044524 
L 243.200477 496.273516 
L 244.263606 498.82733 
L 246.410672 502.430943 
L 247.492617 502.975941 
L 248.574654 501.511827 
L 249.657241 501.257903 
L 250.736983 498.578331 
L 251.812988 495.428116 
L 252.884788 491.729792 
L 253.9523 488.904695 
L 256.080276 482.123355 
L 259.257918 474.03211 
L 260.318899 471.954524 
L 261.382821 470.728597 
L 262.451374 468.660985 
L 263.524991 467.397802 
L 264.603238 466.701444 
L 265.682781 464.487474 
L 266.760114 461.635438 
L 267.833783 459.311806 
L 268.898726 455.443383 
L 269.947542 449.785534 
L 271.975044 436.014967 
L 273.862872 415.721297 
L 274.752692 404.826027 
L 278.785262 346.054362 
L 279.532845 335.34456 
L 280.269564 328.586739 
L 280.997788 319.909688 
L 283.15346 307.544451 
L 283.868526 308.11827 
L 284.584957 306.451457 
L 285.303594 306.44713 
L 286.02638 309.833642 
L 286.754686 310.856313 
L 287.488874 314.246363 
L 288.229199 318.566521 
L 288.975859 320.346697 
L 289.727256 325.709191 
L 290.485868 329.344788 
L 291.251318 332.086288 
L 292.021646 336.840191 
L 292.797663 338.535412 
L 293.578371 342.95631 
L 295.152546 347.214609 
L 295.945383 350.529512 
L 296.74202 351.142161 
L 297.540114 354.034884 
L 298.341645 354.138162 
L 299.144308 355.981137 
L 299.949283 356.51742 
L 300.756471 356.848318 
L 301.5647 358.276082 
L 302.37463 357.872538 
L 303.184019 359.256144 
L 303.996259 358.949021 
L 304.80812 360.169852 
L 305.623027 360.999246 
L 306.440473 362.620368 
L 307.264637 366.19798 
L 308.094629 368.077902 
L 308.932847 372.802037 
L 309.780813 376.171457 
L 310.640651 382.845443 
L 311.512533 386.92523 
L 312.401552 395.492722 
L 313.30695 400.992602 
L 314.229981 408.549799 
L 315.168887 413.429744 
L 316.118806 415.962437 
L 317.076243 417.519578 
L 318.040846 417.979193 
L 319.010744 419.698881 
L 319.986738 419.486951 
L 320.967669 420.29946 
L 321.953908 420.854675 
L 322.946504 420.904757 
L 323.945758 422.446416 
L 324.950035 422.142768 
L 325.961013 423.158669 
L 326.97753 423.272732 
L 330.054561 424.520406 
L 331.084357 423.148792 
L 332.112448 423.467452 
L 334.143044 418.296118 
L 335.142793 415.556626 
L 336.123382 409.258281 
L 337.077015 401.918908 
L 337.999503 393.152927 
L 339.754782 371.039856 
L 340.589704 357.156656 
L 341.39984 345.837885 
L 342.950627 320.212618 
L 343.697768 308.693954 
L 344.427762 295.562999 
L 345.145416 287.56066 
L 346.550128 268.511276 
L 347.242534 264.079394 
L 348.614024 252.842503 
L 349.294557 250.855092 
L 349.973982 249.598043 
L 351.330393 245.640477 
L 352.010282 247.872831 
L 352.692931 248.563039 
L 353.378967 250.687478 
L 354.071017 255.115617 
L 354.770715 260.86346 
L 355.477349 265.681882 
L 356.18933 268.421198 
L 356.909219 275.030606 
L 357.635086 278.918336 
L 358.366163 281.253888 
L 359.10311 286.236377 
L 359.843 289.050577 
L 360.586891 290.872565 
L 361.336353 295.46286 
L 362.087102 296.937457 
L 362.842339 298.686037 
L 363.601909 302.901799 
L 364.367615 305.530296 
L 365.138424 307.408842 
L 368.308605 323.208675 
L 369.12897 329.292329 
L 373.461006 368.895495 
L 374.377496 374.630244 
L 375.299785 376.633187 
L 376.229185 379.570539 
L 377.159953 380.308494 
L 378.095434 382.01677 
L 379.033127 382.552562 
L 379.973058 383.342071 
L 380.914023 383.978387 
L 381.85583 384.363608 
L 382.797343 385.491035 
L 383.738841 385.020876 
L 384.68215 386.551252 
L 385.619996 384.878765 
L 386.553396 385.566877 
L 387.478276 384.422866 
L 388.394492 383.505011 
L 389.297901 382.193488 
L 391.057811 377.769311 
L 391.906849 373.045988 
L 392.734239 369.677671 
L 394.320679 356.805445 
L 395.826546 337.221192 
L 396.556257 327.221233 
L 402.506546 221.446168 
L 403.739933 200.971262 
L 404.952536 188.706689 
L 405.55618 182.681405 
L 406.764535 173.89605 
L 407.371163 173.725573 
L 408.572114 169.039709 
L 409.164732 167.561742 
L 409.754881 166.548461 
L 410.345365 170.954065 
L 410.937703 173.56756 
L 411.531018 175.675681 
L 412.128139 178.68317 
L 412.732406 180.050361 
L 413.34402 187.979976 
L 413.961629 194.081634 
L 414.584565 197.116801 
L 415.217106 200.853074 
L 416.510746 204.53094 
L 417.172167 212.770085 
L 418.530599 217.959925 
L 419.230754 220.444146 
L 419.94522 224.030662 
L 420.674879 225.935918 
L 421.420181 228.805849 
L 423.772726 242.69661 
L 424.602352 246.601028 
L 428.166183 271.723727 
L 429.119085 279.477463 
L 431.088141 293.431045 
L 432.074196 298.015514 
L 433.058 301.707815 
L 435.026612 304.917911 
L 436.012867 305.622178 
L 437.001254 305.832915 
L 438.987101 305.678211 
L 440.988359 303.993246 
L 441.9953 302.589745 
L 443.00642 301.676892 
L 444.023046 299.763476 
L 445.044841 298.205411 
L 449.188978 288.856361 
L 450.241239 285.829812 
L 452.365836 281.319903 
L 453.439543 278.419695 
L 456.705508 271.067618 
L 457.810719 268.55614 
L 458.923937 266.911575 
L 461.177395 262.915102 
L 462.318106 261.288554 
L 464.629313 258.892873 
L 466.982481 256.968022 
L 468.174742 256.457912 
L 470.590543 255.941317 
L 473.051525 256.446382 
L 475.558046 257.794589 
L 478.111793 260.024391 
L 480.712446 262.932204 
L 495.901769 282.672561 
L 503.32545 291.501636 
L 509.495002 298.141786 
L 515.854342 305.708563 
L 519.101881 309.9469 
L 520.741265 312.43981 
L 522.389215 315.434189 
L 524.045962 318.799221 
L 525.710806 322.696673 
L 527.383354 327.08877 
L 529.062062 331.872581 
L 530.747109 337.690223 
L 532.436071 344.328839 
L 534.127399 352.812446 
L 535.8191 363.14666 
L 537.507824 376.742996 
L 540.866896 410.366614 
L 542.526255 430.132831 
L 544.128771 459.085643 
L 545.540987 490.071068 
L 546.851741 515.091186 
L 548.149128 529.978666 
L 549.474818 539.482843 
L 550.859479 544.137351 
L 552.300474 547.748114 
L 553.783056 549.193658 
L 555.270474 549.879384 
L 558.256373 549.107965 
L 559.758042 548.408019 
L 561.267302 547.186526 
L 562.782351 546.687182 
L 564.305508 545.281825 
L 565.83624 544.722896 
L 567.376012 543.649836 
L 568.923347 542.810213 
L 570.479412 542.276533 
L 572.044593 541.226385 
L 573.618115 541.037853 
L 575.199978 540.503539 
L 576.791503 539.697283 
L 578.39164 539.680934 
L 581.618678 538.706446 
L 583.244892 538.644627 
L 584.879725 538.196343 
L 586.52292 538.025731 
L 588.174109 537.986059 
L 589.833556 537.568111 
L 591.499865 537.428581 
L 593.173794 537.422236 
L 594.855163 537.150371 
L 596.543229 537.079824 
L 598.236854 537.327666 
L 599.93757 537.023491 
L 601.644444 536.929587 
L 603.357386 537.144454 
L 605.076297 536.894523 
L 606.801048 536.821542 
L 608.530839 537.081196 
L 610.266755 536.983989 
L 612.008957 536.757834 
L 615.512054 537.075978 
L 617.272828 536.897586 
L 619.040289 536.905868 
L 620.813805 537.155094 
L 624.38227 537.068162 
L 626.176806 537.151924 
L 627.978516 537.413886 
L 629.788696 537.123739 
L 635.268648 537.230005 
L 638.964553 537.091122 
L 640.826519 536.925585 
L 644.57735 537.245674 
L 648.364648 537.369086 
L 652.189051 537.763107 
L 656.049637 537.709127 
L 657.993608 537.855409 
L 659.94587 538.231381 
L 661.907577 538.275415 
L 669.844935 539.044627 
L 671.852691 539.217883 
L 673.870046 539.692668 
L 675.897244 539.90878 
L 677.934408 539.953283 
L 679.981315 540.12362 
L 684.105616 540.899354 
L 686.182657 541.115185 
L 688.270214 541.197617 
L 690.368585 541.417391 
L 694.597744 542.122918 
L 703.184597 543.222981 
L 705.359495 543.376075 
L 711.95502 544.233328 
L 716.411468 544.716822 
L 718.658036 545.069858 
L 727.770537 545.995 
L 732.404471 546.618272 
L 737.091284 547.140045 
L 753.938538 549.057843 
L 758.883452 549.401903 
L 763.889637 550.10797 
L 768.958377 550.366523 
L 771.516721 550.901108 
L 776.682115 551.451662 
L 779.290662 551.601745 
L 787.219756 552.389279 
L 789.898234 552.524446 
L 792.595774 552.806837 
L 795.311036 553.293666 
L 803.573808 553.756128 
L 809.180111 554.570831 
L 814.869053 554.81454 
L 820.640398 555.655888 
L 826.499754 556.078728 
L 832.450313 556.700486 
L 835.460574 556.883889 
L 844.634062 557.83333 
L 850.874111 558.111563 
L 873.559276 560.020882 
L 880.298051 560.494896 
L 883.713455 560.804211 
L 890.636736 561.155821 
L 897.690079 561.80402 
L 901 562.05445 
L 901 562.05445 
" style="fill:none;stroke:#fc8d62;stroke-linecap:round;stroke-width:3;"/>
   </g>
   <g id="line2d_20">
    <path clip-path="url(#p28354841ff)" d="M 113.146509 549.6968 
L 115.73765 549.841682 
L 118.957493 550.263933 
L 122.15283 550.344341 
L 125.337953 550.193341 
L 128.53232 549.687715 
L 131.718244 548.991214 
L 134.880102 547.775308 
L 138.011227 546.764456 
L 141.088964 545.527124 
L 143.989334 544.034624 
L 146.678482 542.065014 
L 149.169276 539.907486 
L 153.640331 535.62096 
L 155.658817 532.906324 
L 157.54997 529.934582 
L 161.033455 523.921177 
L 164.177472 517.124773 
L 167.075603 509.864842 
L 168.451729 506.412012 
L 169.786142 502.478812 
L 171.082844 499.023854 
L 172.342589 494.787961 
L 173.571995 491.303419 
L 174.773165 486.931019 
L 175.950066 483.496116 
L 177.103821 479.186449 
L 178.23702 475.424679 
L 182.534695 458.198205 
L 183.548858 453.519292 
L 184.540081 449.517345 
L 185.509851 444.316563 
L 186.459245 440.793961 
L 187.38917 435.104374 
L 188.299909 432.151515 
L 189.191943 426.720019 
L 190.066499 423.199087 
L 191.768999 414.048495 
L 192.599383 410.988019 
L 193.417406 405.708737 
L 194.224289 403.564627 
L 195.020974 399.104297 
L 195.808161 395.45179 
L 196.587316 393.594418 
L 197.358425 389.154943 
L 198.122667 388.340276 
L 199.633385 383.010348 
L 200.381191 382.981848 
L 201.124713 380.456492 
L 201.864629 380.996863 
L 202.601964 381.157416 
L 203.33698 380.365434 
L 204.070318 382.781157 
L 204.801565 382.557926 
L 205.532348 384.951235 
L 206.262467 386.232635 
L 206.99319 386.656857 
L 207.722607 388.850755 
L 208.453303 388.304092 
L 209.186644 390.886 
L 209.922205 390.411317 
L 210.661593 391.080706 
L 211.402352 392.390405 
L 212.147199 392.212934 
L 212.896436 394.231835 
L 213.648722 393.21282 
L 214.406113 396.219225 
L 215.168766 396.156547 
L 215.935261 398.951842 
L 216.708122 399.231083 
L 217.487426 401.919128 
L 218.272103 403.483386 
L 219.060947 406.502879 
L 219.854097 408.348316 
L 220.652061 411.318144 
L 221.454706 413.057054 
L 222.261846 415.845426 
L 223.07404 417.29081 
L 223.891219 420.075834 
L 224.713779 421.066294 
L 225.54285 425.121291 
L 226.37783 425.957507 
L 227.219076 429.180205 
L 228.068103 430.704736 
L 228.924488 434.118471 
L 229.788156 435.950024 
L 230.658869 438.240629 
L 231.536516 441.618696 
L 232.422391 442.915324 
L 233.317123 447.031072 
L 234.220314 448.865935 
L 235.136545 452.88624 
L 236.070543 460.065969 
L 237.017702 463.155666 
L 239.976229 483.814803 
L 242.032251 493.833192 
L 243.077349 496.639285 
L 244.134245 499.94797 
L 245.201455 502.902224 
L 247.35101 505.027688 
L 248.431221 505.256878 
L 249.509842 503.417923 
L 250.587384 502.136812 
L 251.662252 499.660069 
L 252.733102 496.76931 
L 253.800272 493.36641 
L 255.924158 487.812162 
L 256.981978 484.394741 
L 258.038568 481.871818 
L 260.156148 477.879123 
L 261.220588 476.298845 
L 262.291315 476.151633 
L 263.368708 475.284968 
L 264.453046 474.615365 
L 265.544616 474.356939 
L 266.640256 473.531224 
L 267.739602 471.943995 
L 268.836077 469.748243 
L 269.924255 466.609434 
L 270.997483 461.846558 
L 272.050354 455.352411 
L 273.070147 447.997627 
L 274.050814 439.7543 
L 275.901493 418.9133 
L 281.558271 342.767417 
L 282.303468 336.85715 
L 283.04067 329.014518 
L 283.772617 324.948698 
L 284.502364 322.474182 
L 285.231944 319.433387 
L 285.963162 321.571088 
L 286.696999 321.430146 
L 287.434729 322.482584 
L 288.178139 327.035488 
L 288.928736 329.251627 
L 289.686653 334.780172 
L 290.453058 339.539999 
L 291.22694 343.042984 
L 292.008681 349.431561 
L 292.797573 352.584636 
L 293.59399 357.980354 
L 294.395287 360.730248 
L 296.012757 366.752703 
L 296.827272 367.804899 
L 297.645836 371.446642 
L 298.466763 371.206743 
L 299.290935 374.811852 
L 300.118141 374.966702 
L 300.948625 377.197139 
L 301.781719 377.820994 
L 302.616566 378.990487 
L 303.453776 380.366462 
L 304.292053 380.942822 
L 305.131681 381.707475 
L 305.972215 381.616154 
L 306.812665 382.465795 
L 307.652329 380.668374 
L 308.491906 381.650838 
L 309.332871 380.322169 
L 310.174576 381.52776 
L 311.020185 381.510029 
L 311.871947 385.791999 
L 312.730445 387.126657 
L 314.477069 395.806067 
L 316.278363 407.362243 
L 317.206667 415.930087 
L 318.154783 422.021835 
L 319.122712 429.75588 
L 320.104362 433.502355 
L 321.0944 434.253881 
L 322.091386 435.873664 
L 323.094965 436.159975 
L 324.104279 437.53515 
L 325.121515 438.335182 
L 326.145367 439.409946 
L 327.176966 441.363394 
L 329.264939 443.420144 
L 330.321735 445.833106 
L 332.461073 448.252805 
L 334.626734 450.920136 
L 337.894116 452.204747 
L 338.974264 451.490355 
L 340.039439 449.348575 
L 341.086967 447.591441 
L 342.109919 443.405333 
L 343.105773 437.349885 
L 344.072869 429.508555 
L 345.009254 420.239784 
L 346.794016 397.798161 
L 348.464269 371.077272 
L 350.804261 331.777183 
L 351.5502 323.410351 
L 353.005766 300.914466 
L 353.720893 295.69243 
L 354.429933 287.629818 
L 355.134879 281.152146 
L 355.838386 280.552974 
L 356.540917 276.300319 
L 357.244496 273.046756 
L 357.951291 276.888528 
L 359.371573 275.870319 
L 360.087868 281.112887 
L 360.811228 284.725533 
L 361.541185 287.709232 
L 362.281466 295.888511 
L 363.030416 301.50357 
L 363.787964 305.432333 
L 364.555567 313.402536 
L 365.329796 317.705959 
L 366.110221 320.454863 
L 366.895029 325.691148 
L 367.684131 326.828574 
L 368.476754 329.435812 
L 369.271812 331.553996 
L 370.069954 330.811562 
L 370.869954 334.944011 
L 371.671657 334.472759 
L 372.477423 336.91437 
L 373.285424 338.608373 
L 374.0981 339.161087 
L 374.918761 344.69377 
L 375.747615 346.905331 
L 378.301606 365.501469 
L 381.009675 392.858875 
L 382.912885 407.968229 
L 383.886692 412.33586 
L 384.872518 414.683233 
L 385.862839 416.279323 
L 386.857898 415.33942 
L 387.858623 417.059661 
L 388.861219 416.623912 
L 389.869283 417.084933 
L 390.880224 418.926391 
L 391.889491 419.164313 
L 392.892196 420.154646 
L 393.887765 421.566621 
L 394.876099 421.615093 
L 395.852071 423.279123 
L 396.809543 422.764591 
L 397.747871 421.50586 
L 398.667826 421.262065 
L 399.567887 417.449731 
L 400.449545 415.047527 
L 402.15724 400.516244 
L 402.980869 390.446884 
L 403.78335 379.157953 
L 405.321596 351.743762 
L 406.062714 334.897461 
L 406.786959 321.512758 
L 407.492537 302.376499 
L 408.860228 273.552423 
L 409.524241 256.362304 
L 410.174643 243.027096 
L 410.812778 234.369061 
L 412.073609 210.726098 
L 412.697679 205.70469 
L 413.319085 202.17594 
L 414.551549 191.180993 
L 415.162676 190.06078 
L 415.772089 196.152178 
L 417.601514 193.710444 
L 418.835606 210.119671 
L 419.459771 212.085136 
L 420.093538 211.893938 
L 420.737227 214.629263 
L 422.05992 239.605088 
L 422.745091 244.900006 
L 423.446321 248.402773 
L 424.163286 252.726574 
L 424.894405 261.086223 
L 425.640916 265.563562 
L 427.17366 266.516593 
L 427.956683 266.654012 
L 428.755616 267.031425 
L 429.569804 271.304563 
L 431.251362 271.632367 
L 432.115352 271.48266 
L 433.875985 273.139944 
L 434.774131 274.439455 
L 435.687295 276.622626 
L 436.617617 279.606651 
L 438.542816 287.909524 
L 439.542748 292.826819 
L 443.895549 320.458546 
L 446.293785 332.469594 
L 448.713168 338.55248 
L 449.93043 340.047295 
L 451.155066 340.565976 
L 452.388181 341.320881 
L 454.883732 342.203968 
L 457.426334 342.282554 
L 458.716767 342.717342 
L 460.022383 342.32639 
L 461.343201 342.530134 
L 462.68039 342.421185 
L 465.408435 342.793691 
L 468.214489 343.509049 
L 469.647609 344.093788 
L 472.574829 345.811026 
L 475.582573 348.315166 
L 478.672297 351.229863 
L 480.249131 352.978004 
L 485.101839 359.158821 
L 498.97292 378.380716 
L 500.802349 380.750356 
L 506.42023 387.19002 
L 508.335233 389.258059 
L 512.227238 392.9358 
L 516.198304 396.305516 
L 522.301557 400.833829 
L 528.58121 405.075118 
L 535.02637 409.315467 
L 539.40861 412.141325 
L 543.857999 415.245963 
L 548.368779 418.388858 
L 557.556051 425.286487 
L 559.885613 427.044987 
L 569.324526 434.864203 
L 574.108632 439.125682 
L 578.931685 443.821988 
L 588.687366 453.993156 
L 598.581498 463.695524 
L 608.60224 473.192387 
L 611.125826 475.691346 
L 613.655075 478.463261 
L 616.186546 483.062931 
L 618.713365 490.476703 
L 621.231366 500.141012 
L 623.727189 516.361202 
L 625.989452 542.93553 
L 627.771487 571.720679 
L 629.46134 587.357857 
L 631.199947 592.041242 
L 633.045811 594.6696 
L 634.997894 594.185694 
L 637.050112 593.073428 
L 639.149596 590.097559 
L 641.266143 587.865583 
L 645.559959 582.453279 
L 649.940549 577.42182 
L 652.162859 575.482671 
L 654.409274 572.977737 
L 656.678345 571.186014 
L 658.971919 568.94385 
L 663.624413 565.708375 
L 665.985849 563.962308 
L 668.368144 562.669384 
L 670.77384 561.071639 
L 678.117755 557.382054 
L 680.605611 556.503785 
L 683.11306 555.436666 
L 690.747325 552.821961 
L 693.325714 552.39818 
L 698.528679 551.027845 
L 701.153016 550.768739 
L 703.791887 550.168044 
L 706.444487 549.782515 
L 709.109794 549.574846 
L 711.789459 549.107535 
L 722.63693 548.313961 
L 725.381269 548.519725 
L 730.912228 548.297706 
L 733.698221 548.518206 
L 739.31152 548.353025 
L 742.13862 548.625023 
L 744.97875 548.778779 
L 750.698492 548.710026 
L 756.463942 548.897814 
L 759.362763 548.806972 
L 762.272676 549.053784 
L 771.06732 549.294386 
L 776.987545 549.541509 
L 788.96578 549.973264 
L 795.02613 550.414673 
L 798.073809 550.398493 
L 804.206966 550.691322 
L 807.293166 550.952621 
L 822.910932 551.686477 
L 826.074709 551.936724 
L 832.441482 552.19361 
L 875.222244 554.440589 
L 882.031457 554.727316 
L 892.365496 555.265034 
L 901 555.729654 
L 901 555.729654 
" style="fill:none;stroke:#8da0cb;stroke-linecap:round;stroke-width:3;"/>
   </g>
   <g id="line2d_21"/>
   <g id="line2d_22"/>
   <g id="line2d_23"/>
   <g id="line2d_24"/>
   <g id="line2d_25"/>
   <g id="line2d_26"/>
   <g id="patch_3">
    <path d="M 112.5 619.0128 
L 112.5 83.4624 
" style="fill:none;stroke:#262626;stroke-linecap:square;stroke-linejoin:miter;stroke-width:2.5;"/>
   </g>
   <g id="patch_4">
    <path d="M 112.5 619.0128 
L 810 619.0128 
" style="fill:none;stroke:#262626;stroke-linecap:square;stroke-linejoin:miter;stroke-width:2.5;"/>
   </g>
   <g id="legend_1">
    <g id="patch_5">
     <path d="M 578.755937 294.81365 
L 794.6 294.81365 
Q 799 294.81365 799 290.41365 
L 799 98.8624 
Q 799 94.4624 794.6 94.4624 
L 578.755937 94.4624 
Q 574.355937 94.4624 574.355937 98.8624 
L 574.355937 290.41365 
Q 574.355937 294.81365 578.755937 294.81365 
z
" style="fill:#ffffff;opacity:0.8;stroke:#cccccc;stroke-linejoin:miter;stroke-width:2;"/>
    </g>
    <g id="line2d_27">
     <path d="M 583.155937 112.278963 
L 627.155937 112.278963 
" style="fill:none;"/>
    </g>
    <g id="line2d_28"/>
    <g id="text_20">
     <!-- Exp -->
     <defs>
      <path d="M 9.8125 72.90625 
L 55.90625 72.90625 
L 55.90625 64.59375 
L 19.671875 64.59375 
L 19.671875 43.015625 
L 54.390625 43.015625 
L 54.390625 34.71875 
L 19.671875 34.71875 
L 19.671875 8.296875 
L 56.78125 8.296875 
L 56.78125 0 
L 9.8125 0 
z
" id="DejaVuSans-45"/>
      <path d="M 54.890625 54.6875 
L 35.109375 28.078125 
L 55.90625 0 
L 45.3125 0 
L 29.390625 21.484375 
L 13.484375 0 
L 2.875 0 
L 24.125 28.609375 
L 4.6875 54.6875 
L 15.28125 54.6875 
L 29.78125 35.203125 
L 44.28125 54.6875 
z
" id="DejaVuSans-78"/>
      <path d="M 18.109375 8.203125 
L 18.109375 -20.796875 
L 9.078125 -20.796875 
L 9.078125 54.6875 
L 18.109375 54.6875 
L 18.109375 46.390625 
Q 20.953125 51.265625 25.265625 53.625 
Q 29.59375 56 35.59375 56 
Q 45.5625 56 51.78125 48.09375 
Q 58.015625 40.1875 58.015625 27.296875 
Q 58.015625 14.40625 51.78125 6.484375 
Q 45.5625 -1.421875 35.59375 -1.421875 
Q 29.59375 -1.421875 25.265625 0.953125 
Q 20.953125 3.328125 18.109375 8.203125 
z
M 48.6875 27.296875 
Q 48.6875 37.203125 44.609375 42.84375 
Q 40.53125 48.484375 33.40625 48.484375 
Q 26.265625 48.484375 22.1875 42.84375 
Q 18.109375 37.203125 18.109375 27.296875 
Q 18.109375 17.390625 22.1875 11.75 
Q 26.265625 6.109375 33.40625 6.109375 
Q 40.53125 6.109375 44.609375 11.75 
Q 48.6875 17.390625 48.6875 27.296875 
z
" id="DejaVuSans-70"/>
     </defs>
     <g style="fill:#262626;" transform="translate(644.755937 119.978963)scale(0.22 -0.22)">
      <use xlink:href="#DejaVuSans-45"/>
      <use x="63.183594" xlink:href="#DejaVuSans-78"/>
      <use x="122.363281" xlink:href="#DejaVuSans-70"/>
     </g>
    </g>
    <g id="line2d_29">
     <path d="M 583.155937 144.570838 
L 627.155937 144.570838 
" style="fill:none;stroke:#66c2a5;stroke-linecap:round;stroke-width:3;"/>
    </g>
    <g id="line2d_30"/>
    <g id="text_21">
     <!-- e000 -->
     <g style="fill:#262626;" transform="translate(644.755937 152.270838)scale(0.22 -0.22)">
      <use xlink:href="#DejaVuSans-65"/>
      <use x="61.523438" xlink:href="#DejaVuSans-30"/>
      <use x="125.146484" xlink:href="#DejaVuSans-30"/>
      <use x="188.769531" xlink:href="#DejaVuSans-30"/>
     </g>
    </g>
    <g id="line2d_31">
     <path d="M 583.155937 176.862713 
L 627.155937 176.862713 
" style="fill:none;stroke:#fc8d62;stroke-linecap:round;stroke-width:3;"/>
    </g>
    <g id="line2d_32"/>
    <g id="text_22">
     <!-- e030 -->
     <g style="fill:#262626;" transform="translate(644.755937 184.562713)scale(0.22 -0.22)">
      <use xlink:href="#DejaVuSans-65"/>
      <use x="61.523438" xlink:href="#DejaVuSans-30"/>
      <use x="125.146484" xlink:href="#DejaVuSans-33"/>
      <use x="188.769531" xlink:href="#DejaVuSans-30"/>
     </g>
    </g>
    <g id="line2d_33">
     <path d="M 583.155937 209.154588 
L 627.155937 209.154588 
" style="fill:none;stroke:#8da0cb;stroke-linecap:round;stroke-width:3;"/>
    </g>
    <g id="line2d_34"/>
    <g id="text_23">
     <!-- e050 -->
     <g style="fill:#262626;" transform="translate(644.755937 216.854588)scale(0.22 -0.22)">
      <use xlink:href="#DejaVuSans-65"/>
      <use x="61.523438" xlink:href="#DejaVuSans-30"/>
      <use x="125.146484" xlink:href="#DejaVuSans-35"/>
      <use x="188.769531" xlink:href="#DejaVuSans-30"/>
     </g>
    </g>
    <g id="line2d_35">
     <path d="M 583.155937 241.446463 
L 627.155937 241.446463 
" style="fill:none;"/>
    </g>
    <g id="line2d_36"/>
    <g id="text_24">
     <!-- Type -->
     <g style="fill:#262626;" transform="translate(644.755937 249.146463)scale(0.22 -0.22)">
      <use xlink:href="#DejaVuSans-54"/>
      <use x="60.849609" xlink:href="#DejaVuSans-79"/>
      <use x="120.029297" xlink:href="#DejaVuSans-70"/>
      <use x="183.505859" xlink:href="#DejaVuSans-65"/>
     </g>
    </g>
    <g id="line2d_37">
     <path d="M 583.155937 273.738338 
L 627.155937 273.738338 
" style="fill:none;stroke:#333333;stroke-linecap:round;stroke-width:3;"/>
    </g>
    <g id="line2d_38"/>
    <g id="text_25">
     <!-- Convergence -->
     <defs>
      <path d="M 64.40625 67.28125 
L 64.40625 56.890625 
Q 59.421875 61.53125 53.78125 63.8125 
Q 48.140625 66.109375 41.796875 66.109375 
Q 29.296875 66.109375 22.65625 58.46875 
Q 16.015625 50.828125 16.015625 36.375 
Q 16.015625 21.96875 22.65625 14.328125 
Q 29.296875 6.6875 41.796875 6.6875 
Q 48.140625 6.6875 53.78125 8.984375 
Q 59.421875 11.28125 64.40625 15.921875 
L 64.40625 5.609375 
Q 59.234375 2.09375 53.4375 0.328125 
Q 47.65625 -1.421875 41.21875 -1.421875 
Q 24.65625 -1.421875 15.125 8.703125 
Q 5.609375 18.84375 5.609375 36.375 
Q 5.609375 53.953125 15.125 64.078125 
Q 24.65625 74.21875 41.21875 74.21875 
Q 47.75 74.21875 53.53125 72.484375 
Q 59.328125 70.75 64.40625 67.28125 
z
" id="DejaVuSans-43"/>
      <path d="M 54.890625 33.015625 
L 54.890625 0 
L 45.90625 0 
L 45.90625 32.71875 
Q 45.90625 40.484375 42.875 44.328125 
Q 39.84375 48.1875 33.796875 48.1875 
Q 26.515625 48.1875 22.3125 43.546875 
Q 18.109375 38.921875 18.109375 30.90625 
L 18.109375 0 
L 9.078125 0 
L 9.078125 54.6875 
L 18.109375 54.6875 
L 18.109375 46.1875 
Q 21.34375 51.125 25.703125 53.5625 
Q 30.078125 56 35.796875 56 
Q 45.21875 56 50.046875 50.171875 
Q 54.890625 44.34375 54.890625 33.015625 
z
" id="DejaVuSans-6e"/>
      <path d="M 2.984375 54.6875 
L 12.5 54.6875 
L 29.59375 8.796875 
L 46.6875 54.6875 
L 56.203125 54.6875 
L 35.6875 0 
L 23.484375 0 
z
" id="DejaVuSans-76"/>
      <path d="M 45.40625 27.984375 
Q 45.40625 37.75 41.375 43.109375 
Q 37.359375 48.484375 30.078125 48.484375 
Q 22.859375 48.484375 18.828125 43.109375 
Q 14.796875 37.75 14.796875 27.984375 
Q 14.796875 18.265625 18.828125 12.890625 
Q 22.859375 7.515625 30.078125 7.515625 
Q 37.359375 7.515625 41.375 12.890625 
Q 45.40625 18.265625 45.40625 27.984375 
z
M 54.390625 6.78125 
Q 54.390625 -7.171875 48.1875 -13.984375 
Q 42 -20.796875 29.203125 -20.796875 
Q 24.46875 -20.796875 20.265625 -20.09375 
Q 16.0625 -19.390625 12.109375 -17.921875 
L 12.109375 -9.1875 
Q 16.0625 -11.328125 19.921875 -12.34375 
Q 23.78125 -13.375 27.78125 -13.375 
Q 36.625 -13.375 41.015625 -8.765625 
Q 45.40625 -4.15625 45.40625 5.171875 
L 45.40625 9.625 
Q 42.625 4.78125 38.28125 2.390625 
Q 33.9375 0 27.875 0 
Q 17.828125 0 11.671875 7.65625 
Q 5.515625 15.328125 5.515625 27.984375 
Q 5.515625 40.671875 11.671875 48.328125 
Q 17.828125 56 27.875 56 
Q 33.9375 56 38.28125 53.609375 
Q 42.625 51.21875 45.40625 46.390625 
L 45.40625 54.6875 
L 54.390625 54.6875 
z
" id="DejaVuSans-67"/>
     </defs>
     <g style="fill:#262626;" transform="translate(644.755937 281.438338)scale(0.22 -0.22)">
      <use xlink:href="#DejaVuSans-43"/>
      <use x="69.824219" xlink:href="#DejaVuSans-6f"/>
      <use x="131.005859" xlink:href="#DejaVuSans-6e"/>
      <use x="194.384766" xlink:href="#DejaVuSans-76"/>
      <use x="253.564453" xlink:href="#DejaVuSans-65"/>
      <use x="315.087891" xlink:href="#DejaVuSans-72"/>
      <use x="356.185547" xlink:href="#DejaVuSans-67"/>
      <use x="419.662109" xlink:href="#DejaVuSans-65"/>
      <use x="481.185547" xlink:href="#DejaVuSans-6e"/>
      <use x="544.564453" xlink:href="#DejaVuSans-63"/>
      <use x="599.544922" xlink:href="#DejaVuSans-65"/>
     </g>
    </g>
   </g>
  </g>
 </g>
 <defs>
  <clipPath id="p28354841ff">
   <rect height="535.5504" width="697.5" x="112.5" y="83.4624"/>
  </clipPath>
 </defs>
</svg>
