<?xml version="1.0" encoding="utf-8" standalone="no"?>
<!DOCTYPE svg PUBLIC "-//W3C//DTD SVG 1.1//EN"
  "http://www.w3.org/Graphics/SVG/1.1/DTD/svg11.dtd">
<!-- Created with matplotlib (http://matplotlib.org/) -->
<svg height="695.52pt" version="1.1" viewBox="0 0 756 695.52" width="756pt" xmlns="http://www.w3.org/2000/svg" xmlns:xlink="http://www.w3.org/1999/xlink">
 <defs>
  <style type="text/css">
*{stroke-linecap:butt;stroke-linejoin:round;}
  </style>
 </defs>
 <g id="figure_1">
  <g id="patch_1">
   <path d="M 0 695.52 
L 756 695.52 
L 756 0 
L 0 0 
z
" style="fill:#ffffff;"/>
  </g>
  <g id="axes_1">
   <g id="patch_2">
    <path d="M 94.5 619.0128 
L 680.4 619.0128 
L 680.4 83.4624 
L 94.5 83.4624 
z
" style="fill:#ffffff;"/>
   </g>
   <g id="matplotlib.axis_1">
    <g id="xtick_1">
     <g id="line2d_1">
      <defs>
       <path d="M 0 0 
L 0 12 
" id="mefe248fe60" style="stroke:#262626;stroke-width:2.5;"/>
      </defs>
      <g>
       <use style="fill:#262626;stroke:#262626;stroke-width:2.5;" x="94.5" xlink:href="#mefe248fe60" y="619.0128"/>
      </g>
     </g>
     <g id="text_1">
      <!-- 0 -->
      <defs>
       <path d="M 31.78125 66.40625 
Q 24.171875 66.40625 20.328125 58.90625 
Q 16.5 51.421875 16.5 36.375 
Q 16.5 21.390625 20.328125 13.890625 
Q 24.171875 6.390625 31.78125 6.390625 
Q 39.453125 6.390625 43.28125 13.890625 
Q 47.125 21.390625 47.125 36.375 
Q 47.125 51.421875 43.28125 58.90625 
Q 39.453125 66.40625 31.78125 66.40625 
z
M 31.78125 74.21875 
Q 44.046875 74.21875 50.515625 64.515625 
Q 56.984375 54.828125 56.984375 36.375 
Q 56.984375 17.96875 50.515625 8.265625 
Q 44.046875 -1.421875 31.78125 -1.421875 
Q 19.53125 -1.421875 13.0625 8.265625 
Q 6.59375 17.96875 6.59375 36.375 
Q 6.59375 54.828125 13.0625 64.515625 
Q 19.53125 74.21875 31.78125 74.21875 
z
" id="DejaVuSans-30"/>
      </defs>
      <g style="fill:#262626;" transform="translate(87.50125 651.229362)scale(0.22 -0.22)">
       <use xlink:href="#DejaVuSans-30"/>
      </g>
     </g>
    </g>
    <g id="xtick_2">
     <g id="line2d_2">
      <g>
       <use style="fill:#262626;stroke:#262626;stroke-width:2.5;" x="172.62" xlink:href="#mefe248fe60" y="619.0128"/>
      </g>
     </g>
     <g id="text_2">
      <!-- 20 -->
      <defs>
       <path d="M 19.1875 8.296875 
L 53.609375 8.296875 
L 53.609375 0 
L 7.328125 0 
L 7.328125 8.296875 
Q 12.9375 14.109375 22.625 23.890625 
Q 32.328125 33.6875 34.8125 36.53125 
Q 39.546875 41.84375 41.421875 45.53125 
Q 43.3125 49.21875 43.3125 52.78125 
Q 43.3125 58.59375 39.234375 62.25 
Q 35.15625 65.921875 28.609375 65.921875 
Q 23.96875 65.921875 18.8125 64.3125 
Q 13.671875 62.703125 7.8125 59.421875 
L 7.8125 69.390625 
Q 13.765625 71.78125 18.9375 73 
Q 24.125 74.21875 28.421875 74.21875 
Q 39.75 74.21875 46.484375 68.546875 
Q 53.21875 62.890625 53.21875 53.421875 
Q 53.21875 48.921875 51.53125 44.890625 
Q 49.859375 40.875 45.40625 35.40625 
Q 44.1875 33.984375 37.640625 27.21875 
Q 31.109375 20.453125 19.1875 8.296875 
z
" id="DejaVuSans-32"/>
      </defs>
      <g style="fill:#262626;" transform="translate(158.6225 651.229362)scale(0.22 -0.22)">
       <use xlink:href="#DejaVuSans-32"/>
       <use x="63.623047" xlink:href="#DejaVuSans-30"/>
      </g>
     </g>
    </g>
    <g id="xtick_3">
     <g id="line2d_3">
      <g>
       <use style="fill:#262626;stroke:#262626;stroke-width:2.5;" x="250.74" xlink:href="#mefe248fe60" y="619.0128"/>
      </g>
     </g>
     <g id="text_3">
      <!-- 40 -->
      <defs>
       <path d="M 37.796875 64.3125 
L 12.890625 25.390625 
L 37.796875 25.390625 
z
M 35.203125 72.90625 
L 47.609375 72.90625 
L 47.609375 25.390625 
L 58.015625 25.390625 
L 58.015625 17.1875 
L 47.609375 17.1875 
L 47.609375 0 
L 37.796875 0 
L 37.796875 17.1875 
L 4.890625 17.1875 
L 4.890625 26.703125 
z
" id="DejaVuSans-34"/>
      </defs>
      <g style="fill:#262626;" transform="translate(236.7425 651.229362)scale(0.22 -0.22)">
       <use xlink:href="#DejaVuSans-34"/>
       <use x="63.623047" xlink:href="#DejaVuSans-30"/>
      </g>
     </g>
    </g>
    <g id="xtick_4">
     <g id="line2d_4">
      <g>
       <use style="fill:#262626;stroke:#262626;stroke-width:2.5;" x="328.86" xlink:href="#mefe248fe60" y="619.0128"/>
      </g>
     </g>
     <g id="text_4">
      <!-- 60 -->
      <defs>
       <path d="M 33.015625 40.375 
Q 26.375 40.375 22.484375 35.828125 
Q 18.609375 31.296875 18.609375 23.390625 
Q 18.609375 15.53125 22.484375 10.953125 
Q 26.375 6.390625 33.015625 6.390625 
Q 39.65625 6.390625 43.53125 10.953125 
Q 47.40625 15.53125 47.40625 23.390625 
Q 47.40625 31.296875 43.53125 35.828125 
Q 39.65625 40.375 33.015625 40.375 
z
M 52.59375 71.296875 
L 52.59375 62.3125 
Q 48.875 64.0625 45.09375 64.984375 
Q 41.3125 65.921875 37.59375 65.921875 
Q 27.828125 65.921875 22.671875 59.328125 
Q 17.53125 52.734375 16.796875 39.40625 
Q 19.671875 43.65625 24.015625 45.921875 
Q 28.375 48.1875 33.59375 48.1875 
Q 44.578125 48.1875 50.953125 41.515625 
Q 57.328125 34.859375 57.328125 23.390625 
Q 57.328125 12.15625 50.6875 5.359375 
Q 44.046875 -1.421875 33.015625 -1.421875 
Q 20.359375 -1.421875 13.671875 8.265625 
Q 6.984375 17.96875 6.984375 36.375 
Q 6.984375 53.65625 15.1875 63.9375 
Q 23.390625 74.21875 37.203125 74.21875 
Q 40.921875 74.21875 44.703125 73.484375 
Q 48.484375 72.75 52.59375 71.296875 
z
" id="DejaVuSans-36"/>
      </defs>
      <g style="fill:#262626;" transform="translate(314.8625 651.229362)scale(0.22 -0.22)">
       <use xlink:href="#DejaVuSans-36"/>
       <use x="63.623047" xlink:href="#DejaVuSans-30"/>
      </g>
     </g>
    </g>
    <g id="xtick_5">
     <g id="line2d_5">
      <g>
       <use style="fill:#262626;stroke:#262626;stroke-width:2.5;" x="406.98" xlink:href="#mefe248fe60" y="619.0128"/>
      </g>
     </g>
     <g id="text_5">
      <!-- 80 -->
      <defs>
       <path d="M 31.78125 34.625 
Q 24.75 34.625 20.71875 30.859375 
Q 16.703125 27.09375 16.703125 20.515625 
Q 16.703125 13.921875 20.71875 10.15625 
Q 24.75 6.390625 31.78125 6.390625 
Q 38.8125 6.390625 42.859375 10.171875 
Q 46.921875 13.96875 46.921875 20.515625 
Q 46.921875 27.09375 42.890625 30.859375 
Q 38.875 34.625 31.78125 34.625 
z
M 21.921875 38.8125 
Q 15.578125 40.375 12.03125 44.71875 
Q 8.5 49.078125 8.5 55.328125 
Q 8.5 64.0625 14.71875 69.140625 
Q 20.953125 74.21875 31.78125 74.21875 
Q 42.671875 74.21875 48.875 69.140625 
Q 55.078125 64.0625 55.078125 55.328125 
Q 55.078125 49.078125 51.53125 44.71875 
Q 48 40.375 41.703125 38.8125 
Q 48.828125 37.15625 52.796875 32.3125 
Q 56.78125 27.484375 56.78125 20.515625 
Q 56.78125 9.90625 50.3125 4.234375 
Q 43.84375 -1.421875 31.78125 -1.421875 
Q 19.734375 -1.421875 13.25 4.234375 
Q 6.78125 9.90625 6.78125 20.515625 
Q 6.78125 27.484375 10.78125 32.3125 
Q 14.796875 37.15625 21.921875 38.8125 
z
M 18.3125 54.390625 
Q 18.3125 48.734375 21.84375 45.5625 
Q 25.390625 42.390625 31.78125 42.390625 
Q 38.140625 42.390625 41.71875 45.5625 
Q 45.3125 48.734375 45.3125 54.390625 
Q 45.3125 60.0625 41.71875 63.234375 
Q 38.140625 66.40625 31.78125 66.40625 
Q 25.390625 66.40625 21.84375 63.234375 
Q 18.3125 60.0625 18.3125 54.390625 
z
" id="DejaVuSans-38"/>
      </defs>
      <g style="fill:#262626;" transform="translate(392.9825 651.229362)scale(0.22 -0.22)">
       <use xlink:href="#DejaVuSans-38"/>
       <use x="63.623047" xlink:href="#DejaVuSans-30"/>
      </g>
     </g>
    </g>
    <g id="xtick_6">
     <g id="line2d_6">
      <g>
       <use style="fill:#262626;stroke:#262626;stroke-width:2.5;" x="485.1" xlink:href="#mefe248fe60" y="619.0128"/>
      </g>
     </g>
     <g id="text_6">
      <!-- 100 -->
      <defs>
       <path d="M 12.40625 8.296875 
L 28.515625 8.296875 
L 28.515625 63.921875 
L 10.984375 60.40625 
L 10.984375 69.390625 
L 28.421875 72.90625 
L 38.28125 72.90625 
L 38.28125 8.296875 
L 54.390625 8.296875 
L 54.390625 0 
L 12.40625 0 
z
" id="DejaVuSans-31"/>
      </defs>
      <g style="fill:#262626;" transform="translate(464.10375 651.229362)scale(0.22 -0.22)">
       <use xlink:href="#DejaVuSans-31"/>
       <use x="63.623047" xlink:href="#DejaVuSans-30"/>
       <use x="127.246094" xlink:href="#DejaVuSans-30"/>
      </g>
     </g>
    </g>
    <g id="xtick_7">
     <g id="line2d_7">
      <g>
       <use style="fill:#262626;stroke:#262626;stroke-width:2.5;" x="563.22" xlink:href="#mefe248fe60" y="619.0128"/>
      </g>
     </g>
     <g id="text_7">
      <!-- 120 -->
      <g style="fill:#262626;" transform="translate(542.22375 651.229362)scale(0.22 -0.22)">
       <use xlink:href="#DejaVuSans-31"/>
       <use x="63.623047" xlink:href="#DejaVuSans-32"/>
       <use x="127.246094" xlink:href="#DejaVuSans-30"/>
      </g>
     </g>
    </g>
    <g id="xtick_8">
     <g id="line2d_8">
      <g>
       <use style="fill:#262626;stroke:#262626;stroke-width:2.5;" x="641.34" xlink:href="#mefe248fe60" y="619.0128"/>
      </g>
     </g>
     <g id="text_8">
      <!-- 140 -->
      <g style="fill:#262626;" transform="translate(620.34375 651.229362)scale(0.22 -0.22)">
       <use xlink:href="#DejaVuSans-31"/>
       <use x="63.623047" xlink:href="#DejaVuSans-34"/>
       <use x="127.246094" xlink:href="#DejaVuSans-30"/>
      </g>
     </g>
    </g>
    <g id="text_9">
     <!-- time -->
     <defs>
      <path d="M 18.3125 70.21875 
L 18.3125 54.6875 
L 36.8125 54.6875 
L 36.8125 47.703125 
L 18.3125 47.703125 
L 18.3125 18.015625 
Q 18.3125 11.328125 20.140625 9.421875 
Q 21.96875 7.515625 27.59375 7.515625 
L 36.8125 7.515625 
L 36.8125 0 
L 27.59375 0 
Q 17.1875 0 13.234375 3.875 
Q 9.28125 7.765625 9.28125 18.015625 
L 9.28125 47.703125 
L 2.6875 47.703125 
L 2.6875 54.6875 
L 9.28125 54.6875 
L 9.28125 70.21875 
z
" id="DejaVuSans-74"/>
      <path d="M 9.421875 54.6875 
L 18.40625 54.6875 
L 18.40625 0 
L 9.421875 0 
z
M 9.421875 75.984375 
L 18.40625 75.984375 
L 18.40625 64.59375 
L 9.421875 64.59375 
z
" id="DejaVuSans-69"/>
      <path d="M 52 44.1875 
Q 55.375 50.25 60.0625 53.125 
Q 64.75 56 71.09375 56 
Q 79.640625 56 84.28125 50.015625 
Q 88.921875 44.046875 88.921875 33.015625 
L 88.921875 0 
L 79.890625 0 
L 79.890625 32.71875 
Q 79.890625 40.578125 77.09375 44.375 
Q 74.3125 48.1875 68.609375 48.1875 
Q 61.625 48.1875 57.5625 43.546875 
Q 53.515625 38.921875 53.515625 30.90625 
L 53.515625 0 
L 44.484375 0 
L 44.484375 32.71875 
Q 44.484375 40.625 41.703125 44.40625 
Q 38.921875 48.1875 33.109375 48.1875 
Q 26.21875 48.1875 22.15625 43.53125 
Q 18.109375 38.875 18.109375 30.90625 
L 18.109375 0 
L 9.078125 0 
L 9.078125 54.6875 
L 18.109375 54.6875 
L 18.109375 46.1875 
Q 21.1875 51.21875 25.484375 53.609375 
Q 29.78125 56 35.6875 56 
Q 41.65625 56 45.828125 52.96875 
Q 50 49.953125 52 44.1875 
z
" id="DejaVuSans-6d"/>
      <path d="M 56.203125 29.59375 
L 56.203125 25.203125 
L 14.890625 25.203125 
Q 15.484375 15.921875 20.484375 11.0625 
Q 25.484375 6.203125 34.421875 6.203125 
Q 39.59375 6.203125 44.453125 7.46875 
Q 49.3125 8.734375 54.109375 11.28125 
L 54.109375 2.78125 
Q 49.265625 0.734375 44.1875 -0.34375 
Q 39.109375 -1.421875 33.890625 -1.421875 
Q 20.796875 -1.421875 13.15625 6.1875 
Q 5.515625 13.8125 5.515625 26.8125 
Q 5.515625 40.234375 12.765625 48.109375 
Q 20.015625 56 32.328125 56 
Q 43.359375 56 49.78125 48.890625 
Q 56.203125 41.796875 56.203125 29.59375 
z
M 47.21875 32.234375 
Q 47.125 39.59375 43.09375 43.984375 
Q 39.0625 48.390625 32.421875 48.390625 
Q 24.90625 48.390625 20.390625 44.140625 
Q 15.875 39.890625 15.1875 32.171875 
z
" id="DejaVuSans-65"/>
     </defs>
     <g style="fill:#262626;" transform="translate(360.339375 678.040925)scale(0.24 -0.24)">
      <use xlink:href="#DejaVuSans-74"/>
      <use x="39.208984" xlink:href="#DejaVuSans-69"/>
      <use x="66.992188" xlink:href="#DejaVuSans-6d"/>
      <use x="164.404297" xlink:href="#DejaVuSans-65"/>
     </g>
    </g>
   </g>
   <g id="matplotlib.axis_2">
    <g id="ytick_1">
     <g id="line2d_9">
      <defs>
       <path d="M 0 0 
L -12 0 
" id="m6914ac507b" style="stroke:#262626;stroke-width:2.5;"/>
      </defs>
      <g>
       <use style="fill:#262626;stroke:#262626;stroke-width:2.5;" x="94.5" xlink:href="#m6914ac507b" y="538.253604"/>
      </g>
     </g>
     <g id="text_10">
      <!-- −1 -->
      <defs>
       <path d="M 10.59375 35.5 
L 73.1875 35.5 
L 73.1875 27.203125 
L 10.59375 27.203125 
z
" id="DejaVuSans-2212"/>
      </defs>
      <g style="fill:#262626;" transform="translate(46.567188 546.611886)scale(0.22 -0.22)">
       <use xlink:href="#DejaVuSans-2212"/>
       <use x="83.789062" xlink:href="#DejaVuSans-31"/>
      </g>
     </g>
    </g>
    <g id="ytick_2">
     <g id="line2d_10">
      <g>
       <use style="fill:#262626;stroke:#262626;stroke-width:2.5;" x="94.5" xlink:href="#m6914ac507b" y="449.01959"/>
      </g>
     </g>
     <g id="text_11">
      <!-- 0 -->
      <g style="fill:#262626;" transform="translate(65.0025 457.377871)scale(0.22 -0.22)">
       <use xlink:href="#DejaVuSans-30"/>
      </g>
     </g>
    </g>
    <g id="ytick_3">
     <g id="line2d_11">
      <g>
       <use style="fill:#262626;stroke:#262626;stroke-width:2.5;" x="94.5" xlink:href="#m6914ac507b" y="359.785576"/>
      </g>
     </g>
     <g id="text_12">
      <!-- 1 -->
      <g style="fill:#262626;" transform="translate(65.0025 368.143857)scale(0.22 -0.22)">
       <use xlink:href="#DejaVuSans-31"/>
      </g>
     </g>
    </g>
    <g id="ytick_4">
     <g id="line2d_12">
      <g>
       <use style="fill:#262626;stroke:#262626;stroke-width:2.5;" x="94.5" xlink:href="#m6914ac507b" y="270.551562"/>
      </g>
     </g>
     <g id="text_13">
      <!-- 2 -->
      <g style="fill:#262626;" transform="translate(65.0025 278.909843)scale(0.22 -0.22)">
       <use xlink:href="#DejaVuSans-32"/>
      </g>
     </g>
    </g>
    <g id="ytick_5">
     <g id="line2d_13">
      <g>
       <use style="fill:#262626;stroke:#262626;stroke-width:2.5;" x="94.5" xlink:href="#m6914ac507b" y="181.317548"/>
      </g>
     </g>
     <g id="text_14">
      <!-- 3 -->
      <defs>
       <path d="M 40.578125 39.3125 
Q 47.65625 37.796875 51.625 33 
Q 55.609375 28.21875 55.609375 21.1875 
Q 55.609375 10.40625 48.1875 4.484375 
Q 40.765625 -1.421875 27.09375 -1.421875 
Q 22.515625 -1.421875 17.65625 -0.515625 
Q 12.796875 0.390625 7.625 2.203125 
L 7.625 11.71875 
Q 11.71875 9.328125 16.59375 8.109375 
Q 21.484375 6.890625 26.8125 6.890625 
Q 36.078125 6.890625 40.9375 10.546875 
Q 45.796875 14.203125 45.796875 21.1875 
Q 45.796875 27.640625 41.28125 31.265625 
Q 36.765625 34.90625 28.71875 34.90625 
L 20.21875 34.90625 
L 20.21875 43.015625 
L 29.109375 43.015625 
Q 36.375 43.015625 40.234375 45.921875 
Q 44.09375 48.828125 44.09375 54.296875 
Q 44.09375 59.90625 40.109375 62.90625 
Q 36.140625 65.921875 28.71875 65.921875 
Q 24.65625 65.921875 20.015625 65.03125 
Q 15.375 64.15625 9.8125 62.3125 
L 9.8125 71.09375 
Q 15.4375 72.65625 20.34375 73.4375 
Q 25.25 74.21875 29.59375 74.21875 
Q 40.828125 74.21875 47.359375 69.109375 
Q 53.90625 64.015625 53.90625 55.328125 
Q 53.90625 49.265625 50.4375 45.09375 
Q 46.96875 40.921875 40.578125 39.3125 
z
" id="DejaVuSans-33"/>
      </defs>
      <g style="fill:#262626;" transform="translate(65.0025 189.675829)scale(0.22 -0.22)">
       <use xlink:href="#DejaVuSans-33"/>
      </g>
     </g>
    </g>
    <g id="ytick_6">
     <g id="line2d_14">
      <g>
       <use style="fill:#262626;stroke:#262626;stroke-width:2.5;" x="94.5" xlink:href="#m6914ac507b" y="92.083533"/>
      </g>
     </g>
     <g id="text_15">
      <!-- 4 -->
      <g style="fill:#262626;" transform="translate(65.0025 100.441815)scale(0.22 -0.22)">
       <use xlink:href="#DejaVuSans-34"/>
      </g>
     </g>
    </g>
    <g id="text_16">
     <!-- velocity -->
     <defs>
      <path d="M 2.984375 54.6875 
L 12.5 54.6875 
L 29.59375 8.796875 
L 46.6875 54.6875 
L 56.203125 54.6875 
L 35.6875 0 
L 23.484375 0 
z
" id="DejaVuSans-76"/>
      <path d="M 9.421875 75.984375 
L 18.40625 75.984375 
L 18.40625 0 
L 9.421875 0 
z
" id="DejaVuSans-6c"/>
      <path d="M 30.609375 48.390625 
Q 23.390625 48.390625 19.1875 42.75 
Q 14.984375 37.109375 14.984375 27.296875 
Q 14.984375 17.484375 19.15625 11.84375 
Q 23.34375 6.203125 30.609375 6.203125 
Q 37.796875 6.203125 41.984375 11.859375 
Q 46.1875 17.53125 46.1875 27.296875 
Q 46.1875 37.015625 41.984375 42.703125 
Q 37.796875 48.390625 30.609375 48.390625 
z
M 30.609375 56 
Q 42.328125 56 49.015625 48.375 
Q 55.71875 40.765625 55.71875 27.296875 
Q 55.71875 13.875 49.015625 6.21875 
Q 42.328125 -1.421875 30.609375 -1.421875 
Q 18.84375 -1.421875 12.171875 6.21875 
Q 5.515625 13.875 5.515625 27.296875 
Q 5.515625 40.765625 12.171875 48.375 
Q 18.84375 56 30.609375 56 
z
" id="DejaVuSans-6f"/>
      <path d="M 48.78125 52.59375 
L 48.78125 44.1875 
Q 44.96875 46.296875 41.140625 47.34375 
Q 37.3125 48.390625 33.40625 48.390625 
Q 24.65625 48.390625 19.8125 42.84375 
Q 14.984375 37.3125 14.984375 27.296875 
Q 14.984375 17.28125 19.8125 11.734375 
Q 24.65625 6.203125 33.40625 6.203125 
Q 37.3125 6.203125 41.140625 7.25 
Q 44.96875 8.296875 48.78125 10.40625 
L 48.78125 2.09375 
Q 45.015625 0.34375 40.984375 -0.53125 
Q 36.96875 -1.421875 32.421875 -1.421875 
Q 20.0625 -1.421875 12.78125 6.34375 
Q 5.515625 14.109375 5.515625 27.296875 
Q 5.515625 40.671875 12.859375 48.328125 
Q 20.21875 56 33.015625 56 
Q 37.15625 56 41.109375 55.140625 
Q 45.0625 54.296875 48.78125 52.59375 
z
" id="DejaVuSans-63"/>
      <path d="M 32.171875 -5.078125 
Q 28.375 -14.84375 24.75 -17.8125 
Q 21.140625 -20.796875 15.09375 -20.796875 
L 7.90625 -20.796875 
L 7.90625 -13.28125 
L 13.1875 -13.28125 
Q 16.890625 -13.28125 18.9375 -11.515625 
Q 21 -9.765625 23.484375 -3.21875 
L 25.09375 0.875 
L 2.984375 54.6875 
L 12.5 54.6875 
L 29.59375 11.921875 
L 46.6875 54.6875 
L 56.203125 54.6875 
z
" id="DejaVuSans-79"/>
     </defs>
     <g style="fill:#262626;" transform="translate(37.575937 398.13885)rotate(-90)scale(0.24 -0.24)">
      <use xlink:href="#DejaVuSans-76"/>
      <use x="59.179688" xlink:href="#DejaVuSans-65"/>
      <use x="120.703125" xlink:href="#DejaVuSans-6c"/>
      <use x="148.486328" xlink:href="#DejaVuSans-6f"/>
      <use x="209.667969" xlink:href="#DejaVuSans-63"/>
      <use x="264.648438" xlink:href="#DejaVuSans-69"/>
      <use x="292.431641" xlink:href="#DejaVuSans-74"/>
      <use x="331.640625" xlink:href="#DejaVuSans-79"/>
     </g>
    </g>
   </g>
   <g id="line2d_15">
    <path clip-path="url(#p0911ba8f7e)" d="M 95.224091 421.98502 
L 98.128416 421.686883 
L 108.86033 418.850342 
L 126.521125 413.78172 
L 138.161791 410.031534 
L 146.971963 407.619281 
L 148.87346 406.772623 
L 152.399313 405.91144 
L 154.052497 405.197778 
L 155.646957 404.809879 
L 157.189037 403.901865 
L 158.685156 403.39297 
L 160.138968 402.488782 
L 164.275448 400.250236 
L 165.594628 399.49269 
L 166.887966 398.986728 
L 169.401426 397.622994 
L 170.618387 397.221475 
L 171.807137 396.644846 
L 174.103237 396.056559 
L 175.213132 395.482017 
L 176.298466 395.258148 
L 177.362183 394.734788 
L 178.403938 394.829921 
L 179.423904 394.073742 
L 180.421786 394.434523 
L 181.400681 393.52477 
L 182.360973 393.876044 
L 184.234638 393.310093 
L 185.150536 393.685858 
L 186.053595 392.708715 
L 186.945185 393.197841 
L 188.698668 392.380408 
L 189.562463 392.74837 
L 190.418277 391.545433 
L 191.268169 392.179013 
L 192.11111 391.352416 
L 192.949227 390.899887 
L 193.782345 391.26575 
L 194.611536 389.471368 
L 195.437986 389.653041 
L 196.260979 389.045129 
L 197.082793 388.00564 
L 197.901765 388.101111 
L 198.720384 386.714669 
L 200.356191 385.923575 
L 201.173513 384.96396 
L 201.991843 385.383422 
L 202.813309 383.643939 
L 203.637236 384.073804 
L 205.294949 382.922411 
L 206.128866 382.792706 
L 206.9679 381.970712 
L 207.80985 382.200725 
L 208.657941 381.034967 
L 209.511229 381.691786 
L 210.369816 380.129358 
L 211.23497 380.694983 
L 212.107612 379.579455 
L 212.985765 379.580215 
L 213.869214 378.43585 
L 214.756773 378.511759 
L 215.649998 377.060642 
L 216.548384 377.698028 
L 217.452112 376.279925 
L 218.362089 376.617503 
L 219.277453 375.740249 
L 220.19851 375.668884 
L 221.126942 375.434393 
L 222.061744 374.885991 
L 223.003645 374.889817 
L 223.953507 374.166247 
L 224.911447 374.300339 
L 225.877108 373.62649 
L 226.850701 373.628369 
L 228.824995 372.916981 
L 229.827382 373.090403 
L 230.838378 372.456607 
L 232.916086 371.644855 
L 233.980612 370.924056 
L 235.068223 370.688389 
L 236.178227 370.12046 
L 237.3084 369.374121 
L 238.458857 369.098993 
L 239.626974 369.124729 
L 240.807383 368.858445 
L 242.000808 368.803269 
L 243.203203 369.007977 
L 244.411195 369.513222 
L 245.622603 369.753456 
L 246.83448 370.15061 
L 248.044316 370.841677 
L 249.249731 371.715364 
L 251.647091 372.790151 
L 252.83685 373.575022 
L 254.022227 374.51286 
L 255.204739 374.479321 
L 257.562028 375.682484 
L 259.916355 375.66889 
L 261.09424 376.378132 
L 262.27397 376.113068 
L 265.812501 376.147665 
L 266.982469 375.91109 
L 268.139321 376.014202 
L 269.278036 376.355312 
L 270.396353 376.350087 
L 271.488231 377.331484 
L 272.549917 377.561669 
L 273.576317 378.337343 
L 274.564795 380.30055 
L 275.516009 380.640099 
L 276.434035 383.487379 
L 277.322746 383.554223 
L 278.187738 386.464797 
L 279.031611 387.721972 
L 279.858321 388.357275 
L 280.670893 391.557055 
L 281.472504 390.45572 
L 283.054693 394.973588 
L 283.839234 392.301184 
L 284.622581 394.838718 
L 285.404683 396.519707 
L 286.188272 393.037532 
L 286.974423 395.30978 
L 287.763127 396.795132 
L 288.555606 392.895782 
L 289.351603 395.069401 
L 290.150048 396.373896 
L 290.953648 392.082356 
L 291.762181 394.289022 
L 292.575069 395.51929 
L 293.395194 391.122085 
L 294.222576 393.246218 
L 295.056962 392.361474 
L 295.899382 390.147547 
L 296.747486 392.186079 
L 297.603449 389.402776 
L 298.464463 390.654955 
L 299.329025 391.470401 
L 300.198174 388.803983 
L 301.069394 391.375622 
L 301.942733 389.363269 
L 302.816919 390.32785 
L 303.693928 391.126334 
L 304.571944 388.526827 
L 305.450842 391.39954 
L 306.334089 388.751349 
L 307.220441 390.161702 
L 308.109935 389.900203 
L 309.006192 388.661265 
L 309.910143 390.74092 
L 310.823476 386.968486 
L 311.749036 388.903396 
L 312.688315 385.965479 
L 313.643194 386.80285 
L 314.612332 384.72308 
L 315.591007 385.2562 
L 316.578697 384.0134 
L 317.572455 385.034192 
L 318.572898 383.554287 
L 319.576935 384.628351 
L 320.585841 383.057057 
L 321.597287 384.500905 
L 322.612412 382.147119 
L 323.629192 384.468346 
L 324.645842 381.754512 
L 325.661875 384.735098 
L 326.67492 381.451985 
L 327.684336 384.837192 
L 328.688417 381.756913 
L 329.688514 384.27457 
L 330.68237 382.234329 
L 331.670054 384.354489 
L 332.650509 382.77964 
L 333.622827 384.977301 
L 334.587857 384.222532 
L 335.542997 385.800614 
L 336.489163 384.386946 
L 337.422132 387.913561 
L 338.34546 384.952165 
L 339.257264 388.827164 
L 340.15921 386.711007 
L 341.049695 389.645317 
L 341.931734 388.679409 
L 342.802345 390.060884 
L 343.663804 393.283363 
L 344.516299 390.286234 
L 345.359207 394.253266 
L 346.193517 394.681082 
L 347.018545 394.025884 
L 347.83559 397.341315 
L 348.64603 396.130793 
L 349.446917 396.389313 
L 350.24145 399.609401 
L 351.030434 397.645707 
L 351.814505 398.001749 
L 352.596278 400.93892 
L 353.372345 400.402819 
L 354.146556 398.808869 
L 354.919934 401.477014 
L 355.692521 403.199172 
L 356.461509 399.318532 
L 357.230314 400.98582 
L 357.999512 402.967221 
L 358.770842 401.015664 
L 359.543837 400.065819 
L 360.319676 401.925709 
L 361.099252 401.654134 
L 361.884062 398.90248 
L 362.674345 400.234477 
L 363.472706 401.330748 
L 364.277208 397.662447 
L 365.088374 398.600834 
L 365.906413 399.946989 
L 366.731079 396.393652 
L 367.565613 397.444364 
L 368.407888 399.01568 
L 369.254833 395.927053 
L 370.967337 396.825652 
L 371.831392 394.145954 
L 372.701672 395.453015 
L 373.578094 394.571079 
L 374.459873 393.320041 
L 375.347982 394.979136 
L 376.242055 391.97636 
L 377.140672 393.003386 
L 378.04578 392.37415 
L 378.955115 391.218565 
L 379.867299 392.173824 
L 380.781791 390.067561 
L 381.697914 391.344514 
L 382.616333 389.933291 
L 383.533557 390.48118 
L 384.449993 390.673837 
L 385.365513 389.54207 
L 386.278662 390.777268 
L 387.189042 389.042479 
L 388.096129 391.033544 
L 389.001204 390.704249 
L 389.901856 391.555877 
L 390.797206 391.916701 
L 391.687326 391.014853 
L 392.571038 393.100006 
L 393.447138 391.637805 
L 394.313639 392.87382 
L 395.169524 392.81529 
L 396.013369 392.48642 
L 396.845135 394.06766 
L 397.663094 392.937726 
L 398.467488 393.502971 
L 399.257086 395.23445 
L 400.031927 393.384693 
L 400.794299 394.600127 
L 401.545016 396.113703 
L 402.287973 394.187982 
L 403.024581 395.341488 
L 403.754542 397.248753 
L 404.479156 395.353118 
L 405.198574 396.319219 
L 405.913121 398.339744 
L 407.339455 397.679149 
L 408.056773 399.629141 
L 408.77399 400.985109 
L 409.491254 399.397586 
L 410.208433 400.27984 
L 410.924464 402.016415 
L 412.3434 401.290151 
L 413.051965 402.417338 
L 413.759529 404.56604 
L 414.464665 402.948223 
L 415.169447 403.315315 
L 415.872775 404.292967 
L 416.570014 406.483375 
L 417.260436 405.586613 
L 417.945572 406.371704 
L 418.627291 408.021761 
L 419.306761 410.796783 
L 419.984894 411.581805 
L 420.662053 410.384799 
L 421.339064 411.210252 
L 422.015627 413.222222 
L 422.696524 417.450378 
L 423.382937 420.093079 
L 424.07298 416.841296 
L 426.188998 422.411539 
L 426.914168 425.187604 
L 427.648966 427.337386 
L 428.392899 426.965825 
L 429.149114 428.255407 
L 429.917818 430.750754 
L 430.701424 432.717795 
L 432.319122 437.638422 
L 433.154449 439.921769 
L 434.873291 444.99537 
L 435.763303 447.388298 
L 437.583155 453.196189 
L 438.505879 455.68629 
L 443.170679 470.254852 
L 446.904506 480.58483 
L 448.7782 486.187261 
L 451.603524 494.592134 
L 456.36945 507.841536 
L 459.274482 515.510486 
L 463.216536 524.972722 
L 464.215435 526.847405 
L 465.220701 529.477584 
L 467.249189 533.024783 
L 468.273741 534.98277 
L 469.304254 536.392056 
L 470.342293 538.293258 
L 471.387515 539.919512 
L 473.499352 542.640041 
L 477.816784 547.457516 
L 478.916479 548.492995 
L 481.140433 550.102618 
L 482.265046 550.781778 
L 486.837724 552.80991 
L 487.996466 553.275478 
L 491.506105 553.655659 
L 492.686276 553.945654 
L 497.472736 553.880681 
L 502.355778 553.029844 
L 504.837742 552.513209 
L 507.349005 551.921842 
L 509.891604 551.353422 
L 515.050598 549.005631 
L 517.66678 547.172135 
L 518.986975 546.179528 
L 520.312922 544.734399 
L 521.638979 542.611052 
L 522.959782 539.435046 
L 524.267061 535.33008 
L 525.528578 527.626666 
L 526.676715 519.880259 
L 528.801366 509.562495 
L 529.852904 506.5745 
L 530.926355 504.071593 
L 533.123177 500.528575 
L 534.218426 498.993497 
L 535.313299 497.773397 
L 536.407118 496.371093 
L 537.500483 495.514117 
L 538.596806 494.316122 
L 539.69472 493.374344 
L 540.797487 492.651475 
L 541.907046 491.721268 
L 543.022824 490.936236 
L 544.143317 490.33364 
L 545.269598 489.444422 
L 546.403483 488.934881 
L 549.860461 487.057106 
L 551.031756 486.498968 
L 552.215143 485.733414 
L 553.409282 485.408073 
L 555.833488 484.216775 
L 557.063039 483.888782 
L 558.307278 483.428995 
L 559.558514 482.781731 
L 562.071162 482.11275 
L 563.333019 481.477092 
L 564.598766 481.10784 
L 565.868268 480.960432 
L 567.141958 480.265982 
L 568.419718 479.879494 
L 569.700502 479.727482 
L 572.274394 478.827868 
L 574.867221 478.41071 
L 576.171066 477.950803 
L 577.480408 477.618022 
L 578.795189 477.545957 
L 581.441742 476.775425 
L 582.774367 476.547274 
L 584.112587 476.49141 
L 585.457949 476.063148 
L 586.810283 475.788228 
L 589.535652 475.500308 
L 592.283768 474.779762 
L 595.051955 474.460128 
L 597.847472 473.79576 
L 600.668558 473.598667 
L 603.518573 472.860511 
L 604.954343 472.721124 
L 606.397027 472.719978 
L 607.847426 472.438361 
L 609.305838 472.017433 
L 610.771838 471.820382 
L 612.245319 471.832398 
L 613.726295 471.623711 
L 615.215912 471.180539 
L 616.714132 470.953053 
L 618.219782 471.06755 
L 619.733657 470.944121 
L 621.255413 470.526682 
L 622.785612 470.223529 
L 624.324218 470.308692 
L 625.871471 470.175062 
L 628.993695 469.513702 
L 632.151202 469.612963 
L 635.347667 468.851528 
L 638.581844 468.955162 
L 640.214212 468.714767 
L 641.857288 468.332719 
L 643.510348 468.220423 
L 645.173514 468.269758 
L 646.846557 468.104129 
L 648.530926 467.732653 
L 650.226969 467.549204 
L 651.93324 467.660178 
L 653.649749 467.596802 
L 657.118972 466.915378 
L 660.634875 466.975541 
L 665.999683 466.253354 
L 667.81232 466.350258 
L 669.637992 466.176418 
L 671.476651 465.871063 
L 673.329175 465.687499 
L 677.072446 465.735572 
L 682.784176 465.057562 
L 684.710367 465.142811 
L 686.644607 465.077149 
L 690.550747 464.518411 
L 692.521887 464.497959 
L 694.506219 464.605281 
L 696.503176 464.397363 
L 698.511077 464.061864 
L 700.534567 463.882486 
L 704.61347 463.922779 
L 708.751189 463.39537 
L 717.195737 462.933448 
L 721.509628 462.648312 
L 723.691744 462.61446 
L 732.571877 462.038447 
L 737.117092 461.858321 
L 757 460.954773 
L 757 460.954773 
" style="fill:none;stroke:#66c2a5;stroke-linecap:round;stroke-width:3;"/>
   </g>
   <g id="line2d_16">
    <path clip-path="url(#p0911ba8f7e)" d="M 95.224091 427.718922 
L 98.128416 427.948358 
L 105.308496 428.185754 
L 108.86033 428.044922 
L 112.42893 427.727871 
L 115.988909 427.205617 
L 123.054965 425.689139 
L 126.521125 424.798414 
L 129.769253 423.703773 
L 132.777677 422.351581 
L 135.568951 420.935788 
L 138.161791 419.492145 
L 140.581614 417.816038 
L 142.845371 415.923548 
L 144.966726 413.893461 
L 148.87346 409.78132 
L 150.677016 407.390107 
L 154.052497 402.564132 
L 155.646957 399.897227 
L 157.189037 397.562141 
L 162.928752 386.882393 
L 168.157767 375.769691 
L 169.401426 372.918728 
L 172.96806 363.655629 
L 177.362183 351.417424 
L 178.403938 347.879567 
L 179.423904 345.411361 
L 180.421786 341.581613 
L 181.400681 339.441813 
L 182.360973 335.796763 
L 184.234638 330.449176 
L 185.150536 327.317078 
L 186.053595 325.40413 
L 186.945185 322.226507 
L 188.698668 318.164859 
L 189.562463 315.644099 
L 190.418277 314.78246 
L 191.268169 312.576317 
L 192.11111 311.585237 
L 192.949227 310.795116 
L 193.782345 309.150194 
L 194.611536 310.168125 
L 195.437986 309.483532 
L 196.260979 309.625219 
L 197.082793 310.652157 
L 197.901765 310.559373 
L 198.720384 312.41113 
L 200.356191 313.719669 
L 201.173513 314.933777 
L 201.991843 314.628614 
L 202.813309 316.571235 
L 203.637236 316.027977 
L 205.294949 317.339303 
L 206.128866 317.634396 
L 206.9679 318.683721 
L 207.80985 318.668359 
L 208.657941 320.305217 
L 209.511229 320.130465 
L 210.369816 322.307645 
L 211.23497 322.27648 
L 212.107612 324.415429 
L 212.985765 325.219935 
L 213.869214 327.566716 
L 214.756773 328.527575 
L 215.649998 331.323904 
L 216.548384 331.833215 
L 217.452112 334.395821 
L 218.362089 335.271123 
L 219.277453 337.182293 
L 220.19851 338.283077 
L 222.061744 341.4853 
L 223.003645 342.646084 
L 223.953507 344.791113 
L 224.911447 346.018355 
L 225.877108 347.956523 
L 226.850701 349.306764 
L 230.838378 356.430599 
L 235.068223 371.33977 
L 237.3084 380.659114 
L 238.458857 384.704073 
L 239.626974 387.841028 
L 242.000808 392.312734 
L 243.203203 393.546201 
L 244.411195 393.757006 
L 245.622603 393.800637 
L 246.83448 393.013584 
L 248.044316 391.299163 
L 251.647091 384.185413 
L 254.022227 378.189693 
L 255.204739 376.288064 
L 257.562028 371.126521 
L 259.916355 367.45381 
L 261.09424 365.019424 
L 262.27397 363.607948 
L 263.454986 361.943231 
L 264.635383 360.026132 
L 266.982469 355.390489 
L 268.139321 351.954048 
L 270.396353 343.52 
L 272.549917 331.49774 
L 273.576317 324.170189 
L 275.516009 308.291548 
L 276.434035 298.479012 
L 277.322746 291.46964 
L 278.187738 282.294577 
L 279.031611 274.958699 
L 279.858321 268.918191 
L 280.670893 260.963263 
L 281.472504 257.905806 
L 283.054693 247.582485 
L 283.839234 248.465826 
L 284.622581 244.87597 
L 285.404683 242.300944 
L 286.188272 245.726287 
L 286.974423 243.814431 
L 287.763127 242.898541 
L 288.555606 247.742125 
L 289.351603 246.688183 
L 290.150048 246.297142 
L 290.953648 252.267852 
L 291.762181 251.708835 
L 292.575069 252.083145 
L 293.395194 258.865134 
L 294.222576 259.252478 
L 295.056962 262.50148 
L 295.899382 267.457484 
L 296.747486 267.456682 
L 297.603449 272.742153 
L 299.329025 273.452726 
L 300.198174 277.523395 
L 301.069394 275.520803 
L 301.942733 278.113977 
L 302.816919 277.281429 
L 303.693928 277.252422 
L 304.571944 279.92798 
L 305.450842 277.216866 
L 306.334089 280.924121 
L 307.220441 280.231782 
L 308.109935 281.080002 
L 309.006192 283.97119 
L 309.910143 283.653421 
L 310.823476 289.495519 
L 311.749036 290.522952 
L 312.688315 296.487873 
L 313.643194 299.055114 
L 314.612332 303.779875 
L 315.591007 304.574326 
L 316.578697 307.044854 
L 317.572455 306.484334 
L 318.572898 308.591841 
L 319.576935 307.404099 
L 320.585841 309.191331 
L 321.597287 307.374096 
L 322.612412 309.616482 
L 323.629192 306.715063 
L 324.645842 308.775828 
L 325.661875 305.192252 
L 326.67492 307.625695 
L 327.684336 303.253758 
L 328.688417 304.992941 
L 329.688514 301.531835 
L 330.68237 301.986254 
L 331.670054 298.292097 
L 332.650509 298.044941 
L 333.622827 293.97235 
L 334.587857 292.480081 
L 335.542997 288.560822 
L 336.489163 287.514654 
L 337.422132 280.919573 
L 338.34546 281.243813 
L 339.257264 274.36622 
L 340.15921 273.653445 
L 341.049695 267.433889 
L 341.931734 265.654277 
L 342.802345 260.908662 
L 343.663804 254.842663 
L 344.516299 254.75819 
L 345.359207 247.810702 
L 346.193517 244.495445 
L 347.018545 242.129688 
L 347.83559 236.054943 
L 348.64603 235.073104 
L 349.446917 231.894586 
L 350.24145 226.788067 
L 351.030434 226.678431 
L 351.814505 224.448735 
L 352.596278 220.367919 
L 353.372345 218.714035 
L 354.146556 219.099067 
L 354.919934 215.73477 
L 355.692521 213.245344 
L 356.461509 216.026423 
L 357.999512 213.092949 
L 358.770842 215.908395 
L 359.543837 217.649274 
L 360.319676 217.351672 
L 361.099252 218.908857 
L 361.884062 223.052901 
L 362.674345 223.397949 
L 363.472706 224.576344 
L 364.277208 230.234721 
L 365.906413 232.893717 
L 366.731079 238.620916 
L 367.565613 240.732952 
L 368.407888 241.871897 
L 369.254833 246.874881 
L 370.10887 249.119067 
L 370.967337 250.419746 
L 371.831392 254.988323 
L 372.701672 255.613046 
L 374.459873 260.944364 
L 375.347982 260.460457 
L 376.242055 264.677055 
L 377.140672 264.471101 
L 378.955115 267.796949 
L 379.867299 267.033352 
L 380.781791 269.354386 
L 381.697914 267.971786 
L 382.616333 269.363331 
L 383.533557 268.307061 
L 384.449993 267.665189 
L 385.365513 267.971641 
L 386.278662 265.87855 
L 387.189042 266.577107 
L 388.096129 263.363758 
L 389.001204 262.630995 
L 390.797206 258.702012 
L 391.687326 258.184462 
L 392.571038 254.654037 
L 393.447138 254.478487 
L 394.313639 251.823492 
L 395.169524 250.054976 
L 396.013369 248.732569 
L 396.845135 245.664001 
L 397.663094 244.907577 
L 398.467488 242.722271 
L 399.257086 239.176607 
L 400.031927 239.099975 
L 400.794299 236.309604 
L 401.545016 232.811286 
L 402.287973 232.694945 
L 403.024581 229.630374 
L 403.754542 225.634054 
L 404.479156 225.43405 
L 405.198574 222.441413 
L 405.913121 218.053586 
L 407.339455 213.486769 
L 408.77399 205.476609 
L 409.491254 204.018132 
L 410.208433 200.727189 
L 410.924464 196.388691 
L 411.635255 193.724667 
L 412.3434 191.746052 
L 413.051965 188.678973 
L 413.759529 184.173901 
L 414.464665 182.929253 
L 415.872775 178.487916 
L 416.570014 174.461069 
L 417.260436 173.814747 
L 418.627291 170.933977 
L 419.306761 168.115541 
L 419.984894 166.761139 
L 420.662053 168.268631 
L 421.339064 168.786999 
L 422.015627 167.555796 
L 422.696524 165.11846 
L 423.382937 164.17413 
L 424.07298 169.109245 
L 425.473497 170.483149 
L 426.188998 171.817321 
L 426.914168 171.470907 
L 427.648966 172.838029 
L 428.392899 176.292552 
L 429.149114 179.120027 
L 429.917818 180.11261 
L 430.701424 182.207318 
L 431.500596 183.477288 
L 432.319122 185.751457 
L 433.154449 187.405584 
L 434.004811 188.210645 
L 434.873291 189.254018 
L 435.763303 191.267395 
L 436.668052 191.43494 
L 438.505879 193.358586 
L 439.43593 193.645643 
L 442.237969 193.088607 
L 443.170679 192.517553 
L 444.103476 191.626679 
L 445.03651 190.462126 
L 446.904506 187.520297 
L 448.7782 183.633888 
L 454.453051 168.524654 
L 456.36945 162.414538 
L 457.333498 160.038042 
L 460.252518 151.033277 
L 463.216536 142.793738 
L 464.215435 140.204333 
L 465.220701 137.268064 
L 468.273741 130.599947 
L 469.304254 128.917764 
L 471.387515 125.282109 
L 472.439818 123.854349 
L 474.566606 121.575188 
L 475.641993 120.555624 
L 476.725406 119.737317 
L 478.916479 118.770717 
L 481.140433 118.722727 
L 482.265046 118.866839 
L 483.398253 119.171504 
L 485.685342 120.299363 
L 487.996466 121.828082 
L 492.686276 126.002321 
L 496.266204 130.092363 
L 499.902959 134.435594 
L 503.59307 139.26648 
L 508.616365 146.255056 
L 509.891604 148.228144 
L 511.174264 150.51889 
L 512.461058 153.207666 
L 513.752761 156.694699 
L 515.050598 161.105786 
L 516.355 166.403728 
L 517.66678 172.942567 
L 518.986975 181.672962 
L 520.312922 192.949774 
L 521.638979 208.239312 
L 522.959782 228.341831 
L 524.267061 254.986336 
L 527.753402 344.229596 
L 528.801366 360.819864 
L 529.852904 371.984492 
L 530.926355 378.920402 
L 532.024537 383.524543 
L 533.123177 387.389466 
L 534.218426 389.956724 
L 535.313299 391.848283 
L 536.407118 393.338645 
L 538.596806 395.267099 
L 539.69472 395.52782 
L 540.797487 396.013193 
L 543.022824 396.55486 
L 545.269598 396.520668 
L 546.403483 396.864547 
L 547.547652 396.584096 
L 548.696622 396.60115 
L 549.860461 396.901753 
L 552.215143 396.629016 
L 553.409282 396.915875 
L 555.833488 396.576127 
L 557.063039 396.819193 
L 559.558514 396.612624 
L 560.813276 396.877354 
L 562.071162 396.944193 
L 563.333019 396.744141 
L 564.598766 396.942501 
L 565.868268 397.391966 
L 567.141958 396.900268 
L 568.419718 397.040634 
L 569.700502 397.566209 
L 570.985128 397.443738 
L 572.274394 397.478141 
L 573.568519 397.767464 
L 574.867221 398.21208 
L 576.171066 398.04388 
L 577.480408 398.12327 
L 578.795189 398.895475 
L 580.115842 398.708688 
L 581.441742 398.777572 
L 582.774367 399.077042 
L 584.112587 399.711729 
L 585.457949 399.507921 
L 586.810283 399.667574 
L 588.169399 400.215501 
L 589.535652 400.50577 
L 592.283768 400.317285 
L 593.664766 400.806633 
L 595.051955 401.125021 
L 597.847472 401.255924 
L 599.254571 401.791134 
L 600.668558 402.133376 
L 602.089729 402.217076 
L 603.518573 402.126713 
L 604.954343 402.501772 
L 606.397027 403.178599 
L 607.847426 403.390658 
L 609.305838 403.24744 
L 610.771838 403.47426 
L 612.245319 404.213013 
L 613.726295 404.521622 
L 615.215912 404.277214 
L 616.714132 404.463501 
L 618.219782 405.320054 
L 619.733657 405.8179 
L 621.255413 405.5957 
L 622.785612 405.660293 
L 624.324218 406.544924 
L 625.871471 406.948273 
L 627.428107 406.860421 
L 628.993695 406.895551 
L 630.568052 407.793318 
L 632.151202 408.396689 
L 635.347667 408.137233 
L 638.581844 409.758607 
L 640.214212 409.941356 
L 641.857288 409.849221 
L 643.510348 410.327638 
L 645.173514 411.154394 
L 646.846557 411.488738 
L 648.530926 411.371452 
L 650.226969 411.708745 
L 651.93324 412.567237 
L 653.649749 413.075963 
L 657.118972 412.953372 
L 660.634875 414.425537 
L 662.410767 414.563143 
L 664.198551 414.468379 
L 665.999683 414.908838 
L 667.81232 415.799068 
L 669.637992 416.08529 
L 671.476651 416.066722 
L 673.329175 416.357638 
L 677.072446 417.821741 
L 680.868479 417.82803 
L 682.784176 418.248819 
L 684.710367 419.101517 
L 686.644607 419.526313 
L 688.591329 419.485611 
L 690.550747 419.625116 
L 692.521887 420.259482 
L 694.506219 421.064237 
L 696.503176 421.203158 
L 698.511077 421.105956 
L 700.534567 421.381863 
L 702.568147 422.115436 
L 704.61347 422.647294 
L 708.751189 422.82356 
L 715.061564 424.100787 
L 717.195737 424.247088 
L 721.509628 424.916208 
L 723.691744 425.341231 
L 728.096513 425.814811 
L 748.792204 428.630436 
L 753.601494 429.171568 
L 757 429.696205 
L 757 429.696205 
" style="fill:none;stroke:#66c2a5;stroke-dasharray:12,4.5;stroke-dashoffset:0;stroke-width:3;"/>
   </g>
   <g id="line2d_17">
    <path clip-path="url(#p0911ba8f7e)" d="M 94.975819 416.68659 
L 96.875613 416.510954 
L 108.343575 413.537881 
L 110.543063 413.238533 
L 112.708822 411.997236 
L 114.838565 411.787854 
L 116.93597 411.082901 
L 118.997685 410.145022 
L 120.986453 409.584047 
L 122.889463 408.747874 
L 126.440158 407.760511 
L 128.098452 406.583131 
L 129.684343 406.544191 
L 131.202532 405.482552 
L 132.659246 405.561549 
L 134.054849 404.455543 
L 135.394668 404.580453 
L 136.683687 403.502451 
L 137.925121 403.557354 
L 139.120289 402.648219 
L 140.275101 402.730959 
L 141.391341 402.115891 
L 142.476011 401.819123 
L 143.523568 401.664198 
L 144.540801 401.032404 
L 145.52973 401.129042 
L 146.491808 400.583027 
L 147.431286 400.233435 
L 148.348569 400.425847 
L 149.245691 399.542516 
L 150.125515 399.460459 
L 150.987758 399.495354 
L 151.834316 398.671714 
L 152.666809 398.512247 
L 153.484222 398.590901 
L 154.288025 397.576418 
L 155.860373 397.389925 
L 156.630582 396.431344 
L 157.391353 396.130679 
L 158.143042 396.296941 
L 158.885535 395.130227 
L 159.621504 395.113718 
L 160.348385 395.212862 
L 161.068756 394.247495 
L 161.782523 394.013193 
L 162.488733 394.13075 
L 163.881376 392.945017 
L 164.566929 393.065562 
L 165.244256 392.890876 
L 165.913913 392.155393 
L 166.575412 392.102312 
L 167.228507 392.528522 
L 167.874447 391.579034 
L 168.511752 391.270367 
L 169.141263 391.752841 
L 169.764029 391.35215 
L 170.379036 390.700829 
L 170.986629 390.788126 
L 171.587685 391.533158 
L 172.182158 390.271121 
L 172.769466 390.180773 
L 173.349604 390.657869 
L 173.92301 390.594228 
L 174.489964 389.844747 
L 175.049868 389.72442 
L 175.60394 390.629335 
L 176.152038 389.561055 
L 177.231662 389.514618 
L 177.763596 390.485856 
L 178.290464 389.209014 
L 178.813152 389.249301 
L 179.331089 389.175471 
L 179.844232 390.115274 
L 180.353998 389.035602 
L 181.361721 388.81274 
L 181.859929 389.73209 
L 182.847012 388.630851 
L 183.335558 388.371384 
L 183.821097 389.112063 
L 184.304025 389.090316 
L 184.784291 388.097163 
L 185.261432 387.922653 
L 185.736495 388.228057 
L 186.209125 388.685742 
L 186.679531 387.386772 
L 187.614234 387.28213 
L 188.078907 388.183287 
L 188.541733 386.654785 
L 189.462887 386.255764 
L 189.921671 386.633474 
L 190.379222 386.389137 
L 190.835775 385.348267 
L 191.745783 385.079281 
L 192.199497 385.399412 
L 192.652468 384.198849 
L 193.104848 383.939421 
L 193.556621 383.542484 
L 194.008176 384.616919 
L 194.459841 382.973639 
L 195.363968 382.26077 
L 195.815528 383.050241 
L 196.720219 381.557699 
L 197.173155 381.232965 
L 197.627343 381.897954 
L 198.082578 381.386602 
L 198.537908 380.594279 
L 198.993897 380.440998 
L 199.45142 381.116105 
L 199.910543 380.605817 
L 200.370421 379.803806 
L 200.831321 379.70422 
L 201.293662 380.435292 
L 202.223559 378.995306 
L 202.690203 378.920322 
L 203.158824 379.76947 
L 203.630008 378.44153 
L 204.103064 378.12318 
L 204.57765 378.053948 
L 205.054333 378.721925 
L 205.533631 377.334731 
L 206.015285 377.142747 
L 206.988596 377.202352 
L 207.477434 376.153615 
L 207.968944 375.960553 
L 208.46251 376.424033 
L 208.958458 375.276515 
L 209.456298 374.977122 
L 209.956974 375.026663 
L 210.460119 374.718648 
L 210.965239 374.070043 
L 211.473243 373.832841 
L 211.983652 374.281743 
L 212.496877 373.171684 
L 213.011762 373.010974 
L 213.52975 373.495593 
L 214.050672 372.474809 
L 214.573953 372.244991 
L 215.100185 372.888769 
L 215.628696 371.8878 
L 216.159314 371.659789 
L 216.691692 372.296305 
L 217.225154 371.504747 
L 217.760252 371.492537 
L 218.296817 372.050107 
L 218.83524 371.262077 
L 219.375778 371.22771 
L 219.919499 371.598251 
L 220.465615 370.84152 
L 221.014424 370.809949 
L 221.56539 371.301331 
L 222.119421 370.464763 
L 222.675852 370.392728 
L 223.235078 370.799138 
L 223.796246 370.284735 
L 224.360172 370.066994 
L 224.926659 370.472669 
L 225.496398 369.897989 
L 226.069156 369.745342 
L 226.646108 369.997438 
L 227.227667 369.30427 
L 227.811705 369.524381 
L 228.401652 369.320904 
L 228.998203 368.562652 
L 229.600864 368.871736 
L 230.208398 368.154456 
L 230.820024 368.029918 
L 232.065473 367.320883 
L 232.694417 367.673827 
L 233.325159 367.239073 
L 233.961696 367.250912 
L 234.599704 367.404405 
L 235.24037 367.161971 
L 235.884031 367.594801 
L 236.532934 366.972606 
L 237.184495 367.483291 
L 237.837966 367.093989 
L 238.497943 366.963429 
L 239.159936 367.223625 
L 239.824811 367.125696 
L 240.494537 367.356084 
L 241.165343 367.295216 
L 241.837778 367.678933 
L 242.513833 367.486694 
L 243.86962 368.215356 
L 244.548139 368.223028 
L 245.228018 368.743641 
L 245.906926 368.825795 
L 246.584268 369.536012 
L 247.262472 369.398178 
L 247.939364 369.918406 
L 249.28998 370.376914 
L 249.964255 371.01976 
L 250.637059 370.956254 
L 251.309369 371.617289 
L 251.980626 371.505671 
L 253.321428 372.249982 
L 253.991608 372.219613 
L 254.661714 372.706428 
L 255.331793 372.538366 
L 256.002684 372.88152 
L 256.673287 372.778337 
L 257.344628 372.928126 
L 258.015937 373.287303 
L 258.687631 373.003072 
L 259.359376 373.289328 
L 260.031657 373.00809 
L 261.373336 373.296922 
L 262.042595 373.109132 
L 262.708594 373.462515 
L 263.371678 373.283102 
L 264.031181 373.329118 
L 264.685532 373.689675 
L 265.333657 373.702079 
L 265.974967 374.026035 
L 266.608186 374.1761 
L 267.23206 374.557415 
L 267.847123 375.313471 
L 268.451818 375.399515 
L 269.045777 375.891933 
L 269.628034 376.985872 
L 270.197039 377.216857 
L 270.753191 377.944329 
L 271.297508 379.347968 
L 271.830245 379.729345 
L 272.864064 382.04753 
L 273.366575 383.080455 
L 273.860759 383.601603 
L 275.299909 386.89783 
L 275.76699 387.368137 
L 277.138712 390.545801 
L 277.587882 390.437983 
L 278.477726 391.921438 
L 278.918941 392.475257 
L 279.358307 393.363278 
L 279.796499 393.131074 
L 280.670402 393.838774 
L 281.106795 394.078664 
L 281.543228 394.95864 
L 281.97984 394.405284 
L 282.417011 394.3316 
L 283.294084 394.554305 
L 283.734095 395.34557 
L 284.175226 394.545154 
L 284.617714 394.211991 
L 285.953889 394.490063 
L 286.402146 394.258653 
L 286.852119 393.545718 
L 287.303349 393.542669 
L 287.756842 393.395595 
L 288.212375 393.499435 
L 288.670234 393.080274 
L 289.130753 392.306103 
L 289.594345 392.116811 
L 290.0606 391.776921 
L 290.529672 391.642722 
L 291.00201 390.884676 
L 291.954547 390.461272 
L 292.434195 390.109304 
L 292.915666 390.343599 
L 293.399293 389.673595 
L 293.884265 389.573487 
L 294.370455 389.2675 
L 294.857495 389.82371 
L 295.34608 389.205872 
L 296.324016 389.145057 
L 296.814087 389.539944 
L 297.796634 389.148947 
L 298.287249 389.398449 
L 298.779879 389.350705 
L 299.272676 389.742966 
L 299.764752 389.337354 
L 300.258439 389.353685 
L 301.247135 389.824248 
L 301.742153 389.294204 
L 302.237771 389.344327 
L 302.736444 389.122866 
L 303.234083 389.711842 
L 303.734224 388.911854 
L 304.739653 388.901931 
L 306.267929 388.229585 
L 306.784928 387.608563 
L 307.304491 387.769415 
L 308.358489 386.36592 
L 308.893133 385.84724 
L 309.431724 385.86413 
L 309.977421 385.043708 
L 311.08153 384.211407 
L 311.639956 384.171174 
L 312.201577 383.644568 
L 312.764882 383.413395 
L 313.331798 383.38515 
L 314.470585 382.845892 
L 315.042828 383.030868 
L 316.191139 382.506753 
L 317.340917 382.675007 
L 317.916111 382.330437 
L 318.492137 382.287056 
L 319.06836 382.391007 
L 319.645266 381.989093 
L 320.22024 382.200643 
L 320.795712 382.113104 
L 321.371612 381.774203 
L 321.946475 381.926601 
L 324.244694 381.69597 
L 324.817351 381.924554 
L 325.389922 381.489537 
L 326.528552 381.817408 
L 327.096861 381.568715 
L 327.661757 381.683966 
L 328.225923 381.92474 
L 328.78729 382.011802 
L 329.346557 381.909632 
L 330.455547 382.973316 
L 331.007048 382.585517 
L 332.09994 383.536961 
L 332.641845 383.454575 
L 333.717916 384.175643 
L 334.25077 384.71088 
L 334.779935 384.734943 
L 335.307321 385.116665 
L 335.830117 385.935174 
L 336.349463 385.941536 
L 336.865591 386.27872 
L 338.894171 388.203489 
L 339.392246 388.539686 
L 339.886183 389.307393 
L 340.376133 389.829106 
L 340.862655 390.078131 
L 341.824068 391.324463 
L 342.300144 392.262126 
L 342.772935 392.357046 
L 344.168712 394.218616 
L 344.627577 395.148582 
L 345.083603 395.126161 
L 345.537059 395.567823 
L 346.435027 396.893172 
L 346.880757 397.794931 
L 347.323421 397.823366 
L 348.640655 399.470904 
L 349.076606 400.24409 
L 349.510681 400.411863 
L 349.943293 400.320239 
L 350.374133 401.021878 
L 350.803994 401.501169 
L 351.233476 401.675359 
L 351.661901 402.174958 
L 352.089853 402.497636 
L 352.517029 402.38641 
L 353.795165 403.142999 
L 354.221196 403.116225 
L 354.647859 403.622638 
L 355.503373 402.981163 
L 355.931533 403.173309 
L 356.361071 402.955385 
L 356.790918 403.023048 
L 357.656936 402.874012 
L 358.092701 402.161761 
L 358.968378 401.871979 
L 359.409097 401.581802 
L 359.850498 401.954647 
L 360.295894 401.189039 
L 360.741196 400.931514 
L 361.190046 400.342407 
L 362.09265 400.26072 
L 363.005134 399.68786 
L 363.464394 399.101653 
L 363.927016 398.887639 
L 364.390237 399.295715 
L 364.857924 398.558544 
L 365.32695 398.519071 
L 365.797902 398.174437 
L 366.273586 397.630032 
L 367.229023 397.411003 
L 368.195723 396.582381 
L 368.680935 396.453233 
L 369.169309 395.868204 
L 369.659604 395.603299 
L 370.151361 395.764439 
L 370.64522 395.104667 
L 371.141216 394.789901 
L 371.638156 394.644445 
L 372.136011 394.72047 
L 372.636142 394.08783 
L 373.137703 393.644541 
L 373.640131 393.612148 
L 374.650475 393.284667 
L 375.158035 392.686387 
L 376.686802 392.305251 
L 377.197744 391.893852 
L 377.708757 391.696356 
L 378.220087 391.710367 
L 379.757181 391.130109 
L 380.269588 391.192069 
L 380.782407 391.04653 
L 381.295068 391.395622 
L 381.807718 391.308404 
L 382.32004 391.345356 
L 383.343708 391.202997 
L 385.38362 391.301317 
L 386.398127 391.385738 
L 386.904094 391.411342 
L 387.408931 391.688713 
L 387.91182 392.19619 
L 388.414077 391.752041 
L 388.914774 391.827028 
L 389.413711 392.062924 
L 389.910731 392.64632 
L 390.405811 392.415511 
L 390.899159 392.571638 
L 391.879936 393.258077 
L 392.852839 393.2401 
L 393.335925 393.679527 
L 393.818216 393.686417 
L 394.297581 394.30665 
L 394.77527 394.082649 
L 395.251408 394.236653 
L 395.724412 394.836539 
L 396.194957 394.830393 
L 397.5903 395.813331 
L 398.048913 396.425901 
L 398.504212 396.482456 
L 399.84848 397.688101 
L 400.726729 398.34019 
L 401.160543 398.594536 
L 401.591888 399.35314 
L 402.020815 399.509743 
L 402.44736 399.902182 
L 402.871996 400.128534 
L 403.714149 400.984905 
L 404.131466 401.814525 
L 404.546584 401.630606 
L 405.369435 402.36104 
L 406.586629 404.22455 
L 406.988039 404.259603 
L 407.785915 404.950645 
L 408.581535 405.819492 
L 408.978623 406.164982 
L 409.374351 406.889285 
L 409.769199 407.365392 
L 410.163857 407.335477 
L 410.557944 407.793011 
L 410.951446 408.468273 
L 411.739086 408.871016 
L 412.132683 409.194978 
L 413.707 411.312762 
L 414.099597 411.699685 
L 414.492397 411.726796 
L 414.884224 412.02276 
L 415.276589 411.914632 
L 415.669479 412.038446 
L 416.062217 412.91472 
L 416.455381 412.780812 
L 417.24023 413.253299 
L 417.634028 413.117383 
L 418.027467 413.468856 
L 418.422296 413.387203 
L 419.215706 413.877609 
L 419.61501 414.445616 
L 420.015012 414.368759 
L 420.417993 413.827435 
L 421.226341 414.633714 
L 421.63457 414.566302 
L 422.04343 415.180227 
L 422.454669 415.131389 
L 422.868882 415.346221 
L 423.285031 416.440583 
L 423.704348 415.795226 
L 424.126206 415.820121 
L 424.549975 416.364439 
L 424.977868 416.422846 
L 425.409139 416.710961 
L 425.841504 417.272131 
L 426.278968 416.830459 
L 426.718872 417.277077 
L 427.160815 418.177963 
L 427.607931 418.156717 
L 428.512955 418.847634 
L 429.435208 418.817582 
L 429.900777 419.096805 
L 430.371085 418.839562 
L 430.845995 419.015798 
L 431.323307 420.009265 
L 431.803118 420.015704 
L 432.286807 419.665246 
L 433.259881 420.22752 
L 433.751071 420.22951 
L 434.245047 420.452178 
L 434.740616 420.826694 
L 436.244003 421.345049 
L 436.750378 421.426046 
L 437.769027 422.270824 
L 440.340769 423.429207 
L 441.374873 424.289275 
L 441.893347 424.746621 
L 442.412271 425.370645 
L 442.931175 425.791212 
L 443.450916 426.029368 
L 444.490416 426.759118 
L 446.050719 428.583767 
L 446.571563 428.829449 
L 448.653126 430.525658 
L 449.172753 431.206662 
L 451.774852 433.557659 
L 453.857844 435.844803 
L 454.901183 437.320178 
L 455.946007 438.819447 
L 456.992207 440.088085 
L 458.035373 441.850869 
L 460.10672 444.799851 
L 460.621538 445.936828 
L 462.158408 448.238298 
L 463.177366 449.770454 
L 464.698593 451.866481 
L 465.708325 453.143752 
L 469.217918 457.647953 
L 469.716235 458.383653 
L 470.214609 458.900273 
L 474.687417 464.897183 
L 476.17674 466.361038 
L 477.169858 467.239946 
L 478.164293 467.925508 
L 478.661263 468.29298 
L 480.154694 469.710079 
L 482.154334 471.567171 
L 483.660877 472.651943 
L 486.186376 474.00911 
L 486.694209 474.735694 
L 487.202976 474.908662 
L 487.712914 475.554923 
L 488.734953 476.01742 
L 490.790929 477.20873 
L 491.30718 477.34769 
L 492.34428 477.365018 
L 493.902706 477.825038 
L 494.946129 478.050285 
L 497.042422 478.835909 
L 498.094672 478.74287 
L 498.622302 478.62833 
L 499.676106 479.112789 
L 500.204353 479.748596 
L 500.733941 480.191971 
L 503.921726 481.119706 
L 504.98594 480.715704 
L 505.518982 480.722235 
L 506.580892 481.612373 
L 508.173958 482.046494 
L 509.237889 481.932713 
L 509.766677 482.177374 
L 510.820481 482.267996 
L 511.874517 482.978619 
L 512.930099 483.243501 
L 513.455881 483.867395 
L 513.980639 484.775922 
L 515.027267 484.728952 
L 515.550028 484.673503 
L 516.072287 484.794168 
L 516.59479 484.754857 
L 517.117138 485.076821 
L 518.156761 486.009061 
L 519.190432 485.868992 
L 520.737667 485.765883 
L 521.254559 485.955656 
L 521.76967 486.661991 
L 522.794854 487.186988 
L 523.305742 487.143904 
L 524.327039 486.779852 
L 524.838571 486.60153 
L 525.350507 486.811624 
L 525.861559 487.226425 
L 526.371944 487.806255 
L 526.8821 488.594536 
L 527.391736 488.671472 
L 527.900898 488.540598 
L 528.410222 488.531625 
L 529.430936 487.978162 
L 529.941452 488.126271 
L 530.451633 488.572486 
L 530.961414 488.793023 
L 531.470591 488.869077 
L 532.488019 488.533012 
L 532.997865 488.210371 
L 534.01832 488.244579 
L 535.039073 488.875583 
L 535.549415 488.986356 
L 536.568812 488.812876 
L 537.588373 488.363997 
L 538.608974 488.807716 
L 539.120451 489.503615 
L 539.632467 489.73303 
L 540.656182 489.601248 
L 541.678498 489.444417 
L 542.189596 489.228318 
L 542.70174 489.20491 
L 544.237863 489.701999 
L 545.770972 489.057246 
L 546.28341 488.857477 
L 547.818989 489.618768 
L 548.330712 489.515132 
L 548.842168 489.297002 
L 549.354853 488.753612 
L 549.866665 488.849951 
L 550.37868 489.076762 
L 550.890894 489.082441 
L 551.404342 489.408683 
L 552.947089 489.753679 
L 553.461182 489.75584 
L 554.490111 489.203465 
L 555.521328 489.092086 
L 556.037087 489.302136 
L 556.553245 489.2758 
L 558.622231 488.366794 
L 559.65986 488.536686 
L 560.179202 488.487358 
L 560.700098 488.323887 
L 561.747287 487.53578 
L 562.271112 487.339233 
L 563.319807 487.233666 
L 563.845213 487.619201 
L 564.371708 487.525491 
L 564.899057 487.740275 
L 565.428566 487.353995 
L 566.490357 487.18495 
L 567.021997 486.929651 
L 567.554376 486.50668 
L 568.085315 486.534545 
L 568.615907 486.70019 
L 570.75053 486.200528 
L 571.28813 485.57045 
L 571.825657 485.116783 
L 572.360621 485.588332 
L 573.97097 485.235787 
L 574.510171 485.177075 
L 575.593881 484.345602 
L 576.135256 484.359864 
L 576.676328 485.022592 
L 577.758863 484.621553 
L 578.846728 484.374043 
L 579.394261 483.926223 
L 579.94291 483.729457 
L 580.490762 483.751182 
L 582.678463 483.025073 
L 583.226498 483.102016 
L 583.778427 482.588282 
L 584.332447 482.323186 
L 584.885775 482.478592 
L 585.994472 482.392554 
L 586.548528 482.063415 
L 588.207981 481.787472 
L 588.767186 480.842725 
L 589.328104 480.962358 
L 589.888528 481.32357 
L 591.009752 481.40593 
L 592.132561 481.249926 
L 592.692932 481.217569 
L 593.253198 480.91897 
L 593.818696 479.900803 
L 594.384246 479.81932 
L 594.949198 480.007572 
L 595.514782 480.066003 
L 596.08133 479.947866 
L 597.213558 479.863995 
L 598.347737 479.576495 
L 598.917877 478.837985 
L 599.489503 478.545955 
L 600.061027 478.551733 
L 601.206745 478.361782 
L 601.779858 478.249857 
L 602.352333 478.334183 
L 602.92528 478.565875 
L 604.079761 477.811271 
L 605.237543 477.702974 
L 606.39635 477.434631 
L 607.55273 476.969338 
L 608.131647 476.904909 
L 609.297179 476.330922 
L 612.225014 475.955704 
L 612.809263 475.923593 
L 615.162368 474.688037 
L 615.755127 474.47387 
L 616.943099 474.443169 
L 617.534252 474.713149 
L 618.713777 474.74448 
L 619.304755 474.460184 
L 620.494273 473.698158 
L 621.692055 473.195799 
L 622.885676 473.201213 
L 623.47973 473.206591 
L 624.668137 472.885017 
L 626.460951 471.740196 
L 628.255979 471.700234 
L 628.851596 471.796529 
L 630.043111 471.468414 
L 630.638645 471.469786 
L 631.838809 470.640225 
L 633.039223 470.67531 
L 634.837419 470.365151 
L 636.638518 469.645476 
L 637.242441 469.523047 
L 637.846717 469.517294 
L 638.451847 469.396353 
L 639.059335 469.152598 
L 640.274315 469.18569 
L 640.880482 469.265022 
L 642.099006 468.912808 
L 643.327945 468.477886 
L 644.559462 468.397534 
L 645.793358 468.656214 
L 646.410339 468.65651 
L 648.896939 467.918503 
L 650.772282 467.78953 
L 652.025701 467.946579 
L 655.193553 467.625859 
L 655.834726 467.636007 
L 657.119706 467.88392 
L 659.700765 467.939662 
L 660.346991 468.055793 
L 662.298595 468.019131 
L 663.602759 468.147954 
L 668.835417 468.175991 
L 670.149524 468.272228 
L 674.101893 468.103648 
L 674.763788 468.106987 
L 675.424675 468.2528 
L 676.083606 468.279351 
L 677.404333 467.96472 
L 678.730364 467.83605 
L 680.060368 467.875492 
L 680.726987 467.796016 
L 680.726987 467.796016 
" style="fill:none;stroke:#fc8d62;stroke-linecap:round;stroke-width:3;"/>
   </g>
   <g id="line2d_18">
    <path clip-path="url(#p0911ba8f7e)" d="M 94.975819 422.899739 
L 96.875613 422.938247 
L 101.550782 422.656428 
L 103.846567 422.239115 
L 106.111074 421.993978 
L 108.343575 421.499619 
L 110.543063 420.724241 
L 112.708822 420.818622 
L 114.838565 419.771667 
L 118.997685 418.924265 
L 120.986453 418.099477 
L 122.889463 417.684476 
L 126.440158 415.812267 
L 128.098452 415.602252 
L 129.684343 414.144436 
L 131.202532 413.823098 
L 132.659246 412.255605 
L 134.054849 411.902572 
L 135.394668 410.307185 
L 136.683687 409.828377 
L 137.925121 408.324859 
L 139.120289 407.6108 
L 140.275101 405.990336 
L 142.476011 403.734079 
L 143.523568 402.113002 
L 144.540801 401.199605 
L 145.52973 399.422384 
L 147.431286 396.930421 
L 148.348569 394.968803 
L 149.245691 394.079147 
L 150.125515 392.525941 
L 150.987758 390.553585 
L 151.834316 389.578638 
L 152.666809 387.935681 
L 153.484222 385.884758 
L 154.288025 384.993907 
L 155.080264 383.337897 
L 155.860373 381.232505 
L 156.630582 380.385545 
L 157.391353 378.76498 
L 158.143042 376.647232 
L 158.885535 375.718319 
L 159.621504 374.12444 
L 160.348385 371.738343 
L 161.068756 370.924137 
L 161.782523 369.303774 
L 162.488733 367.050103 
L 163.881376 364.360671 
L 165.244256 360.424727 
L 165.913913 359.286114 
L 166.575412 357.290391 
L 167.228507 354.772018 
L 167.874447 353.985962 
L 168.511752 352.085268 
L 169.141263 349.559168 
L 170.379036 346.740916 
L 170.986629 344.66167 
L 171.587685 342.121445 
L 172.182158 341.504504 
L 172.769466 339.639118 
L 173.349604 337.250222 
L 173.92301 335.477282 
L 174.489964 334.412024 
L 175.049868 332.519178 
L 175.60394 329.885101 
L 176.152038 329.15299 
L 177.231662 325.64646 
L 177.763596 322.925326 
L 178.290464 322.533675 
L 179.331089 319.294201 
L 179.844232 316.547819 
L 180.353998 316.326447 
L 181.361721 313.262738 
L 181.859929 310.904473 
L 182.847012 309.266799 
L 183.335558 308.017721 
L 183.821097 305.966812 
L 184.304025 304.878177 
L 184.784291 304.606858 
L 185.736495 302.104378 
L 186.209125 300.507014 
L 186.679531 300.811676 
L 187.614234 299.111868 
L 188.078907 297.466519 
L 188.541733 298.159372 
L 189.002947 297.686841 
L 189.462887 297.434617 
L 189.921671 296.710095 
L 190.379222 296.481446 
L 190.835775 297.186081 
L 191.745783 296.897586 
L 192.199497 296.342231 
L 192.652468 297.436236 
L 193.556621 297.976945 
L 194.008176 296.795934 
L 194.459841 298.651641 
L 194.911884 299.175187 
L 195.363968 299.367209 
L 195.815528 298.708729 
L 196.267624 299.696314 
L 196.720219 300.290441 
L 197.173155 300.456294 
L 197.627343 300.016373 
L 198.082578 300.69705 
L 198.537908 301.625026 
L 198.993897 301.553852 
L 199.45142 301.01263 
L 199.910543 301.701362 
L 200.370421 302.702852 
L 200.831321 302.968842 
L 201.293662 302.332409 
L 202.223559 304.148595 
L 202.690203 304.704893 
L 203.158824 304.106991 
L 203.630008 305.932794 
L 204.103064 306.441852 
L 204.57765 307.139764 
L 205.054333 307.071994 
L 205.533631 309.007343 
L 206.500386 310.407946 
L 206.988596 311.291156 
L 207.968944 313.981786 
L 208.46251 314.389636 
L 208.958458 316.616545 
L 209.956974 318.813968 
L 211.473243 322.945189 
L 211.983652 323.393448 
L 212.496877 325.617222 
L 213.52975 327.01721 
L 214.050672 329.045602 
L 214.573953 330.089106 
L 215.100185 330.44573 
L 215.628696 332.173609 
L 216.159314 333.066261 
L 216.691692 332.950685 
L 217.225154 333.90653 
L 217.760252 334.245277 
L 218.296817 334.048862 
L 218.83524 335.301552 
L 219.919499 336.552491 
L 220.465615 337.950476 
L 221.014424 338.720136 
L 221.56539 338.875408 
L 222.119421 340.570008 
L 222.675852 341.33394 
L 223.235078 341.63509 
L 224.360172 343.637288 
L 224.926659 343.863643 
L 225.496398 345.394113 
L 226.646108 347.333883 
L 227.227667 349.408093 
L 227.811705 349.812504 
L 228.401652 351.829582 
L 228.998203 354.576229 
L 229.600864 356.128528 
L 230.208398 358.307982 
L 230.820024 359.715846 
L 231.44062 363.241054 
L 232.065473 364.831919 
L 233.325159 366.430065 
L 233.961696 368.280842 
L 234.599704 368.317679 
L 235.24037 369.0916 
L 235.884031 369.352294 
L 236.532934 371.574772 
L 237.184495 371.65735 
L 237.837966 372.296847 
L 238.497943 374.57585 
L 239.159936 374.629331 
L 239.824811 375.375751 
L 240.494537 376.652701 
L 241.837778 376.483379 
L 242.513833 377.699095 
L 243.19176 377.746895 
L 243.86962 376.904682 
L 245.228018 376.532133 
L 245.906926 375.673759 
L 246.584268 373.924134 
L 247.262472 373.988151 
L 248.615175 371.294444 
L 249.28998 370.160609 
L 249.964255 368.739981 
L 250.637059 367.595985 
L 251.309369 366.00227 
L 251.980626 364.981215 
L 253.321428 362.16784 
L 253.991608 361.211545 
L 254.661714 359.651455 
L 255.331793 358.787778 
L 256.673287 356.501196 
L 257.344628 355.435287 
L 258.015937 354.036466 
L 258.687631 353.39678 
L 259.359376 352.047327 
L 260.031657 351.41693 
L 262.042595 347.548892 
L 262.708594 345.454587 
L 263.371678 344.024165 
L 264.031181 342.245398 
L 265.974967 334.785575 
L 266.608186 331.955556 
L 268.451818 321.271136 
L 269.628034 312.323625 
L 270.753191 303.309437 
L 273.860759 273.161575 
L 275.76699 255.059188 
L 277.138712 242.939484 
L 277.587882 240.644499 
L 278.477726 234.967759 
L 279.358307 230.093521 
L 279.796499 229.138681 
L 280.670402 226.647333 
L 281.106795 225.868192 
L 281.543228 224.598427 
L 282.417011 225.009871 
L 283.294084 225.269034 
L 283.734095 224.781051 
L 284.175226 226.088099 
L 285.061677 227.670883 
L 285.953889 229.188234 
L 286.402146 230.180659 
L 286.852119 231.912394 
L 287.303349 232.668703 
L 287.756842 234.240401 
L 288.212375 235.378678 
L 288.670234 237.276252 
L 289.594345 241.772839 
L 290.529672 245.692977 
L 291.00201 248.417914 
L 292.434195 253.597393 
L 292.915666 254.429933 
L 293.399293 256.311947 
L 294.370455 258.250947 
L 294.857495 258.146575 
L 295.34608 259.629949 
L 296.814087 260.020813 
L 297.796634 261.113122 
L 298.287249 260.227767 
L 298.779879 261.36157 
L 299.272676 260.961629 
L 299.764752 260.865169 
L 300.258439 261.674876 
L 300.752007 261.217328 
L 301.247135 261.683086 
L 301.742153 261.986332 
L 302.237771 262.069505 
L 302.736444 263.853625 
L 303.234083 262.42794 
L 303.734224 264.392542 
L 304.236567 265.347433 
L 304.739653 265.479953 
L 305.2472 267.855061 
L 305.756291 268.620378 
L 306.267929 269.6889 
L 306.784928 272.839452 
L 307.304491 273.574244 
L 307.828232 275.927476 
L 308.358489 279.513396 
L 308.893133 281.709572 
L 309.431724 283.07999 
L 309.977421 286.704929 
L 311.08153 290.194602 
L 312.201577 292.754159 
L 312.764882 293.095457 
L 313.331798 294.118169 
L 314.470585 295.003156 
L 315.042828 295.035561 
L 315.616602 295.474968 
L 316.191139 295.766062 
L 316.765423 295.48477 
L 317.340917 295.731058 
L 318.492137 295.783345 
L 319.06836 295.534833 
L 319.645266 296.146745 
L 320.22024 295.074519 
L 320.795712 295.244469 
L 321.371612 295.685189 
L 321.946475 294.749601 
L 322.52116 294.4359 
L 323.096525 294.557808 
L 324.817351 292.584866 
L 325.389922 292.5761 
L 325.959669 291.288102 
L 326.528552 290.681067 
L 327.096861 290.474668 
L 327.661757 288.905541 
L 328.225923 288.276178 
L 328.78729 287.198373 
L 329.346557 286.458228 
L 330.455547 282.960104 
L 331.007048 282.589438 
L 331.554704 280.445306 
L 332.641845 277.420361 
L 333.18086 275.519901 
L 333.717916 274.081605 
L 334.25077 271.501759 
L 334.779935 269.645802 
L 335.307321 268.370712 
L 335.830117 265.282649 
L 336.865591 261.35689 
L 338.392802 254.364238 
L 338.894171 251.699002 
L 339.392246 249.722041 
L 340.376133 244.282378 
L 340.862655 242.261543 
L 342.300144 234.126367 
L 342.772935 232.229415 
L 343.706689 226.915477 
L 345.083603 220.056911 
L 345.987533 215.441786 
L 346.880757 210.793282 
L 349.076606 201.606119 
L 349.510681 200.202379 
L 349.943293 199.258812 
L 350.374133 197.139223 
L 350.803994 195.758995 
L 351.233476 195.173488 
L 351.661901 193.883861 
L 352.089853 193.055099 
L 352.943626 191.938852 
L 353.369564 191.12554 
L 353.795165 190.83069 
L 354.221196 191.165587 
L 354.647859 191.055923 
L 355.07504 191.510405 
L 355.503373 192.579829 
L 355.931533 192.390523 
L 356.361071 193.697916 
L 356.790918 193.892183 
L 357.223469 195.64717 
L 357.656936 196.243988 
L 358.092701 198.509397 
L 358.529712 199.355257 
L 359.409097 202.392309 
L 359.850498 202.423734 
L 360.295894 205.919183 
L 360.741196 206.267183 
L 361.190046 209.195343 
L 361.640815 210.339776 
L 362.09265 211.182792 
L 362.548628 214.041342 
L 363.005134 214.670985 
L 363.927016 219.15691 
L 364.390237 219.146869 
L 364.857924 222.45694 
L 365.32695 223.18048 
L 365.797902 224.396426 
L 366.273586 227.514899 
L 366.75051 228.200643 
L 367.229023 229.105699 
L 367.711395 231.572782 
L 368.195723 232.951146 
L 368.680935 233.570142 
L 369.169309 236.133561 
L 369.659604 237.327782 
L 370.151361 237.87187 
L 370.64522 239.726061 
L 371.141216 241.147225 
L 372.136011 242.423505 
L 372.636142 244.239798 
L 373.137703 245.390883 
L 373.640131 245.758075 
L 375.158035 248.537404 
L 375.666788 248.901328 
L 377.197744 250.417143 
L 378.220087 250.692773 
L 378.732329 251.107924 
L 380.782407 250.888366 
L 381.295068 250.296079 
L 381.807718 249.956527 
L 382.831753 248.979866 
L 383.343708 248.618699 
L 383.854782 247.770726 
L 384.875054 246.525309 
L 386.904094 243.777171 
L 387.408931 242.921278 
L 387.91182 241.273399 
L 388.414077 241.393362 
L 388.914774 240.475458 
L 389.413711 239.302852 
L 389.910731 237.748098 
L 390.405811 237.018515 
L 390.899159 236.021551 
L 391.879936 233.165775 
L 392.367514 232.163318 
L 393.335925 229.341837 
L 393.818216 228.840726 
L 394.297581 226.544679 
L 394.77527 225.828139 
L 395.251408 224.787269 
L 395.724412 222.540729 
L 396.194957 221.528207 
L 397.5903 217.14656 
L 398.048913 214.777162 
L 398.504212 213.462604 
L 398.955955 211.708201 
L 399.403617 209.386814 
L 399.84848 208.075016 
L 403.714149 190.637267 
L 404.131466 188.348025 
L 404.546584 187.289165 
L 405.777756 181.476627 
L 406.183615 179.526034 
L 406.586629 176.925096 
L 406.988039 176.086869 
L 408.183719 170.691772 
L 408.978623 167.999323 
L 409.769199 163.977813 
L 410.163857 163.135197 
L 410.951446 159.332344 
L 411.739086 157.495206 
L 412.526604 154.637583 
L 413.314217 152.475578 
L 413.707 150.794335 
L 414.099597 149.818993 
L 414.492397 149.925195 
L 414.884224 148.629311 
L 415.276589 148.870657 
L 415.669479 148.759616 
L 416.062217 147.507607 
L 416.455381 147.994234 
L 416.847743 146.978295 
L 417.24023 146.589727 
L 417.634028 147.796364 
L 418.027467 146.950333 
L 418.422296 147.889423 
L 418.818446 148.103815 
L 419.215706 148.166488 
L 419.61501 148.652997 
L 420.015012 148.423089 
L 420.417993 150.812964 
L 420.821339 150.30956 
L 421.226341 150.697876 
L 421.63457 153.003792 
L 422.04343 152.566148 
L 422.868882 155.580232 
L 423.285031 155.387224 
L 423.704348 157.837226 
L 424.126206 159.424896 
L 424.549975 159.852532 
L 424.977868 162.343563 
L 425.409139 163.9494 
L 425.841504 163.507097 
L 426.278968 167.188147 
L 426.718872 168.009102 
L 427.160815 167.861135 
L 427.607931 170.768818 
L 428.058953 172.547177 
L 428.512955 173.407066 
L 429.435208 178.240767 
L 429.900777 178.602975 
L 430.845995 183.291949 
L 431.323307 183.531211 
L 431.803118 185.154636 
L 432.286807 188.030459 
L 433.259881 190.126767 
L 433.751071 192.352321 
L 434.245047 193.719041 
L 434.740616 194.311983 
L 435.740725 197.253039 
L 436.244003 198.27142 
L 436.750378 199.891803 
L 437.769027 201.308697 
L 438.795032 203.472511 
L 439.308839 204.120267 
L 440.340769 205.826628 
L 441.893347 206.570112 
L 442.412271 206.541371 
L 442.931175 206.297727 
L 443.450916 206.530169 
L 443.970621 206.317068 
L 444.490416 206.274116 
L 445.011226 206.000904 
L 445.530925 205.033071 
L 446.050719 204.493044 
L 446.571563 204.663089 
L 447.611861 203.140505 
L 448.132914 202.961923 
L 449.172753 200.837251 
L 449.693737 200.453972 
L 450.213555 199.274226 
L 450.733387 198.4741 
L 451.254349 197.897353 
L 452.295074 195.782143 
L 452.816069 194.890407 
L 454.901183 189.957832 
L 455.946007 186.880846 
L 456.469184 185.842191 
L 456.992207 184.499298 
L 458.555145 179.677966 
L 460.10672 174.910867 
L 460.621538 173.053443 
L 461.135235 171.641749 
L 462.667877 166.327257 
L 463.177366 165.319676 
L 464.698593 160.524539 
L 465.204149 159.384619 
L 466.211519 156.090719 
L 466.714876 155.325399 
L 467.718413 152.270829 
L 469.716235 147.067916 
L 470.214609 146.390836 
L 471.209675 144.142674 
L 472.700602 141.087882 
L 473.19704 140.03285 
L 473.693891 139.737905 
L 474.190706 138.836507 
L 475.680132 137.072943 
L 476.673009 135.872732 
L 477.169858 135.77683 
L 477.667003 135.49367 
L 478.164293 135.365011 
L 479.158167 134.172414 
L 479.655992 134.257554 
L 480.154694 134.177991 
L 480.653706 133.841433 
L 481.153406 133.655017 
L 481.653853 133.613559 
L 482.154334 133.10809 
L 483.157686 133.140094 
L 483.660877 133.45155 
L 484.164813 133.591307 
L 485.173861 133.373532 
L 485.679714 133.774785 
L 486.186376 133.817347 
L 486.694209 133.617537 
L 487.202976 133.928279 
L 487.712914 133.780503 
L 488.734953 134.053504 
L 489.247892 134.453192 
L 489.761779 134.570825 
L 490.276306 134.5527 
L 490.790929 134.248596 
L 491.30718 134.917318 
L 491.82522 135.819118 
L 492.34428 136.387944 
L 492.863639 136.369044 
L 493.382824 136.098283 
L 493.902706 136.278338 
L 494.946129 137.372669 
L 495.469774 137.712312 
L 495.993923 137.712281 
L 496.517656 137.114508 
L 498.094672 138.450387 
L 498.622302 139.154002 
L 499.149603 138.733371 
L 499.676106 137.991925 
L 500.733941 138.173698 
L 501.79673 139.020952 
L 502.328698 138.721521 
L 502.859408 137.779071 
L 503.390364 137.761836 
L 503.921726 137.879706 
L 504.453486 138.241824 
L 504.98594 138.814311 
L 505.518982 139.106391 
L 506.050302 137.691142 
L 506.580892 136.899435 
L 507.111894 136.851088 
L 507.642915 136.602775 
L 508.173958 136.59722 
L 508.705988 137.106269 
L 509.237889 137.139396 
L 509.766677 135.334594 
L 510.293545 134.384026 
L 510.820481 134.357798 
L 511.347621 134.048188 
L 511.874517 133.603435 
L 512.930099 133.847864 
L 513.980639 130.640335 
L 515.027267 129.830199 
L 515.550028 129.842347 
L 516.072287 129.499122 
L 516.59479 129.74677 
L 517.117138 129.375379 
L 518.156761 126.723652 
L 518.674106 126.077127 
L 519.190432 125.746733 
L 519.706236 125.61583 
L 520.221723 125.652023 
L 520.737667 125.868097 
L 521.254559 126.234493 
L 522.282907 123.368787 
L 522.794854 122.381713 
L 523.305742 121.89354 
L 523.816298 121.911311 
L 524.327039 122.176664 
L 524.838571 122.787693 
L 525.350507 122.716963 
L 526.371944 120.496007 
L 526.8821 119.262204 
L 527.900898 118.019845 
L 528.410222 117.606825 
L 528.920135 117.841372 
L 529.430936 117.942341 
L 529.941452 117.035404 
L 530.961414 114.552672 
L 531.978916 112.276125 
L 532.997865 112.251017 
L 533.507764 111.581275 
L 534.01832 111.155988 
L 535.039073 108.844431 
L 536.568812 107.8056 
L 537.588373 108.272874 
L 538.098403 108.090519 
L 538.608974 108.276192 
L 539.120451 108.171678 
L 539.632467 108.465853 
L 540.144607 109.368645 
L 540.656182 111.811138 
L 541.678498 118.155124 
L 542.70174 124.331126 
L 543.726148 131.810936 
L 545.259861 145.707436 
L 549.866665 202.657076 
L 553.97555 246.862003 
L 555.521328 262.979937 
L 556.553245 271.075966 
L 557.070106 276.465639 
L 559.65986 297.040838 
L 560.179202 300.377282 
L 561.747287 312.987062 
L 562.795254 319.427883 
L 563.845213 324.373717 
L 564.371708 327.744386 
L 564.899057 330.322119 
L 565.958946 337.105741 
L 566.490357 339.864514 
L 567.021997 341.867106 
L 567.554376 344.71688 
L 568.615907 347.587636 
L 569.147616 349.944808 
L 569.680405 351.629896 
L 571.28813 360.49003 
L 571.825657 362.238807 
L 572.360621 362.014304 
L 574.510171 369.891056 
L 575.593881 374.845513 
L 576.135256 375.649263 
L 576.676328 375.832297 
L 577.217082 376.940377 
L 578.301917 380.477735 
L 578.846728 381.958822 
L 579.394261 384.861932 
L 579.94291 386.565401 
L 580.490762 386.819301 
L 581.038003 387.487414 
L 581.585128 388.554297 
L 582.131606 389.035024 
L 583.226498 391.28656 
L 583.778427 394.533335 
L 584.332447 396.515926 
L 584.885775 396.607717 
L 585.440223 397.975146 
L 585.994472 398.245385 
L 586.548528 399.346192 
L 587.101031 399.262244 
L 588.207981 401.428651 
L 588.767186 405.198401 
L 589.328104 406.407483 
L 589.888528 406.056941 
L 590.448936 406.326784 
L 591.57099 407.226745 
L 592.132561 407.802796 
L 592.692932 407.5025 
L 593.253198 408.02667 
L 593.818696 411.953944 
L 594.384246 412.271849 
L 594.949198 412.211801 
L 595.514782 412.573172 
L 596.08133 413.387146 
L 596.647253 413.2057 
L 598.347737 415.227938 
L 598.917877 417.60446 
L 599.489503 419.010158 
L 600.061027 419.32448 
L 601.206745 420.554211 
L 601.779858 420.819301 
L 602.92528 420.77779 
L 603.501083 422.168998 
L 604.079761 424.236214 
L 604.658446 424.232484 
L 605.237543 424.452327 
L 605.817273 424.85341 
L 606.39635 424.743923 
L 607.55273 425.17846 
L 608.131647 426.03971 
L 609.297179 429.062951 
L 610.46744 430.024913 
L 611.053678 430.832104 
L 611.639957 430.918778 
L 612.225014 430.569637 
L 612.809263 430.607561 
L 613.394419 431.575527 
L 613.981001 432.800888 
L 614.570896 434.753729 
L 615.162368 435.740642 
L 615.755127 436.467332 
L 616.349405 437.582604 
L 616.943099 437.832364 
L 617.534252 436.256539 
L 618.123884 436.275411 
L 618.713777 436.55089 
L 619.304755 437.468319 
L 619.898338 439.547831 
L 620.494273 440.671006 
L 621.09269 442.394731 
L 621.692055 443.425024 
L 622.885676 442.318056 
L 623.47973 442.090431 
L 624.073732 442.236565 
L 624.668137 442.932542 
L 626.460951 446.980239 
L 627.059996 447.303341 
L 627.658321 446.986855 
L 628.255979 446.876346 
L 628.851596 446.024923 
L 629.447306 445.779399 
L 630.043111 446.160695 
L 630.638645 445.956299 
L 631.838809 448.712035 
L 632.439336 447.82391 
L 633.039223 447.235993 
L 634.239215 446.507296 
L 634.837419 445.019796 
L 635.436027 444.813174 
L 636.03614 444.817876 
L 637.242441 444.369798 
L 637.846717 443.655394 
L 638.451847 442.685328 
L 639.059335 442.38902 
L 639.667255 441.565481 
L 640.274315 439.544814 
L 640.880482 438.201122 
L 642.099006 437.50116 
L 642.712513 438.425129 
L 643.327945 438.793566 
L 644.559462 436.787915 
L 646.410339 434.36462 
L 648.272016 434.478771 
L 648.896939 434.87162 
L 649.522448 434.559702 
L 650.147318 433.732543 
L 651.398187 432.698684 
L 652.025701 432.861811 
L 652.654873 432.832122 
L 653.286391 433.652695 
L 654.555199 434.924708 
L 655.193553 436.057379 
L 655.834726 436.699626 
L 656.477113 437.068928 
L 657.763525 438.191078 
L 659.054495 439.642384 
L 659.700765 440.36416 
L 660.346991 440.629245 
L 660.995236 441.452275 
L 662.298595 442.656984 
L 662.950862 442.372425 
L 663.602759 442.851914 
L 664.254172 442.963643 
L 664.904314 442.560691 
L 665.55492 442.714149 
L 666.207353 443.224397 
L 666.862823 444.186069 
L 667.520367 444.867453 
L 668.177615 444.757054 
L 668.835417 444.425539 
L 669.493013 443.930309 
L 670.804455 443.824229 
L 671.460261 444.530851 
L 672.118041 445.635692 
L 673.440193 448.330965 
L 674.763788 450.379241 
L 675.424675 450.781301 
L 676.083606 451.5911 
L 678.066722 457.281183 
L 678.730364 459.341723 
L 679.39473 461.872547 
L 680.060368 466.755661 
L 680.726987 474.136859 
L 680.726987 474.136859 
" style="fill:none;stroke:#fc8d62;stroke-dasharray:12,4.5;stroke-dashoffset:0;stroke-width:3;"/>
   </g>
   <g id="line2d_19"/>
   <g id="line2d_20"/>
   <g id="line2d_21"/>
   <g id="line2d_22"/>
   <g id="line2d_23"/>
   <g id="line2d_24"/>
   <g id="patch_3">
    <path d="M 94.5 619.0128 
L 94.5 83.4624 
" style="fill:none;stroke:#262626;stroke-linecap:square;stroke-linejoin:miter;stroke-width:2.5;"/>
   </g>
   <g id="patch_4">
    <path d="M 680.4 619.0128 
L 680.4 83.4624 
" style="fill:none;stroke:#262626;stroke-linecap:square;stroke-linejoin:miter;stroke-width:2.5;"/>
   </g>
   <g id="patch_5">
    <path d="M 94.5 619.0128 
L 680.4 619.0128 
" style="fill:none;stroke:#262626;stroke-linecap:square;stroke-linejoin:miter;stroke-width:2.5;"/>
   </g>
   <g id="patch_6">
    <path d="M 94.5 83.4624 
L 680.4 83.4624 
" style="fill:none;stroke:#262626;stroke-linecap:square;stroke-linejoin:miter;stroke-width:2.5;"/>
   </g>
   <g id="legend_1">
    <g id="patch_7">
     <path d="M 109.9 608.0128 
L 336.885 608.0128 
Q 341.285 608.0128 341.285 603.6128 
L 341.285 411.449675 
Q 341.285 407.049675 336.885 407.049675 
L 109.9 407.049675 
Q 105.5 407.049675 105.5 411.449675 
L 105.5 603.6128 
Q 105.5 608.0128 109.9 608.0128 
z
" style="fill:#ffffff;opacity:0.8;stroke:#cccccc;stroke-linejoin:miter;stroke-width:2;"/>
    </g>
    <g id="line2d_25">
     <path d="M 114.3 424.866237 
L 158.3 424.866237 
" style="fill:none;"/>
    </g>
    <g id="line2d_26"/>
    <g id="text_17">
     <!-- Exp -->
     <defs>
      <path d="M 9.8125 72.90625 
L 55.90625 72.90625 
L 55.90625 64.59375 
L 19.671875 64.59375 
L 19.671875 43.015625 
L 54.390625 43.015625 
L 54.390625 34.71875 
L 19.671875 34.71875 
L 19.671875 8.296875 
L 56.78125 8.296875 
L 56.78125 0 
L 9.8125 0 
z
" id="DejaVuSans-45"/>
      <path d="M 54.890625 54.6875 
L 35.109375 28.078125 
L 55.90625 0 
L 45.3125 0 
L 29.390625 21.484375 
L 13.484375 0 
L 2.875 0 
L 24.125 28.609375 
L 4.6875 54.6875 
L 15.28125 54.6875 
L 29.78125 35.203125 
L 44.28125 54.6875 
z
" id="DejaVuSans-78"/>
      <path d="M 18.109375 8.203125 
L 18.109375 -20.796875 
L 9.078125 -20.796875 
L 9.078125 54.6875 
L 18.109375 54.6875 
L 18.109375 46.390625 
Q 20.953125 51.265625 25.265625 53.625 
Q 29.59375 56 35.59375 56 
Q 45.5625 56 51.78125 48.09375 
Q 58.015625 40.1875 58.015625 27.296875 
Q 58.015625 14.40625 51.78125 6.484375 
Q 45.5625 -1.421875 35.59375 -1.421875 
Q 29.59375 -1.421875 25.265625 0.953125 
Q 20.953125 3.328125 18.109375 8.203125 
z
M 48.6875 27.296875 
Q 48.6875 37.203125 44.609375 42.84375 
Q 40.53125 48.484375 33.40625 48.484375 
Q 26.265625 48.484375 22.1875 42.84375 
Q 18.109375 37.203125 18.109375 27.296875 
Q 18.109375 17.390625 22.1875 11.75 
Q 26.265625 6.109375 33.40625 6.109375 
Q 40.53125 6.109375 44.609375 11.75 
Q 48.6875 17.390625 48.6875 27.296875 
z
" id="DejaVuSans-70"/>
     </defs>
     <g style="fill:#262626;" transform="translate(175.9 432.566237)scale(0.22 -0.22)">
      <use xlink:href="#DejaVuSans-45"/>
      <use x="63.183594" xlink:href="#DejaVuSans-78"/>
      <use x="122.363281" xlink:href="#DejaVuSans-70"/>
     </g>
    </g>
    <g id="line2d_27">
     <path d="M 114.3 457.158112 
L 158.3 457.158112 
" style="fill:none;stroke:#66c2a5;stroke-linecap:round;stroke-width:3;"/>
    </g>
    <g id="line2d_28"/>
    <g id="text_18">
     <!-- e000 -->
     <g style="fill:#262626;" transform="translate(175.9 464.858112)scale(0.22 -0.22)">
      <use xlink:href="#DejaVuSans-65"/>
      <use x="61.523438" xlink:href="#DejaVuSans-30"/>
      <use x="125.146484" xlink:href="#DejaVuSans-30"/>
      <use x="188.769531" xlink:href="#DejaVuSans-30"/>
     </g>
    </g>
    <g id="line2d_29">
     <path d="M 114.3 489.449987 
L 158.3 489.449987 
" style="fill:none;stroke:#fc8d62;stroke-linecap:round;stroke-width:3;"/>
    </g>
    <g id="line2d_30"/>
    <g id="text_19">
     <!-- e000_a_indNB -->
     <defs>
      <path d="M 50.984375 -16.609375 
L 50.984375 -23.578125 
L -0.984375 -23.578125 
L -0.984375 -16.609375 
z
" id="DejaVuSans-5f"/>
      <path d="M 34.28125 27.484375 
Q 23.390625 27.484375 19.1875 25 
Q 14.984375 22.515625 14.984375 16.5 
Q 14.984375 11.71875 18.140625 8.90625 
Q 21.296875 6.109375 26.703125 6.109375 
Q 34.1875 6.109375 38.703125 11.40625 
Q 43.21875 16.703125 43.21875 25.484375 
L 43.21875 27.484375 
z
M 52.203125 31.203125 
L 52.203125 0 
L 43.21875 0 
L 43.21875 8.296875 
Q 40.140625 3.328125 35.546875 0.953125 
Q 30.953125 -1.421875 24.3125 -1.421875 
Q 15.921875 -1.421875 10.953125 3.296875 
Q 6 8.015625 6 15.921875 
Q 6 25.140625 12.171875 29.828125 
Q 18.359375 34.515625 30.609375 34.515625 
L 43.21875 34.515625 
L 43.21875 35.40625 
Q 43.21875 41.609375 39.140625 45 
Q 35.0625 48.390625 27.6875 48.390625 
Q 23 48.390625 18.546875 47.265625 
Q 14.109375 46.140625 10.015625 43.890625 
L 10.015625 52.203125 
Q 14.9375 54.109375 19.578125 55.046875 
Q 24.21875 56 28.609375 56 
Q 40.484375 56 46.34375 49.84375 
Q 52.203125 43.703125 52.203125 31.203125 
z
" id="DejaVuSans-61"/>
      <path d="M 54.890625 33.015625 
L 54.890625 0 
L 45.90625 0 
L 45.90625 32.71875 
Q 45.90625 40.484375 42.875 44.328125 
Q 39.84375 48.1875 33.796875 48.1875 
Q 26.515625 48.1875 22.3125 43.546875 
Q 18.109375 38.921875 18.109375 30.90625 
L 18.109375 0 
L 9.078125 0 
L 9.078125 54.6875 
L 18.109375 54.6875 
L 18.109375 46.1875 
Q 21.34375 51.125 25.703125 53.5625 
Q 30.078125 56 35.796875 56 
Q 45.21875 56 50.046875 50.171875 
Q 54.890625 44.34375 54.890625 33.015625 
z
" id="DejaVuSans-6e"/>
      <path d="M 45.40625 46.390625 
L 45.40625 75.984375 
L 54.390625 75.984375 
L 54.390625 0 
L 45.40625 0 
L 45.40625 8.203125 
Q 42.578125 3.328125 38.25 0.953125 
Q 33.9375 -1.421875 27.875 -1.421875 
Q 17.96875 -1.421875 11.734375 6.484375 
Q 5.515625 14.40625 5.515625 27.296875 
Q 5.515625 40.1875 11.734375 48.09375 
Q 17.96875 56 27.875 56 
Q 33.9375 56 38.25 53.625 
Q 42.578125 51.265625 45.40625 46.390625 
z
M 14.796875 27.296875 
Q 14.796875 17.390625 18.875 11.75 
Q 22.953125 6.109375 30.078125 6.109375 
Q 37.203125 6.109375 41.296875 11.75 
Q 45.40625 17.390625 45.40625 27.296875 
Q 45.40625 37.203125 41.296875 42.84375 
Q 37.203125 48.484375 30.078125 48.484375 
Q 22.953125 48.484375 18.875 42.84375 
Q 14.796875 37.203125 14.796875 27.296875 
z
" id="DejaVuSans-64"/>
      <path d="M 9.8125 72.90625 
L 23.09375 72.90625 
L 55.421875 11.921875 
L 55.421875 72.90625 
L 64.984375 72.90625 
L 64.984375 0 
L 51.703125 0 
L 19.390625 60.984375 
L 19.390625 0 
L 9.8125 0 
z
" id="DejaVuSans-4e"/>
      <path d="M 19.671875 34.8125 
L 19.671875 8.109375 
L 35.5 8.109375 
Q 43.453125 8.109375 47.28125 11.40625 
Q 51.125 14.703125 51.125 21.484375 
Q 51.125 28.328125 47.28125 31.5625 
Q 43.453125 34.8125 35.5 34.8125 
z
M 19.671875 64.796875 
L 19.671875 42.828125 
L 34.28125 42.828125 
Q 41.5 42.828125 45.03125 45.53125 
Q 48.578125 48.25 48.578125 53.8125 
Q 48.578125 59.328125 45.03125 62.0625 
Q 41.5 64.796875 34.28125 64.796875 
z
M 9.8125 72.90625 
L 35.015625 72.90625 
Q 46.296875 72.90625 52.390625 68.21875 
Q 58.5 63.53125 58.5 54.890625 
Q 58.5 48.1875 55.375 44.234375 
Q 52.25 40.28125 46.1875 39.3125 
Q 53.46875 37.75 57.5 32.78125 
Q 61.53125 27.828125 61.53125 20.40625 
Q 61.53125 10.640625 54.890625 5.3125 
Q 48.25 0 35.984375 0 
L 9.8125 0 
z
" id="DejaVuSans-42"/>
     </defs>
     <g style="fill:#262626;" transform="translate(175.9 497.149987)scale(0.22 -0.22)">
      <use xlink:href="#DejaVuSans-65"/>
      <use x="61.523438" xlink:href="#DejaVuSans-30"/>
      <use x="125.146484" xlink:href="#DejaVuSans-30"/>
      <use x="188.769531" xlink:href="#DejaVuSans-30"/>
      <use x="252.392578" xlink:href="#DejaVuSans-5f"/>
      <use x="302.392578" xlink:href="#DejaVuSans-61"/>
      <use x="363.671875" xlink:href="#DejaVuSans-5f"/>
      <use x="413.671875" xlink:href="#DejaVuSans-69"/>
      <use x="441.455078" xlink:href="#DejaVuSans-6e"/>
      <use x="504.833984" xlink:href="#DejaVuSans-64"/>
      <use x="568.310547" xlink:href="#DejaVuSans-4e"/>
      <use x="643.115234" xlink:href="#DejaVuSans-42"/>
     </g>
    </g>
    <g id="line2d_31">
     <path d="M 114.3 522.353737 
L 158.3 522.353737 
" style="fill:none;"/>
    </g>
    <g id="line2d_32"/>
    <g id="text_20">
     <!-- Type -->
     <defs>
      <path d="M -0.296875 72.90625 
L 61.375 72.90625 
L 61.375 64.59375 
L 35.5 64.59375 
L 35.5 0 
L 25.59375 0 
L 25.59375 64.59375 
L -0.296875 64.59375 
z
" id="DejaVuSans-54"/>
     </defs>
     <g style="fill:#262626;" transform="translate(175.9 530.053737)scale(0.22 -0.22)">
      <use xlink:href="#DejaVuSans-54"/>
      <use x="60.849609" xlink:href="#DejaVuSans-79"/>
      <use x="120.029297" xlink:href="#DejaVuSans-70"/>
      <use x="183.505859" xlink:href="#DejaVuSans-65"/>
     </g>
    </g>
    <g id="line2d_33">
     <path d="M 114.3 554.645612 
L 158.3 554.645612 
" style="fill:none;stroke:#333333;stroke-linecap:round;stroke-width:3;"/>
    </g>
    <g id="line2d_34"/>
    <g id="text_21">
     <!-- Trench -->
     <defs>
      <path d="M 41.109375 46.296875 
Q 39.59375 47.171875 37.8125 47.578125 
Q 36.03125 48 33.890625 48 
Q 26.265625 48 22.1875 43.046875 
Q 18.109375 38.09375 18.109375 28.8125 
L 18.109375 0 
L 9.078125 0 
L 9.078125 54.6875 
L 18.109375 54.6875 
L 18.109375 46.1875 
Q 20.953125 51.171875 25.484375 53.578125 
Q 30.03125 56 36.53125 56 
Q 37.453125 56 38.578125 55.875 
Q 39.703125 55.765625 41.0625 55.515625 
z
" id="DejaVuSans-72"/>
      <path d="M 54.890625 33.015625 
L 54.890625 0 
L 45.90625 0 
L 45.90625 32.71875 
Q 45.90625 40.484375 42.875 44.328125 
Q 39.84375 48.1875 33.796875 48.1875 
Q 26.515625 48.1875 22.3125 43.546875 
Q 18.109375 38.921875 18.109375 30.90625 
L 18.109375 0 
L 9.078125 0 
L 9.078125 75.984375 
L 18.109375 75.984375 
L 18.109375 46.1875 
Q 21.34375 51.125 25.703125 53.5625 
Q 30.078125 56 35.796875 56 
Q 45.21875 56 50.046875 50.171875 
Q 54.890625 44.34375 54.890625 33.015625 
z
" id="DejaVuSans-68"/>
     </defs>
     <g style="fill:#262626;" transform="translate(175.9 562.345613)scale(0.22 -0.22)">
      <use xlink:href="#DejaVuSans-54"/>
      <use x="60.865234" xlink:href="#DejaVuSans-72"/>
      <use x="101.947266" xlink:href="#DejaVuSans-65"/>
      <use x="163.470703" xlink:href="#DejaVuSans-6e"/>
      <use x="226.849609" xlink:href="#DejaVuSans-63"/>
      <use x="281.830078" xlink:href="#DejaVuSans-68"/>
     </g>
    </g>
    <g id="line2d_35">
     <path d="M 114.3 586.937487 
L 158.3 586.937487 
" style="fill:none;stroke:#333333;stroke-dasharray:12,4.5;stroke-dashoffset:0;stroke-width:3;"/>
    </g>
    <g id="line2d_36"/>
    <g id="text_22">
     <!-- Convergence -->
     <defs>
      <path d="M 64.40625 67.28125 
L 64.40625 56.890625 
Q 59.421875 61.53125 53.78125 63.8125 
Q 48.140625 66.109375 41.796875 66.109375 
Q 29.296875 66.109375 22.65625 58.46875 
Q 16.015625 50.828125 16.015625 36.375 
Q 16.015625 21.96875 22.65625 14.328125 
Q 29.296875 6.6875 41.796875 6.6875 
Q 48.140625 6.6875 53.78125 8.984375 
Q 59.421875 11.28125 64.40625 15.921875 
L 64.40625 5.609375 
Q 59.234375 2.09375 53.4375 0.328125 
Q 47.65625 -1.421875 41.21875 -1.421875 
Q 24.65625 -1.421875 15.125 8.703125 
Q 5.609375 18.84375 5.609375 36.375 
Q 5.609375 53.953125 15.125 64.078125 
Q 24.65625 74.21875 41.21875 74.21875 
Q 47.75 74.21875 53.53125 72.484375 
Q 59.328125 70.75 64.40625 67.28125 
z
" id="DejaVuSans-43"/>
      <path d="M 45.40625 27.984375 
Q 45.40625 37.75 41.375 43.109375 
Q 37.359375 48.484375 30.078125 48.484375 
Q 22.859375 48.484375 18.828125 43.109375 
Q 14.796875 37.75 14.796875 27.984375 
Q 14.796875 18.265625 18.828125 12.890625 
Q 22.859375 7.515625 30.078125 7.515625 
Q 37.359375 7.515625 41.375 12.890625 
Q 45.40625 18.265625 45.40625 27.984375 
z
M 54.390625 6.78125 
Q 54.390625 -7.171875 48.1875 -13.984375 
Q 42 -20.796875 29.203125 -20.796875 
Q 24.46875 -20.796875 20.265625 -20.09375 
Q 16.0625 -19.390625 12.109375 -17.921875 
L 12.109375 -9.1875 
Q 16.0625 -11.328125 19.921875 -12.34375 
Q 23.78125 -13.375 27.78125 -13.375 
Q 36.625 -13.375 41.015625 -8.765625 
Q 45.40625 -4.15625 45.40625 5.171875 
L 45.40625 9.625 
Q 42.625 4.78125 38.28125 2.390625 
Q 33.9375 0 27.875 0 
Q 17.828125 0 11.671875 7.65625 
Q 5.515625 15.328125 5.515625 27.984375 
Q 5.515625 40.671875 11.671875 48.328125 
Q 17.828125 56 27.875 56 
Q 33.9375 56 38.28125 53.609375 
Q 42.625 51.21875 45.40625 46.390625 
L 45.40625 54.6875 
L 54.390625 54.6875 
z
" id="DejaVuSans-67"/>
     </defs>
     <g style="fill:#262626;" transform="translate(175.9 594.637487)scale(0.22 -0.22)">
      <use xlink:href="#DejaVuSans-43"/>
      <use x="69.824219" xlink:href="#DejaVuSans-6f"/>
      <use x="131.005859" xlink:href="#DejaVuSans-6e"/>
      <use x="194.384766" xlink:href="#DejaVuSans-76"/>
      <use x="253.564453" xlink:href="#DejaVuSans-65"/>
      <use x="315.087891" xlink:href="#DejaVuSans-72"/>
      <use x="356.185547" xlink:href="#DejaVuSans-67"/>
      <use x="419.662109" xlink:href="#DejaVuSans-65"/>
      <use x="481.185547" xlink:href="#DejaVuSans-6e"/>
      <use x="544.564453" xlink:href="#DejaVuSans-63"/>
      <use x="599.544922" xlink:href="#DejaVuSans-65"/>
     </g>
    </g>
   </g>
  </g>
 </g>
 <defs>
  <clipPath id="p0911ba8f7e">
   <rect height="535.5504" width="585.9" x="94.5" y="83.4624"/>
  </clipPath>
 </defs>
</svg>
