<?xml version="1.0" encoding="utf-8" standalone="no"?>
<!DOCTYPE svg PUBLIC "-//W3C//DTD SVG 1.1//EN"
  "http://www.w3.org/Graphics/SVG/1.1/DTD/svg11.dtd">
<!-- Created with matplotlib (http://matplotlib.org/) -->
<svg height="695.52pt" version="1.1" viewBox="0 0 900 695.52" width="900pt" xmlns="http://www.w3.org/2000/svg" xmlns:xlink="http://www.w3.org/1999/xlink">
 <defs>
  <style type="text/css">
*{stroke-linecap:butt;stroke-linejoin:round;}
  </style>
 </defs>
 <g id="figure_1">
  <g id="patch_1">
   <path d="M 0 695.52 
L 900 695.52 
L 900 0 
L 0 0 
z
" style="fill:#ffffff;"/>
  </g>
  <g id="axes_1">
   <g id="patch_2">
    <path d="M 112.5 619.0128 
L 810 619.0128 
L 810 83.4624 
L 112.5 83.4624 
z
" style="fill:#eaeaf2;"/>
   </g>
   <g id="matplotlib.axis_1">
    <g id="xtick_1">
     <g id="line2d_1">
      <path clip-path="url(#paeed34f792)" d="M 112.5 619.0128 
L 112.5 83.4624 
" style="fill:none;stroke:#ffffff;stroke-dasharray:7.4,3.2;stroke-dashoffset:0;stroke-width:2;"/>
     </g>
     <g id="text_1">
      <!-- 0 -->
      <defs>
       <path d="M 31.78125 66.40625 
Q 24.171875 66.40625 20.328125 58.90625 
Q 16.5 51.421875 16.5 36.375 
Q 16.5 21.390625 20.328125 13.890625 
Q 24.171875 6.390625 31.78125 6.390625 
Q 39.453125 6.390625 43.28125 13.890625 
Q 47.125 21.390625 47.125 36.375 
Q 47.125 51.421875 43.28125 58.90625 
Q 39.453125 66.40625 31.78125 66.40625 
z
M 31.78125 74.21875 
Q 44.046875 74.21875 50.515625 64.515625 
Q 56.984375 54.828125 56.984375 36.375 
Q 56.984375 17.96875 50.515625 8.265625 
Q 44.046875 -1.421875 31.78125 -1.421875 
Q 19.53125 -1.421875 13.0625 8.265625 
Q 6.59375 17.96875 6.59375 36.375 
Q 6.59375 54.828125 13.0625 64.515625 
Q 19.53125 74.21875 31.78125 74.21875 
z
" id="DejaVuSans-30"/>
      </defs>
      <g style="fill:#262626;" transform="translate(105.50125 651.229362)scale(0.22 -0.22)">
       <use xlink:href="#DejaVuSans-30"/>
      </g>
     </g>
    </g>
    <g id="xtick_2">
     <g id="line2d_2">
      <path clip-path="url(#paeed34f792)" d="M 199.6875 619.0128 
L 199.6875 83.4624 
" style="fill:none;stroke:#ffffff;stroke-dasharray:7.4,3.2;stroke-dashoffset:0;stroke-width:2;"/>
     </g>
     <g id="text_2">
      <!-- 25 -->
      <defs>
       <path d="M 19.1875 8.296875 
L 53.609375 8.296875 
L 53.609375 0 
L 7.328125 0 
L 7.328125 8.296875 
Q 12.9375 14.109375 22.625 23.890625 
Q 32.328125 33.6875 34.8125 36.53125 
Q 39.546875 41.84375 41.421875 45.53125 
Q 43.3125 49.21875 43.3125 52.78125 
Q 43.3125 58.59375 39.234375 62.25 
Q 35.15625 65.921875 28.609375 65.921875 
Q 23.96875 65.921875 18.8125 64.3125 
Q 13.671875 62.703125 7.8125 59.421875 
L 7.8125 69.390625 
Q 13.765625 71.78125 18.9375 73 
Q 24.125 74.21875 28.421875 74.21875 
Q 39.75 74.21875 46.484375 68.546875 
Q 53.21875 62.890625 53.21875 53.421875 
Q 53.21875 48.921875 51.53125 44.890625 
Q 49.859375 40.875 45.40625 35.40625 
Q 44.1875 33.984375 37.640625 27.21875 
Q 31.109375 20.453125 19.1875 8.296875 
z
" id="DejaVuSans-32"/>
       <path d="M 10.796875 72.90625 
L 49.515625 72.90625 
L 49.515625 64.59375 
L 19.828125 64.59375 
L 19.828125 46.734375 
Q 21.96875 47.46875 24.109375 47.828125 
Q 26.265625 48.1875 28.421875 48.1875 
Q 40.625 48.1875 47.75 41.5 
Q 54.890625 34.8125 54.890625 23.390625 
Q 54.890625 11.625 47.5625 5.09375 
Q 40.234375 -1.421875 26.90625 -1.421875 
Q 22.3125 -1.421875 17.546875 -0.640625 
Q 12.796875 0.140625 7.71875 1.703125 
L 7.71875 11.625 
Q 12.109375 9.234375 16.796875 8.0625 
Q 21.484375 6.890625 26.703125 6.890625 
Q 35.15625 6.890625 40.078125 11.328125 
Q 45.015625 15.765625 45.015625 23.390625 
Q 45.015625 31 40.078125 35.4375 
Q 35.15625 39.890625 26.703125 39.890625 
Q 22.75 39.890625 18.8125 39.015625 
Q 14.890625 38.140625 10.796875 36.28125 
z
" id="DejaVuSans-35"/>
      </defs>
      <g style="fill:#262626;" transform="translate(185.69 651.229362)scale(0.22 -0.22)">
       <use xlink:href="#DejaVuSans-32"/>
       <use x="63.623047" xlink:href="#DejaVuSans-35"/>
      </g>
     </g>
    </g>
    <g id="xtick_3">
     <g id="line2d_3">
      <path clip-path="url(#paeed34f792)" d="M 286.875 619.0128 
L 286.875 83.4624 
" style="fill:none;stroke:#ffffff;stroke-dasharray:7.4,3.2;stroke-dashoffset:0;stroke-width:2;"/>
     </g>
     <g id="text_3">
      <!-- 50 -->
      <g style="fill:#262626;" transform="translate(272.8775 651.229362)scale(0.22 -0.22)">
       <use xlink:href="#DejaVuSans-35"/>
       <use x="63.623047" xlink:href="#DejaVuSans-30"/>
      </g>
     </g>
    </g>
    <g id="xtick_4">
     <g id="line2d_4">
      <path clip-path="url(#paeed34f792)" d="M 374.0625 619.0128 
L 374.0625 83.4624 
" style="fill:none;stroke:#ffffff;stroke-dasharray:7.4,3.2;stroke-dashoffset:0;stroke-width:2;"/>
     </g>
     <g id="text_4">
      <!-- 75 -->
      <defs>
       <path d="M 8.203125 72.90625 
L 55.078125 72.90625 
L 55.078125 68.703125 
L 28.609375 0 
L 18.3125 0 
L 43.21875 64.59375 
L 8.203125 64.59375 
z
" id="DejaVuSans-37"/>
      </defs>
      <g style="fill:#262626;" transform="translate(360.065 651.229362)scale(0.22 -0.22)">
       <use xlink:href="#DejaVuSans-37"/>
       <use x="63.623047" xlink:href="#DejaVuSans-35"/>
      </g>
     </g>
    </g>
    <g id="xtick_5">
     <g id="line2d_5">
      <path clip-path="url(#paeed34f792)" d="M 461.25 619.0128 
L 461.25 83.4624 
" style="fill:none;stroke:#ffffff;stroke-dasharray:7.4,3.2;stroke-dashoffset:0;stroke-width:2;"/>
     </g>
     <g id="text_5">
      <!-- 100 -->
      <defs>
       <path d="M 12.40625 8.296875 
L 28.515625 8.296875 
L 28.515625 63.921875 
L 10.984375 60.40625 
L 10.984375 69.390625 
L 28.421875 72.90625 
L 38.28125 72.90625 
L 38.28125 8.296875 
L 54.390625 8.296875 
L 54.390625 0 
L 12.40625 0 
z
" id="DejaVuSans-31"/>
      </defs>
      <g style="fill:#262626;" transform="translate(440.25375 651.229362)scale(0.22 -0.22)">
       <use xlink:href="#DejaVuSans-31"/>
       <use x="63.623047" xlink:href="#DejaVuSans-30"/>
       <use x="127.246094" xlink:href="#DejaVuSans-30"/>
      </g>
     </g>
    </g>
    <g id="xtick_6">
     <g id="line2d_6">
      <path clip-path="url(#paeed34f792)" d="M 548.4375 619.0128 
L 548.4375 83.4624 
" style="fill:none;stroke:#ffffff;stroke-dasharray:7.4,3.2;stroke-dashoffset:0;stroke-width:2;"/>
     </g>
     <g id="text_6">
      <!-- 125 -->
      <g style="fill:#262626;" transform="translate(527.44125 651.229362)scale(0.22 -0.22)">
       <use xlink:href="#DejaVuSans-31"/>
       <use x="63.623047" xlink:href="#DejaVuSans-32"/>
       <use x="127.246094" xlink:href="#DejaVuSans-35"/>
      </g>
     </g>
    </g>
    <g id="xtick_7">
     <g id="line2d_7">
      <path clip-path="url(#paeed34f792)" d="M 635.625 619.0128 
L 635.625 83.4624 
" style="fill:none;stroke:#ffffff;stroke-dasharray:7.4,3.2;stroke-dashoffset:0;stroke-width:2;"/>
     </g>
     <g id="text_7">
      <!-- 150 -->
      <g style="fill:#262626;" transform="translate(614.62875 651.229362)scale(0.22 -0.22)">
       <use xlink:href="#DejaVuSans-31"/>
       <use x="63.623047" xlink:href="#DejaVuSans-35"/>
       <use x="127.246094" xlink:href="#DejaVuSans-30"/>
      </g>
     </g>
    </g>
    <g id="xtick_8">
     <g id="line2d_8">
      <path clip-path="url(#paeed34f792)" d="M 722.8125 619.0128 
L 722.8125 83.4624 
" style="fill:none;stroke:#ffffff;stroke-dasharray:7.4,3.2;stroke-dashoffset:0;stroke-width:2;"/>
     </g>
     <g id="text_8">
      <!-- 175 -->
      <g style="fill:#262626;" transform="translate(701.81625 651.229362)scale(0.22 -0.22)">
       <use xlink:href="#DejaVuSans-31"/>
       <use x="63.623047" xlink:href="#DejaVuSans-37"/>
       <use x="127.246094" xlink:href="#DejaVuSans-35"/>
      </g>
     </g>
    </g>
    <g id="xtick_9">
     <g id="line2d_9">
      <path clip-path="url(#paeed34f792)" d="M 810 619.0128 
L 810 83.4624 
" style="fill:none;stroke:#ffffff;stroke-dasharray:7.4,3.2;stroke-dashoffset:0;stroke-width:2;"/>
     </g>
     <g id="text_9">
      <!-- 200 -->
      <g style="fill:#262626;" transform="translate(789.00375 651.229362)scale(0.22 -0.22)">
       <use xlink:href="#DejaVuSans-32"/>
       <use x="63.623047" xlink:href="#DejaVuSans-30"/>
       <use x="127.246094" xlink:href="#DejaVuSans-30"/>
      </g>
     </g>
    </g>
    <g id="text_10">
     <!-- time -->
     <defs>
      <path d="M 18.3125 70.21875 
L 18.3125 54.6875 
L 36.8125 54.6875 
L 36.8125 47.703125 
L 18.3125 47.703125 
L 18.3125 18.015625 
Q 18.3125 11.328125 20.140625 9.421875 
Q 21.96875 7.515625 27.59375 7.515625 
L 36.8125 7.515625 
L 36.8125 0 
L 27.59375 0 
Q 17.1875 0 13.234375 3.875 
Q 9.28125 7.765625 9.28125 18.015625 
L 9.28125 47.703125 
L 2.6875 47.703125 
L 2.6875 54.6875 
L 9.28125 54.6875 
L 9.28125 70.21875 
z
" id="DejaVuSans-74"/>
      <path d="M 9.421875 54.6875 
L 18.40625 54.6875 
L 18.40625 0 
L 9.421875 0 
z
M 9.421875 75.984375 
L 18.40625 75.984375 
L 18.40625 64.59375 
L 9.421875 64.59375 
z
" id="DejaVuSans-69"/>
      <path d="M 52 44.1875 
Q 55.375 50.25 60.0625 53.125 
Q 64.75 56 71.09375 56 
Q 79.640625 56 84.28125 50.015625 
Q 88.921875 44.046875 88.921875 33.015625 
L 88.921875 0 
L 79.890625 0 
L 79.890625 32.71875 
Q 79.890625 40.578125 77.09375 44.375 
Q 74.3125 48.1875 68.609375 48.1875 
Q 61.625 48.1875 57.5625 43.546875 
Q 53.515625 38.921875 53.515625 30.90625 
L 53.515625 0 
L 44.484375 0 
L 44.484375 32.71875 
Q 44.484375 40.625 41.703125 44.40625 
Q 38.921875 48.1875 33.109375 48.1875 
Q 26.21875 48.1875 22.15625 43.53125 
Q 18.109375 38.875 18.109375 30.90625 
L 18.109375 0 
L 9.078125 0 
L 9.078125 54.6875 
L 18.109375 54.6875 
L 18.109375 46.1875 
Q 21.1875 51.21875 25.484375 53.609375 
Q 29.78125 56 35.6875 56 
Q 41.65625 56 45.828125 52.96875 
Q 50 49.953125 52 44.1875 
z
" id="DejaVuSans-6d"/>
      <path d="M 56.203125 29.59375 
L 56.203125 25.203125 
L 14.890625 25.203125 
Q 15.484375 15.921875 20.484375 11.0625 
Q 25.484375 6.203125 34.421875 6.203125 
Q 39.59375 6.203125 44.453125 7.46875 
Q 49.3125 8.734375 54.109375 11.28125 
L 54.109375 2.78125 
Q 49.265625 0.734375 44.1875 -0.34375 
Q 39.109375 -1.421875 33.890625 -1.421875 
Q 20.796875 -1.421875 13.15625 6.1875 
Q 5.515625 13.8125 5.515625 26.8125 
Q 5.515625 40.234375 12.765625 48.109375 
Q 20.015625 56 32.328125 56 
Q 43.359375 56 49.78125 48.890625 
Q 56.203125 41.796875 56.203125 29.59375 
z
M 47.21875 32.234375 
Q 47.125 39.59375 43.09375 43.984375 
Q 39.0625 48.390625 32.421875 48.390625 
Q 24.90625 48.390625 20.390625 44.140625 
Q 15.875 39.890625 15.1875 32.171875 
z
" id="DejaVuSans-65"/>
     </defs>
     <g style="fill:#262626;" transform="translate(434.139375 678.040925)scale(0.24 -0.24)">
      <use xlink:href="#DejaVuSans-74"/>
      <use x="39.208984" xlink:href="#DejaVuSans-69"/>
      <use x="66.992188" xlink:href="#DejaVuSans-6d"/>
      <use x="164.404297" xlink:href="#DejaVuSans-65"/>
     </g>
    </g>
   </g>
   <g id="matplotlib.axis_2">
    <g id="ytick_1">
     <g id="line2d_10">
      <path clip-path="url(#paeed34f792)" d="M 112.5 619.0128 
L 810 619.0128 
" style="fill:none;stroke:#ffffff;stroke-dasharray:7.4,3.2;stroke-dashoffset:0;stroke-width:2;"/>
     </g>
     <g id="text_11">
      <!-- −1.5 -->
      <defs>
       <path d="M 10.59375 35.5 
L 73.1875 35.5 
L 73.1875 27.203125 
L 10.59375 27.203125 
z
" id="DejaVuSans-2212"/>
       <path d="M 10.6875 12.40625 
L 21 12.40625 
L 21 0 
L 10.6875 0 
z
" id="DejaVuSans-2e"/>
      </defs>
      <g style="fill:#262626;" transform="translate(43.577813 627.371081)scale(0.22 -0.22)">
       <use xlink:href="#DejaVuSans-2212"/>
       <use x="83.789062" xlink:href="#DejaVuSans-31"/>
       <use x="147.412109" xlink:href="#DejaVuSans-2e"/>
       <use x="179.199219" xlink:href="#DejaVuSans-35"/>
      </g>
     </g>
    </g>
    <g id="ytick_2">
     <g id="line2d_11">
      <path clip-path="url(#paeed34f792)" d="M 112.5 570.3264 
L 810 570.3264 
" style="fill:none;stroke:#ffffff;stroke-dasharray:7.4,3.2;stroke-dashoffset:0;stroke-width:2;"/>
     </g>
     <g id="text_12">
      <!-- −1.0 -->
      <g style="fill:#262626;" transform="translate(43.577813 578.684681)scale(0.22 -0.22)">
       <use xlink:href="#DejaVuSans-2212"/>
       <use x="83.789062" xlink:href="#DejaVuSans-31"/>
       <use x="147.412109" xlink:href="#DejaVuSans-2e"/>
       <use x="179.199219" xlink:href="#DejaVuSans-30"/>
      </g>
     </g>
    </g>
    <g id="ytick_3">
     <g id="line2d_12">
      <path clip-path="url(#paeed34f792)" d="M 112.5 521.64 
L 810 521.64 
" style="fill:none;stroke:#ffffff;stroke-dasharray:7.4,3.2;stroke-dashoffset:0;stroke-width:2;"/>
     </g>
     <g id="text_13">
      <!-- −0.5 -->
      <g style="fill:#262626;" transform="translate(43.577813 529.998281)scale(0.22 -0.22)">
       <use xlink:href="#DejaVuSans-2212"/>
       <use x="83.789062" xlink:href="#DejaVuSans-30"/>
       <use x="147.412109" xlink:href="#DejaVuSans-2e"/>
       <use x="179.199219" xlink:href="#DejaVuSans-35"/>
      </g>
     </g>
    </g>
    <g id="ytick_4">
     <g id="line2d_13">
      <path clip-path="url(#paeed34f792)" d="M 112.5 472.9536 
L 810 472.9536 
" style="fill:none;stroke:#ffffff;stroke-dasharray:7.4,3.2;stroke-dashoffset:0;stroke-width:2;"/>
     </g>
     <g id="text_14">
      <!-- 0.0 -->
      <g style="fill:#262626;" transform="translate(62.013125 481.311881)scale(0.22 -0.22)">
       <use xlink:href="#DejaVuSans-30"/>
       <use x="63.623047" xlink:href="#DejaVuSans-2e"/>
       <use x="95.410156" xlink:href="#DejaVuSans-30"/>
      </g>
     </g>
    </g>
    <g id="ytick_5">
     <g id="line2d_14">
      <path clip-path="url(#paeed34f792)" d="M 112.5 424.2672 
L 810 424.2672 
" style="fill:none;stroke:#ffffff;stroke-dasharray:7.4,3.2;stroke-dashoffset:0;stroke-width:2;"/>
     </g>
     <g id="text_15">
      <!-- 0.5 -->
      <g style="fill:#262626;" transform="translate(62.013125 432.625481)scale(0.22 -0.22)">
       <use xlink:href="#DejaVuSans-30"/>
       <use x="63.623047" xlink:href="#DejaVuSans-2e"/>
       <use x="95.410156" xlink:href="#DejaVuSans-35"/>
      </g>
     </g>
    </g>
    <g id="ytick_6">
     <g id="line2d_15">
      <path clip-path="url(#paeed34f792)" d="M 112.5 375.5808 
L 810 375.5808 
" style="fill:none;stroke:#ffffff;stroke-dasharray:7.4,3.2;stroke-dashoffset:0;stroke-width:2;"/>
     </g>
     <g id="text_16">
      <!-- 1.0 -->
      <g style="fill:#262626;" transform="translate(62.013125 383.939081)scale(0.22 -0.22)">
       <use xlink:href="#DejaVuSans-31"/>
       <use x="63.623047" xlink:href="#DejaVuSans-2e"/>
       <use x="95.410156" xlink:href="#DejaVuSans-30"/>
      </g>
     </g>
    </g>
    <g id="ytick_7">
     <g id="line2d_16">
      <path clip-path="url(#paeed34f792)" d="M 112.5 326.8944 
L 810 326.8944 
" style="fill:none;stroke:#ffffff;stroke-dasharray:7.4,3.2;stroke-dashoffset:0;stroke-width:2;"/>
     </g>
     <g id="text_17">
      <!-- 1.5 -->
      <g style="fill:#262626;" transform="translate(62.013125 335.252681)scale(0.22 -0.22)">
       <use xlink:href="#DejaVuSans-31"/>
       <use x="63.623047" xlink:href="#DejaVuSans-2e"/>
       <use x="95.410156" xlink:href="#DejaVuSans-35"/>
      </g>
     </g>
    </g>
    <g id="ytick_8">
     <g id="line2d_17">
      <path clip-path="url(#paeed34f792)" d="M 112.5 278.208 
L 810 278.208 
" style="fill:none;stroke:#ffffff;stroke-dasharray:7.4,3.2;stroke-dashoffset:0;stroke-width:2;"/>
     </g>
     <g id="text_18">
      <!-- 2.0 -->
      <g style="fill:#262626;" transform="translate(62.013125 286.566281)scale(0.22 -0.22)">
       <use xlink:href="#DejaVuSans-32"/>
       <use x="63.623047" xlink:href="#DejaVuSans-2e"/>
       <use x="95.410156" xlink:href="#DejaVuSans-30"/>
      </g>
     </g>
    </g>
    <g id="ytick_9">
     <g id="line2d_18">
      <path clip-path="url(#paeed34f792)" d="M 112.5 229.5216 
L 810 229.5216 
" style="fill:none;stroke:#ffffff;stroke-dasharray:7.4,3.2;stroke-dashoffset:0;stroke-width:2;"/>
     </g>
     <g id="text_19">
      <!-- 2.5 -->
      <g style="fill:#262626;" transform="translate(62.013125 237.879881)scale(0.22 -0.22)">
       <use xlink:href="#DejaVuSans-32"/>
       <use x="63.623047" xlink:href="#DejaVuSans-2e"/>
       <use x="95.410156" xlink:href="#DejaVuSans-35"/>
      </g>
     </g>
    </g>
    <g id="ytick_10">
     <g id="line2d_19">
      <path clip-path="url(#paeed34f792)" d="M 112.5 180.8352 
L 810 180.8352 
" style="fill:none;stroke:#ffffff;stroke-dasharray:7.4,3.2;stroke-dashoffset:0;stroke-width:2;"/>
     </g>
     <g id="text_20">
      <!-- 3.0 -->
      <defs>
       <path d="M 40.578125 39.3125 
Q 47.65625 37.796875 51.625 33 
Q 55.609375 28.21875 55.609375 21.1875 
Q 55.609375 10.40625 48.1875 4.484375 
Q 40.765625 -1.421875 27.09375 -1.421875 
Q 22.515625 -1.421875 17.65625 -0.515625 
Q 12.796875 0.390625 7.625 2.203125 
L 7.625 11.71875 
Q 11.71875 9.328125 16.59375 8.109375 
Q 21.484375 6.890625 26.8125 6.890625 
Q 36.078125 6.890625 40.9375 10.546875 
Q 45.796875 14.203125 45.796875 21.1875 
Q 45.796875 27.640625 41.28125 31.265625 
Q 36.765625 34.90625 28.71875 34.90625 
L 20.21875 34.90625 
L 20.21875 43.015625 
L 29.109375 43.015625 
Q 36.375 43.015625 40.234375 45.921875 
Q 44.09375 48.828125 44.09375 54.296875 
Q 44.09375 59.90625 40.109375 62.90625 
Q 36.140625 65.921875 28.71875 65.921875 
Q 24.65625 65.921875 20.015625 65.03125 
Q 15.375 64.15625 9.8125 62.3125 
L 9.8125 71.09375 
Q 15.4375 72.65625 20.34375 73.4375 
Q 25.25 74.21875 29.59375 74.21875 
Q 40.828125 74.21875 47.359375 69.109375 
Q 53.90625 64.015625 53.90625 55.328125 
Q 53.90625 49.265625 50.4375 45.09375 
Q 46.96875 40.921875 40.578125 39.3125 
z
" id="DejaVuSans-33"/>
      </defs>
      <g style="fill:#262626;" transform="translate(62.013125 189.193481)scale(0.22 -0.22)">
       <use xlink:href="#DejaVuSans-33"/>
       <use x="63.623047" xlink:href="#DejaVuSans-2e"/>
       <use x="95.410156" xlink:href="#DejaVuSans-30"/>
      </g>
     </g>
    </g>
    <g id="ytick_11">
     <g id="line2d_20">
      <path clip-path="url(#paeed34f792)" d="M 112.5 132.1488 
L 810 132.1488 
" style="fill:none;stroke:#ffffff;stroke-dasharray:7.4,3.2;stroke-dashoffset:0;stroke-width:2;"/>
     </g>
     <g id="text_21">
      <!-- 3.5 -->
      <g style="fill:#262626;" transform="translate(62.013125 140.507081)scale(0.22 -0.22)">
       <use xlink:href="#DejaVuSans-33"/>
       <use x="63.623047" xlink:href="#DejaVuSans-2e"/>
       <use x="95.410156" xlink:href="#DejaVuSans-35"/>
      </g>
     </g>
    </g>
    <g id="text_22">
     <!-- velocity -->
     <defs>
      <path d="M 2.984375 54.6875 
L 12.5 54.6875 
L 29.59375 8.796875 
L 46.6875 54.6875 
L 56.203125 54.6875 
L 35.6875 0 
L 23.484375 0 
z
" id="DejaVuSans-76"/>
      <path d="M 9.421875 75.984375 
L 18.40625 75.984375 
L 18.40625 0 
L 9.421875 0 
z
" id="DejaVuSans-6c"/>
      <path d="M 30.609375 48.390625 
Q 23.390625 48.390625 19.1875 42.75 
Q 14.984375 37.109375 14.984375 27.296875 
Q 14.984375 17.484375 19.15625 11.84375 
Q 23.34375 6.203125 30.609375 6.203125 
Q 37.796875 6.203125 41.984375 11.859375 
Q 46.1875 17.53125 46.1875 27.296875 
Q 46.1875 37.015625 41.984375 42.703125 
Q 37.796875 48.390625 30.609375 48.390625 
z
M 30.609375 56 
Q 42.328125 56 49.015625 48.375 
Q 55.71875 40.765625 55.71875 27.296875 
Q 55.71875 13.875 49.015625 6.21875 
Q 42.328125 -1.421875 30.609375 -1.421875 
Q 18.84375 -1.421875 12.171875 6.21875 
Q 5.515625 13.875 5.515625 27.296875 
Q 5.515625 40.765625 12.171875 48.375 
Q 18.84375 56 30.609375 56 
z
" id="DejaVuSans-6f"/>
      <path d="M 48.78125 52.59375 
L 48.78125 44.1875 
Q 44.96875 46.296875 41.140625 47.34375 
Q 37.3125 48.390625 33.40625 48.390625 
Q 24.65625 48.390625 19.8125 42.84375 
Q 14.984375 37.3125 14.984375 27.296875 
Q 14.984375 17.28125 19.8125 11.734375 
Q 24.65625 6.203125 33.40625 6.203125 
Q 37.3125 6.203125 41.140625 7.25 
Q 44.96875 8.296875 48.78125 10.40625 
L 48.78125 2.09375 
Q 45.015625 0.34375 40.984375 -0.53125 
Q 36.96875 -1.421875 32.421875 -1.421875 
Q 20.0625 -1.421875 12.78125 6.34375 
Q 5.515625 14.109375 5.515625 27.296875 
Q 5.515625 40.671875 12.859375 48.328125 
Q 20.21875 56 33.015625 56 
Q 37.15625 56 41.109375 55.140625 
Q 45.0625 54.296875 48.78125 52.59375 
z
" id="DejaVuSans-63"/>
      <path d="M 32.171875 -5.078125 
Q 28.375 -14.84375 24.75 -17.8125 
Q 21.140625 -20.796875 15.09375 -20.796875 
L 7.90625 -20.796875 
L 7.90625 -13.28125 
L 13.1875 -13.28125 
Q 16.890625 -13.28125 18.9375 -11.515625 
Q 21 -9.765625 23.484375 -3.21875 
L 25.09375 0.875 
L 2.984375 54.6875 
L 12.5 54.6875 
L 29.59375 11.921875 
L 46.6875 54.6875 
L 56.203125 54.6875 
z
" id="DejaVuSans-79"/>
     </defs>
     <g style="fill:#262626;" transform="translate(34.586562 398.13885)rotate(-90)scale(0.24 -0.24)">
      <use xlink:href="#DejaVuSans-76"/>
      <use x="59.179688" xlink:href="#DejaVuSans-65"/>
      <use x="120.703125" xlink:href="#DejaVuSans-6c"/>
      <use x="148.486328" xlink:href="#DejaVuSans-6f"/>
      <use x="209.667969" xlink:href="#DejaVuSans-63"/>
      <use x="264.648438" xlink:href="#DejaVuSans-69"/>
      <use x="292.431641" xlink:href="#DejaVuSans-74"/>
      <use x="331.640625" xlink:href="#DejaVuSans-79"/>
     </g>
    </g>
   </g>
   <g id="line2d_21">
    <path clip-path="url(#paeed34f792)" d="M 113.14651 443.453282 
L 115.739657 443.127953 
L 125.321723 440.032699 
L 141.09029 434.501782 
L 146.676497 432.284668 
L 153.644298 429.667471 
L 157.559577 428.211694 
L 159.349967 427.777284 
L 161.047732 426.853405 
L 164.195815 425.913676 
L 165.671872 425.134922 
L 167.095497 424.711644 
L 168.472355 423.720813 
L 169.808175 423.165503 
L 171.106221 422.178847 
L 174.799507 419.736129 
L 175.977346 418.90949 
L 177.132113 418.35738 
L 179.376273 416.869263 
L 180.462846 416.431123 
L 181.524229 415.801901 
L 183.574319 415.159959 
L 184.565297 414.533014 
L 185.534345 414.288726 
L 186.484092 413.717632 
L 187.41423 413.821442 
L 188.324914 412.996294 
L 189.215881 413.389981 
L 190.089894 412.397252 
L 190.947298 412.780565 
L 192.620213 412.162995 
L 193.437978 412.573032 
L 194.244281 411.506767 
L 195.040344 412.040505 
L 196.605953 411.148515 
L 197.377199 411.550039 
L 198.141319 410.237385 
L 198.900151 410.928753 
L 199.652777 410.026764 
L 200.401096 409.532961 
L 201.144951 409.932193 
L 201.8853 407.97415 
L 202.623202 408.172393 
L 203.358017 407.509035 
L 204.09178 406.374737 
L 204.823004 406.478916 
L 205.553914 404.96602 
L 207.014456 404.102773 
L 207.744208 403.055634 
L 208.47486 403.513355 
L 209.208312 401.615218 
L 209.943961 402.084289 
L 211.424061 400.827881 
L 212.168631 400.686347 
L 212.917768 399.789381 
L 213.669509 400.040372 
L 214.426733 398.768288 
L 215.188597 399.485015 
L 215.955193 397.780081 
L 216.727652 398.397296 
L 217.506796 397.180023 
L 218.290862 397.180853 
L 219.079656 395.932114 
L 219.872119 396.014946 
L 220.669641 394.431477 
L 221.471771 395.126997 
L 222.278671 393.579553 
L 223.091151 393.947921 
L 223.90844 392.990655 
L 224.730813 392.912781 
L 225.559769 392.656903 
L 226.394414 392.058481 
L 227.235398 392.062657 
L 228.083488 391.273092 
L 228.938792 391.419414 
L 229.80099 390.684105 
L 230.670269 390.686156 
L 232.433031 389.909883 
L 233.32802 390.099123 
L 234.230695 389.407521 
L 236.085791 388.521731 
L 237.036261 387.735189 
L 238.007342 387.478028 
L 238.998417 386.8583 
L 240.0075 386.04389 
L 241.034694 385.743668 
L 242.077655 385.771751 
L 243.131592 385.48118 
L 244.19715 385.420971 
L 245.270717 385.644351 
L 246.349281 386.195677 
L 247.430895 386.457823 
L 248.512929 386.8912 
L 249.59314 387.645298 
L 250.669402 388.598671 
L 252.809903 389.771486 
L 253.872187 390.627943 
L 254.930559 391.651319 
L 255.986374 391.614721 
L 258.091096 392.927621 
L 260.193174 392.912787 
L 261.244857 393.686717 
L 262.298187 393.397477 
L 265.45759 393.435229 
L 266.502205 393.177078 
L 267.535108 393.289593 
L 268.551818 393.661815 
L 269.550315 393.656114 
L 270.525206 394.727022 
L 271.47314 394.978201 
L 272.389569 395.824622 
L 273.272139 397.966888 
L 274.121437 398.337406 
L 274.941103 401.444379 
L 275.734594 401.517319 
L 276.506909 404.693359 
L 277.260367 406.065197 
L 277.998501 406.758444 
L 278.724011 410.250067 
L 279.439735 409.048283 
L 280.852405 413.978212 
L 281.552888 411.062067 
L 282.252305 413.831041 
L 282.95061 415.665349 
L 283.650243 411.865574 
L 284.352163 414.345068 
L 285.056363 415.965894 
L 285.763934 411.710896 
L 286.474646 414.082764 
L 287.187542 415.506239 
L 287.905043 410.82328 
L 288.626948 413.231209 
L 289.35274 414.573686 
L 290.084994 409.775425 
L 290.823729 412.093295 
L 291.568716 411.127855 
L 292.320876 408.712002 
L 293.078113 410.936462 
L 293.842365 407.899303 
L 294.611127 409.26569 
L 295.383058 410.15551 
L 296.159084 407.245895 
L 296.936959 410.052087 
L 297.716726 407.856192 
L 299.280293 409.780061 
L 300.064236 406.943461 
L 300.848966 410.078185 
L 301.63758 407.18846 
L 302.428965 408.727448 
L 303.223157 408.442098 
L 304.023386 407.09016 
L 304.830485 409.359495 
L 305.64596 405.242987 
L 306.472354 407.354376 
L 307.310995 404.148499 
L 308.163566 405.062245 
L 309.028868 402.792784 
L 309.902685 403.374529 
L 310.784551 402.018376 
L 311.671835 403.132272 
L 312.565088 401.517389 
L 313.461549 402.689415 
L 314.362358 400.974808 
L 315.265435 402.550345 
L 316.171796 399.981877 
L 317.079635 402.514816 
L 317.987359 399.553461 
L 318.894531 402.805898 
L 319.799036 399.223342 
L 320.7003 402.917304 
L 321.596801 399.556082 
L 322.489745 402.303367 
L 323.377116 400.077041 
L 324.258977 402.390576 
L 325.134383 400.672089 
L 326.002524 403.070193 
L 326.864158 402.246583 
L 327.716962 403.968597 
L 328.561752 402.425992 
L 329.394761 406.27426 
L 330.21916 403.042764 
L 331.033271 407.27119 
L 331.83858 404.962025 
L 332.633657 408.163964 
L 333.421191 407.109959 
L 334.198523 408.617435 
L 334.967682 412.133826 
L 335.728839 408.863338 
L 336.481435 413.192192 
L 337.226355 413.659028 
L 337.962987 412.944071 
L 338.692491 416.561893 
L 339.416098 415.240963 
L 340.131176 415.523062 
L 340.84058 419.036845 
L 341.545031 416.894048 
L 342.245093 417.282564 
L 342.943105 420.487625 
L 343.636023 419.902628 
L 344.327282 418.163299 
L 345.017798 421.074798 
L 345.707608 422.95403 
L 346.394204 418.719446 
L 347.080638 420.538804 
L 347.767421 422.700923 
L 348.456109 420.57137 
L 349.146283 419.534892 
L 349.838997 421.564417 
L 350.535046 421.268073 
L 351.235769 418.265448 
L 351.94138 419.718933 
L 352.654202 420.915192 
L 353.372507 416.912315 
L 354.096762 417.93629 
L 354.827154 419.405224 
L 355.563463 415.527796 
L 356.308583 416.674342 
L 357.060614 418.388973 
L 357.816815 415.018641 
L 359.345837 415.999198 
L 360.117315 413.075093 
L 360.89435 414.501367 
L 361.676869 413.538992 
L 362.464172 412.17385 
L 363.257126 413.984267 
L 364.055406 410.707616 
L 364.857743 411.828314 
L 365.665875 411.141687 
L 366.477782 409.880705 
L 367.292231 410.92309 
L 368.108742 408.624721 
L 368.926709 410.018141 
L 369.746726 408.478204 
L 370.565676 409.076065 
L 371.383922 409.286294 
L 372.201351 408.051301 
L 373.016662 409.399158 
L 373.829502 407.506144 
L 374.639401 409.678808 
L 375.447504 409.31948 
L 376.251657 410.248782 
L 377.051077 410.642516 
L 377.845827 409.658412 
L 378.634856 411.933746 
L 379.417088 410.338182 
L 380.190749 411.686931 
L 380.954932 411.623063 
L 381.708365 411.264197 
L 382.451013 412.989657 
L 383.181334 411.756665 
L 383.899543 412.373464 
L 384.604541 414.262867 
L 385.296364 412.244399 
L 385.977052 413.570689 
L 386.647335 415.222314 
L 387.310691 413.120954 
L 387.968376 414.379668 
L 388.620127 416.460889 
L 389.267104 414.392358 
L 389.909441 415.446575 
L 390.54743 417.651386 
L 391.820942 416.93054 
L 392.461404 419.058385 
L 393.101777 420.538028 
L 393.742191 418.805711 
L 394.382529 419.768434 
L 395.021843 421.663396 
L 396.28875 420.870891 
L 396.921397 422.100886 
L 397.553151 424.445566 
L 398.182736 422.680191 
L 398.812006 423.080765 
L 399.439977 424.147586 
L 400.062512 426.537775 
L 400.678961 425.559223 
L 401.290689 426.415919 
L 401.899367 428.216473 
L 402.506037 431.244597 
L 403.111513 432.101219 
L 403.716119 430.795037 
L 404.320593 431.695778 
L 404.924667 433.891253 
L 405.53261 438.505048 
L 406.145479 441.388783 
L 406.761589 437.840413 
L 408.650891 443.918703 
L 409.298365 446.947965 
L 409.954434 449.293822 
L 410.61866 448.888372 
L 411.293852 450.295574 
L 411.980195 453.018514 
L 412.679843 455.164964 
L 414.124216 460.534387 
L 415.629296 465.938948 
L 418.007189 474.305207 
L 418.824245 477.511135 
L 419.648107 480.228351 
L 423.813107 496.125671 
L 427.14688 507.397817 
L 428.819821 513.511231 
L 431.342432 522.682689 
L 435.597723 537.140532 
L 438.191502 545.508945 
L 441.711193 555.834205 
L 442.603067 557.879873 
L 443.500626 560.749943 
L 445.311776 564.620672 
L 446.226555 566.757242 
L 447.146656 568.295065 
L 448.073476 570.36967 
L 449.00671 572.144251 
L 451.845184 576.453414 
L 453.772684 579.242173 
L 455.728999 581.499698 
L 457.714672 583.256129 
L 458.718791 583.997234 
L 462.801539 586.210346 
L 463.83613 586.718377 
L 466.969737 587.133233 
L 468.023461 587.449677 
L 472.297086 587.378779 
L 476.656944 586.450339 
L 478.872984 585.886583 
L 479.990704 585.625229 
L 482.246755 584.917573 
L 483.385361 584.621016 
L 487.991606 582.059089 
L 490.327483 580.058365 
L 491.506228 578.975225 
L 492.690109 577.39829 
L 493.874088 575.081278 
L 495.053377 571.615597 
L 496.22059 567.136229 
L 499.333395 544.268351 
L 500.269076 539.018455 
L 501.20795 535.757933 
L 502.166388 533.026743 
L 504.127837 529.160576 
L 505.105737 527.485488 
L 506.083303 526.154106 
L 507.059927 524.623902 
L 508.036146 523.688763 
L 509.015005 522.381502 
L 509.995286 521.353827 
L 510.979899 520.565028 
L 511.970577 519.549979 
L 512.966808 518.693347 
L 513.967247 518.035789 
L 514.972855 517.065469 
L 515.985253 516.509454 
L 519.07184 514.460411 
L 520.11764 513.851367 
L 521.174235 513.01599 
L 522.24043 512.660975 
L 524.4049 511.361022 
L 525.502713 511.003113 
L 526.613641 510.501391 
L 527.730816 509.795091 
L 529.974252 509.065095 
L 531.10091 508.37146 
L 532.231041 507.96853 
L 533.364525 507.807677 
L 534.501748 507.049888 
L 535.642605 506.62815 
L 536.786163 506.462274 
L 539.08428 505.480608 
L 541.399304 505.025402 
L 542.563451 504.523549 
L 543.732507 504.160415 
L 544.906419 504.081777 
L 547.269413 503.240967 
L 548.459256 502.992007 
L 549.654096 502.931048 
L 550.855311 502.463725 
L 552.062753 502.163731 
L 554.496118 501.84955 
L 556.949793 501.063286 
L 559.421388 500.714499 
L 561.917386 499.989535 
L 564.436213 499.774466 
L 566.980869 498.968985 
L 568.262807 498.816885 
L 569.550917 498.815635 
L 570.845916 498.508332 
L 572.14807 498.049012 
L 573.456998 497.833989 
L 574.772606 497.8471 
L 576.094906 497.61938 
L 577.424921 497.135787 
L 578.762618 496.887553 
L 580.106948 497.012493 
L 581.458623 496.877806 
L 582.817333 496.422294 
L 584.183582 496.091491 
L 585.557337 496.184422 
L 586.938814 496.038604 
L 589.726513 495.316923 
L 591.13219 495.429293 
L 592.545716 495.425237 
L 595.399702 494.594354 
L 598.287361 494.70744 
L 599.744832 494.44512 
L 601.211864 494.028226 
L 602.687811 493.905687 
L 604.172781 493.959522 
L 605.666569 493.778787 
L 607.170469 493.37343 
L 608.684794 493.173248 
L 610.20825 493.294344 
L 611.740847 493.225187 
L 614.838368 492.481613 
L 617.977567 492.547264 
L 622.767574 491.759208 
L 624.386 491.86495 
L 626.016065 491.675255 
L 627.657724 491.342049 
L 629.311764 491.141742 
L 632.65397 491.1942 
L 637.753728 490.454351 
L 639.473542 490.547374 
L 641.200542 490.475724 
L 644.688167 489.866026 
L 646.448113 489.843708 
L 648.219838 489.960818 
L 650.002836 489.733936 
L 651.795605 489.367838 
L 653.602292 489.172099 
L 657.244169 489.216067 
L 660.938562 488.640554 
L 666.572825 488.387048 
L 670.399282 487.947247 
L 700.983477 486.08642 
L 705.348671 485.922537 
L 709.788306 485.597836 
L 718.914646 485.158613 
L 723.606296 484.833099 
L 728.387544 484.715989 
L 735.734709 484.201736 
L 740.759296 484.109109 
L 745.889153 483.739521 
L 751.129785 483.614357 
L 756.48498 483.361154 
L 761.962647 483.114979 
L 770.415769 482.872044 
L 776.214603 482.647863 
L 785.174196 482.40628 
L 800.8567 481.938292 
L 814.166633 481.57004 
L 821.092984 481.37508 
L 821.092984 481.37508 
" style="fill:none;stroke:#66c2a5;stroke-linecap:round;stroke-width:3;"/>
   </g>
   <g id="line2d_22">
    <path clip-path="url(#paeed34f792)" d="M 113.14651 420.20984 
L 115.739657 420.134872 
L 122.150443 418.329351 
L 125.321723 417.14499 
L 128.507974 415.687864 
L 134.847075 412.156955 
L 137.995505 410.206365 
L 141.09029 408.07146 
L 143.990404 405.707453 
L 149.168707 400.725795 
L 151.483742 398.188991 
L 153.644298 395.61793 
L 157.559577 389.881809 
L 159.349967 387.149221 
L 162.65805 380.921807 
L 164.195815 377.76408 
L 167.095497 371.108967 
L 169.808175 364.000895 
L 172.366874 356.454036 
L 175.977346 345.135744 
L 179.376273 333.827453 
L 183.574319 318.553798 
L 188.324914 299.938247 
L 190.947298 289.230998 
L 195.827611 271.080696 
L 197.377199 266.00974 
L 198.141319 263.75686 
L 198.900151 262.040868 
L 199.652777 260.057406 
L 201.144951 257.305699 
L 201.8853 256.45843 
L 203.358017 255.400892 
L 204.823004 255.390129 
L 205.553914 255.897883 
L 207.014456 256.462522 
L 207.744208 256.740227 
L 209.208312 257.086617 
L 209.943961 256.962881 
L 212.168631 257.317875 
L 213.669509 257.800169 
L 215.188597 258.840271 
L 216.727652 260.0943 
L 217.506796 261.211064 
L 218.290862 262.089776 
L 221.471771 267.252379 
L 223.90844 270.952989 
L 224.730813 272.076299 
L 225.559769 273.508262 
L 227.235398 275.98712 
L 228.938792 279.023723 
L 230.670269 281.878801 
L 232.433031 285.171069 
L 233.32802 286.96654 
L 234.230695 288.373746 
L 236.085791 295.426095 
L 237.036261 298.406924 
L 240.0075 311.448446 
L 241.034694 315.562111 
L 242.077655 319.013263 
L 244.19715 323.542041 
L 245.270717 325.111389 
L 246.349281 325.892747 
L 247.430895 326.202503 
L 248.512929 325.777043 
L 249.59314 324.660351 
L 251.741952 321.156521 
L 253.872187 316.654792 
L 255.986374 312.249555 
L 259.14222 305.962317 
L 261.244857 302.02513 
L 263.352666 298.358056 
L 265.45759 293.830003 
L 266.502205 291.008327 
L 267.535108 287.370974 
L 269.550315 278.5342 
L 270.525206 272.966543 
L 271.47314 266.737511 
L 273.272139 252.491184 
L 277.998501 210.230499 
L 279.439735 200.503543 
L 280.852405 194.16859 
L 281.552888 192.216352 
L 282.95061 190.092471 
L 283.650243 190.030456 
L 284.352163 190.423717 
L 285.056363 191.045119 
L 287.187542 194.29404 
L 289.35274 199.675216 
L 293.842365 215.544092 
L 294.611127 217.294896 
L 295.383058 218.575681 
L 296.159084 220.10801 
L 297.716726 221.362755 
L 298.497249 221.506829 
L 299.280293 222.346488 
L 300.848966 222.605813 
L 301.63758 223.761472 
L 303.223157 225.185207 
L 304.830485 228.910738 
L 305.64596 231.16917 
L 309.028868 244.306159 
L 310.784551 247.09452 
L 311.671835 247.596773 
L 312.565088 248.281616 
L 313.461549 248.157569 
L 314.362358 248.393203 
L 315.265435 247.98576 
L 316.171796 247.864199 
L 318.894531 245.86047 
L 320.7003 243.856577 
L 321.596801 242.393163 
L 322.489745 241.363665 
L 324.258977 237.915648 
L 326.002524 233.881526 
L 327.716962 228.874832 
L 328.561752 226.190641 
L 331.033271 216.688173 
L 331.83858 213.601222 
L 332.633657 210.016338 
L 333.421191 207.020407 
L 334.967682 200.246563 
L 338.692491 184.173334 
L 339.416098 181.781013 
L 340.131176 178.594691 
L 342.245093 172.229227 
L 342.943105 170.981272 
L 343.636023 168.591545 
L 344.327282 167.272366 
L 345.707608 165.675472 
L 346.394204 164.475621 
L 347.080638 164.747704 
L 347.767421 165.25607 
L 349.146283 167.061934 
L 349.838997 168.766714 
L 351.235769 171.688966 
L 351.94138 173.518971 
L 355.563463 185.939245 
L 357.060614 192.347915 
L 357.816815 194.436876 
L 358.579348 197.328619 
L 362.464172 206.944807 
L 364.055406 209.551713 
L 364.857743 210.447672 
L 365.665875 211.53982 
L 366.477782 212.129252 
L 368.108742 212.572754 
L 369.746726 212.435998 
L 371.383922 211.391063 
L 373.016662 209.554333 
L 373.829502 208.42359 
L 377.051077 202.966602 
L 378.634856 199.840652 
L 382.451013 191.086572 
L 387.310691 177.065941 
L 388.620127 172.70098 
L 390.54743 165.619617 
L 391.820942 159.915426 
L 392.461404 157.588886 
L 393.101777 154.78217 
L 393.742191 151.458353 
L 395.021843 145.990737 
L 395.656478 142.675598 
L 398.812006 130.394073 
L 399.439977 128.941471 
L 400.678961 125.253712 
L 401.290689 124.481904 
L 401.899367 124.767446 
L 402.506037 124.720072 
L 403.111513 124.09876 
L 403.716119 124.437565 
L 404.320593 125.903953 
L 404.924667 126.755931 
L 406.761589 132.400225 
L 409.298365 144.084839 
L 413.393389 168.174202 
L 414.124216 173.254301 
L 415.629296 181.342345 
L 416.404724 185.104276 
L 417.199377 189.912467 
L 418.007189 193.226979 
L 419.648107 201.249219 
L 421.313093 208.215757 
L 422.98033 213.848972 
L 423.813107 216.228798 
L 425.479027 219.729132 
L 427.14688 222.047902 
L 427.982618 223.091683 
L 428.819821 223.920439 
L 429.658582 224.36559 
L 430.499131 224.940107 
L 431.342432 225.184779 
L 432.188268 225.104532 
L 433.036174 225.393817 
L 433.886653 225.421105 
L 434.740473 225.07751 
L 435.597723 224.395031 
L 436.458481 224.622859 
L 439.064748 222.864049 
L 439.94211 222.504632 
L 440.824184 221.995059 
L 441.711193 221.678346 
L 442.603067 220.898436 
L 443.500626 220.564429 
L 445.311776 219.586662 
L 447.146656 218.997643 
L 449.00671 218.879576 
L 449.946266 218.814265 
L 452.805351 219.450389 
L 453.772684 219.926981 
L 456.718035 221.954824 
L 459.730583 224.639139 
L 466.969737 233.487154 
L 470.148476 237.95332 
L 471.219825 239.243098 
L 473.37945 242.326246 
L 476.656944 246.613516 
L 481.115183 252.790539 
L 483.385361 256.39522 
L 484.530593 258.283365 
L 485.679516 260.688289 
L 486.832822 263.810514 
L 487.991606 267.885469 
L 489.15625 272.713102 
L 490.327483 278.801125 
L 491.506228 287.244656 
L 492.690109 297.973059 
L 493.874088 312.340101 
L 495.053377 330.810435 
L 497.346945 381.319106 
L 499.333395 429.920753 
L 500.269076 442.774277 
L 501.20795 451.696678 
L 502.166388 456.534003 
L 503.146908 459.532862 
L 504.127837 461.909341 
L 505.105737 463.035662 
L 506.083303 463.768364 
L 508.036146 463.97279 
L 509.015005 463.726396 
L 509.995286 462.983221 
L 510.979899 462.724065 
L 513.967247 460.799862 
L 514.972855 459.778266 
L 515.985253 459.597495 
L 517.006833 458.571694 
L 518.032698 457.762091 
L 519.07184 457.589052 
L 521.174235 455.847018 
L 522.24043 455.805026 
L 524.4049 454.134337 
L 525.502713 454.041664 
L 526.613641 453.446562 
L 527.730816 452.608232 
L 528.851139 452.561923 
L 529.974252 452.240045 
L 531.10091 451.328113 
L 532.231041 451.141635 
L 533.364525 451.471242 
L 534.501748 450.176908 
L 535.642605 449.908337 
L 536.786163 450.315973 
L 537.93315 449.65281 
L 539.08428 449.238206 
L 540.239749 449.325214 
L 541.399304 449.583881 
L 542.563451 448.898486 
L 543.732507 448.621984 
L 544.906419 449.385982 
L 546.085574 448.723233 
L 547.269413 448.416514 
L 548.459256 448.494338 
L 549.654096 449.125954 
L 550.855311 448.436235 
L 552.062753 448.310454 
L 553.276249 448.747434 
L 554.496118 448.91092 
L 556.949793 447.918979 
L 558.182826 448.295105 
L 559.421388 448.451599 
L 561.917386 447.869478 
L 563.173725 448.383886 
L 564.436213 448.611891 
L 565.705115 448.34315 
L 566.980869 447.79914 
L 568.262807 448.056306 
L 569.550917 448.793614 
L 570.845916 448.717712 
L 572.14807 448.102112 
L 573.456998 448.134596 
L 574.772606 448.95384 
L 576.094906 449.062876 
L 577.424921 448.312583 
L 578.762618 448.267627 
L 580.106948 449.327244 
L 581.458623 449.73581 
L 582.817333 449.037833 
L 584.183582 448.777513 
L 585.557337 449.835759 
L 586.938814 450.130079 
L 588.328667 449.642278 
L 589.726513 449.350867 
L 591.13219 450.442888 
L 592.545716 451.097234 
L 593.968262 450.637239 
L 595.399702 449.983231 
L 598.287361 451.865571 
L 599.744832 451.802669 
L 601.211864 451.285236 
L 602.687811 451.68475 
L 604.172781 452.640747 
L 605.666569 452.82485 
L 607.170469 452.29151 
L 608.684794 452.459385 
L 610.20825 453.517273 
L 611.740847 454.003243 
L 614.838368 453.125895 
L 617.977567 454.797983 
L 619.563185 454.683273 
L 621.15942 454.204778 
L 622.767574 454.537308 
L 624.386 455.614476 
L 626.016065 455.737109 
L 627.657724 455.383641 
L 629.311764 455.500785 
L 632.65397 457.150882 
L 634.343133 456.939845 
L 636.043285 456.557804 
L 637.753728 456.877063 
L 639.473542 457.900557 
L 641.200542 458.292448 
L 642.938687 457.891041 
L 644.688167 457.790563 
L 646.448113 458.46047 
L 648.219838 459.455735 
L 650.002836 459.380445 
L 651.795605 458.908279 
L 653.602292 459.013612 
L 655.417988 459.857081 
L 657.244169 460.438428 
L 660.938562 460.055258 
L 662.804393 460.456229 
L 664.683105 461.004717 
L 666.572825 461.19547 
L 668.478337 461.104569 
L 670.399282 461.229332 
L 672.330025 461.523575 
L 674.278343 461.950425 
L 678.211172 462.130946 
L 690.388108 463.454688 
L 694.573358 463.993441 
L 700.983477 464.428115 
L 705.348671 465.10147 
L 707.557743 464.964483 
L 714.308253 465.638289 
L 716.596929 465.939325 
L 718.914646 466.026237 
L 721.246212 465.968421 
L 723.606296 466.070573 
L 725.980882 466.538401 
L 728.387544 466.790554 
L 733.266114 466.549157 
L 735.734709 466.744346 
L 738.240158 467.210132 
L 740.759296 467.443459 
L 743.315764 467.288658 
L 745.889153 467.28627 
L 748.503408 467.46181 
L 751.129785 467.879585 
L 753.799137 468.10223 
L 759.214817 468.031963 
L 761.962647 468.170284 
L 767.562998 468.711303 
L 776.214603 468.887805 
L 779.162116 469.201902 
L 791.329969 469.470748 
L 794.462871 469.700444 
L 804.119101 469.952523 
L 810.767426 470.133689 
L 814.166633 470.344518 
L 821.092984 470.44522 
L 821.092984 470.44522 
" style="fill:none;stroke:#66c2a5;stroke-dasharray:12,4.5;stroke-dashoffset:0;stroke-width:3;"/>
   </g>
   <g id="line2d_23">
    <path clip-path="url(#paeed34f792)" d="M 113.146509 443.453625 
L 115.737883 443.171161 
L 125.337848 439.85085 
L 128.537692 438.837247 
L 131.742091 437.69976 
L 134.931017 436.740753 
L 144.054235 433.396153 
L 146.734574 432.649533 
L 149.218189 431.648906 
L 151.52441 430.595898 
L 153.676135 429.736078 
L 159.360467 427.727063 
L 162.659631 426.594371 
L 164.191922 425.813646 
L 165.663251 425.240287 
L 169.786981 423.141017 
L 173.575391 420.491846 
L 174.777353 419.925704 
L 175.955342 418.863224 
L 177.109788 418.811175 
L 178.244237 417.826859 
L 179.355308 417.708363 
L 180.443666 416.709183 
L 181.505378 416.664269 
L 182.542143 415.570978 
L 183.554884 415.696294 
L 184.54504 414.566113 
L 185.513276 414.856885 
L 186.461592 414.057193 
L 187.391088 414.019092 
L 189.190618 413.249057 
L 190.062957 413.97278 
L 190.920371 412.547886 
L 191.763063 413.559791 
L 192.592168 412.696191 
L 193.409887 412.785299 
L 194.21592 413.013045 
L 195.012169 411.682014 
L 195.799105 412.689105 
L 196.577512 411.169657 
L 197.349049 411.580048 
L 198.112711 411.82455 
L 198.871343 410.231246 
L 199.623672 411.009809 
L 200.371824 409.944326 
L 201.115921 409.35797 
L 201.856078 410.043826 
L 202.59422 407.475611 
L 203.329276 408.020772 
L 204.063382 407.46954 
L 204.795503 405.895415 
L 205.526883 406.545669 
L 206.258554 403.975477 
L 206.989099 404.717701 
L 207.720459 403.701153 
L 208.453092 402.886018 
L 209.188361 403.391421 
L 209.926437 401.495026 
L 210.667708 402.723869 
L 211.411095 401.17515 
L 212.158745 401.505997 
L 212.91053 400.728318 
L 213.665799 400.367935 
L 214.425944 400.28702 
L 215.190276 399.145439 
L 215.95955 399.740298 
L 216.735727 398.047445 
L 217.516895 398.626775 
L 218.304477 396.87433 
L 219.095772 397.850001 
L 219.891735 395.755654 
L 220.691981 396.268545 
L 221.497478 394.802617 
L 222.307281 395.440236 
L 223.122719 394.104389 
L 223.94216 394.824792 
L 224.767082 393.528113 
L 225.598137 393.733393 
L 226.436097 393.075368 
L 228.131737 392.711566 
L 228.990614 391.776043 
L 229.855165 392.397941 
L 230.72757 390.91732 
L 231.607067 391.299361 
L 232.495969 390.737359 
L 233.393614 390.596399 
L 234.298606 390.824809 
L 235.219899 389.261566 
L 236.158128 389.253606 
L 237.111049 388.746679 
L 238.083229 387.590016 
L 239.072909 387.582444 
L 240.084078 386.899071 
L 241.109996 386.067687 
L 242.148571 386.321193 
L 243.200477 385.9491 
L 244.263606 386.251544 
L 245.332745 385.960108 
L 247.492617 386.894276 
L 248.574654 387.683803 
L 249.657241 387.714897 
L 250.736983 388.445319 
L 252.884788 390.413712 
L 253.9523 390.625072 
L 255.017456 391.512685 
L 256.080276 392.172806 
L 258.199216 392.714675 
L 259.257918 393.187949 
L 260.318899 393.332385 
L 261.382821 392.916215 
L 262.451374 393.441516 
L 263.524991 393.326946 
L 264.603238 392.730477 
L 266.760114 392.750932 
L 267.833783 392.324554 
L 268.898726 392.194786 
L 270.974681 392.711108 
L 271.975044 392.620001 
L 272.938412 394.105465 
L 273.862872 394.936058 
L 274.752692 396.202227 
L 275.609216 398.272554 
L 276.437779 399.609421 
L 277.240963 401.836455 
L 278.022006 403.184162 
L 278.785262 405.079774 
L 279.532845 407.382036 
L 280.269564 407.692106 
L 280.997788 410.331661 
L 281.719657 410.223018 
L 282.437634 410.954224 
L 283.15346 412.485648 
L 283.868526 411.136087 
L 284.584957 412.298136 
L 285.303594 412.668084 
L 286.02638 411.29529 
L 286.754686 412.400493 
L 287.488874 411.841712 
L 288.229199 410.763433 
L 288.975859 411.88914 
L 289.727256 409.733681 
L 290.485868 409.829707 
L 291.251318 410.399701 
L 292.021646 408.742132 
L 292.797663 409.69457 
L 293.578371 408.295927 
L 294.363238 408.302246 
L 295.152546 408.481376 
L 295.945383 407.350724 
L 296.74202 408.365295 
L 297.540114 406.749388 
L 298.341645 407.919354 
L 299.144308 406.994685 
L 299.949283 407.346586 
L 300.756471 407.877614 
L 301.5647 407.165402 
L 302.37463 408.029326 
L 303.184019 406.818893 
L 303.996259 407.988329 
L 304.80812 406.968906 
L 305.623027 407.312722 
L 307.264637 406.231538 
L 308.094629 406.417216 
L 308.932847 405.233562 
L 309.780813 405.427286 
L 310.640651 403.650463 
L 311.512533 403.735554 
L 312.401552 401.830448 
L 313.30695 401.687627 
L 314.229981 400.052271 
L 316.118806 399.216245 
L 317.076243 398.843913 
L 318.040846 399.127487 
L 319.010744 398.185082 
L 319.986738 398.781741 
L 320.967669 398.217263 
L 321.953908 397.997259 
L 322.946504 398.098387 
L 323.945758 397.278068 
L 324.950035 397.438801 
L 325.961013 396.931187 
L 327.999828 396.611549 
L 329.02493 395.809744 
L 330.054561 395.540303 
L 331.084357 395.81003 
L 332.112448 394.599323 
L 334.143044 395.119366 
L 335.142793 394.351077 
L 336.123382 395.497017 
L 337.077015 396.417621 
L 337.999503 397.028428 
L 338.891432 399.335672 
L 339.754782 400.168224 
L 340.589704 403.185069 
L 341.39984 404.236963 
L 342.186414 407.097228 
L 342.950627 408.477485 
L 343.697768 410.783736 
L 344.427762 413.693334 
L 345.145416 414.091615 
L 346.550128 418.518644 
L 347.242534 418.568039 
L 348.614024 421.454254 
L 349.294557 421.546988 
L 349.973982 421.911269 
L 350.652226 422.482197 
L 351.330393 423.52342 
L 352.010282 422.386634 
L 352.692931 422.73452 
L 353.378967 422.71942 
L 354.071017 422.17325 
L 354.770715 421.185027 
L 355.477349 420.427805 
L 356.18933 420.91531 
L 356.909219 419.273537 
L 357.635086 418.745267 
L 358.366163 419.494804 
L 359.10311 418.493052 
L 359.843 418.157447 
L 360.586891 418.683627 
L 361.336353 417.361744 
L 362.087102 417.221928 
L 362.842339 417.901131 
L 363.601909 416.420657 
L 364.367615 416.243075 
L 365.138424 416.398834 
L 365.916161 415.461619 
L 366.705309 415.703746 
L 367.501737 415.26166 
L 369.12897 414.075181 
L 369.962132 411.911718 
L 370.810608 411.106633 
L 372.560904 407.741994 
L 373.461006 406.400817 
L 374.377496 405.630224 
L 375.299785 405.257064 
L 376.229185 404.516027 
L 377.159953 404.401474 
L 378.095434 403.780975 
L 379.973058 403.0323 
L 380.914023 402.5864 
L 381.85583 402.308771 
L 382.797343 401.36664 
L 383.738841 401.447787 
L 384.68215 400.424446 
L 385.619996 400.683241 
L 386.553396 399.904847 
L 387.478276 399.852612 
L 389.297901 399.276946 
L 390.186475 399.495481 
L 391.057811 399.089906 
L 391.906849 400.074567 
L 392.734239 399.614173 
L 393.539075 400.993403 
L 394.320679 400.955539 
L 395.826546 404.351131 
L 396.556257 406.072142 
L 397.267265 408.874636 
L 397.961508 409.976344 
L 399.303422 414.99131 
L 399.959649 415.725419 
L 401.247604 420.970403 
L 401.879543 421.546391 
L 403.126497 424.824774 
L 403.739933 427.091513 
L 404.347478 426.93087 
L 406.764535 431.383933 
L 407.371163 430.502063 
L 407.974545 431.744495 
L 408.572114 432.38235 
L 409.754881 434.996971 
L 410.345365 433.382313 
L 410.937703 433.720637 
L 411.531018 434.326695 
L 412.128139 435.364033 
L 412.732406 438.10426 
L 413.34402 436.159516 
L 413.961629 435.798463 
L 415.217106 438.698909 
L 415.858854 441.213759 
L 416.510746 444.475328 
L 417.172167 442.334953 
L 417.844103 443.956844 
L 418.530599 446.371183 
L 420.674879 454.945036 
L 421.420181 457.424351 
L 422.964836 460.749647 
L 424.602352 465.942526 
L 427.239912 472.072551 
L 428.166183 474.040357 
L 430.099027 477.521581 
L 432.074196 481.47941 
L 441.9953 505.245047 
L 443.00642 507.214806 
L 446.071673 514.462583 
L 448.143805 519.162101 
L 451.300156 525.091913 
L 456.705508 534.126065 
L 457.810719 535.893628 
L 458.923937 537.229365 
L 461.177395 540.260871 
L 464.629313 544.127339 
L 468.174742 547.310061 
L 471.815384 549.585917 
L 473.051525 550.371946 
L 474.298927 550.907024 
L 475.558046 551.634925 
L 478.111793 552.564168 
L 479.4061 552.787269 
L 480.712446 553.230466 
L 482.030292 553.411827 
L 483.360246 553.707101 
L 486.058471 554.03998 
L 488.80665 554.381687 
L 490.199185 554.456402 
L 494.456233 554.266048 
L 495.901769 554.381927 
L 497.360222 554.251163 
L 498.832196 554.278017 
L 501.815266 554.02763 
L 506.385356 553.821882 
L 507.933927 553.574257 
L 509.495002 553.559637 
L 517.472567 552.651824 
L 522.389215 551.573845 
L 525.710806 550.761854 
L 532.436071 548.277148 
L 534.127399 547.542458 
L 535.8191 546.550516 
L 537.507824 544.95468 
L 539.191027 542.161753 
L 540.866896 537.448025 
L 542.526255 533.247281 
L 544.128771 530.339826 
L 545.540987 525.9262 
L 546.851741 522.498471 
L 548.149128 520.080679 
L 549.474818 518.393777 
L 550.859479 516.827225 
L 553.783056 514.004717 
L 558.256373 510.6787 
L 559.758042 509.800238 
L 561.267302 508.780763 
L 562.782351 508.093983 
L 564.305508 507.190085 
L 565.83624 506.625937 
L 568.923347 505.180694 
L 570.479412 504.662352 
L 572.044593 503.989454 
L 573.618115 503.6065 
L 576.791503 502.49836 
L 578.39164 502.171619 
L 581.618678 501.266321 
L 591.499865 499.068583 
L 619.040289 494.497054 
L 620.813805 494.312199 
L 624.38227 493.737822 
L 635.268648 492.245984 
L 642.697479 491.181339 
L 646.466348 490.785308 
L 650.272182 490.384234 
L 652.189051 490.252099 
L 656.049637 489.750819 
L 659.94587 489.531444 
L 663.878273 489.164078 
L 669.844935 488.771955 
L 673.870046 488.600948 
L 705.359495 486.979115 
L 781.916029 484.27377 
L 798.046045 483.866019 
L 806.367165 483.621614 
L 812.014019 483.473338 
L 820.640398 483.267051 
L 829.463569 483.05721 
L 844.634062 482.725687 
L 863.671252 482.261389 
L 873.559276 482.086983 
L 887.158881 481.781199 
L 894.146976 481.64879 
L 901 481.53969 
L 901 481.53969 
" style="fill:none;stroke:#fc8d62;stroke-linecap:round;stroke-width:3;"/>
   </g>
   <g id="line2d_24">
    <path clip-path="url(#paeed34f792)" d="M 113.146509 420.210511 
L 115.737883 420.074185 
L 118.957476 419.197629 
L 122.153124 418.170427 
L 125.337848 416.97936 
L 128.537692 415.596857 
L 131.742091 413.885288 
L 138.078915 410.089917 
L 141.16397 407.914791 
L 146.734574 403.325356 
L 151.52441 398.21043 
L 153.676135 395.494179 
L 155.690817 392.709733 
L 159.360467 387.01871 
L 162.659631 380.695489 
L 165.663251 374.158583 
L 167.082087 370.824643 
L 171.083339 359.966038 
L 175.955342 345.01545 
L 180.443666 330.328623 
L 187.391088 303.523696 
L 190.062957 292.709897 
L 193.409887 279.959857 
L 195.012169 273.899476 
L 196.577512 268.476021 
L 197.349049 266.261173 
L 198.112711 263.693447 
L 198.871343 262.056186 
L 199.623672 260.025097 
L 201.115921 257.422653 
L 201.856078 256.451402 
L 203.329276 255.598488 
L 204.063382 255.601372 
L 205.526883 256.040229 
L 206.258554 256.613038 
L 206.989099 256.941877 
L 209.188361 257.443149 
L 210.667708 257.627198 
L 212.91053 258.367395 
L 213.665799 258.734974 
L 214.425944 258.974999 
L 215.190276 259.658717 
L 215.95955 260.151831 
L 217.516895 261.809781 
L 223.122719 270.658884 
L 223.94216 271.608166 
L 225.598137 274.254205 
L 226.436097 275.801549 
L 227.280333 277.081014 
L 228.990614 280.273945 
L 229.855165 281.388622 
L 230.72757 283.042152 
L 231.607067 284.457866 
L 232.495969 286.460798 
L 233.393614 288.184307 
L 234.298606 289.579799 
L 236.158128 296.62345 
L 237.111049 299.799394 
L 239.072909 307.881 
L 240.084078 313.057761 
L 241.109996 316.454464 
L 244.263606 324.190878 
L 245.332745 325.316689 
L 246.410672 327.171677 
L 247.492617 327.999361 
L 248.574654 327.671642 
L 249.657241 327.508969 
L 251.812988 324.721326 
L 255.017456 319.249314 
L 258.199216 313.818202 
L 260.318899 310.765436 
L 261.382821 309.413777 
L 264.603238 306.154971 
L 265.682781 304.52047 
L 267.833783 300.110114 
L 268.898726 297.028403 
L 269.947542 293.014417 
L 270.974681 288.179123 
L 271.975044 282.62805 
L 272.938412 276.447327 
L 274.752692 262.410408 
L 278.785262 226.440073 
L 279.532845 220.569826 
L 280.269564 215.723093 
L 281.719657 208.39418 
L 282.437634 206.077337 
L 283.15346 204.459543 
L 283.868526 203.547856 
L 284.584957 203.437981 
L 285.303594 203.804627 
L 286.02638 205.016036 
L 287.488874 208.929747 
L 289.727256 215.568849 
L 291.251318 221.101147 
L 294.363238 228.970882 
L 295.152546 230.727045 
L 296.74202 233.608026 
L 297.540114 234.199518 
L 298.341645 235.448294 
L 299.144308 235.929974 
L 300.756471 237.474638 
L 301.5647 237.851934 
L 302.37463 238.407919 
L 303.184019 238.253297 
L 303.996259 239.188372 
L 304.80812 239.10055 
L 305.623027 240.077264 
L 306.440473 240.836954 
L 307.264637 242.963166 
L 308.094629 244.583388 
L 309.780813 249.769543 
L 311.512533 256.283873 
L 312.401552 260.916507 
L 314.229981 269.102013 
L 315.168887 272.351517 
L 316.118806 273.922473 
L 317.076243 274.738375 
L 318.040846 275.372675 
L 319.986738 276.177479 
L 320.967669 276.233016 
L 323.945758 276.932135 
L 324.950035 276.861158 
L 325.961013 277.128766 
L 326.97753 277.052502 
L 327.999828 277.218256 
L 329.02493 276.790729 
L 330.054561 276.777005 
L 331.084357 276.000071 
L 332.112448 275.032529 
L 334.143044 271.606396 
L 335.142793 268.747636 
L 336.123382 265.087393 
L 337.077015 260.407418 
L 337.999503 254.32902 
L 339.754782 240.594623 
L 342.186414 218.026033 
L 342.950627 210.11829 
L 345.852577 185.895008 
L 346.550128 180.706838 
L 347.242534 177.374322 
L 347.931 174.759926 
L 348.614024 171.685814 
L 349.294557 170.261981 
L 349.973982 169.667024 
L 350.652226 168.599346 
L 351.330393 168.259209 
L 352.010282 168.825902 
L 352.692931 169.700478 
L 353.378967 171.306508 
L 354.071017 174.139393 
L 355.477349 180.456926 
L 356.18933 183.034767 
L 356.909219 186.436545 
L 358.366163 191.406716 
L 359.10311 194.207036 
L 360.586891 197.935425 
L 361.336353 200.116336 
L 362.087102 201.101765 
L 363.601909 204.851805 
L 365.916161 210.26832 
L 366.705309 213.425295 
L 367.501737 215.657379 
L 368.308605 218.575125 
L 370.810608 230.999744 
L 372.560904 241.363847 
L 374.377496 248.796402 
L 375.299785 249.951661 
L 376.229185 251.452078 
L 377.159953 251.900649 
L 378.095434 252.583712 
L 381.85583 252.902351 
L 382.797343 252.820544 
L 383.738841 252.542919 
L 384.68215 252.687387 
L 385.619996 251.66993 
L 386.553396 251.416624 
L 388.394492 249.508043 
L 389.297901 248.214535 
L 390.186475 246.643991 
L 391.057811 244.651464 
L 391.906849 242.03182 
L 392.734239 239.001107 
L 393.539075 235.079705 
L 394.320679 230.519848 
L 395.081982 225.164438 
L 397.267265 206.104929 
L 398.639344 191.907615 
L 401.879543 155.326639 
L 404.347478 132.571172 
L 406.159996 123.243401 
L 406.764535 121.372497 
L 407.371163 120.360538 
L 407.974545 119.619949 
L 408.572114 118.665103 
L 409.164732 118.82449 
L 409.754881 119.378687 
L 410.345365 121.125886 
L 411.531018 125.673272 
L 412.732406 132.789098 
L 417.172167 161.98778 
L 418.530599 169.984308 
L 419.230754 174.773887 
L 419.94522 180.453774 
L 421.420181 189.313857 
L 424.602352 211.411299 
L 431.088141 260.611903 
L 433.058 271.377641 
L 435.026612 278.340798 
L 437.001254 284.090729 
L 437.992522 286.134426 
L 438.987101 288.489023 
L 440.988359 292.19608 
L 443.00642 294.711244 
L 445.044841 296.86525 
L 446.071673 297.510289 
L 447.104781 297.916575 
L 448.143805 298.640481 
L 449.188978 298.855396 
L 450.241239 298.639164 
L 451.300156 298.857982 
L 452.365836 298.860899 
L 453.439543 298.492404 
L 456.705508 298.26497 
L 457.810719 298.116057 
L 460.045785 298.177546 
L 462.318106 298.228599 
L 463.468544 298.53881 
L 464.629313 298.975856 
L 466.982481 299.660826 
L 470.590543 301.554593 
L 473.051525 303.353578 
L 474.298927 304.393601 
L 479.4061 309.605859 
L 483.360246 314.212857 
L 486.058471 317.167304 
L 488.80665 320.348322 
L 491.605141 323.258528 
L 498.832196 329.947628 
L 506.385356 336.113441 
L 507.933927 337.159118 
L 514.24715 342.072083 
L 519.101881 346.127073 
L 520.741265 347.752269 
L 522.389215 349.568295 
L 524.045962 351.706258 
L 527.383354 357.047709 
L 529.062062 360.176442 
L 530.747109 364.004417 
L 532.436071 368.320723 
L 534.127399 374.059761 
L 535.8191 380.953722 
L 537.507824 389.73307 
L 539.191027 400.154184 
L 540.866896 407.884154 
L 542.526255 418.76675 
L 544.128771 437.952803 
L 545.540987 457.183746 
L 546.851741 472.848539 
L 548.149128 481.791187 
L 549.474818 487.356796 
L 550.859479 489.342039 
L 552.300474 490.685293 
L 553.783056 490.377931 
L 555.270474 489.760056 
L 558.256373 486.986523 
L 559.758042 485.573942 
L 561.267302 483.622361 
L 562.782351 482.554539 
L 564.305508 480.578231 
L 565.83624 479.587571 
L 567.376012 477.992171 
L 568.923347 476.682785 
L 570.479412 475.757199 
L 572.044593 474.282947 
L 573.618115 473.756127 
L 575.199978 472.7941 
L 576.791503 471.625016 
L 578.39164 471.2858 
L 580.000936 470.377952 
L 581.618678 469.636882 
L 583.244892 469.210664 
L 584.879725 468.466179 
L 586.52292 467.985525 
L 588.174109 467.619914 
L 589.833556 466.913929 
L 591.499865 466.464022 
L 593.173794 466.177444 
L 594.855163 465.603411 
L 596.543229 465.270125 
L 598.236854 465.254058 
L 599.93757 464.64759 
L 601.644444 464.286608 
L 603.357386 464.229505 
L 605.076297 463.690546 
L 606.801048 463.329517 
L 608.530839 463.334425 
L 610.266755 462.942096 
L 612.008957 462.433513 
L 615.512054 462.221748 
L 617.272828 461.748241 
L 619.040289 461.493617 
L 620.813805 461.498944 
L 624.38227 460.858231 
L 626.176806 460.692611 
L 627.978516 460.738191 
L 629.788696 460.14326 
L 635.268648 459.489893 
L 638.964553 458.812674 
L 640.826519 458.368361 
L 644.57735 458.283429 
L 648.364648 457.883956 
L 652.189051 457.902811 
L 656.049637 457.360339 
L 657.993608 457.366823 
L 659.94587 457.539489 
L 661.907577 457.363632 
L 665.857921 457.44649 
L 667.846829 457.57679 
L 669.844935 457.400578 
L 671.852691 457.394971 
L 673.870046 457.724082 
L 675.897244 457.779367 
L 677.934408 457.633368 
L 679.981315 457.624885 
L 684.105616 458.068804 
L 686.182657 458.113562 
L 688.270214 458.012797 
L 692.478097 458.309254 
L 696.727613 458.588912 
L 703.184597 458.91236 
L 705.359495 458.913009 
L 711.95502 459.30648 
L 716.411468 459.48805 
L 718.658036 459.686233 
L 727.770537 460.017232 
L 734.741125 460.464018 
L 739.455996 460.69019 
L 744.226056 461.015415 
L 746.632546 461.053764 
L 753.938538 461.452693 
L 758.883452 461.494302 
L 766.415612 461.950192 
L 768.958377 461.902893 
L 771.516721 462.274473 
L 776.682115 462.570481 
L 781.916029 462.690197 
L 784.558809 462.874318 
L 792.595774 463.088521 
L 795.311036 463.459086 
L 803.573808 463.495487 
L 809.180111 464.061099 
L 814.869053 464.03149 
L 820.640398 464.571507 
L 826.499754 464.715838 
L 832.450313 465.109031 
L 838.493839 465.312127 
L 841.551466 465.429206 
L 844.634062 465.691721 
L 850.874111 465.717656 
L 873.559276 466.722309 
L 880.298051 466.922631 
L 883.713455 467.109634 
L 890.636736 467.19162 
L 897.690079 467.623762 
L 901 467.726805 
L 901 467.726805 
" style="fill:none;stroke:#fc8d62;stroke-dasharray:12,4.5;stroke-dashoffset:0;stroke-width:3;"/>
   </g>
   <g id="line2d_25">
    <path clip-path="url(#paeed34f792)" d="M 113.146509 443.45381 
L 115.73765 443.190505 
L 125.337953 439.830425 
L 134.880102 436.735661 
L 143.989334 433.340643 
L 149.169276 431.502411 
L 151.483328 430.634837 
L 153.640331 429.60505 
L 157.54997 428.223362 
L 159.33603 427.692687 
L 161.033455 426.960046 
L 164.177472 425.849363 
L 167.075603 424.750802 
L 168.451729 423.838531 
L 169.786142 423.236684 
L 171.082844 422.072479 
L 172.342589 421.433861 
L 173.571995 420.35557 
L 174.773165 419.803301 
L 175.950066 418.714951 
L 177.103821 418.263173 
L 178.23702 417.525511 
L 179.3478 417.166344 
L 180.435091 416.368436 
L 181.497535 416.137351 
L 182.534695 415.310419 
L 183.548858 415.208978 
L 184.540081 414.378812 
L 185.509851 414.660905 
L 186.459245 413.482316 
L 187.38917 414.067475 
L 188.299909 412.859912 
L 189.191943 413.528385 
L 190.066499 412.800964 
L 190.924856 412.801448 
L 191.768999 413.054902 
L 192.599383 412.075565 
L 193.417406 412.993483 
L 194.224289 411.48127 
L 195.020974 412.030539 
L 195.808161 412.004011 
L 196.587316 410.964873 
L 197.358425 411.78742 
L 198.122667 410.158261 
L 198.880855 410.458142 
L 199.633385 410.51166 
L 200.381191 409.116906 
L 201.124713 409.705524 
L 201.864629 408.386702 
L 202.601964 407.748549 
L 203.33698 408.082557 
L 204.070318 406.084584 
L 204.801565 406.364733 
L 205.532348 404.977548 
L 206.262467 404.210883 
L 206.99319 404.304825 
L 207.722607 402.697705 
L 208.453303 403.352691 
L 209.186644 401.543935 
L 209.922205 401.809059 
L 210.661593 401.444108 
L 211.402352 400.414684 
L 212.147199 400.874966 
L 212.896436 399.508426 
L 213.648722 400.660968 
L 214.406113 398.646092 
L 215.168766 399.392764 
L 215.935261 397.7039 
L 216.708122 398.24145 
L 217.487426 397.140941 
L 218.272103 397.101512 
L 219.060947 396.003938 
L 219.854097 395.875239 
L 220.652061 394.974995 
L 221.454706 394.921036 
L 222.261846 394.01207 
L 223.07404 394.128448 
L 223.891219 393.235449 
L 224.713779 393.764028 
L 225.54285 392.203444 
L 226.37783 392.870577 
L 227.219076 391.659529 
L 228.068103 392.241043 
L 228.924488 391.259958 
L 229.788156 391.36466 
L 230.658869 391.143335 
L 231.536516 389.999144 
L 232.422391 390.783338 
L 233.317123 389.569218 
L 234.220314 389.810852 
L 235.136545 389.639988 
L 236.070543 388.044117 
L 237.017702 388.512195 
L 237.98548 387.812626 
L 238.97101 386.622597 
L 239.976229 386.160096 
L 240.99718 386.065795 
L 242.032251 385.584056 
L 243.077349 385.517296 
L 247.35101 386.232103 
L 248.431221 386.755916 
L 249.509842 387.536021 
L 250.587384 387.901842 
L 252.733102 389.249501 
L 253.800272 390.119432 
L 254.863212 390.426989 
L 255.924158 391.027306 
L 256.981978 391.818619 
L 258.038568 392.245387 
L 259.096154 392.382767 
L 261.220588 392.994173 
L 262.291315 392.339997 
L 263.368708 392.410758 
L 264.453046 392.248374 
L 266.640256 391.22902 
L 267.739602 391.157872 
L 269.924255 390.401801 
L 270.997483 390.36107 
L 274.050814 391.93313 
L 275.901493 394.634416 
L 278.448654 399.802989 
L 280.034319 403.599076 
L 280.802762 404.969749 
L 281.558271 407.575613 
L 282.303468 407.61447 
L 283.04067 409.712718 
L 284.502364 410.287723 
L 285.231944 411.917822 
L 285.963162 410.333446 
L 286.696999 411.014953 
L 287.434729 411.344201 
L 288.178139 409.881397 
L 288.928736 410.699858 
L 289.686653 409.308844 
L 290.453058 408.917719 
L 291.22694 409.138795 
L 292.008681 407.361731 
L 292.797573 407.826452 
L 293.59399 406.614533 
L 294.395287 406.551275 
L 296.012757 405.780007 
L 296.827272 406.373104 
L 297.645836 405.097254 
L 298.466763 406.194923 
L 299.290935 404.674231 
L 300.118141 405.633219 
L 300.948625 405.107854 
L 301.781719 405.556817 
L 303.453776 405.074415 
L 305.131681 404.775258 
L 305.972215 405.057441 
L 306.812665 404.396352 
L 307.652329 405.291773 
L 308.491906 404.423253 
L 309.332871 405.53725 
L 310.174576 404.629778 
L 311.020185 405.491157 
L 311.871947 403.850841 
L 312.730445 404.464308 
L 313.597806 403.274884 
L 314.477069 403.075269 
L 315.369235 401.713223 
L 316.278363 401.597221 
L 317.206667 399.629467 
L 318.154783 399.441866 
L 319.122712 397.841215 
L 320.104362 397.311484 
L 321.0944 397.488291 
L 322.091386 396.959002 
L 323.094965 397.256426 
L 324.104279 396.665267 
L 325.121515 396.735538 
L 326.145367 396.359535 
L 327.176966 395.498503 
L 328.216549 395.256307 
L 329.264939 395.16768 
L 330.321735 393.932019 
L 332.461073 393.282794 
L 333.540432 392.408297 
L 334.626734 391.84067 
L 336.808076 391.195466 
L 337.894116 390.221135 
L 338.974264 390.151212 
L 340.039439 390.217576 
L 341.086967 389.737825 
L 342.109919 389.715094 
L 343.105773 390.45275 
L 345.009254 392.743462 
L 345.91659 395.218724 
L 346.794016 396.115009 
L 347.641903 399.02544 
L 348.464269 400.556926 
L 349.264284 403.311578 
L 350.043817 404.638262 
L 350.804261 408.38104 
L 351.5502 408.422457 
L 352.283422 411.580958 
L 353.005766 414.041944 
L 353.720893 413.902047 
L 354.429933 416.307396 
L 355.134879 418.159711 
L 355.838386 416.836929 
L 357.244496 420.425735 
L 357.951291 417.932562 
L 358.660555 419.016356 
L 359.371573 420.415241 
L 360.087868 418.429767 
L 360.811228 418.227501 
L 361.541185 418.827509 
L 362.281466 416.735362 
L 363.030416 416.062323 
L 363.787964 416.692372 
L 364.555567 414.612265 
L 365.329796 414.160291 
L 366.110221 414.696314 
L 366.895029 412.549855 
L 367.684131 413.481182 
L 369.271812 412.320873 
L 370.069954 413.980471 
L 370.869954 411.516416 
L 371.671657 412.497912 
L 373.285424 411.349464 
L 374.0981 412.281357 
L 374.918761 410.465493 
L 375.747615 411.191673 
L 376.585389 409.380769 
L 378.301606 407.859767 
L 379.183805 405.881319 
L 380.086646 405.122653 
L 381.009675 403.069897 
L 381.952257 402.285461 
L 382.912885 400.872256 
L 383.886692 400.0963 
L 384.872518 400.221522 
L 385.862839 398.952038 
L 386.857898 400.011501 
L 387.858623 399.011039 
L 388.861219 398.943924 
L 389.869283 399.070863 
L 390.880224 397.568894 
L 391.889491 397.813604 
L 392.892196 397.267037 
L 393.887765 396.195862 
L 394.876099 396.292278 
L 395.852071 394.948469 
L 396.809543 394.721654 
L 397.747871 394.644425 
L 398.667826 393.547586 
L 399.567887 394.148952 
L 400.449545 393.253949 
L 401.312103 394.371923 
L 402.15724 394.5854 
L 402.980869 395.768156 
L 403.78335 397.339862 
L 404.563794 399.954419 
L 405.321596 401.409675 
L 406.062714 405.608425 
L 406.786959 406.107911 
L 407.492537 410.431726 
L 408.182689 412.172997 
L 408.860228 413.427802 
L 409.524241 417.478176 
L 410.174643 419.423821 
L 410.812778 418.704276 
L 412.073609 425.08553 
L 412.697679 424.884584 
L 413.319085 424.122085 
L 413.937367 426.237815 
L 414.551549 429.158968 
L 415.162676 430.351887 
L 415.772089 426.719495 
L 416.380179 428.174987 
L 416.989522 430.385568 
L 417.601514 433.784265 
L 418.835606 427.791869 
L 419.459771 429.847111 
L 420.093538 434.50648 
L 420.737227 438.029831 
L 421.392184 434.190292 
L 422.05992 431.089266 
L 422.745091 433.958931 
L 423.446321 437.743963 
L 424.163286 440.463077 
L 424.894405 438.362476 
L 425.640916 439.532555 
L 427.17366 446.820544 
L 428.755616 452.622911 
L 429.569804 452.490444 
L 432.990318 465.141952 
L 435.687295 473.397498 
L 438.542816 480.80648 
L 439.542748 483.182485 
L 443.895549 491.781367 
L 445.087395 493.966003 
L 446.293785 495.94416 
L 447.502001 498.170222 
L 449.93043 501.733752 
L 452.388181 505.995829 
L 453.630719 507.704907 
L 454.883732 509.189524 
L 456.148818 511.18762 
L 457.426334 512.621446 
L 458.716767 513.87121 
L 460.022383 515.717664 
L 461.343201 516.922766 
L 462.68039 518.29335 
L 465.408435 520.541976 
L 469.647609 523.500178 
L 474.068286 525.555932 
L 478.672297 526.99426 
L 480.249131 527.355335 
L 481.845769 527.502743 
L 483.463407 527.944591 
L 485.101839 528.163027 
L 486.761668 528.25632 
L 490.144613 528.719819 
L 491.867908 528.601403 
L 497.163939 528.867753 
L 498.97292 528.767037 
L 506.42023 528.927592 
L 508.335233 528.824908 
L 526.469533 528.870746 
L 530.711431 528.772119 
L 532.860066 528.796622 
L 539.40861 528.523325 
L 541.625499 528.09279 
L 543.857999 527.920332 
L 559.885613 525.677344 
L 564.581881 524.955802 
L 569.324526 524.23441 
L 583.791967 521.554701 
L 591.14865 519.764536 
L 603.57681 516.242463 
L 611.125826 514.212814 
L 613.655075 513.642627 
L 616.186546 513.592196 
L 618.713365 513.920725 
L 621.231366 513.50872 
L 623.727189 512.526681 
L 627.771487 510.652183 
L 629.46134 509.388815 
L 631.199947 508.636874 
L 633.045811 506.92537 
L 634.997894 505.811167 
L 637.050112 504.278616 
L 641.266143 501.839504 
L 643.402648 500.743475 
L 647.73935 498.909677 
L 649.940549 498.073002 
L 652.162859 497.437207 
L 654.409274 496.671691 
L 656.678345 496.185357 
L 658.971919 495.539188 
L 663.624413 494.58911 
L 665.985849 494.041694 
L 668.368144 493.747367 
L 670.77384 493.194155 
L 675.649532 492.454195 
L 678.117755 492.051771 
L 680.605611 491.796391 
L 683.11306 491.332672 
L 688.185349 490.70966 
L 690.747325 490.342751 
L 693.325714 490.166452 
L 698.528679 489.436916 
L 701.153016 489.287972 
L 706.444487 488.612977 
L 709.109794 488.481941 
L 714.481607 487.87009 
L 717.186931 487.783902 
L 722.63693 487.224255 
L 725.381269 487.240238 
L 730.912228 486.71432 
L 733.698221 486.743677 
L 739.31152 486.331378 
L 744.97875 486.259233 
L 747.833212 486.026856 
L 756.463942 485.726376 
L 762.272676 485.55738 
L 765.192859 485.492869 
L 768.124412 485.281801 
L 774.021612 485.199595 
L 779.964907 485.000932 
L 822.910932 483.983671 
L 882.031457 482.909761 
L 892.365496 482.766576 
L 901 482.63628 
L 901 482.63628 
" style="fill:none;stroke:#8da0cb;stroke-linecap:round;stroke-width:3;"/>
   </g>
   <g id="line2d_26">
    <path clip-path="url(#paeed34f792)" d="M 113.146509 420.210965 
L 115.73765 420.058218 
L 118.957493 419.231105 
L 122.15283 418.182492 
L 125.337953 416.966484 
L 128.53232 415.548326 
L 131.718244 413.884652 
L 138.011227 410.062894 
L 141.088964 408.013871 
L 143.989334 405.777066 
L 146.678482 403.375177 
L 151.483328 398.25918 
L 153.640331 395.621118 
L 155.658817 392.813994 
L 159.33603 387.014475 
L 161.033455 384.048164 
L 164.177472 377.751234 
L 167.075603 371.112716 
L 169.786142 363.962416 
L 173.571995 352.553507 
L 180.435091 330.104449 
L 183.548858 318.574346 
L 195.020974 273.872543 
L 196.587316 268.602361 
L 198.122667 263.786383 
L 199.633385 260.072583 
L 201.124713 257.317634 
L 201.864629 256.411162 
L 202.601964 255.895525 
L 204.070318 255.470616 
L 204.801565 255.58042 
L 205.532348 256.019537 
L 206.262467 256.230691 
L 206.99319 256.648352 
L 207.722607 256.715366 
L 209.186644 257.114665 
L 209.922205 257.017565 
L 210.661593 257.163417 
L 211.402352 257.133406 
L 212.147199 257.458262 
L 212.896436 257.632319 
L 214.406113 258.286536 
L 215.168766 258.985379 
L 215.935261 259.429568 
L 216.708122 260.180203 
L 217.487426 261.130905 
L 219.854097 264.771232 
L 221.454706 267.410205 
L 224.713779 272.364943 
L 225.54285 273.898672 
L 227.219076 276.452061 
L 228.924488 279.820816 
L 232.422391 286.056959 
L 233.317123 287.983511 
L 234.220314 289.625306 
L 235.136545 292.522283 
L 236.070543 296.405168 
L 237.017702 299.230954 
L 237.98548 303.811886 
L 238.97101 307.745657 
L 239.976229 312.643569 
L 240.99718 316.431453 
L 242.032251 319.712429 
L 243.077349 321.786962 
L 244.134245 324.475027 
L 245.201455 326.86733 
L 246.274017 327.803034 
L 247.35101 328.902848 
L 248.431221 329.601553 
L 250.587384 328.366598 
L 251.662252 327.124078 
L 252.733102 325.618387 
L 256.981978 318.744634 
L 259.096154 315.895742 
L 260.156148 314.697506 
L 261.220588 313.742318 
L 262.291315 312.975806 
L 264.453046 311.711878 
L 265.544616 311.009373 
L 267.739602 308.582888 
L 268.836077 306.536121 
L 269.924255 303.756084 
L 270.997483 300.080865 
L 272.050354 295.698388 
L 273.070147 290.643206 
L 274.050814 284.794615 
L 275.901493 271.592408 
L 281.558271 226.427688 
L 283.04067 218.070137 
L 283.772617 215.197528 
L 284.502364 213.654298 
L 285.231944 212.964006 
L 285.963162 213.010882 
L 286.696999 213.584838 
L 287.434729 214.717188 
L 288.178139 216.728644 
L 289.686653 222.065958 
L 291.22694 228.201151 
L 292.797573 234.169916 
L 293.59399 237.075399 
L 296.012757 242.934937 
L 297.645836 245.834067 
L 298.466763 246.748672 
L 300.118141 249.056143 
L 300.948625 250.232795 
L 301.781719 251.157814 
L 302.616566 251.78715 
L 303.453776 252.617825 
L 304.292053 252.913389 
L 305.131681 253.341977 
L 305.972215 253.554474 
L 306.812665 253.541735 
L 307.652329 253.065568 
L 308.491906 252.946752 
L 310.174576 253.059359 
L 311.020185 253.907208 
L 312.730445 257.166333 
L 313.597806 259.407374 
L 315.369235 265.647529 
L 317.206667 274.311009 
L 319.122712 283.073037 
L 320.104362 285.402192 
L 322.091386 286.859225 
L 327.176966 289.587866 
L 329.264939 290.826522 
L 332.461073 292.629375 
L 333.540432 292.750179 
L 334.626734 293.222657 
L 336.808076 293.187267 
L 338.974264 291.968325 
L 340.039439 290.400326 
L 341.086967 288.579729 
L 342.109919 285.362634 
L 343.105773 281.479457 
L 344.072869 276.65941 
L 345.91659 264.28184 
L 346.794016 256.960318 
L 351.5502 212.50341 
L 353.005766 200.956584 
L 354.429933 193.084696 
L 355.134879 189.993986 
L 356.540917 186.712549 
L 357.244496 186.074894 
L 357.951291 186.513325 
L 358.660555 187.155488 
L 359.371573 188.219023 
L 360.087868 190.234084 
L 361.541185 195.665409 
L 363.030416 203.426501 
L 364.555567 211.056387 
L 366.110221 216.521974 
L 367.684131 220.170536 
L 368.476754 221.566744 
L 370.069954 223.70919 
L 371.671657 225.020443 
L 372.477423 226.367796 
L 373.285424 227.027828 
L 374.0981 228.381489 
L 376.585389 235.86584 
L 378.301606 244.059896 
L 379.183805 248.960757 
L 381.009675 260.146103 
L 381.952257 265.179638 
L 382.912885 269.47821 
L 383.886692 272.035136 
L 384.872518 273.951606 
L 385.862839 273.900077 
L 387.858623 274.554544 
L 388.861219 274.154916 
L 389.869283 274.633654 
L 390.880224 274.536876 
L 391.889491 274.963141 
L 392.892196 275.172284 
L 393.887765 275.17857 
L 394.876099 275.311973 
L 395.852071 275.237963 
L 396.809543 274.618516 
L 397.747871 273.580766 
L 398.667826 272.29789 
L 399.567887 269.990114 
L 400.449545 267.262022 
L 402.15724 257.504842 
L 403.78335 243.961074 
L 405.321596 227.111481 
L 406.786959 208.740835 
L 409.524241 170.39565 
L 410.812778 154.838996 
L 411.44541 148.331119 
L 412.073609 143.178617 
L 413.319085 135.69066 
L 413.937367 133.190668 
L 414.551549 132.337444 
L 415.162676 132.675543 
L 416.380179 134.550264 
L 416.989522 136.262051 
L 417.601514 138.892931 
L 419.459771 148.977262 
L 420.093538 153.49073 
L 422.05992 171.21953 
L 423.446321 184.587623 
L 424.163286 190.606173 
L 426.401863 203.584664 
L 427.17366 207.486622 
L 433.875985 233.680749 
L 434.774131 237.442306 
L 436.617617 246.511652 
L 439.542748 263.925548 
L 443.895549 293.609837 
L 446.293785 306.938102 
L 447.502001 311.582562 
L 448.713168 315.555571 
L 449.93043 318.510137 
L 452.388181 323.744071 
L 454.883732 327.611638 
L 456.148818 329.611168 
L 461.343201 335.593774 
L 465.408435 339.4141 
L 468.214489 341.892153 
L 472.574829 346.218943 
L 477.117172 350.684004 
L 481.845769 355.684991 
L 485.101839 359.523166 
L 488.441981 363.400138 
L 490.144613 365.4239 
L 491.867908 367.18604 
L 495.376984 371.121741 
L 498.97292 374.795149 
L 500.802349 376.650207 
L 504.526243 380.05614 
L 506.42023 381.677969 
L 510.270943 384.57744 
L 514.203201 387.364756 
L 518.212912 389.845305 
L 522.301557 392.059945 
L 535.02637 398.343351 
L 539.40861 400.313714 
L 541.625499 401.09654 
L 546.106127 402.956798 
L 559.885613 408.84052 
L 564.581881 411.078959 
L 574.108632 415.737853 
L 581.357075 419.903165 
L 588.687366 424.128376 
L 593.61778 426.576218 
L 611.125826 434.497384 
L 613.655075 436.042409 
L 616.186546 439.501925 
L 618.713365 445.487806 
L 621.231366 452.450507 
L 623.727189 463.845881 
L 625.989452 483.051457 
L 627.771487 504.21547 
L 629.46134 514.884626 
L 631.199947 517.706514 
L 633.045811 518.000675 
L 634.997894 516.51721 
L 637.050112 514.135904 
L 639.149596 510.614578 
L 641.266143 507.722754 
L 643.402648 504.502988 
L 645.559959 501.537032 
L 649.940549 495.986755 
L 652.162859 493.87122 
L 654.409274 491.194222 
L 656.678345 489.340648 
L 658.971919 486.983512 
L 663.624413 483.564487 
L 665.985849 481.68467 
L 668.368144 480.403729 
L 670.77384 478.6313 
L 673.20111 477.353355 
L 675.649532 475.927991 
L 678.117755 474.673442 
L 680.605611 473.747867 
L 683.11306 472.469844 
L 688.185349 470.511906 
L 690.747325 469.484675 
L 693.325714 468.984995 
L 698.528679 467.209774 
L 701.153016 466.86311 
L 703.791887 466.063643 
L 706.444487 465.435541 
L 709.109794 465.146034 
L 711.789459 464.449003 
L 714.481607 464.030132 
L 717.186931 463.829614 
L 719.905367 463.253132 
L 722.63693 462.926184 
L 725.381269 463.099183 
L 730.912228 462.403845 
L 733.698221 462.601463 
L 739.31152 462.063117 
L 742.13862 462.257622 
L 744.97875 462.315858 
L 747.833212 462.028167 
L 759.362763 461.668583 
L 762.272676 461.823858 
L 765.192859 461.809963 
L 768.124412 461.588765 
L 774.021612 461.76357 
L 779.964907 461.703726 
L 785.952938 461.73774 
L 788.96578 461.694935 
L 795.02613 461.923518 
L 798.073809 461.812869 
L 822.910932 462.259123 
L 826.074709 462.38862 
L 832.441482 462.458753 
L 901 463.997026 
L 901 463.997026 
" style="fill:none;stroke:#8da0cb;stroke-dasharray:12,4.5;stroke-dashoffset:0;stroke-width:3;"/>
   </g>
   <g id="line2d_27"/>
   <g id="line2d_28"/>
   <g id="line2d_29"/>
   <g id="line2d_30"/>
   <g id="line2d_31"/>
   <g id="line2d_32"/>
   <g id="line2d_33"/>
   <g id="patch_3">
    <path d="M 112.5 619.0128 
L 112.5 83.4624 
" style="fill:none;stroke:#ffffff;stroke-linecap:square;stroke-linejoin:miter;stroke-width:2.5;"/>
   </g>
   <g id="patch_4">
    <path d="M 810 619.0128 
L 810 83.4624 
" style="fill:none;stroke:#ffffff;stroke-linecap:square;stroke-linejoin:miter;stroke-width:2.5;"/>
   </g>
   <g id="patch_5">
    <path d="M 112.5 619.0128 
L 810 619.0128 
" style="fill:none;stroke:#ffffff;stroke-linecap:square;stroke-linejoin:miter;stroke-width:2.5;"/>
   </g>
   <g id="patch_6">
    <path d="M 112.5 83.4624 
L 810 83.4624 
" style="fill:none;stroke:#ffffff;stroke-linecap:square;stroke-linejoin:miter;stroke-width:2.5;"/>
   </g>
   <g id="legend_1">
    <g id="patch_7">
     <path d="M 544.6525 327.105525 
L 794.6 327.105525 
Q 799 327.105525 799 322.705525 
L 799 98.8624 
Q 799 94.4624 794.6 94.4624 
L 544.6525 94.4624 
Q 540.2525 94.4624 540.2525 98.8624 
L 540.2525 322.705525 
Q 540.2525 327.105525 544.6525 327.105525 
z
" style="fill:#eaeaf2;opacity:0.8;stroke:#cccccc;stroke-linejoin:miter;stroke-width:2;"/>
    </g>
    <g id="line2d_34">
     <path d="M 549.0525 112.278963 
L 593.0525 112.278963 
" style="fill:none;"/>
    </g>
    <g id="line2d_35"/>
    <g id="text_23">
     <!-- Exp -->
     <defs>
      <path d="M 9.8125 72.90625 
L 55.90625 72.90625 
L 55.90625 64.59375 
L 19.671875 64.59375 
L 19.671875 43.015625 
L 54.390625 43.015625 
L 54.390625 34.71875 
L 19.671875 34.71875 
L 19.671875 8.296875 
L 56.78125 8.296875 
L 56.78125 0 
L 9.8125 0 
z
" id="DejaVuSans-45"/>
      <path d="M 54.890625 54.6875 
L 35.109375 28.078125 
L 55.90625 0 
L 45.3125 0 
L 29.390625 21.484375 
L 13.484375 0 
L 2.875 0 
L 24.125 28.609375 
L 4.6875 54.6875 
L 15.28125 54.6875 
L 29.78125 35.203125 
L 44.28125 54.6875 
z
" id="DejaVuSans-78"/>
      <path d="M 18.109375 8.203125 
L 18.109375 -20.796875 
L 9.078125 -20.796875 
L 9.078125 54.6875 
L 18.109375 54.6875 
L 18.109375 46.390625 
Q 20.953125 51.265625 25.265625 53.625 
Q 29.59375 56 35.59375 56 
Q 45.5625 56 51.78125 48.09375 
Q 58.015625 40.1875 58.015625 27.296875 
Q 58.015625 14.40625 51.78125 6.484375 
Q 45.5625 -1.421875 35.59375 -1.421875 
Q 29.59375 -1.421875 25.265625 0.953125 
Q 20.953125 3.328125 18.109375 8.203125 
z
M 48.6875 27.296875 
Q 48.6875 37.203125 44.609375 42.84375 
Q 40.53125 48.484375 33.40625 48.484375 
Q 26.265625 48.484375 22.1875 42.84375 
Q 18.109375 37.203125 18.109375 27.296875 
Q 18.109375 17.390625 22.1875 11.75 
Q 26.265625 6.109375 33.40625 6.109375 
Q 40.53125 6.109375 44.609375 11.75 
Q 48.6875 17.390625 48.6875 27.296875 
z
" id="DejaVuSans-70"/>
     </defs>
     <g style="fill:#262626;" transform="translate(610.6525 119.978963)scale(0.22 -0.22)">
      <use xlink:href="#DejaVuSans-45"/>
      <use x="63.183594" xlink:href="#DejaVuSans-78"/>
      <use x="122.363281" xlink:href="#DejaVuSans-70"/>
     </g>
    </g>
    <g id="line2d_36">
     <path d="M 549.0525 144.570838 
L 593.0525 144.570838 
" style="fill:none;stroke:#66c2a5;stroke-linecap:round;stroke-width:3;"/>
    </g>
    <g id="line2d_37"/>
    <g id="text_24">
     <!-- e000 -->
     <g style="fill:#262626;" transform="translate(610.6525 152.270838)scale(0.22 -0.22)">
      <use xlink:href="#DejaVuSans-65"/>
      <use x="61.523438" xlink:href="#DejaVuSans-30"/>
      <use x="125.146484" xlink:href="#DejaVuSans-30"/>
      <use x="188.769531" xlink:href="#DejaVuSans-30"/>
     </g>
    </g>
    <g id="line2d_38">
     <path d="M 549.0525 176.862713 
L 593.0525 176.862713 
" style="fill:none;stroke:#fc8d62;stroke-linecap:round;stroke-width:3;"/>
    </g>
    <g id="line2d_39"/>
    <g id="text_25">
     <!-- e030 -->
     <g style="fill:#262626;" transform="translate(610.6525 184.562713)scale(0.22 -0.22)">
      <use xlink:href="#DejaVuSans-65"/>
      <use x="61.523438" xlink:href="#DejaVuSans-30"/>
      <use x="125.146484" xlink:href="#DejaVuSans-33"/>
      <use x="188.769531" xlink:href="#DejaVuSans-30"/>
     </g>
    </g>
    <g id="line2d_40">
     <path d="M 549.0525 209.154588 
L 593.0525 209.154588 
" style="fill:none;stroke:#8da0cb;stroke-linecap:round;stroke-width:3;"/>
    </g>
    <g id="line2d_41"/>
    <g id="text_26">
     <!-- e050 -->
     <g style="fill:#262626;" transform="translate(610.6525 216.854588)scale(0.22 -0.22)">
      <use xlink:href="#DejaVuSans-65"/>
      <use x="61.523438" xlink:href="#DejaVuSans-30"/>
      <use x="125.146484" xlink:href="#DejaVuSans-35"/>
      <use x="188.769531" xlink:href="#DejaVuSans-30"/>
     </g>
    </g>
    <g id="line2d_42">
     <path d="M 549.0525 241.446463 
L 593.0525 241.446463 
" style="fill:none;"/>
    </g>
    <g id="line2d_43"/>
    <g id="text_27">
     <!-- Type -->
     <defs>
      <path d="M -0.296875 72.90625 
L 61.375 72.90625 
L 61.375 64.59375 
L 35.5 64.59375 
L 35.5 0 
L 25.59375 0 
L 25.59375 64.59375 
L -0.296875 64.59375 
z
" id="DejaVuSans-54"/>
     </defs>
     <g style="fill:#262626;" transform="translate(610.6525 249.146463)scale(0.22 -0.22)">
      <use xlink:href="#DejaVuSans-54"/>
      <use x="60.849609" xlink:href="#DejaVuSans-79"/>
      <use x="120.029297" xlink:href="#DejaVuSans-70"/>
      <use x="183.505859" xlink:href="#DejaVuSans-65"/>
     </g>
    </g>
    <g id="line2d_44">
     <path d="M 549.0525 273.738338 
L 593.0525 273.738338 
" style="fill:none;stroke:#333333;stroke-linecap:round;stroke-width:3;"/>
    </g>
    <g id="line2d_45"/>
    <g id="text_28">
     <!-- Trench -->
     <defs>
      <path d="M 41.109375 46.296875 
Q 39.59375 47.171875 37.8125 47.578125 
Q 36.03125 48 33.890625 48 
Q 26.265625 48 22.1875 43.046875 
Q 18.109375 38.09375 18.109375 28.8125 
L 18.109375 0 
L 9.078125 0 
L 9.078125 54.6875 
L 18.109375 54.6875 
L 18.109375 46.1875 
Q 20.953125 51.171875 25.484375 53.578125 
Q 30.03125 56 36.53125 56 
Q 37.453125 56 38.578125 55.875 
Q 39.703125 55.765625 41.0625 55.515625 
z
" id="DejaVuSans-72"/>
      <path d="M 54.890625 33.015625 
L 54.890625 0 
L 45.90625 0 
L 45.90625 32.71875 
Q 45.90625 40.484375 42.875 44.328125 
Q 39.84375 48.1875 33.796875 48.1875 
Q 26.515625 48.1875 22.3125 43.546875 
Q 18.109375 38.921875 18.109375 30.90625 
L 18.109375 0 
L 9.078125 0 
L 9.078125 54.6875 
L 18.109375 54.6875 
L 18.109375 46.1875 
Q 21.34375 51.125 25.703125 53.5625 
Q 30.078125 56 35.796875 56 
Q 45.21875 56 50.046875 50.171875 
Q 54.890625 44.34375 54.890625 33.015625 
z
" id="DejaVuSans-6e"/>
      <path d="M 54.890625 33.015625 
L 54.890625 0 
L 45.90625 0 
L 45.90625 32.71875 
Q 45.90625 40.484375 42.875 44.328125 
Q 39.84375 48.1875 33.796875 48.1875 
Q 26.515625 48.1875 22.3125 43.546875 
Q 18.109375 38.921875 18.109375 30.90625 
L 18.109375 0 
L 9.078125 0 
L 9.078125 75.984375 
L 18.109375 75.984375 
L 18.109375 46.1875 
Q 21.34375 51.125 25.703125 53.5625 
Q 30.078125 56 35.796875 56 
Q 45.21875 56 50.046875 50.171875 
Q 54.890625 44.34375 54.890625 33.015625 
z
" id="DejaVuSans-68"/>
     </defs>
     <g style="fill:#262626;" transform="translate(610.6525 281.438338)scale(0.22 -0.22)">
      <use xlink:href="#DejaVuSans-54"/>
      <use x="60.865234" xlink:href="#DejaVuSans-72"/>
      <use x="101.947266" xlink:href="#DejaVuSans-65"/>
      <use x="163.470703" xlink:href="#DejaVuSans-6e"/>
      <use x="226.849609" xlink:href="#DejaVuSans-63"/>
      <use x="281.830078" xlink:href="#DejaVuSans-68"/>
     </g>
    </g>
    <g id="line2d_46">
     <path d="M 549.0525 306.030213 
L 593.0525 306.030213 
" style="fill:none;stroke:#333333;stroke-dasharray:12,4.5;stroke-dashoffset:0;stroke-width:3;"/>
    </g>
    <g id="line2d_47"/>
    <g id="text_29">
     <!-- SubductingPlate -->
     <defs>
      <path d="M 53.515625 70.515625 
L 53.515625 60.890625 
Q 47.90625 63.578125 42.921875 64.890625 
Q 37.9375 66.21875 33.296875 66.21875 
Q 25.25 66.21875 20.875 63.09375 
Q 16.5 59.96875 16.5 54.203125 
Q 16.5 49.359375 19.40625 46.890625 
Q 22.3125 44.4375 30.421875 42.921875 
L 36.375 41.703125 
Q 47.40625 39.59375 52.65625 34.296875 
Q 57.90625 29 57.90625 20.125 
Q 57.90625 9.515625 50.796875 4.046875 
Q 43.703125 -1.421875 29.984375 -1.421875 
Q 24.8125 -1.421875 18.96875 -0.25 
Q 13.140625 0.921875 6.890625 3.21875 
L 6.890625 13.375 
Q 12.890625 10.015625 18.65625 8.296875 
Q 24.421875 6.59375 29.984375 6.59375 
Q 38.421875 6.59375 43.015625 9.90625 
Q 47.609375 13.234375 47.609375 19.390625 
Q 47.609375 24.75 44.3125 27.78125 
Q 41.015625 30.8125 33.5 32.328125 
L 27.484375 33.5 
Q 16.453125 35.6875 11.515625 40.375 
Q 6.59375 45.0625 6.59375 53.421875 
Q 6.59375 63.09375 13.40625 68.65625 
Q 20.21875 74.21875 32.171875 74.21875 
Q 37.3125 74.21875 42.625 73.28125 
Q 47.953125 72.359375 53.515625 70.515625 
z
" id="DejaVuSans-53"/>
      <path d="M 8.5 21.578125 
L 8.5 54.6875 
L 17.484375 54.6875 
L 17.484375 21.921875 
Q 17.484375 14.15625 20.5 10.265625 
Q 23.53125 6.390625 29.59375 6.390625 
Q 36.859375 6.390625 41.078125 11.03125 
Q 45.3125 15.671875 45.3125 23.6875 
L 45.3125 54.6875 
L 54.296875 54.6875 
L 54.296875 0 
L 45.3125 0 
L 45.3125 8.40625 
Q 42.046875 3.421875 37.71875 1 
Q 33.40625 -1.421875 27.6875 -1.421875 
Q 18.265625 -1.421875 13.375 4.4375 
Q 8.5 10.296875 8.5 21.578125 
z
M 31.109375 56 
z
" id="DejaVuSans-75"/>
      <path d="M 48.6875 27.296875 
Q 48.6875 37.203125 44.609375 42.84375 
Q 40.53125 48.484375 33.40625 48.484375 
Q 26.265625 48.484375 22.1875 42.84375 
Q 18.109375 37.203125 18.109375 27.296875 
Q 18.109375 17.390625 22.1875 11.75 
Q 26.265625 6.109375 33.40625 6.109375 
Q 40.53125 6.109375 44.609375 11.75 
Q 48.6875 17.390625 48.6875 27.296875 
z
M 18.109375 46.390625 
Q 20.953125 51.265625 25.265625 53.625 
Q 29.59375 56 35.59375 56 
Q 45.5625 56 51.78125 48.09375 
Q 58.015625 40.1875 58.015625 27.296875 
Q 58.015625 14.40625 51.78125 6.484375 
Q 45.5625 -1.421875 35.59375 -1.421875 
Q 29.59375 -1.421875 25.265625 0.953125 
Q 20.953125 3.328125 18.109375 8.203125 
L 18.109375 0 
L 9.078125 0 
L 9.078125 75.984375 
L 18.109375 75.984375 
z
" id="DejaVuSans-62"/>
      <path d="M 45.40625 46.390625 
L 45.40625 75.984375 
L 54.390625 75.984375 
L 54.390625 0 
L 45.40625 0 
L 45.40625 8.203125 
Q 42.578125 3.328125 38.25 0.953125 
Q 33.9375 -1.421875 27.875 -1.421875 
Q 17.96875 -1.421875 11.734375 6.484375 
Q 5.515625 14.40625 5.515625 27.296875 
Q 5.515625 40.1875 11.734375 48.09375 
Q 17.96875 56 27.875 56 
Q 33.9375 56 38.25 53.625 
Q 42.578125 51.265625 45.40625 46.390625 
z
M 14.796875 27.296875 
Q 14.796875 17.390625 18.875 11.75 
Q 22.953125 6.109375 30.078125 6.109375 
Q 37.203125 6.109375 41.296875 11.75 
Q 45.40625 17.390625 45.40625 27.296875 
Q 45.40625 37.203125 41.296875 42.84375 
Q 37.203125 48.484375 30.078125 48.484375 
Q 22.953125 48.484375 18.875 42.84375 
Q 14.796875 37.203125 14.796875 27.296875 
z
" id="DejaVuSans-64"/>
      <path d="M 45.40625 27.984375 
Q 45.40625 37.75 41.375 43.109375 
Q 37.359375 48.484375 30.078125 48.484375 
Q 22.859375 48.484375 18.828125 43.109375 
Q 14.796875 37.75 14.796875 27.984375 
Q 14.796875 18.265625 18.828125 12.890625 
Q 22.859375 7.515625 30.078125 7.515625 
Q 37.359375 7.515625 41.375 12.890625 
Q 45.40625 18.265625 45.40625 27.984375 
z
M 54.390625 6.78125 
Q 54.390625 -7.171875 48.1875 -13.984375 
Q 42 -20.796875 29.203125 -20.796875 
Q 24.46875 -20.796875 20.265625 -20.09375 
Q 16.0625 -19.390625 12.109375 -17.921875 
L 12.109375 -9.1875 
Q 16.0625 -11.328125 19.921875 -12.34375 
Q 23.78125 -13.375 27.78125 -13.375 
Q 36.625 -13.375 41.015625 -8.765625 
Q 45.40625 -4.15625 45.40625 5.171875 
L 45.40625 9.625 
Q 42.625 4.78125 38.28125 2.390625 
Q 33.9375 0 27.875 0 
Q 17.828125 0 11.671875 7.65625 
Q 5.515625 15.328125 5.515625 27.984375 
Q 5.515625 40.671875 11.671875 48.328125 
Q 17.828125 56 27.875 56 
Q 33.9375 56 38.28125 53.609375 
Q 42.625 51.21875 45.40625 46.390625 
L 45.40625 54.6875 
L 54.390625 54.6875 
z
" id="DejaVuSans-67"/>
      <path d="M 19.671875 64.796875 
L 19.671875 37.40625 
L 32.078125 37.40625 
Q 38.96875 37.40625 42.71875 40.96875 
Q 46.484375 44.53125 46.484375 51.125 
Q 46.484375 57.671875 42.71875 61.234375 
Q 38.96875 64.796875 32.078125 64.796875 
z
M 9.8125 72.90625 
L 32.078125 72.90625 
Q 44.34375 72.90625 50.609375 67.359375 
Q 56.890625 61.8125 56.890625 51.125 
Q 56.890625 40.328125 50.609375 34.8125 
Q 44.34375 29.296875 32.078125 29.296875 
L 19.671875 29.296875 
L 19.671875 0 
L 9.8125 0 
z
" id="DejaVuSans-50"/>
      <path d="M 34.28125 27.484375 
Q 23.390625 27.484375 19.1875 25 
Q 14.984375 22.515625 14.984375 16.5 
Q 14.984375 11.71875 18.140625 8.90625 
Q 21.296875 6.109375 26.703125 6.109375 
Q 34.1875 6.109375 38.703125 11.40625 
Q 43.21875 16.703125 43.21875 25.484375 
L 43.21875 27.484375 
z
M 52.203125 31.203125 
L 52.203125 0 
L 43.21875 0 
L 43.21875 8.296875 
Q 40.140625 3.328125 35.546875 0.953125 
Q 30.953125 -1.421875 24.3125 -1.421875 
Q 15.921875 -1.421875 10.953125 3.296875 
Q 6 8.015625 6 15.921875 
Q 6 25.140625 12.171875 29.828125 
Q 18.359375 34.515625 30.609375 34.515625 
L 43.21875 34.515625 
L 43.21875 35.40625 
Q 43.21875 41.609375 39.140625 45 
Q 35.0625 48.390625 27.6875 48.390625 
Q 23 48.390625 18.546875 47.265625 
Q 14.109375 46.140625 10.015625 43.890625 
L 10.015625 52.203125 
Q 14.9375 54.109375 19.578125 55.046875 
Q 24.21875 56 28.609375 56 
Q 40.484375 56 46.34375 49.84375 
Q 52.203125 43.703125 52.203125 31.203125 
z
" id="DejaVuSans-61"/>
     </defs>
     <g style="fill:#262626;" transform="translate(610.6525 313.730213)scale(0.22 -0.22)">
      <use xlink:href="#DejaVuSans-53"/>
      <use x="63.476562" xlink:href="#DejaVuSans-75"/>
      <use x="126.855469" xlink:href="#DejaVuSans-62"/>
      <use x="190.332031" xlink:href="#DejaVuSans-64"/>
      <use x="253.808594" xlink:href="#DejaVuSans-75"/>
      <use x="317.1875" xlink:href="#DejaVuSans-63"/>
      <use x="372.167969" xlink:href="#DejaVuSans-74"/>
      <use x="411.376953" xlink:href="#DejaVuSans-69"/>
      <use x="439.160156" xlink:href="#DejaVuSans-6e"/>
      <use x="502.539062" xlink:href="#DejaVuSans-67"/>
      <use x="566.015625" xlink:href="#DejaVuSans-50"/>
      <use x="626.318359" xlink:href="#DejaVuSans-6c"/>
      <use x="654.101562" xlink:href="#DejaVuSans-61"/>
      <use x="715.380859" xlink:href="#DejaVuSans-74"/>
      <use x="754.589844" xlink:href="#DejaVuSans-65"/>
     </g>
    </g>
   </g>
  </g>
 </g>
 <defs>
  <clipPath id="paeed34f792">
   <rect height="535.5504" width="697.5" x="112.5" y="83.4624"/>
  </clipPath>
 </defs>
</svg>
